<svg width="180" height="135" viewBox="0 0 180 135" fill="none" xmlns="http://www.w3.org/2000/svg">
<g clip-path="url(#clip0_404_1575)">
<path d="M86.1399 3.54003C83.9199 3.60003 81.8999 4.57003 79.7699 5.12003C77.6399 5.67003 75.0299 5.70003 73.5599 4.26003C68.1299 10.93 58.4199 13.87 49.1499 15.41C47.5099 15.68 45.7299 15.99 44.6299 17.07C42.7699 18.91 43.8499 21.91 42.4899 24.06C41.1699 26.16 37.7899 26.99 36.9299 29.26C36.6899 29.91 36.6799 30.62 36.3899 31.25C35.8099 32.53 34.2499 33.24 33.1599 34.24C30.4699 36.7 30.8699 40.66 32.1999 43.85C33.5399 47.04 35.6399 50.08 35.8499 53.46C35.9199 54.55 35.1899 56.03 33.9799 55.72C37.7299 67.48 41.4899 79.24 45.2399 91.01C45.4599 91.71 45.6799 92.45 45.4499 93.14C45.2399 93.77 44.6899 94.25 44.2599 94.79C42.1699 97.36 42.8399 100.94 44.4399 103.76C47.6299 109.38 53.9799 113.3 60.7899 115.44C67.5999 117.58 74.93 118.14 82.16 118.57C86.16 118.8 90.16 119 94.16 119.16C95.81 119.23 97.5599 119.26 98.9899 118.55C100.14 117.98 100.92 117 101.88 116.22C103.48 114.92 105.56 114.18 107.6 113.49C124.28 107.82 142.23 103.22 155.05 92.4C157.56 90.28 159.89 87.86 160.93 84.96C162.43 80.75 161 76.22 161.03 71.81C161.07 65.22 164.39 58.92 164.69 52.34C164.77 50.65 164.62 48.87 163.63 47.41C161.05 43.6 154.73 43.86 149.96 42.27C144.21 40.36 140.54 35.52 137.86 30.73C135.19 25.94 133.01 20.77 128.69 16.97C123.33 12.25 115.53 10.38 108.12 8.71003C101.6 7.24003 92.7899 3.53003 86.1199 3.53003L86.1399 3.54003Z" fill="#F3941B"/>
<path d="M29.9599 18.26C26.3299 19.84 25.1199 23.85 25.2699 27.36C25.2699 27.59 25.2999 27.83 25.4399 28.03C25.6999 28.4 26.2799 28.48 26.7799 28.53C28.7499 28.7 31.0499 28.76 32.3399 27.47C33.0999 26.71 33.2999 25.66 33.4699 24.67C33.8699 22.36 34.2599 20.05 34.6599 17.75C33.4199 17.22 32.0299 16.76 30.6899 17.07C29.3499 17.38 28.2999 18.76 28.9999 19.79" fill="#F3941B"/>
<path d="M52.3199 7.06C52.3199 8.14 53.9999 8.48 55.2499 8.47C57.5799 8.46 60.1299 8.38 61.8699 7.04C61.7499 6.16 60.4499 5.88 59.4199 5.84C56.6499 5.74 53.8599 5.86 51.1199 6.19" fill="#F3941B"/>
<path d="M128.77 111.09C124.5 111.79 120.42 113.32 116.91 115.53C119.46 117.13 122.18 118.54 125.02 119.72C125.61 119.97 126.25 120.21 126.9 120.15C127.49 120.1 128.01 119.8 128.5 119.52C130.71 118.25 132.92 116.97 135.13 115.7C135.86 115.28 136.66 114.77 136.78 114.01C136.9 113.23 136.21 112.5 135.37 112.19C134.53 111.88 133.59 111.9 132.69 111.93C130.3 112 127.91 112.06 125.51 112.13" fill="#F3941B"/>
<path d="M31.31 55.99C37.12 52.88 42.51 49.04 47.93 45.28C71.62 28.84 96.24 13.71 121.61 0C123.15 5.91 122.57 12.35 120.02 17.9C124.49 18 128.99 16.45 132.45 13.62C131.72 15.71 131 17.79 130.27 19.88C131.92 19.94 133.59 19.59 135.07 18.85C134.98 22.64 133.31 26.37 130.53 28.96C136.68 26.28 142.83 23.6 148.99 20.92C147.92 22.54 146.85 24.16 145.77 25.78C149.01 26.29 150.66 30.32 149.87 33.5C149.08 36.68 146.63 39.14 144.28 41.43C148.45 40.38 152.63 39.34 156.8 38.29C153.64 40.61 150.86 43.45 148.6 46.65C152.34 45.81 156.08 44.97 159.82 44.14C152.75 53.38 144.94 62.06 136.48 70.06C144.26 69.36 151.96 67.72 159.35 65.2C155.64 66.93 152.21 69.25 149.21 72.03C160.24 70.51 170.79 65.7 179.19 58.39C167.14 65.03 155.89 73.1 145.73 82.39C150.95 81.21 156.17 80.04 161.4 78.86C128.38 96.42 95.97 115.15 64.27 135C67.82 129.37 71.37 123.74 74.92 118.12C68.74 117.9 62.52 119.26 57 122.05C56.76 123.15 59.03 122.31 58.47 121.33C57.91 120.35 56.47 120.49 55.38 120.77C49.57 122.22 43.76 123.67 37.94 125.12C41.09 123.16 44.24 121.2 47.4 119.24C46.34 120.04 44.77 118.63 44.91 117.31C45.05 115.99 46.15 115.01 47.17 114.16C44.18 115.34 41.18 116.51 38.19 117.69C39.7 115.46 41.81 113.64 44.24 112.46C38.05 115.05 31.86 117.65 25.67 120.24C38.72 112.91 50.01 102.48 58.35 90.05C45.56 91.46 33.11 95.85 22.26 102.76L34 92.48L19.95 98.54C27.23 95.64 21.29 87.83 24.67 84.66C29.67 79.97 43.94 84.15 49.11 80.59C41.73 85.67 33.48 89.5 24.82 91.85C26.61 89.87 28.4 87.89 30.18 85.9C20.89 91.28 10.58 94.88 -0.0300293 96.45C10.58 90.45 32.58 87.04 38.97 75.83C36.36 75.74 33.51 76.43 30.81 77.06C33.07 75.1 35.44 73.26 37.8 71.39C34.57 72.65 31.34 73.9 28.1 75.16C32.16 73.14 35.87 70.41 39 67.12C34.2 68.96 29.39 70.79 24.59 72.63C29.85 68.01 35.12 63.39 40.38 58.78C35.02 61.07 29.66 63.36 24.31 65.65C38.9 50.47 55.51 37.24 73.56 26.42" fill="#9DD8F2"/>
<path d="M37.85 101.31C36.67 101.03 35.53 101.83 34.59 102.59C31.94 104.71 29.29 106.83 26.65 108.96C25.98 109.5 25.25 110.16 25.26 111.02C27.98 111.78 30.87 110.69 33.37 109.38C37.83 107.04 41.86 103.95 45.85 100.88C40.7 99.89 35.54 102.14 30.78 104.34" fill="#9DD8F2"/>
<path d="M18.62 105.3C16.24 106.87 13.85 108.45 11.47 110.02C12.99 110.33 14.48 109.49 15.77 108.63C17.99 107.16 20.11 105.54 22.13 103.8C20.85 103.72 19.54 103.72 18.31 104.11C17.08 104.5 15.95 105.34 15.47 106.53" fill="#9DD8F2"/>
<path d="M58.0399 127.52C55.1899 128.86 52.5599 130.68 50.2899 132.87C55.0899 133.33 60.0699 131.66 63.6099 128.38C63.9899 128.03 64.3799 127.6 64.3699 127.08C64.3599 126.21 63.2899 125.79 62.4199 125.71C59.4099 125.41 56.2999 126.36 53.9599 128.29" fill="#9DD8F2"/>
<path d="M125.98 101.55C117.81 104.25 110 108.06 102.86 112.86C110.84 111.99 118.46 108.18 123.95 102.32C125.56 102.54 127.08 103.33 128.19 104.51C112.39 87.17 96.58 69.82 80.78 52.48" fill="#9DD8F2"/>
<path d="M142.39 11.49C144.68 9.75996 146.73 7.72996 148.49 5.45996C145.53 6.85996 143.04 9.04996 140.58 11.21C139.34 12.3 137.97 13.83 138.51 15.39C139.65 15.84 140.97 15.37 141.95 14.63C142.93 13.89 143.69 12.9 144.62 12.09C145.62 11.21 146.81 10.56 147.77 9.62996C148.73 8.69996 149.46 7.36996 149.17 6.06996C147.9 5.87996 146.6 5.92996 145.35 6.20996" fill="#9DD8F2"/>
<path d="M160.2 26.89C159.44 26.72 158.7 27.2 158.09 27.69C155.8 29.54 153.85 31.82 152.38 34.38C157.08 32.14 161.24 28.79 164.42 24.67C161.24 24.92 158.21 26.74 156.51 29.45" fill="#9DD8F2"/>
<path d="M153.54 59.63C150.99 61.43 148.59 63.45 146.39 65.67C148.12 65.4 149.63 64.41 151.09 63.44C153.15 62.07 155.22 60.69 157.28 59.32C155.24 58.46 152.59 59.62 151.84 61.7" fill="#9DD8F2"/>
<g opacity="0.5">
<path d="M54.61 66.37C51.18 66.37 47.74 66.37 44.31 66.37C43.86 66.37 43.62 66.47 43.43 66.93C42.6 68.96 40.54 70.02 38.39 69.59C36.32 69.18 34.84 67.36 34.84 65.2C34.84 63.12 36.3 61.25 38.26 60.84C40.47 60.37 42.55 61.38 43.41 63.42C43.62 63.92 43.89 64.04 44.4 64.04C51.24 64.02 58.09 64.02 64.93 64.04C65.53 64.04 65.67 63.86 65.67 63.28C65.64 59.87 65.65 56.46 65.67 53.05C65.67 52.51 65.55 52.33 64.97 52.33C62.12 52.36 59.28 52.35 56.43 52.33C55.97 52.33 55.75 52.45 55.55 52.9C54.8 54.59 53.47 55.54 51.6 55.61C49.76 55.68 48.35 54.87 47.49 53.26C46.61 51.6 46.75 49.94 47.87 48.42C49.84 45.73 54.11 46.19 55.49 49.27C55.73 49.81 56.01 49.97 56.58 49.96C59.38 49.93 62.18 49.93 64.98 49.96C65.55 49.96 65.69 49.78 65.68 49.24C65.68 47.85 65.57 46.46 65.75 45.08C66.22 41.3 69.38 38.47 73.21 38.42C74.36 38.4 75.51 38.41 76.67 38.42C77.05 38.42 77.21 38.32 77.21 37.9C77.2 34.91 77.19 31.93 77.21 28.94C77.21 28.46 76.9 28.43 76.61 28.31C73.85 27.07 73.02 23.64 74.92 21.33C76.08 19.92 78 19.35 79.76 19.9C81.43 20.42 82.72 22.02 82.85 23.74C83 25.68 82.08 27.42 80.37 28.18C79.71 28.47 79.56 28.82 79.57 29.49C79.61 32.24 79.6 34.99 79.57 37.74C79.57 38.27 79.71 38.42 80.24 38.41C83.7 38.39 87.15 38.39 90.61 38.41C91.09 38.41 91.26 38.28 91.26 37.78C91.25 30.82 91.24 23.86 91.26 16.9C91.26 16.42 91 16.33 90.67 16.18C88.85 15.38 87.77 13.58 87.94 11.66C88.11 9.73004 89.51 8.12004 91.4 7.67004C93.65 7.13004 95.95 8.42004 96.68 10.61C97.41 12.82 96.39 15.23 94.26 16.13C93.73 16.35 93.58 16.61 93.59 17.16C93.61 23.96 93.61 30.75 93.59 37.55C93.59 38.2 93.72 38.44 94.43 38.43C97.82 38.39 101.2 38.4 104.59 38.43C105.16 38.43 105.3 38.26 105.29 37.71C105.27 34.89 105.26 32.07 105.29 29.24C105.29 28.71 105.14 28.48 104.65 28.26C102.69 27.39 101.65 25.34 102.07 23.28C102.49 21.22 104.28 19.74 106.38 19.7C108.5 19.66 110.32 21.05 110.84 23.1C111.37 25.23 110.3 27.41 108.23 28.31C107.83 28.48 107.66 28.65 107.67 29.11C107.69 31.98 107.7 34.85 107.67 37.72C107.67 38.28 107.83 38.42 108.38 38.43C110.02 38.45 111.68 38.24 113.3 38.63C116.77 39.45 119.14 42.4 119.2 45.96C119.22 47.07 119.23 48.17 119.2 49.28C119.19 49.79 119.31 49.97 119.86 49.97C122.75 49.94 125.65 49.95 128.54 49.97C128.96 49.97 129.14 49.82 129.3 49.44C130.13 47.48 132.01 46.44 134.14 46.72C135.99 46.96 137.64 48.6 137.88 50.44C138.16 52.59 137.12 54.46 135.18 55.3C132.96 56.26 130.33 55.23 129.34 52.95C129.14 52.48 128.91 52.34 128.42 52.34C125.57 52.36 122.73 52.37 119.88 52.34C119.35 52.34 119.2 52.48 119.21 53.01C119.23 56.47 119.23 59.92 119.21 63.38C119.21 63.94 119.41 64.04 119.91 64.03C126.82 64.02 133.74 64.01 140.65 64.04C141.25 64.04 141.33 63.69 141.5 63.32C142.37 61.44 144.39 60.39 146.37 60.77C148.43 61.17 149.94 62.85 150.05 64.85C150.16 67.04 148.92 68.85 146.89 69.48C144.69 70.16 142.33 69.07 141.44 66.9C141.27 66.48 141.06 66.35 140.62 66.35C133.71 66.36 126.79 66.36 119.88 66.35C119.33 66.35 119.21 66.53 119.22 67.04C119.24 70.47 119.24 73.91 119.22 77.34C119.22 77.89 119.36 78.06 119.92 78.05C122.77 78.02 125.61 78.03 128.46 78.05C128.92 78.05 129.14 77.93 129.34 77.48C130.13 75.62 131.88 74.62 133.93 74.78C135.72 74.92 137.27 76.23 137.78 78.03C138.42 80.28 137.21 82.66 135.02 83.46C132.81 84.26 130.34 83.26 129.41 81.12C129.17 80.57 128.89 80.42 128.32 80.43C125.52 80.46 122.72 80.46 119.92 80.43C119.35 80.43 119.21 80.61 119.22 81.15C119.25 82.4 119.29 83.65 119.19 84.89C118.84 89.04 115.64 91.95 111.48 91.98C110.4 91.98 109.32 91.99 108.23 91.98C107.84 91.98 107.69 92.08 107.69 92.49C107.7 95.48 107.71 98.46 107.69 101.45C107.69 101.92 107.99 101.96 108.28 102.09C111.36 103.43 111.96 107.53 109.37 109.66C107.95 110.82 106.33 111.04 104.67 110.3C102.95 109.53 102.04 108.13 102.03 106.23C102.03 104.36 102.9 102.96 104.58 102.19C105.19 101.91 105.32 101.58 105.31 100.98C105.28 98.21 105.28 95.43 105.31 92.65C105.31 92.13 105.19 91.96 104.65 91.97C101.19 91.99 97.74 91.99 94.28 91.97C93.81 91.97 93.62 92.07 93.62 92.58C93.63 99.54 93.63 106.5 93.62 113.46C93.62 113.86 93.77 114.02 94.12 114.17C96.25 115.06 97.33 117.17 96.82 119.39C96.34 121.49 94.43 122.89 92.17 122.8C90.06 122.72 88.33 121.1 88 118.9C87.71 116.99 88.81 115.03 90.67 114.23C91.12 114.04 91.3 113.83 91.3 113.32C91.28 106.45 91.28 99.59 91.3 92.72C91.3 92.13 91.13 91.97 90.55 91.97C87.14 92 83.73 92 80.32 91.97C79.7 91.97 79.59 92.18 79.6 92.74C79.63 95.51 79.63 98.29 79.6 101.07C79.6 101.63 79.73 101.92 80.29 102.16C82.21 103.01 83.23 105.06 82.83 107.09C82.42 109.13 80.66 110.62 78.6 110.69C76.46 110.76 74.64 109.43 74.08 107.37C73.5 105.23 74.58 102.97 76.66 102.09C77.06 101.92 77.24 101.75 77.23 101.29C77.21 98.4 77.21 95.5 77.23 92.61C77.23 92.12 77.09 91.97 76.6 91.97C75.26 91.99 73.91 92.05 72.58 91.91C68.55 91.49 65.75 88.35 65.69 84.3C65.67 83.22 65.67 82.14 65.69 81.05C65.7 80.61 65.6 80.43 65.11 80.43C62.17 80.45 59.23 80.46 56.29 80.43C55.8 80.43 55.73 80.7 55.58 81.03C54.78 82.7 53.47 83.66 51.6 83.72C49.67 83.78 48.23 82.9 47.4 81.17C46.62 79.53 46.81 77.9 47.93 76.46C49.99 73.8 54.17 74.35 55.55 77.45C55.75 77.91 55.97 78.07 56.46 78.06C59.31 78.04 62.15 78.04 65 78.06C65.51 78.06 65.69 77.95 65.68 77.4C65.66 73.94 65.66 70.49 65.68 67.03C65.68 66.49 65.51 66.36 64.99 66.36C61.53 66.38 58.08 66.37 54.62 66.37H54.61ZM68.02 65.2C68.02 71.5 68.01 77.8 68.02 84.1C68.02 87.34 70.26 89.59 73.46 89.6C86.09 89.61 98.71 89.6 111.34 89.6C114.6 89.6 116.83 87.35 116.84 84.09C116.84 71.49 116.84 58.88 116.84 46.28C116.84 43.03 114.59 40.78 111.33 40.78C98.73 40.78 86.12 40.78 73.52 40.78C72.93 40.78 72.35 40.84 71.78 41.02C69.48 41.72 68.03 43.7 68.02 46.23C68.01 52.55 68.02 58.88 68.02 65.2ZM41.38 65.24C41.4 64.09 40.46 63.11 39.31 63.1C38.19 63.1 37.25 64.02 37.23 65.15C37.21 66.31 38.14 67.28 39.29 67.29C40.41 67.29 41.35 66.37 41.37 65.24H41.38ZM92.44 14.14C93.58 14.13 94.51 13.21 94.52 12.09C94.53 10.95 93.57 9.99004 92.41 10C91.26 10 90.3 10.99 90.33 12.12C90.36 13.25 91.31 14.15 92.44 14.14ZM147.62 65.26C147.65 64.09 146.72 63.11 145.58 63.1C144.45 63.1 143.5 64.01 143.48 65.13C143.45 66.3 144.37 67.27 145.52 67.29C146.63 67.31 147.59 66.38 147.62 65.26ZM92.36 120.4C93.52 120.43 94.5 119.5 94.51 118.35C94.52 117.24 93.59 116.27 92.48 116.25C91.33 116.22 90.35 117.15 90.33 118.31C90.31 119.42 91.24 120.38 92.37 120.41L92.36 120.4ZM76.3 24.18C76.3 25.36 77.22 26.28 78.39 26.27C79.53 26.27 80.44 25.36 80.45 24.22C80.46 23.05 79.52 22.12 78.36 22.13C77.22 22.13 76.31 23.04 76.31 24.19L76.3 24.18ZM106.52 22.13C105.35 22.11 104.4 23.02 104.39 24.19C104.38 25.33 105.27 26.24 106.42 26.28C107.58 26.32 108.54 25.39 108.55 24.23C108.55 23.08 107.67 22.16 106.53 22.14L106.52 22.13ZM51.41 49.08C50.26 49.08 49.35 49.98 49.34 51.12C49.33 52.29 50.25 53.23 51.42 53.23C52.57 53.23 53.48 52.32 53.49 51.19C53.49 50.01 52.59 49.08 51.41 49.08ZM51.37 81.32C52.52 81.34 53.46 80.46 53.49 79.33C53.52 78.15 52.62 77.19 51.46 77.17C50.29 77.15 49.35 78.07 49.34 79.24C49.34 80.38 50.23 81.3 51.37 81.32ZM106.47 108.27C107.62 108.27 108.53 107.37 108.54 106.23C108.55 105.05 107.63 104.12 106.46 104.13C105.32 104.13 104.4 105.04 104.39 106.17C104.38 107.35 105.29 108.27 106.47 108.27ZM133.42 49.08C132.25 49.08 131.33 50.02 131.34 51.19C131.36 52.32 132.28 53.23 133.42 53.23C134.57 53.23 135.48 52.34 135.49 51.19C135.51 50.02 134.59 49.08 133.42 49.08ZM133.42 77.17C132.25 77.17 131.33 78.1 131.34 79.27C131.35 80.4 132.27 81.3 133.41 81.31C134.55 81.31 135.47 80.42 135.48 79.27C135.5 78.09 134.58 77.16 133.41 77.16L133.42 77.17ZM78.27 108.27C79.42 108.32 80.38 107.47 80.44 106.34C80.51 105.17 79.62 104.17 78.47 104.13C77.33 104.08 76.36 104.95 76.3 106.07C76.24 107.25 77.11 108.23 78.27 108.28V108.27Z" fill="#0E4A7A"/>
<path d="M97.69 77.83C96.5767 77.83 95.84 77.2934 95.48 76.22C94.83 74.31 94.17 72.4001 93.54 70.4801C93.39 70.0401 93.2 69.86 92.7 69.86C90.14 69.89 87.57 69.89 85.01 69.86C84.51 69.86 84.33 70.0201 84.19 70.4801C83.49 72.6901 82.71 74.89 82.02 77.1C81.84 77.68 81.57 77.88 80.99 77.83C80.41 77.7801 79.82 77.83 79.23 77.82C78.38 77.82 78.38 77.82 78.64 77.04C80.67 71.06 82.7 65.09 84.73 59.11C85.42 57.09 86.11 55.07 86.79 53.04C86.91 52.67 87.07 52.52 87.48 52.54C88.4 52.58 89.32 52.59 90.23 52.54C90.78 52.51 90.99 52.73 91.16 53.22C93.6 60.42 96.06 67.62 98.51 74.82C98.81 75.69 99.08 76.56 99.4 77.42C99.53 77.76 99.43 77.84 99.11 77.83C98.64 77.82 98.17 77.83 97.7 77.83H97.69ZM88.8 55.64C88.39 57.06 88.02 58.49 87.57 59.89C86.83 62.19 86.03 64.4701 85.25 66.7601C85.16 67.0301 84.96 67.3301 85.54 67.3301C87.75 67.3101 89.96 67.3201 92.17 67.3301C92.52 67.3301 92.61 67.26 92.49 66.89C91.28 63.17 89.83 59.5201 88.8 55.65V55.64Z" fill="#0E4A7A"/>
<path d="M103.21 65.2C103.21 61.23 103.22 57.26 103.2 53.29C103.2 52.69 103.37 52.51 103.95 52.55C104.58 52.6 105.22 52.6 105.85 52.55C106.4 52.51 106.51 52.73 106.51 53.24C106.49 58.95 106.5 64.66 106.5 70.37C106.5 72.63 106.48 74.88 106.51 77.14C106.51 77.71 106.34 77.88 105.8 77.85C105.17 77.81 104.53 77.8 103.9 77.85C103.32 77.9 103.2 77.66 103.2 77.12C103.22 73.15 103.21 69.18 103.21 65.21V65.2Z" fill="#0E4A7A"/>
</g>
<path d="M56.7001 64.2601C53.2701 64.2601 49.8301 64.2601 46.4001 64.2601C45.9501 64.2601 45.7101 64.3601 45.5201 64.8201C44.6901 66.8501 42.6301 67.9101 40.4801 67.4801C38.4101 67.0701 36.9301 65.2501 36.9301 63.0901C36.9301 61.0101 38.3901 59.1401 40.3501 58.7301C42.5601 58.2601 44.6401 59.2701 45.5001 61.3101C45.7101 61.8101 45.9801 61.9301 46.4901 61.9301C53.3301 61.9101 60.18 61.9101 67.0201 61.9301C67.6201 61.9301 67.7601 61.7501 67.7601 61.1701C67.7301 57.7601 67.7401 54.3501 67.7601 50.9401C67.7601 50.4001 67.6401 50.2201 67.0601 50.2201C64.2101 50.2501 61.3701 50.2401 58.5201 50.2201C58.0601 50.2201 57.8401 50.3401 57.6401 50.7901C56.8901 52.4801 55.5601 53.4301 53.6901 53.5001C51.8501 53.5701 50.4401 52.7601 49.5801 51.1501C48.7001 49.4901 48.8401 47.8301 49.9601 46.3101C51.9301 43.6201 56.2001 44.0801 57.5801 47.1601C57.8201 47.7001 58.1001 47.8601 58.6701 47.8501C61.4701 47.8201 64.2701 47.8201 67.0701 47.8501C67.6401 47.8501 67.7801 47.6701 67.7701 47.1301C67.7701 45.7401 67.66 44.3501 67.84 42.9701C68.31 39.1901 71.4701 36.3601 75.3001 36.3101C76.4501 36.2901 77.6001 36.3001 78.7601 36.3101C79.1401 36.3101 79.3001 36.2101 79.3001 35.7901C79.2901 32.8001 79.2801 29.8201 79.3001 26.8301C79.3001 26.3501 78.9901 26.3201 78.7001 26.2001C75.9401 24.9601 75.1101 21.5301 77.0101 19.2201C78.1701 17.8101 80.0901 17.2401 81.8501 17.7901C83.5201 18.3101 84.8101 19.9101 84.9401 21.6301C85.0901 23.5701 84.1701 25.3101 82.4601 26.0701C81.8001 26.3601 81.6501 26.7101 81.6601 27.3801C81.7001 30.1301 81.6901 32.8801 81.6601 35.6301C81.6601 36.1601 81.8001 36.3101 82.3301 36.3001C85.7901 36.2801 89.2401 36.2801 92.7001 36.3001C93.18 36.3001 93.3501 36.1701 93.3501 35.6701C93.3401 28.7101 93.3301 21.7501 93.3501 14.7901C93.3501 14.3101 93.0901 14.2201 92.7601 14.0701C90.9401 13.2701 89.8601 11.4701 90.0301 9.55006C90.2001 7.62006 91.6001 6.01005 93.4901 5.56005C95.7401 5.02005 98.0401 6.31005 98.7701 8.50005C99.5 10.7101 98.4801 13.1201 96.3501 14.0201C95.8201 14.2401 95.6701 14.5001 95.6801 15.0501C95.7001 21.8501 95.7001 28.6401 95.6801 35.4401C95.6801 36.0901 95.8101 36.3301 96.5201 36.3201C99.91 36.2801 103.29 36.2901 106.68 36.3201C107.25 36.3201 107.39 36.1501 107.38 35.6001C107.36 32.7801 107.35 29.9601 107.38 27.1301C107.38 26.6001 107.23 26.3701 106.74 26.1501C104.78 25.2801 103.74 23.2301 104.16 21.1701C104.58 19.1101 106.37 17.6301 108.47 17.5901C110.59 17.5501 112.41 18.9401 112.93 20.9901C113.46 23.1201 112.39 25.3001 110.32 26.2001C109.92 26.3701 109.75 26.5401 109.76 27.0001C109.78 29.8701 109.79 32.7401 109.76 35.6101C109.76 36.1701 109.92 36.3101 110.47 36.3201C112.11 36.3401 113.77 36.1301 115.39 36.5201C118.86 37.3401 121.23 40.2901 121.29 43.8501C121.31 44.9601 121.32 46.0601 121.29 47.1701C121.28 47.68 121.4 47.8601 121.95 47.8601C124.84 47.8301 127.74 47.8401 130.63 47.8601C131.05 47.8601 131.23 47.7101 131.39 47.3301C132.22 45.3701 134.1 44.3301 136.23 44.6101C138.08 44.8501 139.73 46.4901 139.97 48.3301C140.25 50.4801 139.21 52.3501 137.27 53.1901C135.05 54.1501 132.42 53.1201 131.43 50.8401C131.23 50.3701 131 50.2301 130.51 50.2301C127.66 50.2501 124.82 50.2601 121.97 50.2301C121.44 50.2301 121.29 50.3701 121.3 50.9001C121.32 54.3601 121.32 57.8101 121.3 61.2701C121.3 61.8301 121.5 61.93 122 61.9201C128.91 61.9101 135.83 61.9001 142.74 61.9301C143.34 61.9301 143.42 61.5801 143.59 61.2101C144.46 59.3301 146.48 58.2801 148.46 58.6601C150.52 59.0601 152.03 60.7401 152.14 62.7401C152.25 64.9301 151.01 66.7401 148.98 67.3701C146.78 68.0501 144.42 66.9601 143.53 64.7901C143.36 64.3701 143.15 64.2401 142.71 64.2401C135.8 64.25 128.88 64.25 121.97 64.2401C121.42 64.2401 121.3 64.4201 121.31 64.9301C121.33 68.3601 121.33 71.8001 121.31 75.2301C121.31 75.7801 121.45 75.9501 122.01 75.9401C124.86 75.9101 127.7 75.9201 130.55 75.9401C131.01 75.9401 131.23 75.8201 131.43 75.3701C132.22 73.5101 133.97 72.51 136.02 72.6701C137.81 72.8101 139.36 74.12 139.87 75.9201C140.51 78.1701 139.3 80.55 137.11 81.3501C134.9 82.1501 132.43 81.1501 131.5 79.0101C131.26 78.4601 130.98 78.3101 130.41 78.3201C127.61 78.3501 124.81 78.3501 122.01 78.3201C121.44 78.3201 121.3 78.5001 121.31 79.0401C121.34 80.2901 121.38 81.5401 121.28 82.7801C120.93 86.9301 117.73 89.8401 113.57 89.8701C112.49 89.8701 111.41 89.8801 110.32 89.8701C109.93 89.8701 109.78 89.97 109.78 90.3801C109.79 93.37 109.8 96.3501 109.78 99.34C109.78 99.8101 110.08 99.8501 110.37 99.9801C113.45 101.32 114.05 105.42 111.46 107.55C110.04 108.71 108.42 108.93 106.76 108.19C105.04 107.42 104.13 106.02 104.12 104.12C104.12 102.25 104.99 100.85 106.67 100.08C107.28 99.8001 107.41 99.4701 107.4 98.8701C107.37 96.1001 107.37 93.3201 107.4 90.5401C107.4 90.0201 107.28 89.8501 106.74 89.8601C103.28 89.8801 99.8301 89.8801 96.3701 89.8601C95.9001 89.8601 95.7101 89.9601 95.7101 90.4701C95.7201 97.4301 95.7201 104.39 95.7101 111.35C95.7101 111.75 95.8601 111.91 96.2101 112.06C98.3401 112.95 99.4201 115.06 98.9101 117.28C98.4301 119.38 96.5201 120.78 94.2601 120.69C92.1501 120.61 90.4201 118.99 90.09 116.79C89.8 114.88 90.9001 112.92 92.7601 112.12C93.2101 111.93 93.3901 111.72 93.3901 111.21C93.3701 104.34 93.3701 97.4801 93.3901 90.6101C93.3901 90.0201 93.2201 89.8601 92.6401 89.8601C89.2301 89.8901 85.8201 89.8901 82.4101 89.8601C81.7901 89.8601 81.6801 90.0701 81.6901 90.6301C81.7201 93.4 81.7201 96.1801 81.6901 98.9601C81.6901 99.5201 81.82 99.8101 82.3801 100.05C84.3 100.9 85.3201 102.95 84.9201 104.98C84.5101 107.02 82.7501 108.51 80.6901 108.58C78.5501 108.65 76.7301 107.32 76.1701 105.26C75.59 103.12 76.6701 100.86 78.7501 99.9801C79.1501 99.8101 79.3301 99.6401 79.3201 99.1801C79.3001 96.2901 79.3001 93.3901 79.3201 90.5001C79.3201 90.0101 79.1801 89.8601 78.6901 89.8601C77.3501 89.8801 76.0001 89.9401 74.6701 89.8001C70.6401 89.3801 67.8401 86.2401 67.7801 82.1901C67.7601 81.1101 67.7601 80.0301 67.7801 78.9401C67.7901 78.5001 67.6901 78.3201 67.2001 78.3201C64.26 78.34 61.3201 78.3501 58.3801 78.3201C57.8901 78.3201 57.8201 78.59 57.6701 78.9201C56.8701 80.59 55.5601 81.5501 53.6901 81.6101C51.7601 81.6701 50.3201 80.7901 49.4901 79.0601C48.7101 77.4201 48.9001 75.7901 50.0201 74.3501C52.0801 71.69 56.2601 72.2401 57.6401 75.34C57.8401 75.8 58.0601 75.9601 58.5501 75.9501C61.4001 75.9301 64.24 75.9301 67.09 75.9501C67.6 75.9501 67.7801 75.8401 67.7701 75.2901C67.75 71.8301 67.75 68.3801 67.7701 64.9201C67.7701 64.3801 67.6001 64.2501 67.0801 64.2501C63.6201 64.2701 60.1701 64.2601 56.7101 64.2601H56.7001ZM70.1101 63.0901C70.1101 69.3901 70.1001 75.69 70.1101 81.9901C70.1101 85.23 72.3501 87.48 75.5501 87.4901C88.1801 87.5001 100.8 87.4901 113.43 87.4901C116.69 87.4901 118.92 85.2401 118.93 81.9801C118.93 69.3801 118.93 56.7701 118.93 44.1701C118.93 40.9201 116.68 38.6701 113.42 38.6701C100.82 38.6701 88.2101 38.6701 75.6101 38.6701C75.0201 38.6701 74.4401 38.7301 73.8701 38.9101C71.5701 39.6101 70.1201 41.5901 70.1101 44.1201C70.1001 50.4401 70.1101 56.7701 70.1101 63.0901ZM43.4701 63.1301C43.4901 61.9801 42.5501 61.0001 41.4001 60.9901C40.2801 60.9901 39.3401 61.9101 39.3201 63.0401C39.3001 64.2001 40.2301 65.1701 41.3801 65.1801C42.5001 65.1801 43.4401 64.2601 43.4601 63.1301H43.4701ZM94.5401 12.0301C95.6801 12.0201 96.6101 11.1001 96.6201 9.98005C96.6301 8.84005 95.6701 7.88005 94.5101 7.89005C93.3601 7.89005 92.4001 8.88005 92.4301 10.0101C92.4601 11.1401 93.4101 12.0401 94.5401 12.0301ZM149.72 63.1501C149.75 61.9801 148.82 61.0001 147.68 60.9901C146.55 60.9901 145.6 61.9001 145.58 63.0201C145.55 64.1901 146.47 65.1601 147.62 65.1801C148.73 65.2001 149.69 64.2701 149.72 63.1501ZM94.4601 118.29C95.6201 118.32 96.6001 117.39 96.6101 116.24C96.6201 115.13 95.6901 114.16 94.5801 114.14C93.4301 114.11 92.4501 115.04 92.4301 116.2C92.4101 117.31 93.3401 118.27 94.4701 118.3L94.4601 118.29ZM78.4001 22.0701C78.4001 23.2501 79.3201 24.1701 80.4901 24.1601C81.6301 24.1601 82.5401 23.2501 82.5501 22.1101C82.5601 20.9401 81.6201 20.0101 80.4601 20.0201C79.3201 20.0201 78.4101 20.9301 78.4101 22.0801L78.4001 22.0701ZM108.62 20.0201C107.45 20.0001 106.5 20.9101 106.49 22.0801C106.48 23.2201 107.37 24.1301 108.52 24.1701C109.68 24.2101 110.64 23.2801 110.65 22.1201C110.65 20.9701 109.77 20.0501 108.63 20.0301L108.62 20.0201ZM53.5101 46.9701C52.3601 46.9701 51.4501 47.8701 51.4401 49.0101C51.4301 50.18 52.3501 51.1201 53.5201 51.1201C54.6701 51.1201 55.5801 50.2101 55.5901 49.0801C55.5901 47.9001 54.6901 46.9701 53.5101 46.9701ZM53.4701 79.2101C54.6201 79.23 55.5601 78.3501 55.5901 77.2201C55.6201 76.0401 54.7201 75.08 53.5601 75.0601C52.3901 75.0401 51.4501 75.9601 51.4401 77.1301C51.4401 78.2701 52.3301 79.1901 53.4701 79.2101ZM108.57 106.16C109.72 106.16 110.63 105.26 110.64 104.12C110.65 102.94 109.73 102.01 108.56 102.02C107.42 102.02 106.5 102.93 106.49 104.06C106.48 105.24 107.39 106.16 108.57 106.16ZM135.52 46.9701C134.35 46.9701 133.43 47.9101 133.44 49.0801C133.46 50.2101 134.38 51.1201 135.52 51.1201C136.67 51.1201 137.58 50.2301 137.59 49.0801C137.61 47.9101 136.69 46.9701 135.52 46.9701ZM135.52 75.0601C134.35 75.0601 133.43 75.9901 133.44 77.1601C133.45 78.2901 134.37 79.19 135.51 79.2001C136.65 79.2001 137.57 78.3101 137.58 77.1601C137.6 75.9801 136.68 75.0501 135.51 75.0501L135.52 75.0601ZM80.3701 106.16C81.5201 106.21 82.4801 105.36 82.5401 104.23C82.6101 103.06 81.7201 102.06 80.5701 102.02C79.4301 101.97 78.4601 102.84 78.4001 103.96C78.3401 105.14 79.2101 106.12 80.3701 106.17V106.16Z" fill="black"/>
<path d="M99.7801 75.7201C98.6667 75.7201 97.9301 75.1834 97.5701 74.1101C96.9201 72.2001 96.2601 70.2901 95.6301 68.3701C95.4801 67.9301 95.2901 67.7501 94.7901 67.7501C92.2301 67.7801 89.6601 67.7801 87.1001 67.7501C86.6001 67.7501 86.4201 67.9101 86.2801 68.3701C85.5801 70.5801 84.8001 72.7801 84.1101 74.9901C83.9301 75.5701 83.6601 75.7701 83.0801 75.7201C82.5001 75.6701 81.9101 75.7201 81.3201 75.7101C80.4701 75.7101 80.4701 75.7101 80.7301 74.9301C82.7601 68.9501 84.7901 62.9801 86.8201 57.0001C87.5101 54.9801 88.2001 52.9601 88.8801 50.9301C89.0001 50.5601 89.1601 50.4101 89.5701 50.4301C90.4901 50.4701 91.4101 50.4801 92.3201 50.4301C92.8701 50.4001 93.0801 50.6201 93.2501 51.1101C95.6901 58.3101 98.1501 65.5101 100.6 72.7101C100.9 73.5801 101.17 74.4501 101.49 75.3101C101.62 75.6501 101.52 75.7301 101.2 75.7201C100.73 75.7101 100.26 75.7201 99.7901 75.7201H99.7801ZM90.8901 53.5301C90.4801 54.9501 90.1101 56.3801 89.6601 57.7801C88.9201 60.0801 88.1201 62.3601 87.3401 64.6501C87.2501 64.9201 87.0501 65.2201 87.6301 65.2201C89.8401 65.2001 92.0501 65.2101 94.2601 65.2201C94.6101 65.2201 94.7001 65.1501 94.5801 64.7801C93.3701 61.0601 91.9201 57.4101 90.8901 53.5401V53.5301Z" fill="black"/>
<path d="M105.3 63.1C105.3 59.13 105.31 55.16 105.29 51.19C105.29 50.59 105.46 50.41 106.04 50.45C106.67 50.5 107.31 50.5 107.94 50.45C108.49 50.41 108.6 50.63 108.6 51.14C108.58 56.85 108.59 62.56 108.59 68.27C108.59 70.53 108.57 72.78 108.6 75.04C108.6 75.61 108.43 75.78 107.89 75.75C107.26 75.71 106.62 75.7 105.99 75.75C105.41 75.8 105.29 75.56 105.29 75.02C105.31 71.05 105.3 67.08 105.3 63.11V63.1Z" fill="black"/>
</g>
<defs>
<clipPath id="clip0_404_1575">
<rect width="179.21" height="134.99" fill="white"/>
</clipPath>
</defs>
</svg>
