<svg width="180" height="135" viewBox="0 0 180 135" fill="none" xmlns="http://www.w3.org/2000/svg">
<g clip-path="url(#clip0_404_1292)">
<path d="M86.14 3.54003C83.92 3.60003 81.9 4.57003 79.77 5.12003C77.64 5.67003 75.03 5.70003 73.56 4.26003C68.13 10.93 58.42 13.87 49.15 15.41C47.51 15.68 45.73 15.99 44.63 17.07C42.77 18.91 43.85 21.91 42.49 24.06C41.17 26.16 37.79 26.99 36.93 29.26C36.69 29.91 36.68 30.62 36.39 31.25C35.81 32.53 34.25 33.24 33.16 34.24C30.47 36.7 30.87 40.66 32.2 43.85C33.54 47.04 35.64 50.08 35.85 53.46C35.92 54.55 35.19 56.03 33.98 55.72C37.73 67.48 41.49 79.24 45.24 91.01C45.46 91.71 45.68 92.45 45.45 93.14C45.24 93.77 44.69 94.25 44.26 94.79C42.17 97.36 42.84 100.94 44.44 103.76C47.63 109.38 53.98 113.3 60.79 115.44C67.6 117.58 74.93 118.14 82.16 118.57C86.16 118.8 90.16 119 94.16 119.16C95.81 119.23 97.56 119.26 98.99 118.55C100.14 117.98 100.92 117 101.88 116.22C103.48 114.92 105.56 114.18 107.6 113.49C124.28 107.82 142.23 103.22 155.05 92.4C157.56 90.28 159.89 87.86 160.93 84.96C162.43 80.75 161 76.22 161.03 71.81C161.07 65.22 164.39 58.92 164.69 52.34C164.77 50.65 164.62 48.87 163.63 47.41C161.05 43.6 154.73 43.86 149.96 42.27C144.21 40.36 140.54 35.52 137.86 30.73C135.19 25.94 133.01 20.77 128.69 16.97C123.33 12.25 115.53 10.38 108.12 8.71003C101.6 7.24003 92.79 3.53003 86.12 3.53003L86.14 3.54003Z" fill="#F3941B"/>
<path d="M29.96 18.26C26.33 19.84 25.12 23.85 25.27 27.36C25.27 27.59 25.3 27.83 25.44 28.03C25.7 28.4 26.28 28.48 26.78 28.53C28.75 28.7 31.05 28.76 32.34 27.47C33.1 26.71 33.3 25.66 33.47 24.67C33.87 22.36 34.26 20.05 34.66 17.75C33.42 17.22 32.03 16.76 30.69 17.07C29.35 17.38 28.3 18.76 29 19.79" fill="#F3941B"/>
<path d="M52.32 7.06C52.32 8.14 54 8.48 55.25 8.47C57.58 8.46 60.13 8.38 61.87 7.04C61.75 6.16 60.45 5.88 59.42 5.84C56.65 5.74 53.86 5.86 51.12 6.19" fill="#F3941B"/>
<path d="M128.77 111.09C124.5 111.79 120.42 113.32 116.91 115.53C119.46 117.13 122.18 118.54 125.02 119.72C125.61 119.97 126.25 120.21 126.9 120.15C127.49 120.1 128.01 119.8 128.5 119.52C130.71 118.25 132.92 116.97 135.13 115.7C135.86 115.28 136.66 114.77 136.78 114.01C136.9 113.23 136.21 112.5 135.37 112.19C134.53 111.88 133.59 111.9 132.69 111.93C130.3 112 127.91 112.06 125.51 112.13" fill="#F3941B"/>
<path d="M31.31 55.99C37.12 52.88 42.51 49.04 47.93 45.28C71.62 28.84 96.24 13.71 121.61 0C123.15 5.91 122.57 12.35 120.02 17.9C124.49 18 128.99 16.45 132.45 13.62C131.72 15.71 131 17.79 130.27 19.88C131.92 19.94 133.59 19.59 135.07 18.85C134.98 22.64 133.31 26.37 130.53 28.96C136.68 26.28 142.83 23.6 148.99 20.92C147.92 22.54 146.85 24.16 145.77 25.78C149.01 26.29 150.66 30.32 149.87 33.5C149.08 36.68 146.63 39.14 144.28 41.43C148.45 40.38 152.63 39.34 156.8 38.29C153.64 40.61 150.86 43.45 148.6 46.65C152.34 45.81 156.08 44.97 159.82 44.14C152.75 53.38 144.94 62.06 136.48 70.06C144.26 69.36 151.96 67.72 159.35 65.2C155.64 66.93 152.21 69.25 149.21 72.03C160.24 70.51 170.79 65.7 179.19 58.39C167.14 65.03 155.89 73.1 145.73 82.39C150.95 81.21 156.17 80.04 161.4 78.86C128.38 96.42 95.97 115.15 64.27 135C67.82 129.37 71.37 123.74 74.92 118.12C68.74 117.9 62.52 119.26 57 122.05C56.76 123.15 59.03 122.31 58.47 121.33C57.91 120.35 56.47 120.49 55.38 120.77C49.57 122.22 43.76 123.67 37.94 125.12C41.09 123.16 44.24 121.2 47.4 119.24C46.34 120.04 44.77 118.63 44.91 117.31C45.05 115.99 46.15 115.01 47.17 114.16C44.18 115.34 41.18 116.51 38.19 117.69C39.7 115.46 41.81 113.64 44.24 112.46C38.05 115.05 31.86 117.65 25.67 120.24C38.72 112.91 50.01 102.48 58.35 90.05C45.56 91.46 33.11 95.85 22.26 102.76L34 92.48C29.32 94.5 24.63 96.52 19.95 98.54C27.23 95.64 21.29 87.83 24.67 84.66C29.67 79.97 43.94 84.15 49.11 80.59C41.73 85.67 33.48 89.5 24.82 91.85C26.61 89.87 28.4 87.89 30.18 85.9C20.89 91.28 10.58 94.88 -0.0300293 96.45C10.58 90.45 32.58 87.04 38.97 75.83C36.36 75.74 33.51 76.43 30.81 77.06C33.07 75.1 35.44 73.26 37.8 71.39L28.1 75.16C32.16 73.14 35.87 70.41 39 67.12C34.2 68.96 29.39 70.79 24.59 72.63C29.85 68.01 35.12 63.39 40.38 58.78L24.31 65.65C38.9 50.47 55.51 37.24 73.56 26.42" fill="#9DD8F2"/>
<path d="M37.85 101.31C36.67 101.03 35.53 101.83 34.59 102.59C31.94 104.71 29.29 106.83 26.65 108.96C25.98 109.5 25.25 110.16 25.26 111.02C27.98 111.78 30.87 110.69 33.37 109.38C37.83 107.04 41.86 103.95 45.85 100.88C40.7 99.89 35.54 102.14 30.78 104.34" fill="#9DD8F2"/>
<path d="M18.62 105.3L11.47 110.02C12.99 110.33 14.48 109.49 15.77 108.63C17.99 107.16 20.11 105.54 22.13 103.8C20.85 103.72 19.54 103.72 18.31 104.11C17.08 104.5 15.95 105.34 15.47 106.53" fill="#9DD8F2"/>
<path d="M58.04 127.52C55.19 128.86 52.56 130.68 50.29 132.87C55.09 133.33 60.07 131.66 63.61 128.38C63.99 128.03 64.38 127.6 64.37 127.08C64.36 126.21 63.29 125.79 62.42 125.71C59.41 125.41 56.3 126.36 53.96 128.29" fill="#9DD8F2"/>
<path d="M125.98 101.55C117.81 104.25 110 108.06 102.86 112.86C110.84 111.99 118.46 108.18 123.95 102.32C125.56 102.54 127.08 103.33 128.19 104.51C112.39 87.17 96.58 69.82 80.78 52.48" fill="#9DD8F2"/>
<path d="M142.39 11.49C144.68 9.75996 146.73 7.72996 148.49 5.45996C145.53 6.85996 143.04 9.04996 140.58 11.21C139.34 12.3 137.97 13.83 138.51 15.39C139.65 15.84 140.97 15.37 141.95 14.63C142.93 13.89 143.69 12.9 144.62 12.09C145.62 11.21 146.81 10.56 147.77 9.62996C148.73 8.69996 149.46 7.36996 149.17 6.06996C147.9 5.87996 146.6 5.92996 145.35 6.20996" fill="#9DD8F2"/>
<path d="M160.2 26.89C159.44 26.72 158.7 27.2 158.09 27.69C155.8 29.54 153.85 31.82 152.38 34.38C157.08 32.14 161.24 28.79 164.42 24.67C161.24 24.92 158.21 26.74 156.51 29.45" fill="#9DD8F2"/>
<path d="M153.54 59.63C150.99 61.43 148.59 63.45 146.39 65.67C148.12 65.4 149.63 64.41 151.09 63.44C153.15 62.07 155.22 60.69 157.28 59.32C155.24 58.46 152.59 59.62 151.84 61.7" fill="#9DD8F2"/>
<g opacity="0.2">
<path d="M120.67 67.7201C120.28 67.7201 119.88 67.7201 119.49 67.7201C117.51 67.7201 116.56 66.1201 117.55 64.4001C120.41 59.4201 123.29 54.4501 126.16 49.4801C127.35 47.4201 128.53 45.3501 129.73 43.3001C130.68 41.6701 132.55 41.6601 133.49 43.2801C137.56 50.3301 141.63 57.3901 145.7 64.4501C146.64 66.0801 145.7 67.7001 143.81 67.7301C143.07 67.7401 142.32 67.7701 141.58 67.7301C141.06 67.7001 140.91 67.8901 140.89 68.3901C140.75 71.5901 140.25 74.7301 139.45 77.8301C134.74 96.0901 119.76 110.03 101.22 113.27C88.85 115.43 77.31 113.11 66.65 106.44C65.19 105.53 65.05 104.11 66.26 102.89C69.59 99.5501 72.92 96.2101 76.25 92.8701C77.01 92.1101 77.86 91.9801 78.88 92.5001C81.78 93.9801 84.83 95.0501 88.06 95.4601C100.17 97.0001 109.92 92.8301 117.22 83.0701C120.36 78.8701 122.05 74.0501 122.62 68.8401C122.64 68.6701 122.63 68.4901 122.66 68.3201C122.74 67.9101 122.62 67.7201 122.16 67.7501C121.66 67.7801 121.16 67.7501 120.65 67.7501L120.67 67.7201ZM131.62 48.2801C131.3 48.8201 131.06 49.2301 130.82 49.6401C128.24 54.1001 125.67 58.5701 123.09 63.0301C122.84 63.4601 122.83 63.6401 123.4 63.6001C123.83 63.5701 124.27 63.6001 124.71 63.6001C126.08 63.6201 126.93 64.4401 126.9 65.8201C126.72 76.2901 122.81 85.1501 114.75 91.7901C103.93 100.7 91.81 102.25 78.83 97.0101C78.38 96.8301 78.12 96.8401 77.77 97.2001C75.61 99.4001 73.43 101.57 71.24 103.73C70.85 104.11 70.98 104.25 71.38 104.46C80.14 109.2 89.47 110.91 99.3 109.41C116.11 106.85 129.82 94.9901 134.9 78.7601C136.2 74.6001 136.84 70.3401 136.87 65.9801C136.87 64.4001 137.67 63.6101 139.25 63.6101C139.42 63.6101 139.6 63.6101 139.77 63.6101C140.28 63.6501 140.44 63.5701 140.13 63.0301C138.26 59.8301 136.41 56.6001 134.56 53.3901C133.6 51.7301 132.64 50.0601 131.62 48.2901V48.2801Z" fill="#0E4A7A"/>
<path d="M64.64 63.59C65.1 63.59 65.56 63.59 66.02 63.59C67.81 63.62 68.73 65.24 67.84 66.82C66.73 68.78 65.6 70.72 64.47 72.67C61.52 77.78 58.57 82.88 55.64 87.99C55.2 88.76 54.59 89.23 53.7 89.22C52.84 89.22 52.25 88.74 51.82 88C47.77 80.96 43.71 73.93 39.65 66.89C38.7 65.24 39.64 63.6 41.55 63.59C42.27 63.59 42.99 63.54 43.71 63.6C44.32 63.65 44.42 63.39 44.45 62.86C44.66 58.6 45.48 54.46 46.8 50.41C52.46 33.11 67.9 20.21 85.89 17.77C97.64 16.18 108.54 18.57 118.6 24.83C120.16 25.8 120.29 27.2 118.98 28.51C115.68 31.82 112.38 35.13 109.09 38.44C108.32 39.21 107.46 39.33 106.4 38.81C98.19 34.78 89.74 34.2 81.32 37.77C70.47 42.38 64.3 50.75 62.72 62.46C62.54 63.83 62.51 63.54 63.73 63.57C64.04 63.57 64.34 63.57 64.65 63.57L64.64 63.59ZM62.57 67.72C61.8 67.72 61.17 67.74 60.54 67.72C59.24 67.68 58.43 66.84 58.43 65.54C58.44 61.46 59.14 57.5 60.58 53.68C67.56 35.15 88.42 26.37 106.53 34.33C106.99 34.53 107.25 34.47 107.59 34.12C109.69 31.99 111.81 29.88 113.92 27.76C114.51 27.17 114.51 27.17 113.77 26.77C105.24 22.2 96.18 20.52 86.61 21.85C76.35 23.27 67.63 27.79 60.55 35.33C52.63 43.76 48.63 53.84 48.48 65.43C48.46 66.89 47.67 67.71 46.22 67.73C45.82 67.73 45.42 67.73 44.9 67.73C47.88 72.89 50.77 77.91 53.74 83.04C56.7 77.9 59.61 72.87 62.58 67.72H62.57Z" fill="#0E4A7A"/>
<path d="M74.07 65.66C74.07 61.9 74.11 58.14 74.05 54.39C74.02 52.48 74.77 51.01 76.23 49.86C77.99 48.46 80.05 47.66 82.2 47.14C89.8 45.31 97.37 45.33 104.88 47.68C106.62 48.22 108.24 49.02 109.59 50.3C110.71 51.36 111.28 52.63 111.27 54.2C111.25 61.72 111.22 69.23 111.29 76.75C111.31 79.02 110.36 80.64 108.58 81.87C106.64 83.21 104.46 83.96 102.18 84.44C95.13 85.95 88.1 85.9 81.13 83.89C79.32 83.37 77.6 82.61 76.13 81.39C74.76 80.25 74.02 78.85 74.04 77.01C74.09 73.23 74.05 69.45 74.05 65.67L74.07 65.66ZM92.57 81.34C96.27 81.29 99.9 80.98 103.4 79.82C104.58 79.43 105.73 78.94 106.69 78.11C106.93 77.91 107.15 77.69 107.15 77.35C107.15 75.34 107.15 73.33 107.15 71.32C107.15 71.01 107.04 70.94 106.75 71.08C106.26 71.31 105.75 71.53 105.24 71.71C101.88 72.93 98.39 73.43 94.84 73.56C89.28 73.77 83.8 73.36 78.62 71.09C78.11 70.87 78.19 71.18 78.19 71.47C78.19 73.28 78.21 75.1 78.17 76.91C78.16 77.53 78.4 77.95 78.86 78.29C79.82 79 80.9 79.47 82.02 79.84C85.46 80.97 89.02 81.28 92.56 81.34H92.57ZM92.4 69.51C96.07 69.48 99.49 69.18 102.82 68.17C104.12 67.78 105.38 67.29 106.47 66.46C106.82 66.19 107.15 65.91 107.15 65.4C107.15 63.46 107.15 61.51 107.15 59.57C107.15 59.2 107.07 59.12 106.7 59.28C105.96 59.6 105.21 59.92 104.45 60.16C99.61 61.68 94.65 62.02 89.62 61.71C85.84 61.47 82.11 60.88 78.62 59.28C78.15 59.06 78.17 59.32 78.17 59.63C78.17 61.47 78.19 63.3 78.16 65.14C78.16 65.71 78.37 66.1 78.79 66.42C79.54 67 80.38 67.42 81.26 67.75C84.91 69.11 88.73 69.45 92.38 69.51H92.4ZM93.49 57.68C96.49 57.6 99.65 57.3 102.73 56.38C104.07 55.98 105.38 55.49 106.5 54.62C107.31 53.99 107.31 53.71 106.5 53.06C105.59 52.32 104.52 51.85 103.41 51.52C96.54 49.47 89.64 49.48 82.73 51.26C81.4 51.6 80.11 52.11 78.98 52.93C77.98 53.65 77.99 54.02 78.98 54.73C79.91 55.4 80.95 55.85 82.04 56.2C85.7 57.38 89.47 57.69 93.48 57.68H93.49Z" fill="#0E4A7A"/>
</g>
<path d="M123.73 64.41C123.34 64.41 122.94 64.41 122.55 64.41C120.57 64.41 119.62 62.81 120.61 61.09C123.47 56.11 126.35 51.14 129.22 46.17C130.41 44.11 131.59 42.04 132.79 39.99C133.74 38.36 135.61 38.35 136.55 39.97C140.62 47.02 144.69 54.08 148.76 61.14C149.7 62.77 148.76 64.39 146.87 64.42C146.13 64.43 145.38 64.46 144.64 64.42C144.12 64.39 143.97 64.58 143.95 65.08C143.81 68.28 143.31 71.42 142.51 74.52C137.8 92.78 122.82 106.72 104.28 109.96C91.91 112.12 80.37 109.8 69.71 103.13C68.25 102.22 68.11 100.8 69.32 99.58C72.65 96.24 75.98 92.9 79.31 89.56C80.07 88.8 80.92 88.67 81.94 89.19C84.84 90.67 87.89 91.74 91.12 92.15C103.23 93.69 112.98 89.52 120.28 79.76C123.42 75.56 125.11 70.74 125.68 65.53C125.7 65.36 125.69 65.18 125.72 65.01C125.8 64.6 125.68 64.41 125.22 64.44C124.72 64.47 124.22 64.44 123.71 64.44L123.73 64.41ZM134.68 44.97C134.36 45.51 134.12 45.92 133.88 46.33C131.3 50.79 128.73 55.26 126.15 59.72C125.9 60.15 125.89 60.33 126.46 60.29C126.89 60.26 127.33 60.29 127.77 60.29C129.14 60.31 129.99 61.13 129.96 62.51C129.78 72.98 125.87 81.84 117.81 88.48C106.99 97.39 94.87 98.94 81.89 93.7C81.44 93.52 81.18 93.53 80.83 93.89C78.67 96.09 76.49 98.26 74.3 100.42C73.91 100.8 74.04 100.94 74.44 101.15C83.2 105.89 92.53 107.6 102.36 106.1C119.17 103.54 132.88 91.68 137.96 75.45C139.26 71.29 139.9 67.03 139.93 62.67C139.93 61.09 140.73 60.3 142.31 60.3C142.48 60.3 142.66 60.3 142.83 60.3C143.34 60.34 143.5 60.26 143.19 59.72C141.32 56.52 139.47 53.29 137.62 50.08C136.66 48.42 135.7 46.75 134.68 44.98V44.97Z" fill="black"/>
<path d="M67.71 60.2701C68.17 60.2701 68.63 60.2701 69.09 60.2701C70.88 60.3001 71.8 61.9201 70.91 63.5001C69.8 65.4601 68.67 67.4001 67.54 69.3501C64.59 74.4601 61.64 79.5601 58.71 84.6701C58.27 85.4401 57.66 85.9101 56.77 85.9001C55.91 85.9001 55.32 85.4201 54.89 84.6801C50.84 77.6401 46.78 70.6101 42.72 63.5701C41.77 61.9201 42.71 60.2801 44.62 60.2701C45.34 60.2701 46.06 60.2201 46.78 60.2801C47.39 60.3301 47.49 60.0701 47.52 59.5401C47.73 55.2801 48.55 51.1401 49.87 47.0901C55.53 29.7901 70.97 16.8901 88.96 14.4501C100.71 12.8601 111.61 15.2501 121.67 21.5101C123.23 22.4801 123.36 23.8801 122.05 25.1901C118.75 28.5001 115.45 31.8101 112.16 35.1201C111.39 35.8901 110.53 36.0101 109.47 35.4901C101.26 31.4601 92.81 30.8801 84.39 34.4501C73.54 39.0601 67.37 47.4301 65.79 59.1401C65.61 60.5101 65.58 60.2201 66.8 60.2501C67.11 60.2501 67.41 60.2501 67.72 60.2501L67.71 60.2701ZM65.64 64.4001C64.87 64.4001 64.24 64.4201 63.61 64.4001C62.31 64.3601 61.5 63.5201 61.5 62.2201C61.51 58.1401 62.21 54.1801 63.65 50.3601C70.63 31.8301 91.49 23.0501 109.6 31.0101C110.06 31.2101 110.32 31.1501 110.66 30.8001C112.76 28.6701 114.88 26.5601 116.99 24.4401C117.58 23.8501 117.58 23.8501 116.84 23.4501C108.31 18.8801 99.25 17.2001 89.68 18.5301C79.42 19.9501 70.7 24.4701 63.62 32.0101C55.7 40.4401 51.7 50.5201 51.55 62.1101C51.53 63.5701 50.74 64.3901 49.29 64.4101C48.89 64.4101 48.49 64.4101 47.97 64.4101C50.95 69.5701 53.84 74.5901 56.81 79.7201C59.77 74.5801 62.68 69.5501 65.65 64.4001H65.64Z" fill="black"/>
<path d="M77.1299 62.3401C77.1299 58.5801 77.1699 54.8201 77.1099 51.0701C77.0799 49.1601 77.8299 47.6901 79.2899 46.5401C81.0499 45.1401 83.1099 44.3401 85.2599 43.8201C92.8599 41.9901 100.43 42.0101 107.94 44.3601C109.68 44.9001 111.3 45.7001 112.65 46.9801C113.77 48.0401 114.34 49.3101 114.33 50.8801C114.31 58.4001 114.28 65.9101 114.35 73.4301C114.37 75.7001 113.42 77.3201 111.64 78.5501C109.7 79.8901 107.52 80.6401 105.24 81.1201C98.1899 82.6301 91.1599 82.5801 84.1899 80.5701C82.3799 80.0501 80.6599 79.2901 79.1899 78.0701C77.8199 76.9301 77.0799 75.5301 77.0999 73.6901C77.1499 69.9101 77.1099 66.1301 77.1099 62.3501L77.1299 62.3401ZM95.6299 78.0201C99.3299 77.9701 102.96 77.6601 106.46 76.5001C107.64 76.1101 108.79 75.6201 109.75 74.7901C109.99 74.5901 110.21 74.3701 110.21 74.0301C110.21 72.0201 110.21 70.0101 110.21 68.0001C110.21 67.6901 110.1 67.6201 109.81 67.7601C109.32 67.9901 108.81 68.2101 108.3 68.3901C104.94 69.6101 101.45 70.1101 97.8999 70.2401C92.3399 70.4501 86.8599 70.0401 81.6799 67.7701C81.1699 67.5501 81.2499 67.8601 81.2499 68.1501C81.2499 69.9601 81.2699 71.7801 81.2299 73.5901C81.2199 74.2101 81.4599 74.6301 81.9199 74.9701C82.8799 75.6801 83.9599 76.1501 85.0799 76.5201C88.5199 77.6501 92.0799 77.96 95.6199 78.0201H95.6299ZM95.4599 66.1901C99.1299 66.1601 102.55 65.8601 105.88 64.8501C107.18 64.4601 108.44 63.9701 109.53 63.1401C109.88 62.8701 110.21 62.5901 110.21 62.0801C110.21 60.1401 110.21 58.1901 110.21 56.2501C110.21 55.8801 110.13 55.8001 109.76 55.9601C109.02 56.2801 108.27 56.6001 107.51 56.8401C102.67 58.3601 97.7099 58.7001 92.6799 58.3901C88.8999 58.1501 85.1699 57.5601 81.6799 55.9601C81.2099 55.7401 81.2299 56.0001 81.2299 56.3101C81.2299 58.1501 81.2499 59.9801 81.2199 61.8201C81.2199 62.3901 81.4299 62.7801 81.8499 63.1001C82.5999 63.6801 83.4399 64.1001 84.3199 64.4301C87.9699 65.7901 91.7899 66.1301 95.4399 66.1901H95.4599ZM96.5499 54.3601C99.5499 54.2801 102.71 53.9801 105.79 53.0601C107.13 52.6601 108.44 52.1701 109.56 51.3001C110.37 50.6701 110.37 50.3901 109.56 49.7401C108.65 49.0001 107.58 48.5301 106.47 48.2001C99.5999 46.1501 92.6999 46.1601 85.7899 47.9401C84.4599 48.2801 83.1699 48.7901 82.0399 49.6101C81.0399 50.3301 81.0499 50.7001 82.0399 51.4101C82.9699 52.0801 84.0099 52.5301 85.0999 52.8801C88.7599 54.0601 92.5299 54.3701 96.5399 54.3601H96.5499Z" fill="black"/>
</g>
<defs>
<clipPath id="clip0_404_1292">
<rect width="179.21" height="134.99" fill="white"/>
</clipPath>
</defs>
</svg>
