<svg width="270" height="216" viewBox="0 0 270 216" fill="none" xmlns="http://www.w3.org/2000/svg">
<g clip-path="url(#clip0_435_180)">
<path d="M212.842 78.4767C213.873 81.9149 214.801 85.4563 214.749 89.0148C214.681 92.8312 213.495 96.51 212.31 100.137C204.63 123.586 196.951 147.034 189.271 170.466C186.729 178.236 184.169 186.041 180.544 193.364C178.293 197.937 175.442 202.492 170.94 205.071C166.456 207.632 160.959 207.856 155.702 207.684C128.987 206.773 101.808 195.857 84.7143 175.623C75.6605 164.896 69.6647 152.037 60.4734 141.43C49.7359 129.035 34.7894 119.907 26.6976 105.793C21.2516 96.2866 19.4133 85.2844 18.7948 74.5228C18.4856 69.1421 18.4684 63.641 20.238 58.5868C22.7634 51.4182 28.7249 45.8483 35.425 41.9632C44.7366 36.5824 55.5427 34.0897 66.263 32.1643C83.5461 29.0528 101.104 27.2133 118.731 26.6632C123.867 26.5085 129.159 26.4741 134.055 28.1416C142.714 31.0985 150.428 36.6855 159.121 39.8831C165.031 42.0491 171.061 43.9229 176.953 46.1749C194.58 52.9138 207.345 60.0137 212.859 78.4595L212.842 78.4767Z" fill="#EB611C"/>
<path d="M164.12 159.704C160.34 164.345 157.523 169.761 155.874 175.52C156.904 176.396 158.519 176.276 159.688 175.588C160.856 174.901 161.698 173.783 162.522 172.7C167.109 166.666 172.092 160.942 177.434 155.578C175.442 154.959 173.346 154.667 171.25 154.684C169.686 154.701 168.054 154.942 166.834 155.922C165.752 156.799 165.185 158.122 164.464 159.309C163.072 161.578 160.993 163.417 158.571 164.517" fill="#F3941B"/>
<path d="M76.8458 16.4689L73.0491 31.8376C75.334 31.597 77.2238 29.8435 78.2718 27.815C79.3198 25.7864 79.6462 23.4485 79.9039 21.1621C80.0069 20.2338 79.9039 19.0132 79.0277 18.7553C77.8766 18.4459 77.0176 20.2166 75.8322 20.0962C75.8666 20.887 75.6432 21.695 75.1794 22.3482" fill="#F3941B"/>
<path d="M83.6491 26.8523C81.9139 29.9639 80.6426 33.3505 79.9382 36.8402C84.2504 36.2042 87.9441 32.5425 88.6313 28.2276C87.6177 28.1932 86.6212 28.176 85.6076 28.1416" fill="#F4951A"/>
<path d="M61.2636 77.3077C57.4497 82.3791 53.6357 87.4676 49.8218 92.5389C52.6565 90.6995 55.474 88.8601 58.3087 87.0206C50.4918 97.9541 35.9232 102.269 27.5909 112.824C29.8415 109.008 32.0921 105.209 34.3427 101.392C34.2052 101.633 32.1436 101.22 31.8859 101.169C33.9819 95.788 37.7615 92.9171 42.3485 89.754C48.5677 85.4562 54.8727 81.3132 61.2636 77.3077Z" fill="#9DD8F2"/>
<path d="M109.178 183.96C113.199 182.276 117.202 180.539 121.187 178.752C123.266 177.823 125.362 176.843 127.114 175.382C128.712 174.041 129.949 172.356 131.186 170.672C132.251 169.228 133.299 167.784 134.364 166.34C131.77 167.715 129.502 169.486 127.08 171.102C126.668 169.812 127.183 168.454 128.008 167.405C126.032 166.494 118.146 173.044 115.569 174.368C110.708 176.861 105.983 180.952 103.354 185.783C105.365 185.645 107.357 184.734 109.213 183.943L109.178 183.96Z" fill="#9DD8F2"/>
<path d="M251.909 40.33C249.367 42.3413 247.271 44.9371 245.845 47.8596C250.741 44.8684 255.655 41.8943 260.551 38.9031C259.263 39.436 258.129 40.3644 257.373 41.5505C261.427 39.2641 265.653 37.2872 270 35.6368C268.248 41.9287 262.716 46.3124 257.562 50.3007C246.481 58.879 235.657 67.8011 225.109 77.0327C227.359 72.7349 229.885 68.5747 232.685 64.6208C230.108 64.913 227.669 66.1852 225.933 68.1105C228.528 64.4145 231.105 60.7356 233.699 57.0396C232.754 58.3805 228.871 59.9964 227.445 61.0966C227.943 57.0912 234.764 51.9511 237.719 49.4584C242.031 45.8139 246.824 42.7367 251.927 40.3472L251.909 40.33Z" fill="#9DD8F2"/>
<path d="M14.1734 166.598C16.1663 165.016 17.8156 162.97 18.9323 160.684C15.084 163.022 11.2357 165.377 7.38734 167.715C8.40096 167.302 9.29432 166.563 9.87844 165.635C6.70015 167.423 3.38442 168.987 -0.0172119 170.276C1.35718 165.325 5.68653 161.887 9.741 158.741C18.434 152.002 26.9209 144.989 35.1845 137.734C33.415 141.121 31.4393 144.37 29.2402 147.498C31.2503 147.275 33.1744 146.278 34.5317 144.765C32.5044 147.67 30.4772 150.558 28.4328 153.464C29.1715 152.415 32.2124 151.143 33.3462 150.283C32.9511 153.429 27.6081 157.469 25.2888 159.429C21.9044 162.283 18.142 164.707 14.1391 166.598H14.1734Z" fill="#9DD8F2"/>
<path d="M247.151 64.8615C242.735 67.698 238.664 71.0846 235.056 74.8838C235.451 75.348 236.207 75.1245 236.757 74.8322C239.969 73.1819 242.873 70.9127 245.261 68.1793C245.725 67.6464 246.171 67.0963 246.755 66.7353C247.34 66.3743 248.044 66.2368 248.714 66.1164C251.274 65.6523 254.005 65.3428 256.067 63.7613C251.772 62.1797 246.498 63.9848 244.093 67.8699" fill="#9DD8F2"/>
<path d="M98.9908 26.3366C99.7468 27.0414 100.932 26.4225 101.757 25.8037C106.825 21.9873 111.893 18.1709 116.961 14.3717C116.566 14.7499 117.03 15.4891 117.58 15.5063C118.129 15.5235 118.61 15.1453 119.005 14.7671C124.125 10.1427 129.21 5.27766 133.643 -0.0171509C128.472 3.02565 122.802 4.19463 118.112 8.01102C111.36 13.4949 104.832 19.9072 98.9908 26.3194V26.3366Z" fill="#9DD8F2"/>
<path d="M96.8949 71.2049C97.7195 72.0817 97.0495 73.732 96.3623 74.7635C93.6307 78.9065 90.796 82.9292 87.8583 86.8487C90.5212 84.081 93.7166 82.1212 97.1011 81.1413C93.0122 86.3674 88.5111 91.0949 83.6835 95.2207C87.4803 95.2207 91.2599 93.6907 94.3007 90.8714C91.4145 97.679 86.7244 103.3 81.1237 106.67L86.8962 106.773C79.5604 113.048 72.2245 119.322 64.9059 125.597C66.6067 124.136 65.1292 107.719 65.0261 104.934C64.8715 99.9482 63.0332 93.6047 66.5036 90.2009C70.6268 86.1267 76.6741 83.5137 81.3814 80.5568C86.5182 77.3421 91.6894 74.2134 96.8949 71.1877V71.2049Z" fill="#9DD8F2"/>
<path d="M166.663 103.971C167.848 104.934 169.549 103.885 170.683 102.871C171.851 101.822 173.036 100.773 174.205 99.7247C175.253 101.719 173.535 103.971 172.126 105.742C169.996 108.423 168.381 111.518 167.401 114.784C167.693 113.838 173.26 111.002 174.29 110.142C176.438 108.372 178.414 106.395 180.286 104.332C182.846 101.513 190.543 94.4127 190.405 90.39C190.148 83.5136 181.901 87.7598 179.41 89.9946C174.686 94.2236 170.305 98.7276 166.663 103.954V103.971Z" fill="#9DD8F2"/>
<path d="M166.92 32.8691C157.214 40.5019 147.816 48.5301 138.78 56.9537C143.281 56.0425 147.559 54.014 151.098 51.0744C148.864 58.2774 139.69 61.3374 136.976 68.3856C138.762 68.6435 140.515 67.9215 142.164 67.1823C151.338 62.9877 159.894 57.5553 168.398 52.123C174.153 48.4613 179.908 44.7825 185.664 41.1208C186.351 40.691 187.107 40.1237 187.124 39.3157C187.141 38.2155 185.853 37.6482 184.787 37.356C182.022 36.6168 179.256 35.8947 176.49 35.1555C172.04 33.9694 167.161 32.8176 162.952 34.6742" fill="#9DD8F2"/>
<path d="M128.678 68.3341C130.293 68.7466 131.925 67.8527 133.23 66.8213C135.223 65.2569 138.264 62.5063 138.659 59.8933C136.77 59.9277 127.956 67.1479 128.678 68.3341Z" fill="#9DD8F2"/>
<path d="M149.534 126.749C149.173 127.11 148.83 127.746 149.225 128.073C149.466 128.279 149.826 128.193 150.118 128.107C153.108 127.196 156.149 126.285 158.777 124.583C160.736 123.328 167.298 116.417 161.973 116.572C157.626 116.692 152.128 124.05 149.534 126.749Z" fill="#9DD8F2"/>
<path d="M173.105 113.701C170.425 115.025 168.295 116.727 166.92 118.635C166.525 119.185 166.491 120.044 167.453 120.113C167.779 120.148 168.106 120.044 168.398 119.941C171.902 118.738 174.05 116.262 173.672 113.856C173.603 113.409 172.985 112.841 172.366 113.082" fill="#9DD8F2"/>
<path d="M102.908 86.6596C103.561 88.0349 103.406 89.668 102.822 91.0777C102.238 92.4873 101.276 93.6735 100.279 94.8081C97.5992 97.9025 94.6271 101.134 91.277 103.49C90.9506 100.361 92.5483 98.5901 94.4037 96.3381C95.194 95.3754 103.131 87.1238 102.908 86.6596Z" fill="#9DD8F2"/>
<path d="M184.203 73.7149L184.049 71.6176C184.753 72.2192 185.475 72.8037 186.179 73.4054C185.526 73.5086 184.856 73.6289 184.203 73.732V73.7149Z" fill="#454545"/>
<path d="M184.203 73.7148C184.856 73.6117 185.526 73.4913 186.179 73.3882C186.815 74.0242 187.433 74.6775 188.069 75.3136C186.883 75.3651 185.681 75.4167 184.495 75.4683C184.392 74.8838 184.306 74.2993 184.203 73.7148Z" fill="#E9E9E9"/>
<path d="M199.871 16.2627C199.322 16.7612 198.772 17.2598 198.222 17.7755C198.772 17.277 199.322 16.7784 199.871 16.2627Z" fill="#EAEAEA"/>
<path d="M36.1294 81.1585C67.3969 53.6186 99.4719 25.5974 138.024 9.79889C134.227 16.0048 130.413 22.1936 126.616 28.3995C131.53 23.4141 137.062 19.0132 143.04 15.3516C142.576 17.191 142.095 19.0132 141.631 20.8527C146.579 20.4745 151.527 20.0963 156.475 19.7181C156.423 21.4715 156.372 23.225 156.337 24.9785C159.739 24.8066 163.158 24.6519 166.56 24.48C176.507 20.8183 186.454 17.1738 196.401 13.5121C192.793 19.529 189.186 25.5286 185.578 31.5454C191.866 30.4452 197.913 28.0385 203.239 24.5143C204.012 36.2558 195.783 46.4328 188.017 55.2861C200.73 45.9343 213.444 36.5824 226.157 27.2305C216.124 40.1237 206.091 53.0169 196.075 65.9102C200.232 65.0334 204.252 63.555 207.98 61.5265C205.678 67.1823 202.363 72.4427 198.222 76.9467C205.85 73.5773 213.461 70.2079 221.089 66.8385C222.48 75.9669 215.574 84.1841 208.496 90.0978C201.418 96.0115 193.206 101.667 190.285 110.418C206.4 102.441 221.501 92.4014 235.073 80.6256C225.865 93.8626 214.629 105.69 201.864 115.558C195.645 120.371 189.065 124.703 182.623 129.19C159.413 145.384 137.783 163.727 117.047 182.998C103.217 195.857 89.1983 209.506 71.417 215.85C74.9045 203.317 66.8815 200.395 69.2523 192.195C61.5042 194.361 56.4705 194.877 48.7223 197.043C52.1239 185.25 57.6043 174.058 64.8543 164.156C68.9259 158.587 60.9544 169.262 61.0747 162.351C54.4776 164.947 42.8983 169.039 36.6448 172.391C35.3048 166.821 53.1376 143.459 54.2542 137.837C48.3272 141.31 42.4173 144.799 36.4902 148.272C37.9848 143.338 40.1839 138.628 43.0014 134.313C36.284 134.107 29.5151 135.344 23.3132 137.957C26.1822 131.786 29.9103 126.027 34.3771 120.887C26.1307 124.119 17.7125 126.904 9.17407 129.242C13.1083 120.56 18.0046 112.326 23.777 104.727C19.2243 105.982 14.9294 108.166 11.2357 111.122C19.6882 97.2664 30.1851 84.6483 42.2798 73.8352" fill="#9DD8F2"/>
<path d="M32.8309 190.751C33.8789 191.645 35.4938 191.645 36.7651 191.112C38.0364 190.579 39.0672 189.582 40.0808 188.619C45.9392 182.981 51.8491 177.256 56.1097 170.328C49.7531 170.105 47.6915 172.442 43.3107 177.032C42.2799 178.116 31.9719 189.977 32.8481 190.751H32.8309Z" fill="#9DD8F2"/>
<path d="M112.958 46.0717C133.402 46.0717 153.829 46.0717 174.273 46.0717C181.712 46.0717 186.935 49.8709 188.825 56.4895C189.203 57.796 189.237 59.1369 189.237 60.4606C189.237 89.2382 189.271 118.033 189.237 146.811C189.237 155.612 183.344 161.389 174.462 161.389C148.967 161.389 123.472 161.406 97.9772 161.371C96.3967 161.371 95.1941 161.767 93.9743 162.798C83.2025 171.927 72.3791 180.986 61.5729 190.08C61.2293 190.373 60.8686 190.63 60.5422 190.94C59.7691 191.628 58.9101 192.057 57.8964 191.593C56.8828 191.129 56.711 190.166 56.711 189.152C56.711 185.439 56.711 181.708 56.6938 177.995C56.6938 173.078 56.6251 168.179 56.6938 163.262C56.711 161.784 56.2472 161.354 54.7869 161.371C52.124 161.371 49.4439 161.681 46.7982 160.959C40.8539 159.326 36.7136 154.323 36.4902 148.169C36.3356 143.854 36.4387 139.539 36.4387 135.224C36.4387 110.314 36.4387 85.3874 36.4387 60.4778C36.4387 53.3607 40.7165 47.9455 47.3995 46.3812C49.0831 45.9858 50.8011 46.0717 52.5019 46.0717C72.6368 46.0717 92.7889 46.0717 112.924 46.0717H112.958ZM60.6452 185.095C61.6245 185.095 61.9853 184.562 62.4148 184.201C72.2073 175.984 81.9999 167.784 91.7237 159.48C93.4074 158.036 95.091 157.4 97.3416 157.418C122.905 157.486 148.469 157.452 174.033 157.435C181.352 157.435 185.372 153.464 185.372 146.157C185.389 117.827 185.389 89.4961 185.372 61.1654C185.372 54.1515 181.334 50.0085 174.325 49.9913C133.299 49.9569 92.2907 49.9569 51.265 49.9913C44.2899 49.9913 40.287 54.2202 40.287 61.2342C40.287 89.4101 40.287 117.603 40.287 145.779C40.287 146.518 40.287 147.275 40.3729 148.014C40.9398 153.618 44.9943 157.349 50.6121 157.435C52.5363 157.469 54.4776 157.435 56.4018 157.435C60.4563 157.435 60.6109 157.589 60.6109 161.75C60.6109 169.486 60.6109 177.204 60.6109 185.061L60.6452 185.095Z" fill="black" stroke="black" stroke-miterlimit="10"/>
<path d="M112.804 140.811C104.334 140.811 95.8641 140.811 87.3772 140.811C82.9963 140.811 80.7801 138.593 80.763 134.244C80.763 127.402 80.7114 120.56 80.7801 113.718C80.7801 112.171 80.5396 111.501 78.7529 111.501C72.0355 111.501 71.3827 110.761 71.3827 104.074C71.3827 102.286 71.3483 100.498 71.3827 98.7276C71.4686 95.8911 73.1351 94.2064 75.9869 94.0689C77.4644 94.0001 79.3198 94.4815 80.3163 93.7594C81.433 92.9515 80.5912 90.9917 80.7458 89.5305C81.1066 86.333 83.5289 84.27 87.1024 84.2528C93.94 84.2185 100.778 84.2872 107.615 84.2013C108.68 84.2013 110.501 85.1124 110.742 83.3073C110.982 81.6054 111.618 79.6457 109.076 78.4251C105.674 76.8092 104.42 72.7177 105.743 69.228C107.048 65.7898 110.673 63.8472 114.418 64.5692C117.889 65.2397 120.5 68.5403 120.363 72.1676C120.242 75.176 118.799 77.4452 116.102 78.7346C113.731 79.852 114.899 81.8461 114.899 83.4105C114.899 84.8717 116.411 84.2013 117.236 84.2013C124.142 84.2528 131.066 84.2357 137.972 84.2357C142.765 84.2357 145.016 86.3845 144.844 91.1808C144.758 93.5016 145.394 94.3267 147.748 94.0689C149.826 93.8454 151.957 93.8798 153.383 95.8739C154.671 97.6446 154.671 107.994 153.383 109.764C152.111 111.501 150.273 111.552 148.366 111.535C144.913 111.5 144.913 111.535 144.913 114.922C144.913 121.317 144.913 127.712 144.913 134.107C144.913 138.628 142.714 140.811 138.213 140.811C129.743 140.811 121.273 140.811 112.786 140.811H112.804ZM112.855 136.84C121.17 136.84 129.502 136.84 137.818 136.84C140.704 136.84 140.979 136.565 140.979 133.608C140.979 119.563 140.979 105.518 140.979 91.4559C140.979 88.6194 140.566 88.1896 137.818 88.1896C121.17 88.1896 104.54 88.1896 87.8926 88.1896C85.1954 88.1896 84.7487 88.6365 84.7487 91.2496C84.7487 105.449 84.7487 119.649 84.7487 133.832C84.7487 136.479 85.0751 136.823 87.6865 136.823C96.0875 136.823 104.471 136.823 112.872 136.823L112.855 136.84ZM80.763 103.094C80.763 102.424 80.763 101.753 80.763 101.083C80.7114 97.5243 81.2096 98.1947 77.7393 97.9197C75.3513 97.7306 75.2482 98.9339 75.3513 100.67C75.4372 102.08 75.4887 103.507 75.3513 104.899C75.1279 106.996 75.8323 107.667 78.0142 107.667C80.2132 107.667 81.2096 107.168 80.7973 104.848C80.6942 104.28 80.7973 103.661 80.7973 103.06L80.763 103.094ZM150.325 102.974C150.325 97.6274 150.325 97.6618 146.219 97.9712C145.291 98.04 144.896 98.2979 144.913 99.2606C144.947 101.633 144.93 104.005 144.913 106.395C144.913 107.048 145.05 107.461 145.841 107.615C149.38 108.355 150.307 107.65 150.307 104.091C150.307 103.713 150.307 103.352 150.307 102.974H150.325ZM116.429 71.9441C116.429 69.9672 114.9 68.42 112.907 68.3856C110.914 68.3512 109.333 69.8468 109.282 71.8238C109.213 73.8179 110.931 75.5714 112.907 75.537C114.796 75.5027 116.429 73.8523 116.429 71.9269V71.9441Z" fill="black" stroke="black" stroke-miterlimit="10"/>
<path d="M126.135 114.956C121.308 114.956 117.425 111.088 117.494 106.326C117.562 101.598 121.325 97.868 126.049 97.8337C130.843 97.7993 134.725 101.684 134.691 106.446C134.656 111.139 130.825 114.939 126.152 114.939L126.135 114.956ZM126.032 110.985C128.626 111.002 130.705 108.956 130.688 106.395C130.688 103.936 128.678 101.839 126.238 101.77C123.747 101.702 121.497 103.799 121.411 106.309C121.325 108.767 123.507 110.985 126.032 111.002V110.985Z" fill="black" stroke="black" stroke-miterlimit="10"/>
<path d="M99.5063 114.956C94.8333 114.939 91.0022 111.088 91.0022 106.412C91.0022 101.633 94.8849 97.7821 99.6781 97.8337C104.42 97.8853 108.148 101.65 108.165 106.378C108.182 111.174 104.334 114.973 99.4891 114.956H99.5063ZM99.6437 110.985C102.169 110.968 104.351 108.75 104.265 106.292C104.179 103.799 101.946 101.702 99.4375 101.753C96.998 101.822 94.9879 103.902 94.9879 106.378C94.9879 108.939 97.0495 111.002 99.6437 110.985Z" fill="black" stroke="black" stroke-miterlimit="10"/>
<path d="M112.701 129.224C108.096 129.224 103.75 128.107 99.6094 126.096C98.3209 125.477 97.1183 124.669 97.8742 123.053C98.6301 121.42 99.9702 121.849 101.293 122.486C109.007 126.233 116.721 126.216 124.434 122.468C125.774 121.815 127.08 121.454 127.819 123.104C128.506 124.6 127.441 125.425 126.204 126.027C121.943 128.107 117.459 129.276 112.683 129.224H112.701Z" fill="black" stroke="black" stroke-miterlimit="10"/>
</g>
<defs>
<clipPath id="clip0_435_180">
<rect width="270" height="215.85" fill="white"/>
</clipPath>
</defs>
</svg>
