<svg width="159" height="125" viewBox="0 0 159 125" fill="none" xmlns="http://www.w3.org/2000/svg">
<g clip-path="url(#clip0_404_1520)">
<path d="M127.66 74.86C130.26 72.93 133.12 70.56 133.63 67C134.17 63.26 131.96 58.94 133.97 55.95C134.54 55.1 135.4 54.51 135.83 53.55C136.29 52.52 136.16 51.3 136.01 50.16C135.05 42.52 133.97 34.53 129.98 28.49C127.72 25.06 124.66 22.5 121.62 20.03C114.2 14 106.42 8.11002 97.57 5.85002C94.86 5.16002 92.01 4.83003 89.29 5.61003C87.34 6.17003 85.54 7.28003 83.65 8.09003C77.53 10.74 70.88 10.25 64.41 10.49C54.54 10.85 44.21 13.26 36.44 20.67C29.53 27.26 25.35 37.2 23.39 47.37C22.3 53.01 21.84 58.78 21.55 64.53C21.39 67.71 21.3 70.96 22.07 73.99C23.93 81.34 30.38 85.75 32.92 92.8C35.05 98.7 34.32 106.12 37.82 111C40.24 114.38 44.25 115.71 48.04 115.51C51.83 115.31 55.5 113.77 59.09 112.25C60.73 111.56 62.39 110.85 63.79 109.61C65.04 108.5 66.02 107.01 67.09 105.66C71.59 99.95 78.04 96.46 84.57 96.19C92.94 95.85 99.46 96.89 106.87 91.09C113.8 85.67 120.62 80.11 127.66 74.87V74.86Z" fill="#F3941B"/>
<path d="M93.07 100.59C95.38 97.42 97.69 94.25 99.99 91.07C103.9 85.7 107.81 80.32 112.33 75.46C117.28 70.14 122.91 65.5 128.18 60.5C139.26 49.98 148.73 37.92 158.16 25.9C154.25 25.67 150.28 26.39 146.69 27.98C147.04 25.75 147.39 23.51 147.75 21.28C143.96 21.9 140.16 22.52 136.37 23.14C135.64 23.26 134.87 23.38 134.17 23.14C131.54 22.25 132.56 18.27 131.53 15.7C130.43 12.94 126.89 12.06 123.94 12.38C120.99 12.7 118.09 13.83 115.13 13.53C114.17 13.43 113.13 13.13 112.58 12.33C111.98 11.45 112.11 10.21 111.49 9.35002C110.82 8.42002 109.53 8.25002 108.38 8.16002C99.21 7.42002 90.04 6.69002 80.86 5.95002C80.92 3.97002 80.98 2.00002 81.04 0.0200195C77.11 0.34002 74.27 3.97002 72.79 7.62002C71.3 11.27 66.14 14.41 63.95 17.69C58.95 25.19 52.93 26.91 44.98 31.15C39.68 33.98 35.44 38.44 31.57 43.04C20.51 56.16 11.61 71.1 5.31998 87.07C6.01998 85.63 7.90998 84.9 9.39998 85.5C10.89 86.1 11.73 87.95 11.22 89.47C13.28 88.96 15.26 88.16 17.1 87.11C16.48 89.84 15.86 92.56 15.24 95.29C16.24 94.32 17.5 96.4 17.03 97.7C16.56 99.01 15.6 100.57 16.53 101.6C17.82 100.93 19.11 100.26 20.4 99.59C19.55 100.01 19.76 101.41 20.56 101.93C21.36 102.45 22.39 102.34 23.33 102.22C27.14 101.72 30.96 101.21 34.77 100.71C40.65 99.93 47.85 99.73 51.1 104.69C47.21 109.45 43.32 114.22 39.43 118.98C43.77 113.49 49.23 108.89 55.37 105.53C52.9 110.03 50.05 114.32 46.84 118.32C51.34 114.54 55.85 110.75 60.35 106.97C58.91 110.61 56.99 114.06 54.64 117.2C58.66 114.17 62.68 111.14 66.71 108.11C66.69 112.62 65.39 117.12 63 120.95C64.86 117.91 67.26 115.21 70.06 113C69.73 115.94 68.47 118.77 66.49 120.97C70.34 117.29 73.91 113.32 77.17 109.1L76.35 113.22C80.13 108.92 84.64 105.25 89.63 102.42C88.79 107.24 86.23 111.74 82.52 114.94C87.27 108.56 92.03 102.19 96.78 95.81C95.77 98.62 94.36 101.29 92.6 103.7C99.57 91.01 106.95 77.84 118.89 69.64C123.84 66.24 124.3 59.3 128.27 54.8C145.29 35.49 150.49 38.5 155.42 25.76" fill="#9DD8F2"/>
<path d="M111.43 94.72C116.51 92.4 122.36 91.42 127.73 92.95C123.4 95.21 119.08 97.47 114.75 99.74C112.77 100.78 102.65 106.65 101.11 102.63C100.19 100.21 109.65 95.54 111.43 94.72Z" fill="#F3941B"/>
<path d="M129.93 78.82C130.37 78.52 130.63 77.99 130.61 77.47C126.79 78.97 123.53 81.84 121.56 85.44C123.48 85.29 125.26 84.33 126.71 83.07C128.16 81.81 129.32 80.26 130.47 78.72C131.3 77.61 132.18 76.21 131.67 74.92" fill="#F3941B"/>
<path d="M34.64 115.81C34.39 115.6 34.34 115.23 34.33 114.9C34.27 112.97 34.94 111.02 36.17 109.53C37.89 107.45 40.48 106.32 42.09 104.12C42.36 106.41 34.42 115.62 34.64 115.81Z" fill="#9DD8F2"/>
<path d="M11.6 124.07C11.6 122.71 12.36 121.47 13.13 120.34C15.73 116.56 18.8 113.11 22.23 110.07C23.62 108.84 30.3 102.42 32.27 103.16C34.67 104.06 25.8 114.23 24.56 115.57C20.98 119.42 16.62 122.43 11.59 124.07H11.6Z" fill="#9DD8F2"/>
<path d="M10.63 98.0801C8.76 100.41 6.71 102.59 4.5 104.61C5.45 101.85 7.09 99.33 9.22 97.34C9.44 97.14 9.69 96.9301 9.99 96.9301C10.74 96.9501 10.75 98.0801 10.39 98.7401C9.93 99.5801 9.28 100.31 8.51 100.87" fill="#9DD8F2"/>
<path d="M5.76999 90.85C6.40999 90.47 6.89999 89.84 7.09999 89.12C4.23999 88.78 1.23999 90.42 -0.0100098 93.02C1.90999 93.36 3.98999 92.24 4.75999 90.45" fill="#9DD8F2"/>
<path d="M140.36 19.36C142.84 18.06 144.93 16.05 146.33 13.62C143.32 15.01 140.4 16.61 137.61 18.4C139.06 18.52 140.51 18.65 141.97 18.77" fill="#9DD8F2"/>
<path d="M119.76 10.3301C119.97 9.59007 120.18 8.86007 120.39 8.12007C119.06 7.60007 117.44 7.94007 116.42 8.94007C116.99 8.82007 117.52 9.27007 117.9 9.71007C118.28 10.1501 118.69 10.6701 119.27 10.7401C119.85 10.8101 120.45 10.0401 120.01 9.65007" fill="#9DD8F2"/>
<g opacity="0.5">
<path d="M109.68 73.86C109.55 75.58 108.92 77.09 107.92 78.49C106.16 80.95 103.75 82.6 101.12 83.99C98.72 85.26 96.19 86.22 93.56 86.87C91.42 87.4 89.27 87.93 87.1 88.35C85.6 88.64 84.05 88.71 82.53 88.89C79.19 89.27 75.83 89.22 72.48 89.17C70.73 89.14 68.99 88.96 67.24 88.78C65.69 88.62 64.14 88.44 62.6 88.16C60.96 87.86 59.34 87.47 57.73 87.07C55.33 86.47 53 85.62 50.76 84.58C48.87 83.71 47.09 82.64 45.49 81.3C43.71 79.81 42.2 78.09 41.5 75.81C41.27 75.05 41.11 74.23 41.11 73.44C41.09 61.01 41.1 48.59 41.09 36.16C41.09 34.11 41.95 32.4 43.14 30.83C44.67 28.79 46.71 27.36 48.9 26.11C50.63 25.12 52.45 24.33 54.33 23.72C56.2 23.12 58.09 22.58 60 22.13C61.77 21.71 63.57 21.43 65.36 21.12C66.11 20.99 66.87 20.96 67.62 20.91C69.42 20.79 71.22 20.69 73.02 20.59C73.26 20.57 73.49 20.55 73.73 20.53C75.03 20.53 76.32 20.53 77.62 20.53C77.69 20.55 77.76 20.57 77.83 20.59C78.84 20.63 79.85 20.63 80.86 20.72C82.33 20.85 83.81 21.01 85.27 21.21C86.73 21.41 88.19 21.6 89.63 21.92C91.64 22.37 93.64 22.86 95.6 23.45C98.42 24.3 101.11 25.5 103.57 27.14C105.69 28.55 107.59 30.22 108.75 32.56C109.23 33.53 109.6 34.55 109.65 35.65C109.7 36.69 109.75 37.74 109.75 38.79C109.75 50.21 109.75 61.64 109.75 73.06C109.75 73.26 109.74 73.46 109.73 73.66C109.71 73.73 109.69 73.8 109.67 73.87L109.68 73.86ZM45.69 63.25L45.71 63.35C45.71 66.59 45.71 69.82 45.71 73.06V73.26C45.73 73.54 45.71 73.83 45.79 74.09C46.23 75.76 47.37 76.93 48.68 77.94C50.58 79.42 52.72 80.46 54.97 81.31C57.16 82.14 59.4 82.8 61.7 83.26C63.36 83.59 65.03 83.85 66.71 84.06C68.39 84.28 70.08 84.51 71.77 84.54C75.65 84.61 79.54 84.71 83.4 84.17C84.86 83.96 86.34 83.83 87.78 83.54C89.49 83.19 91.19 82.76 92.87 82.26C94.33 81.83 95.77 81.33 97.17 80.75C99.58 79.76 101.84 78.49 103.64 76.54C104.29 75.84 104.84 75.05 104.99 74.06C105.01 73.92 105.04 73.79 105.06 73.65C105.06 73.59 105.07 73.53 105.08 73.47C105.12 73.3 105.19 73.13 105.19 72.96C105.19 69.72 105.19 66.48 105.19 63.24C105.19 63.2 105.19 63.16 105.19 63.12C105.15 63.15 105.11 63.19 105.07 63.22C104.83 63.39 104.6 63.56 104.36 63.74C104.3 63.76 104.23 63.77 104.18 63.81C102.33 65.13 100.34 66.19 98.23 67.01C96.69 67.61 95.1 68.1 93.52 68.57C92.27 68.95 91.01 69.3 89.72 69.54C87.87 69.88 86 70.13 84.12 70.36C82.39 70.57 80.65 70.8 78.92 70.84C76.34 70.9 73.76 70.84 71.18 70.75C69.55 70.69 67.92 70.54 66.29 70.36C64.69 70.18 63.08 70 61.52 69.63C59.06 69.05 56.6 68.4 54.19 67.63C52.11 66.97 50.12 66.06 48.27 64.89C47.48 64.39 46.7 63.87 45.92 63.35L45.81 63.23C45.81 63.23 45.73 63.16 45.69 63.13C45.69 63.17 45.69 63.21 45.69 63.26V63.25ZM45.69 44.93C45.69 44.93 45.7 45 45.71 45.03C45.71 46.26 45.68 47.5 45.69 48.73C45.69 51 45.71 53.27 45.73 55.54L45.8 55.74C45.81 55.81 45.82 55.87 45.83 55.94C45.85 55.98 45.88 56.02 45.9 56.05C45.9 56.08 45.92 56.11 45.94 56.13C45.96 56.2 45.98 56.27 46.01 56.33C46.44 57.01 46.79 57.75 47.31 58.35C48.52 59.73 50.09 60.67 51.69 61.53C53.49 62.5 55.38 63.26 57.35 63.79C59.5 64.37 61.66 64.87 63.84 65.32C65.06 65.57 66.31 65.69 67.55 65.83C69.03 65.99 70.51 66.16 71.99 66.22C73.67 66.29 75.36 66.25 77.04 66.25C77.34 66.25 77.64 66.25 77.95 66.24C78.46 66.2 78.97 66.17 79.48 66.13C81.14 66 82.8 65.91 84.46 65.72C85.95 65.54 87.45 65.33 88.91 64.99C91.53 64.38 94.14 63.71 96.64 62.65C99.26 61.54 101.77 60.27 103.71 58.13C104.33 57.45 104.88 56.7 105 55.73C105.07 55.47 105.19 55.2 105.19 54.94C105.2 51.6 105.19 48.26 105.19 44.91C105.19 44.87 105.19 44.83 105.19 44.79C105.15 44.82 105.11 44.86 105.07 44.89C104.9 44.99 104.74 45.1 104.57 45.2C102.87 46.43 101.08 47.53 99.12 48.28C97.09 49.06 95.02 49.74 92.95 50.43C92.35 50.63 91.71 50.72 91.09 50.86C90.09 51.08 89.09 51.35 88.08 51.51C86.79 51.72 85.48 51.89 84.18 52.02C82.31 52.21 80.44 52.46 78.57 52.5C75.73 52.56 72.88 52.47 70.04 52.41C69.15 52.39 68.26 52.31 67.37 52.2C66.05 52.03 64.73 51.85 63.42 51.61C61.92 51.34 60.42 51.08 58.95 50.71C57.37 50.31 55.81 49.81 54.25 49.3C52.19 48.63 50.22 47.72 48.36 46.6C47.53 46.1 46.74 45.54 45.94 45C45.9 44.96 45.87 44.93 45.83 44.89C45.79 44.86 45.75 44.82 45.71 44.79V44.91L45.69 44.93ZM45.67 36.51C45.7 36.82 45.69 37.14 45.76 37.44C46.01 38.46 46.58 39.31 47.29 40.06C48.69 41.54 50.4 42.59 52.21 43.5C54.9 44.84 57.72 45.78 60.64 46.41C62.83 46.89 65.06 47.22 67.28 47.53C68.8 47.74 70.34 47.9 71.87 47.92C75.06 47.98 78.26 48.07 81.44 47.74C82.56 47.63 83.68 47.6 84.79 47.41C86.86 47.06 88.92 46.7 90.96 46.2C93.85 45.49 96.67 44.53 99.31 43.11C101.25 42.07 103.05 40.86 104.31 39.01C105.16 37.76 105.41 36.43 104.8 34.96C104.21 33.53 103.15 32.53 101.97 31.64C100.34 30.4 98.5 29.51 96.61 28.72C93.95 27.61 91.17 26.87 88.36 26.32C86.46 25.95 84.53 25.73 82.6 25.52C80.86 25.33 79.11 25.15 77.36 25.14C74.84 25.12 72.31 25.25 69.79 25.33C69.24 25.35 68.7 25.36 68.16 25.43C67.07 25.57 65.98 25.72 64.9 25.93C62.96 26.29 61 26.63 59.09 27.1C56.6 27.71 54.2 28.58 51.91 29.75C50.2 30.63 48.56 31.61 47.27 33.05C46.4 34.02 45.61 35.08 45.68 36.51H45.67Z" fill="#0E4A7A"/>
<path d="M79.52 29.86C79.33 30.65 79.14 31.45 78.94 32.24C78.47 34.06 78.01 35.88 77.52 37.69C76.94 39.88 76.34 42.07 75.76 44.27C75.51 45.23 74.31 46.01 73.2 45.83C72.21 45.67 71.16 44.49 71.32 43.59C71.47 42.75 71.63 41.92 71.84 41.1C72.55 38.38 73.29 35.66 74.01 32.94C74.35 31.68 74.69 30.41 75 29.15C75.36 27.71 76.96 27.2 78.13 27.72C78.92 28.07 79.52 28.78 79.51 29.86H79.52Z" fill="#0E4A7A"/>
<path d="M82.3 40.92C82.32 40.26 82.62 39.72 83.05 39.28C83.85 38.46 84.67 37.66 85.54 36.91C85.86 36.63 85.7 36.52 85.51 36.34C84.75 35.62 84.03 34.85 83.23 34.18C82.07 33.2 82.1 31.66 83.02 30.73C83.46 30.29 84.46 30 85.16 30.17C85.86 30.34 86.35 30.79 86.84 31.26C88.12 32.49 89.37 33.76 90.68 34.96C91.61 35.82 91.72 37.35 90.74 38.28C89.18 39.77 87.67 41.32 86.05 42.74C84.81 43.82 83.08 43.27 82.47 41.68C82.38 41.44 82.36 41.17 82.31 40.91L82.3 40.92Z" fill="#0E4A7A"/>
<path d="M64.99 36.65C65.92 37.54 66.83 38.4 67.73 39.29C68.55 40.09 68.68 41.29 68.06 42.23C67.37 43.28 65.69 43.72 64.54 42.6C63.46 41.56 62.39 40.52 61.32 39.47C60.8 38.96 60.23 38.49 59.79 37.92C59.14 37.08 59.27 35.81 60.03 35.08C61.55 33.6 63.08 32.11 64.63 30.67C65.28 30.07 66.11 29.94 66.94 30.23C67.9 30.57 68.41 31.26 68.45 32.32C68.48 33.1 68.13 33.66 67.63 34.15C66.78 34.99 65.9 35.79 65 36.64L64.99 36.65Z" fill="#0E4A7A"/>
<path d="M75.29 80.1101C74.57 80.0601 73.75 80.0801 72.95 79.9501C71.91 79.7801 71.05 78.6801 71.13 77.6701C71.22 76.5301 71.95 75.5501 73.17 75.4501C74.36 75.3601 75.57 75.4501 76.77 75.4201C77.76 75.4001 78.74 75.3201 79.73 75.2701C80.36 75.2401 80.99 75.2301 81.62 75.1601C82.62 75.0601 83.62 74.9601 84.6 74.7801C85.91 74.5401 86.98 74.9501 87.45 76.0101C88.08 77.4501 87.34 78.9301 85.92 79.2001C84.26 79.5101 82.58 79.7101 80.89 79.8501C79.06 80.0001 77.22 80.0301 75.29 80.1101Z" fill="#0E4A7A"/>
<path d="M65.41 74.6601C65.93 74.8001 66.47 74.87 66.96 75.08C67.75 75.43 68.1 76.07 68.15 76.97C68.22 78.17 67.44 79.08 66.43 79.29C64.9 79.61 63.58 79.09 63.15 77.58C62.71 76.01 63.99 74.6001 65.4 74.6601H65.41Z" fill="#0E4A7A"/>
<path d="M75.59 61.65C74.15 61.65 72.7 61.71 71.27 61.63C69.61 61.54 67.96 61.32 66.31 61.15C65.81 61.1 65.3 61 64.81 60.9C63.72 60.69 63.07 59.57 63.04 58.72C63.01 57.81 63.61 56.84 64.62 56.51C65 56.39 65.44 56.41 65.85 56.45C67.37 56.59 68.89 56.79 70.41 56.93C71.2 57 72 57.02 72.79 57.04C74.32 57.07 75.84 57.06 77.37 57.11C78.6 57.15 79.6 58.05 79.61 59.42C79.61 60.54 78.83 61.57 77.49 61.67C76.86 61.72 76.22 61.67 75.59 61.67C75.59 61.66 75.59 61.65 75.59 61.64V61.65Z" fill="#0E4A7A"/>
<path d="M85.38 56.4401C86.71 56.3401 87.66 57.5401 87.68 58.6801C87.71 60.0101 86.49 61.0701 84.93 61.0801C83.6 61.0801 82.53 59.9601 82.56 58.7601C82.59 57.4801 83.44 56.3901 85.38 56.4501V56.4401Z" fill="#0E4A7A"/>
</g>
<path d="M112.05 72.0299C111.92 73.75 111.29 75.26 110.29 76.66C108.53 79.12 106.12 80.77 103.49 82.16C101.09 83.43 98.56 84.3899 95.93 85.0399C93.79 85.5699 91.64 86.0999 89.47 86.5199C87.97 86.8099 86.42 86.88 84.9 87.06C81.56 87.4399 78.2 87.39 74.85 87.34C73.1 87.31 71.36 87.13 69.61 86.95C68.06 86.7899 66.51 86.61 64.97 86.33C63.33 86.03 61.71 85.6399 60.1 85.2399C57.7 84.6399 55.37 83.79 53.13 82.75C51.24 81.88 49.46 80.81 47.86 79.47C46.08 77.9799 44.57 76.26 43.87 73.98C43.64 73.22 43.48 72.4 43.48 71.61C43.46 59.18 43.47 46.76 43.46 34.33C43.46 32.28 44.32 30.57 45.51 29C47.04 26.96 49.08 25.53 51.27 24.28C53 23.29 54.82 22.4999 56.7 21.8899C58.57 21.2899 60.46 20.7499 62.37 20.2999C64.14 19.8799 65.94 19.6 67.73 19.29C68.48 19.16 69.24 19.13 69.99 19.08C71.79 18.96 73.59 18.86 75.39 18.76C75.63 18.74 75.86 18.72 76.1 18.7C77.4 18.7 78.69 18.7 79.99 18.7C80.06 18.72 80.13 18.74 80.2 18.76C81.21 18.8 82.22 18.7999 83.23 18.8899C84.7 19.0199 86.18 19.1799 87.64 19.3799C89.1 19.5799 90.56 19.77 92 20.09C94.01 20.54 96.01 21.03 97.97 21.62C100.79 22.47 103.48 23.67 105.94 25.3099C108.06 26.7199 109.96 28.3899 111.12 30.7299C111.6 31.7 111.97 32.7199 112.02 33.82C112.07 34.86 112.12 35.91 112.12 36.9599C112.12 48.3799 112.12 59.81 112.12 71.23C112.12 71.43 112.11 71.63 112.1 71.83C112.08 71.9 112.06 71.97 112.04 72.04L112.05 72.0299ZM48.06 61.4199L48.08 61.52C48.08 64.76 48.08 67.99 48.08 71.23V71.43C48.1 71.7099 48.08 72 48.16 72.26C48.6 73.93 49.74 75.1 51.05 76.11C52.95 77.59 55.09 78.63 57.34 79.48C59.53 80.31 61.77 80.97 64.07 81.43C65.73 81.76 67.4 82.02 69.08 82.23C70.76 82.45 72.45 82.6799 74.14 82.7099C78.02 82.7799 81.91 82.8799 85.77 82.3399C87.23 82.1299 88.71 82 90.15 81.7099C91.86 81.36 93.56 80.93 95.24 80.43C96.7 80 98.14 79.5 99.54 78.9199C101.95 77.9299 104.21 76.66 106.01 74.7099C106.66 74.0099 107.21 73.22 107.36 72.23C107.38 72.09 107.41 71.9599 107.43 71.82C107.43 71.7599 107.44 71.7 107.45 71.6399C107.49 71.47 107.56 71.2999 107.56 71.1299C107.56 67.8899 107.56 64.65 107.56 61.41C107.56 61.3699 107.56 61.33 107.56 61.29C107.52 61.32 107.48 61.36 107.44 61.3899C107.2 61.5599 106.97 61.7299 106.73 61.91C106.67 61.93 106.6 61.9399 106.55 61.9799C104.7 63.2999 102.71 64.36 100.6 65.18C99.06 65.7799 97.47 66.2699 95.89 66.7399C94.64 67.1199 93.38 67.4699 92.09 67.7099C90.24 68.0499 88.37 68.2999 86.49 68.5299C84.76 68.7399 83.02 68.97 81.29 69.01C78.71 69.07 76.13 69.0099 73.55 68.9199C71.92 68.8599 70.29 68.7099 68.66 68.5299C67.06 68.3499 65.45 68.17 63.89 67.8C61.43 67.22 58.97 66.57 56.56 65.8C54.48 65.14 52.49 64.2299 50.64 63.06C49.85 62.56 49.07 62.04 48.29 61.52L48.18 61.4C48.18 61.4 48.1 61.3299 48.06 61.2999C48.06 61.34 48.06 61.38 48.06 61.43V61.4199ZM48.06 43.0999C48.06 43.0999 48.07 43.17 48.08 43.2C48.08 44.43 48.05 45.67 48.06 46.9C48.06 49.17 48.08 51.4399 48.1 53.7099L48.17 53.91C48.18 53.9799 48.19 54.04 48.2 54.11C48.22 54.15 48.25 54.19 48.27 54.22C48.27 54.25 48.29 54.2799 48.31 54.2999C48.33 54.3699 48.35 54.4399 48.38 54.5C48.81 55.18 49.16 55.92 49.68 56.52C50.89 57.9 52.46 58.84 54.06 59.7C55.86 60.67 57.75 61.43 59.72 61.9599C61.87 62.54 64.03 63.04 66.21 63.49C67.43 63.74 68.68 63.86 69.92 64C71.4 64.16 72.88 64.3299 74.36 64.3899C76.04 64.4599 77.73 64.4199 79.41 64.4199C79.71 64.4199 80.01 64.42 80.32 64.41C80.83 64.37 81.34 64.34 81.85 64.3C83.51 64.17 85.17 64.0799 86.83 63.8899C88.32 63.7099 89.82 63.5 91.28 63.16C93.9 62.5499 96.51 61.88 99.01 60.82C101.63 59.7099 104.14 58.4399 106.08 56.2999C106.7 55.6199 107.25 54.87 107.37 53.9C107.44 53.64 107.56 53.3699 107.56 53.11C107.57 49.77 107.56 46.43 107.56 43.08C107.56 43.04 107.56 43 107.56 42.9599C107.52 42.99 107.48 43.03 107.44 43.06C107.27 43.16 107.11 43.2699 106.94 43.3699C105.24 44.5999 103.45 45.7 101.49 46.45C99.46 47.23 97.39 47.9099 95.32 48.5999C94.72 48.7999 94.08 48.8899 93.46 49.0299C92.46 49.2499 91.46 49.52 90.45 49.68C89.16 49.8899 87.85 50.0599 86.55 50.1899C84.68 50.3799 82.81 50.6299 80.94 50.6699C78.1 50.7299 75.25 50.64 72.41 50.58C71.52 50.56 70.63 50.4799 69.74 50.3699C68.42 50.1999 67.1 50.0199 65.79 49.7799C64.29 49.5099 62.79 49.25 61.32 48.88C59.74 48.48 58.18 47.98 56.62 47.47C54.56 46.8 52.59 45.89 50.73 44.77C49.9 44.27 49.11 43.7099 48.31 43.1699C48.27 43.1299 48.24 43.1 48.2 43.06C48.16 43.03 48.12 42.99 48.08 42.9599V43.08L48.06 43.0999ZM48.04 34.68C48.07 34.99 48.06 35.31 48.13 35.61C48.38 36.63 48.95 37.4799 49.66 38.2299C51.06 39.7099 52.77 40.7599 54.58 41.6699C57.27 43.0099 60.09 43.95 63.01 44.58C65.2 45.06 67.43 45.39 69.65 45.7C71.17 45.91 72.71 46.07 74.24 46.09C77.43 46.15 80.63 46.24 83.81 45.91C84.93 45.7999 86.05 45.77 87.16 45.58C89.23 45.23 91.29 44.8699 93.33 44.3699C96.22 43.66 99.04 42.6999 101.68 41.2799C103.62 40.2399 105.42 39.03 106.68 37.18C107.53 35.93 107.78 34.6 107.17 33.13C106.58 31.7 105.52 30.7 104.34 29.8099C102.71 28.57 100.87 27.6799 98.98 26.8899C96.32 25.7799 93.54 25.04 90.73 24.49C88.83 24.12 86.9 23.9 84.97 23.69C83.23 23.5 81.48 23.32 79.73 23.3099C77.21 23.2899 74.68 23.42 72.16 23.5C71.61 23.52 71.07 23.53 70.53 23.6C69.44 23.74 68.35 23.89 67.27 24.1C65.33 24.46 63.37 24.8 61.46 25.27C58.97 25.88 56.57 26.75 54.28 27.92C52.57 28.8 50.93 29.7799 49.64 31.2199C48.77 32.1899 47.98 33.25 48.05 34.68H48.04Z" fill="#010101"/>
<path d="M81.89 28.0199C81.7 28.8099 81.51 29.6099 81.31 30.3999C80.84 32.2199 80.38 34.0399 79.89 35.8499C79.31 38.0399 78.71 40.2299 78.13 42.4299C77.88 43.3899 76.68 44.1699 75.57 43.9899C74.58 43.8299 73.53 42.6499 73.69 41.7499C73.84 40.9099 74 40.0799 74.21 39.2599C74.92 36.5399 75.66 33.8199 76.38 31.0999C76.72 29.8399 77.06 28.5699 77.37 27.3099C77.73 25.8699 79.33 25.3599 80.5 25.8799C81.29 26.2299 81.89 26.9399 81.88 28.0199H81.89Z" fill="#020202"/>
<path d="M84.67 39.0799C84.69 38.4199 84.99 37.8799 85.42 37.4399C86.22 36.6199 87.04 35.8199 87.91 35.0699C88.23 34.7899 88.07 34.6799 87.88 34.4999C87.12 33.7799 86.4 33.0099 85.6 32.3399C84.44 31.3599 84.47 29.8199 85.39 28.8899C85.83 28.4499 86.83 28.1599 87.53 28.3299C88.23 28.4999 88.72 28.9499 89.21 29.4199C90.49 30.6499 91.74 31.9199 93.05 33.1199C93.98 33.9799 94.09 35.5099 93.11 36.4399C91.55 37.9299 90.04 39.4799 88.42 40.8999C87.18 41.9799 85.45 41.4299 84.84 39.8399C84.75 39.5999 84.73 39.3299 84.68 39.0699L84.67 39.0799Z" fill="#020202"/>
<path d="M67.36 34.81C68.29 35.7 69.2 36.56 70.1 37.45C70.92 38.25 71.05 39.45 70.43 40.39C69.74 41.44 68.06 41.88 66.91 40.76C65.83 39.72 64.76 38.68 63.69 37.63C63.17 37.12 62.6 36.65 62.16 36.08C61.51 35.24 61.64 33.97 62.4 33.24C63.92 31.76 65.45 30.27 67 28.83C67.65 28.23 68.48 28.1 69.31 28.39C70.27 28.73 70.78 29.42 70.82 30.48C70.85 31.26 70.5 31.82 70 32.31C69.15 33.15 68.27 33.95 67.37 34.8L67.36 34.81Z" fill="#020202"/>
<path d="M77.66 78.27C76.94 78.22 76.12 78.24 75.32 78.11C74.28 77.94 73.42 76.84 73.5 75.83C73.59 74.69 74.32 73.71 75.54 73.61C76.73 73.52 77.94 73.61 79.14 73.58C80.13 73.56 81.11 73.48 82.1 73.43C82.73 73.4 83.36 73.39 83.99 73.32C84.99 73.22 85.99 73.12 86.97 72.94C88.28 72.7 89.35 73.11 89.82 74.17C90.45 75.61 89.71 77.09 88.29 77.36C86.63 77.67 84.95 77.87 83.26 78.01C81.43 78.16 79.59 78.19 77.66 78.27Z" fill="#010101"/>
<path d="M67.78 72.82C68.3 72.96 68.84 73.03 69.33 73.24C70.12 73.59 70.47 74.23 70.52 75.13C70.59 76.33 69.81 77.24 68.8 77.45C67.27 77.77 65.95 77.25 65.52 75.74C65.08 74.17 66.36 72.76 67.77 72.82H67.78Z" fill="#030303"/>
<path d="M77.96 59.81C76.52 59.81 75.07 59.8699 73.64 59.7899C71.98 59.6999 70.33 59.48 68.68 59.31C68.18 59.26 67.67 59.16 67.18 59.06C66.09 58.85 65.44 57.7299 65.41 56.88C65.38 55.9699 65.98 54.9999 66.99 54.6699C67.37 54.5499 67.81 54.5699 68.22 54.6099C69.74 54.7499 71.26 54.9499 72.78 55.0899C73.57 55.1599 74.37 55.1799 75.16 55.1999C76.69 55.2299 78.21 55.2199 79.74 55.2699C80.97 55.3099 81.97 56.21 81.98 57.58C81.98 58.7 81.2 59.73 79.86 59.83C79.23 59.88 78.59 59.83 77.96 59.83C77.96 59.82 77.96 59.8099 77.96 59.7999V59.81Z" fill="#010101"/>
<path d="M87.75 54.6C89.08 54.5 90.03 55.7 90.05 56.84C90.08 58.17 88.86 59.23 87.3 59.24C85.97 59.24 84.9 58.12 84.93 56.92C84.96 55.64 85.81 54.55 87.75 54.61V54.6Z" fill="#030303"/>
</g>
<defs>
<clipPath id="clip0_404_1520">
<rect width="158.16" height="124.07" fill="white"/>
</clipPath>
</defs>
</svg>
