<svg width="217" height="228" viewBox="0 0 217 228" fill="none" xmlns="http://www.w3.org/2000/svg">
<g clip-path="url(#clip0_437_108)">
<path d="M31.9086 52.7102C28.8343 54.6129 25.7071 56.8502 24.2936 60.1622C22.5268 64.3375 23.9049 69.1293 23.3572 73.6393C22.4915 80.8271 16.926 86.3764 12.8447 92.3838C0.848024 110.036 1.94345 135.458 15.3889 152.035C20.1593 157.919 26.2018 162.641 31.3432 168.172C38.7638 176.153 44.3116 185.754 51.9619 193.523C74.1354 216.056 113.977 218.029 138.306 197.84C145.974 191.48 152.017 183.429 157.988 175.448C172.9 155.559 187.795 135.669 202.706 115.779C209.438 106.812 216.435 97.1052 216.965 85.9008C217.247 79.9991 215.374 73.6745 210.745 70.0102C208.378 68.1428 205.48 67.0857 202.6 66.152C192.335 62.8224 181.664 60.7612 171.469 57.2202C148.024 49.0811 128.059 38.8984 103.164 35.516C78.2698 32.1335 52.6157 39.8498 31.9086 52.7278V52.7102Z" fill="#EB611C"/>
<path d="M42.7922 70.4859C38.5695 77.7793 34.8239 85.3547 31.6083 93.1414C40.9724 73.2165 50.3542 53.3092 59.7183 33.3843C54.5415 37.3834 50.1952 42.4395 47.0326 48.1474C43.4989 54.5248 41.4494 61.6069 39.4353 68.6185C36.838 77.6912 34.2232 86.7464 31.6259 95.8192" fill="#9DD8F2"/>
<path d="M45.6544 80.2457C41.3434 88.4729 37.5977 96.9819 34.4528 105.72C37.9158 97.4576 41.3787 89.1775 44.8593 80.9151C42.3681 94.586 37.2444 107.764 29.8414 119.514C29.117 113.947 31.6966 108.081 36.308 104.874" fill="#9DD8F2"/>
<path d="M192.371 73.8683C183.431 83.8396 177.088 96.1011 174.084 109.12C182.512 98.0037 188.89 85.3547 192.795 71.9657C187.141 79.3472 183.183 88.0148 181.31 97.1052" fill="#9DD8F2"/>
<path d="M179.261 118.528C173.607 127.9 170.091 138.541 169.084 149.428C169.013 150.238 168.96 151.084 169.331 151.789C170.445 153.903 173.695 152.828 175.639 151.436C183.996 145.482 191.487 138.294 197.777 130.19C199.138 128.428 200.48 126.579 200.993 124.429C201.505 122.28 201.028 119.743 199.279 118.369C198.007 117.382 196.311 117.153 194.703 116.96C189.296 116.325 183.289 115.832 178.943 119.091" fill="#F3941B"/>
<path d="M191.805 98.6379C191.399 102.126 192.017 106.953 195.533 107.217C198.148 107.429 199.897 104.681 201.046 102.32C201.894 100.576 202.724 98.8141 203.572 97.07C203.802 96.5943 204.032 96.0306 203.802 95.5549C203.572 95.0969 203.024 94.9383 202.53 94.8326C196.54 93.6523 189.985 97.3166 187.865 103.025" fill="#F3941B"/>
<path d="M16.078 108.909C9.41712 110.318 5.33578 117.065 3.18026 123.496C1.28977 129.098 0.212018 134.982 0 140.901C7.52663 130.137 13.1804 118.105 16.6787 105.473C16.608 104.821 15.3536 105.033 15.495 105.667" fill="#F3941B"/>
<path d="M93.0404 25.9147C76.7504 51.7941 60.478 77.656 44.188 103.535C28.3044 128.781 11.7493 157.461 18.0745 186.582C27.527 182.266 35.4953 174.814 40.407 165.688C39.6473 175.554 37.8628 185.331 35.0889 194.845C39.4176 191.85 43.1986 188.08 46.1845 183.746C45.8312 187.727 45.4601 191.709 45.1068 195.69C45.6898 191.92 46.9619 188.256 48.8524 184.926C49.1528 189.859 49.4708 194.792 49.7712 199.742L55.0186 195.338C55.0186 201.592 55.0186 207.864 55.0363 214.118L64.6301 211.704L70.9906 207.899L67.4216 221.094C71.3263 218.416 74.5419 214.77 76.715 210.577L76.291 221.059L86.0792 213.307C87.793 218.223 89.4891 223.138 91.2029 228.053C92.8814 223.983 95.7613 220.407 99.3833 217.905C100.196 220.108 100.991 222.292 101.804 224.494C111.521 200.006 127.281 177.932 147.282 160.773C146.487 176.171 142.688 191.392 136.151 205.362C149.472 167.468 177.565 135.933 189.667 97.6514C182.954 105.826 176.257 113.982 169.543 122.157C172.353 107.904 174.437 93.529 175.833 79.083L170.833 82.1836C177.388 62.5229 184.703 43.1265 192.777 24.0473C187.706 29.5614 182.635 35.0756 177.547 40.5897L177.459 35.1284C172.158 37.3658 167.335 40.6954 163.377 44.853C166.027 29.6143 170.073 14.6045 175.445 0.0880737C165.886 7.36392 156.681 15.0978 147.882 23.2721L149.578 10.3588L144.561 16.7186C142.759 14.7278 140.939 12.7371 139.137 10.7464C135.055 13.389 130.974 16.0491 126.893 18.6917C128.924 16.2605 123.218 13.1423 122.246 16.1548C122.493 13.8118 122.723 11.4687 122.97 9.12562C121.451 11.5215 119.931 13.9175 118.412 16.331C116.892 13.0542 116.557 9.24895 117.528 5.76077L104.878 21.5809L105.779 15.7849C101.839 18.7093 98.4469 22.3737 95.832 26.5313L96.4857 11.2397C88.8884 14.4636 84.2063 22.0213 80.2487 29.2443C71.0259 46.1391 63.0929 63.7209 56.5557 81.8136C60.7077 75.3482 64.8597 68.8827 69.0118 62.4172C64.5594 68.6184 60.9021 75.3834 58.1812 82.5183" fill="#9DD8F2"/>
<path d="M162.918 75.172C162.829 75.3482 162.706 75.5067 162.688 75.6829C162.388 78.9421 161.681 82.1131 160.515 85.1609C159.437 87.9796 158.094 90.6574 156.381 93.159C154.879 95.3788 153.165 97.4047 151.222 99.2193C150.709 99.695 150.568 100.153 150.744 100.84C150.903 101.474 150.833 102.179 150.903 102.848C151.098 104.874 151.328 106.9 151.504 108.909C151.646 110.406 151.752 111.921 151.893 113.419C152.034 114.881 152.193 116.325 152.37 117.788C152.653 120.043 150.744 121.505 148.872 120.835C148.43 120.677 148.041 120.342 147.67 120.043C146.61 119.179 145.568 118.299 144.508 117.418C143.165 116.308 141.822 115.216 140.479 114.123C138.924 112.855 137.387 111.586 135.833 110.318C135.303 109.878 134.772 109.402 134.207 109.014C133.995 108.873 133.659 108.821 133.394 108.856C131.981 109.085 130.567 109.455 129.136 109.596C127.582 109.754 126.009 109.737 124.454 109.754C121.627 109.807 118.836 109.42 116.097 108.75C112.846 107.957 109.737 106.777 106.821 105.139C104.348 103.765 102.069 102.161 99.9486 100.276C97.369 97.9685 95.1252 95.3964 93.2347 92.4896C91.6799 90.1113 90.4078 87.6097 89.4361 84.9495C88.588 82.5888 87.9696 80.1752 87.5632 77.6912C87.0862 74.8197 87.1392 71.9305 87.2452 69.0413C87.3335 66.5573 87.8813 64.1085 88.5703 61.695C89.2417 59.3343 90.0898 57.0264 91.2735 54.8772C92.1569 53.2564 93.1287 51.6708 94.2241 50.191C95.4609 48.4998 96.7683 46.8262 98.2348 45.3287C100.832 42.6685 103.8 40.4664 107.122 38.7223C109.843 37.2953 112.634 36.0974 115.638 35.4279C117.581 35.0051 119.56 34.7232 121.521 34.4766C122.97 34.3004 124.437 34.1947 125.868 34.23C130.992 34.4061 135.956 35.4455 140.638 37.5772C143.324 38.7928 145.815 40.3078 148.147 42.1048C151.186 44.4479 153.783 47.1785 156.01 50.3143C158.73 54.1372 160.621 58.3301 161.752 62.8577C162.211 64.7251 162.37 66.6806 162.67 68.6008C162.688 68.7594 162.829 68.9003 162.9 69.0589V75.1192L162.918 75.172ZM123.765 104.575C124.596 104.575 125.408 104.575 126.239 104.575C127.564 104.452 128.889 104.381 130.196 104.187C131.38 104.011 132.511 103.659 133.677 103.395C134.702 103.166 135.638 103.395 136.433 104.064C137.953 105.332 139.472 106.601 141.009 107.869C142.37 108.997 143.713 110.107 145.091 111.217C145.532 111.586 146.009 111.921 146.539 112.344C146.486 111.657 146.469 111.111 146.416 110.565C146.31 109.349 146.168 108.134 146.045 106.918C145.956 105.896 145.886 104.892 145.78 103.87C145.621 102.161 145.444 100.47 145.285 98.7613C145.197 97.8276 145.709 97.1933 146.363 96.612C147.105 95.9601 147.865 95.3259 148.518 94.586C149.684 93.2295 150.868 91.8554 151.875 90.3755C152.918 88.8428 153.854 87.2397 154.649 85.5661C155.603 83.5753 156.381 81.5141 156.769 79.3296C157.07 77.6384 157.423 75.9295 157.529 74.2207C157.635 72.459 157.564 70.662 157.423 68.9003C157.282 67.2443 157.034 65.5883 156.628 63.9852C155.656 60.127 153.995 56.5684 151.699 53.3269C150.038 50.9662 148.059 48.905 145.868 47.0376C143.978 45.4344 141.91 44.0779 139.702 42.9856C136.857 41.5939 133.907 40.4488 130.726 40.0612C128.783 39.8322 126.822 39.5327 124.878 39.4975C123.235 39.4622 121.574 39.6912 119.949 39.9555C118.253 40.2374 116.557 40.5897 114.914 41.083C112.387 41.8405 109.984 42.9328 107.776 44.395C106.132 45.4873 104.507 46.6324 103.058 47.9536C101.627 49.2397 100.39 50.7371 99.1535 52.217C97.2807 54.4367 95.9026 56.9383 94.8072 59.6161C93.376 63.1396 92.4396 66.7687 92.3866 70.5916C92.3866 71.5429 92.3866 72.4942 92.3866 73.4279C92.5103 74.6963 92.5986 75.9824 92.7577 77.2508C93.0934 79.7701 93.8177 82.1836 94.8425 84.4914C95.4609 85.8656 96.0616 87.2573 96.8743 88.5081C98.0581 90.3403 99.3302 92.1372 100.744 93.7756C102.475 95.784 104.436 97.5633 106.68 98.9727C108.235 99.9416 109.807 100.928 111.468 101.65C113.341 102.461 115.302 103.077 117.263 103.641C119.366 104.24 121.521 104.557 123.712 104.54L123.765 104.575Z" fill="#030303"/>
<path d="M72.351 68.7418C79.8776 68.7418 86.8212 72.7585 89.3301 73.3927C90.7082 73.745 91.4149 74.8373 91.2206 76.37C91.0969 77.4798 89.9131 78.484 88.7293 78.4664C88.1993 78.4664 87.6869 78.3079 87.1745 78.2198C85.9554 78.0084 79.2062 75.0135 74.1708 74.0798C72.881 73.9388 71.5913 73.8331 70.3015 73.8331C67.881 73.8684 65.4781 74.1855 63.0929 74.714C60.637 75.2425 58.3048 76.0881 56.0786 77.198C53.8701 78.2902 51.8206 79.6291 49.9125 81.1971C47.5803 83.0821 45.5661 85.249 43.8346 87.6801C41.6791 90.7103 40.036 94.0223 39.0996 97.6162C38.6049 99.4836 38.2868 101.421 38.0925 103.342C37.9158 105.033 37.8805 106.742 37.9688 108.451C38.1101 111.076 38.6225 113.665 39.4176 116.185C40.2303 118.757 41.3257 121.205 42.7745 123.46C43.7286 124.94 44.8064 126.367 45.9725 127.706C47.0856 128.992 48.393 130.102 49.5238 131.353C49.8771 131.74 50.1775 132.357 50.1775 132.868C50.1598 134.401 49.9831 135.916 49.8595 137.448C49.7711 138.417 49.6828 139.386 49.5944 140.373C49.4354 141.976 49.2587 143.561 49.1174 145.165C49.0644 145.623 49.0644 146.098 49.029 146.644C49.2057 146.574 49.3824 146.521 49.5061 146.415C50.9549 145.217 52.386 144.019 53.8524 142.839C55.4072 141.553 56.9797 140.285 58.5522 139.016C58.8525 138.77 59.1529 138.523 59.4533 138.276C60.2837 137.607 61.2201 137.677 62.1918 137.871C63.6053 138.171 65.001 138.558 66.4145 138.699C68.3757 138.893 70.3545 138.963 72.3157 138.963C74.1885 138.963 76.026 138.576 77.8634 138.171C80.3546 137.624 82.7222 136.779 85.019 135.651C87.5986 134.401 89.9484 132.797 92.1216 130.93C94.8425 128.605 97.0864 125.892 98.8708 122.809C100.62 119.796 102.351 109.208 101.662 101.739C101.857 100.664 102.493 100.734 103.659 100.329C104.648 99.9945 105.585 100.135 106.362 100.822C107.069 101.457 107.352 102.267 107.157 103.289C108.094 110.318 106.062 120.254 104.542 123.302C102.952 126.491 100.938 129.397 98.4998 132.022C95.8673 134.876 92.846 137.237 89.5067 139.21C86.2911 141.095 82.8282 142.416 79.2062 143.262C77.4394 143.685 75.6019 143.896 73.7821 144.037C71.8386 144.196 69.8774 144.284 67.934 144.143C66.0258 144.019 64.1176 143.561 62.2271 143.297C61.9445 143.262 61.5734 143.332 61.3614 143.491C60.0716 144.513 58.8172 145.587 57.5274 146.644C56.22 147.719 54.8949 148.776 53.5874 149.851C51.7853 151.313 50.0008 152.793 48.181 154.255C47.6686 154.678 47.1032 155.048 46.5732 155.435H45.0891C43.5519 154.607 43.1456 153.727 43.3399 151.912C43.4989 150.432 43.5873 148.952 43.7286 147.472C43.9053 145.64 44.135 143.79 44.3293 141.958C44.4353 140.866 44.506 139.756 44.5943 138.664C44.718 137.36 44.877 136.074 44.9477 134.771C44.9477 134.471 44.7887 134.119 44.5767 133.872C42.9689 131.987 41.2021 130.225 39.7356 128.235C37.5801 125.31 35.884 122.104 34.8239 118.616C34.1348 116.325 33.4281 113.982 33.1277 111.622C32.792 108.944 32.7567 106.213 32.8627 103.518C32.9687 101.016 33.4458 98.5322 34.1878 96.1187C35.0006 93.4761 35.99 90.9217 37.3504 88.4905C38.3752 86.6231 39.4706 84.8085 40.8487 83.2054C42.1561 81.6727 43.5519 80.1929 44.9654 78.7483C46.5732 77.1099 48.446 75.7886 50.3718 74.5554C52.863 72.9699 55.4779 71.6662 58.2872 70.7677C59.8419 70.2745 61.4144 69.7636 63.0222 69.4641C64.9834 69.1117 66.9799 68.9884 68.9587 68.777C70.1248 68.777 71.2732 68.777 72.4393 68.777L72.351 68.7418Z" fill="#030303"/>
<path d="M85.7788 121.434C85.7258 122.809 84.7717 123.848 83.3406 124.095C82.4571 124.253 81.0437 123.319 80.6727 122.368C79.9659 120.624 79.2416 118.88 78.5348 117.136C78.2698 116.484 77.9871 115.815 77.6691 115.198C77.5807 115.022 77.2981 114.828 77.1037 114.828C72.722 114.81 68.358 114.828 63.9763 114.81C63.6229 114.81 63.4462 114.916 63.3049 115.268C62.7395 116.678 62.1388 118.07 61.5558 119.479C61.1494 120.448 60.7607 121.434 60.3367 122.386C59.7183 123.83 58.0398 124.553 56.6617 123.742C55.6369 123.126 54.9125 121.716 55.4779 120.377C57.015 116.836 58.4815 113.26 59.9656 109.701C61.7501 105.438 63.5523 101.192 65.3367 96.9291C66.2201 94.8326 67.0859 92.7538 67.9516 90.6574C68.7113 88.8076 70.4605 88.2262 72.139 89.3009C72.4923 89.5299 72.775 89.9527 72.9517 90.3403C73.9941 92.7891 74.9659 95.2378 75.9906 97.6866C76.7857 99.5716 77.6161 101.439 78.4288 103.324C79.1179 104.945 79.7539 106.583 80.443 108.222C81.4854 110.706 82.5278 113.19 83.5702 115.674C84.2416 117.294 84.9307 118.915 85.6021 120.554C85.7081 120.835 85.7434 121.135 85.8141 121.434H85.7788ZM75.3369 109.578C73.7291 105.755 72.1566 102.003 70.5842 98.2503C70.5312 98.2503 70.4782 98.268 70.4252 98.2856C68.8704 102.02 67.2979 105.755 65.7078 109.578H75.3369Z" fill="#030303"/>
<path d="M127.652 61.783C128.041 61.783 128.324 61.783 128.624 61.783C133.006 61.783 137.387 61.783 141.751 61.783C143.112 61.783 144.066 62.4349 144.455 63.58C144.967 65.0598 143.907 67.0153 141.804 66.9977C139.967 66.9977 138.129 67.0153 136.292 66.9977C135.744 66.9977 135.462 67.1562 135.214 67.6495C134.172 69.6931 133.129 71.7543 131.963 73.7274C130.974 75.401 129.772 76.9513 128.624 78.625C129.295 79.2063 130.002 79.8758 130.762 80.4747C132.617 81.9193 134.631 83.0997 136.857 83.8572C137.546 84.0862 138.253 84.28 138.96 84.4562C140.32 84.7909 141.045 85.9184 140.868 87.4335C140.744 88.5786 139.631 89.6356 138.394 89.4947C137.158 89.3537 135.939 89.019 134.755 88.6491C132.582 87.9796 130.638 86.7817 128.765 85.5132C127.599 84.7205 126.557 83.7339 125.461 82.8002C125.179 82.5536 125.002 82.4831 124.649 82.7473C123.147 83.9277 121.663 85.1433 120.09 86.2179C118.041 87.6097 115.779 88.6314 113.359 89.2304C112.528 89.4418 111.68 89.7942 110.779 89.4242C109.825 89.0366 108.924 87.8387 109.048 86.905C109.224 85.5837 109.825 84.7028 111.345 84.3505C114.136 83.7163 116.61 82.4655 118.871 80.7566C119.772 80.0872 120.603 79.3473 121.486 78.625C120.603 77.4094 119.737 76.2995 118.977 75.1368C117.475 72.8642 116.08 70.5211 114.984 68.0195C114.684 67.3324 114.33 66.9272 113.429 66.9801C111.539 67.0682 109.631 67.0153 107.74 66.9625C106.662 66.9272 105.956 66.2578 105.62 65.2888C105.231 64.2142 105.532 63.2629 106.38 62.4701C106.963 61.924 107.67 61.8007 108.429 61.8007C112.882 61.8007 117.352 61.8007 121.804 61.8007C121.998 61.8007 122.21 61.8007 122.493 61.8007C122.493 61.3955 122.493 61.0431 122.493 60.7084C122.493 59.44 122.493 58.1539 122.511 56.8855C122.546 55.7052 123.589 54.7362 124.755 54.6834C125.479 54.6658 126.15 54.7362 126.716 55.1943C127.387 55.7228 127.652 56.4803 127.688 57.2907C127.723 58.5415 127.688 59.8099 127.688 61.0607V61.8183L127.652 61.783ZM129.719 67.0329H120.32C121.61 69.7636 123.235 72.1595 125.037 74.573C126.857 72.1419 128.412 69.7107 129.737 67.0329H129.719Z" fill="#030303"/>
<path d="M113.588 179.042C112.846 178.989 112.016 179.007 111.203 178.884C110.143 178.707 109.26 177.58 109.348 176.558C109.436 175.395 110.196 174.391 111.433 174.303C112.652 174.215 113.889 174.303 115.108 174.268C116.115 174.25 117.122 174.162 118.147 174.109C118.783 174.074 119.437 174.074 120.073 174.004C121.097 173.898 122.122 173.792 123.129 173.616C124.472 173.37 125.567 173.792 126.044 174.867C126.698 176.329 125.938 177.844 124.472 178.126C122.776 178.443 121.044 178.655 119.331 178.796C117.458 178.954 115.567 178.972 113.606 179.06L113.588 179.042Z" fill="#010101"/>
<path d="M103.465 173.475C103.995 173.616 104.542 173.687 105.055 173.916C105.867 174.268 106.221 174.92 106.274 175.836C106.344 177.069 105.549 177.985 104.525 178.214C102.97 178.531 101.609 178.02 101.168 176.47C100.708 174.867 102.033 173.422 103.482 173.493L103.465 173.475Z" fill="#030303"/>
<path d="M113.889 160.192C112.422 160.192 110.938 160.262 109.472 160.192C107.776 160.104 106.079 159.875 104.401 159.699C103.889 159.646 103.376 159.54 102.864 159.452C101.751 159.241 101.079 158.096 101.062 157.232C101.026 156.299 101.645 155.312 102.687 154.977C103.076 154.854 103.535 154.872 103.942 154.907C105.496 155.048 107.051 155.259 108.606 155.4C109.419 155.471 110.231 155.488 111.044 155.506C112.599 155.541 114.171 155.523 115.726 155.576C116.998 155.611 118.005 156.528 118.023 157.937C118.023 159.082 117.228 160.121 115.85 160.227C115.214 160.28 114.56 160.227 113.906 160.227C113.906 160.227 113.906 160.21 113.906 160.192H113.889Z" fill="#010101"/>
<path d="M123.906 154.889C125.267 154.784 126.239 156.017 126.256 157.179C126.292 158.536 125.037 159.611 123.447 159.628C122.087 159.628 120.991 158.483 121.027 157.268C121.062 155.964 121.928 154.854 123.924 154.907L123.906 154.889Z" fill="#030303"/>
<path d="M148.854 136.867C148.854 135.792 148.801 134.735 148.748 133.661C148.695 132.533 148.324 131.494 147.829 130.507C146.645 128.129 144.702 126.42 142.529 124.975C140.02 123.302 137.264 122.086 134.366 121.205C132.352 120.606 130.302 120.096 128.253 119.637C126.786 119.32 125.285 119.109 123.801 118.915C122.299 118.704 120.797 118.545 119.278 118.422C118.253 118.334 117.21 118.334 116.168 118.299C116.097 118.281 116.027 118.263 115.956 118.246C114.631 118.246 113.306 118.246 111.981 118.246C111.733 118.263 111.504 118.281 111.256 118.316C109.419 118.422 107.581 118.528 105.726 118.651C104.949 118.704 104.171 118.739 103.412 118.862C103.288 118.88 103.164 118.898 103.04 118.933C102.51 119.955 101.963 120.959 101.433 121.981C101.026 122.756 100.62 123.531 100.178 124.288C101.097 124.112 102.016 123.954 102.917 123.777C104.012 123.566 105.143 123.425 106.256 123.267C106.804 123.196 107.369 123.179 107.935 123.161C110.514 123.09 113.094 122.949 115.691 122.967C117.475 122.967 119.26 123.161 121.044 123.355C123.023 123.566 125.002 123.795 126.945 124.165C129.825 124.729 132.67 125.486 135.391 126.614C137.334 127.424 139.207 128.323 140.868 129.591C142.069 130.507 143.147 131.529 143.766 132.974C144.384 134.471 144.137 135.828 143.271 137.114C141.981 138.999 140.144 140.232 138.165 141.289C135.462 142.733 132.582 143.72 129.631 144.442C127.546 144.953 125.426 145.323 123.324 145.675C122.193 145.869 121.044 145.887 119.896 146.01C116.645 146.345 113.376 146.257 110.108 146.186C108.535 146.151 106.963 145.993 105.408 145.781C103.129 145.464 100.85 145.129 98.6058 144.636C95.6199 143.984 92.7223 143.033 89.9837 141.676C88.1286 140.743 86.3794 139.686 84.9483 138.171C84.595 137.801 84.2946 137.413 84.0296 136.99C82.2274 137.906 80.4253 138.84 78.6055 139.756C78.6055 150.573 78.6055 161.408 78.6055 172.224C78.6055 173.035 78.7645 173.863 79.0118 174.638C79.7186 176.963 81.2734 178.707 83.0932 180.24C84.7186 181.614 86.5561 182.707 88.482 183.587C90.7788 184.644 93.164 185.508 95.6199 186.124C97.2807 186.529 98.9238 186.935 100.602 187.234C102.175 187.516 103.765 187.71 105.355 187.868C107.14 188.045 108.924 188.238 110.708 188.256C114.136 188.309 117.581 188.362 120.991 187.974C122.546 187.798 124.136 187.71 125.673 187.428C127.9 187.005 130.09 186.459 132.281 185.93C134.967 185.261 137.564 184.292 140.02 182.988C142.705 181.579 145.179 179.888 146.981 177.386C148.006 175.959 148.66 174.409 148.783 172.665C148.801 172.594 148.819 172.524 148.854 172.453C148.854 172.242 148.872 172.048 148.872 171.837C148.872 160.174 148.872 148.529 148.872 136.867H148.854ZM83.4112 143.121C83.4112 143.121 83.4819 143.191 83.5172 143.227C84.3476 143.773 85.1427 144.354 85.9907 144.847C87.8989 145.993 89.8954 146.909 92.0156 147.596C93.6057 148.107 95.1958 148.618 96.8213 149.04C98.3231 149.428 99.8602 149.692 101.397 149.956C102.74 150.185 104.083 150.379 105.426 150.555C106.327 150.661 107.246 150.749 108.147 150.767C111.062 150.82 113.977 150.908 116.875 150.855C118.783 150.82 120.709 150.555 122.617 150.362C123.96 150.221 125.285 150.062 126.61 149.851C127.652 149.675 128.659 149.41 129.684 149.181C130.32 149.04 130.974 148.952 131.592 148.741C133.712 148.036 135.833 147.349 137.9 146.556C139.914 145.799 141.734 144.671 143.483 143.421C143.66 143.315 143.819 143.209 143.995 143.103C144.031 143.068 144.084 143.033 144.119 142.998C144.119 143.033 144.119 143.086 144.119 143.121C144.119 146.539 144.119 149.939 144.119 153.357C144.119 153.621 143.995 153.903 143.925 154.167C143.801 155.153 143.235 155.911 142.599 156.616C140.603 158.8 138.041 160.104 135.373 161.231C132.811 162.306 130.143 162.993 127.476 163.61C125.974 163.962 124.454 164.173 122.917 164.35C121.221 164.543 119.525 164.631 117.829 164.772C117.316 164.808 116.786 164.843 116.256 164.878C115.938 164.878 115.638 164.878 115.32 164.878C113.588 164.878 111.875 164.913 110.143 164.843C108.624 164.772 107.104 164.614 105.602 164.438C104.33 164.297 103.058 164.173 101.804 163.927C99.5775 163.469 97.3514 162.958 95.1605 162.359C93.1463 161.813 91.2205 161.038 89.3654 160.051C87.7222 159.17 86.1144 158.219 84.8777 156.809C84.3476 156.21 83.9942 155.435 83.5525 154.748C83.5349 154.678 83.4995 154.607 83.4819 154.537C83.4642 154.519 83.4465 154.484 83.4465 154.449C83.4289 154.414 83.3935 154.378 83.3759 154.325C83.3759 154.255 83.3582 154.185 83.3405 154.132L83.2699 153.92C83.2699 151.612 83.2345 149.287 83.2345 146.979C83.2345 145.728 83.2345 144.46 83.2522 143.209C83.2522 143.174 83.2522 143.139 83.2522 143.103C83.2522 143.068 83.2522 143.015 83.2522 142.98C83.2875 143.015 83.3405 143.051 83.3759 143.086L83.4112 143.121ZM144.154 171.749C144.154 171.925 144.084 172.101 144.048 172.26C144.048 172.33 144.048 172.383 144.031 172.453C144.013 172.594 143.978 172.735 143.96 172.859C143.801 173.863 143.235 174.673 142.582 175.378C140.744 177.369 138.43 178.655 135.956 179.676C134.525 180.258 133.041 180.786 131.557 181.209C129.843 181.72 128.094 182.16 126.345 182.513C124.861 182.812 123.359 182.953 121.857 183.165C117.899 183.711 113.924 183.605 109.949 183.552C108.217 183.517 106.486 183.288 104.772 183.059C103.058 182.847 101.344 182.566 99.6482 182.231C97.2984 181.773 95.0015 181.086 92.7576 180.24C90.4608 179.377 88.2699 178.302 86.3264 176.805C84.9837 175.765 83.8352 174.585 83.3759 172.876C83.3052 172.612 83.3229 172.312 83.3052 172.031V171.819C83.3052 168.525 83.3052 165.213 83.3052 161.918C83.3052 161.883 83.3052 161.848 83.2875 161.813C83.2875 161.777 83.2875 161.725 83.2875 161.689C83.3229 161.725 83.3759 161.76 83.4112 161.795C83.4465 161.83 83.4819 161.866 83.5172 161.918C84.3123 162.447 85.1073 162.975 85.9201 163.486C87.8106 164.684 89.8601 165.618 91.9802 166.287C94.4538 167.063 96.9627 167.732 99.4715 168.331C101.062 168.701 102.722 168.877 104.348 169.071C106.009 169.265 107.67 169.423 109.348 169.476C111.981 169.564 114.631 169.635 117.263 169.564C119.048 169.529 120.815 169.282 122.581 169.071C124.49 168.842 126.415 168.578 128.306 168.243C129.613 167.996 130.921 167.644 132.193 167.256C133.818 166.763 135.444 166.27 137.016 165.671C139.172 164.843 141.221 163.751 143.112 162.412C143.165 162.376 143.235 162.359 143.288 162.341C143.536 162.165 143.766 161.989 144.013 161.813C144.048 161.777 144.101 161.742 144.137 161.707C144.137 161.742 144.137 161.795 144.137 161.83C144.137 165.142 144.137 168.437 144.137 171.749H144.154Z" fill="#010101"/>
</g>
<defs>
<clipPath id="clip0_437_108">
<rect width="217" height="228" fill="white"/>
</clipPath>
</defs>
</svg>
