<svg width="240" height="206" viewBox="0 0 240 206" fill="none" xmlns="http://www.w3.org/2000/svg">
<g clip-path="url(#clip0_439_189)">
<path d="M18.802 84.0995C15.0891 92.7897 11.3169 102.518 14.4802 111.416C18.7574 123.443 33.1188 127.907 42.7723 136.271C56.1535 147.853 60.3268 167.013 72.2228 180.107C84.2673 193.35 103.307 198.822 121.173 197.339C139.04 195.857 155.866 188.16 170.955 178.506C184.975 169.534 198.401 158.026 204.059 142.395C211.173 122.746 204.847 99.9822 212.852 80.6887C214.931 75.7059 217.901 69.8926 215.035 65.3102C213.698 63.1748 211.366 61.8994 209.139 60.7278C189.46 50.3767 169.767 40.0255 150.089 29.6744C139.916 24.3208 129.639 18.9376 118.559 15.9123C104.332 12.027 89.3317 12.1753 74.5842 12.6498C66.3713 12.9167 57.906 13.332 50.4505 16.8021C37.604 22.7934 39.1782 31.9581 36.1782 43.2732C32.5248 57.0649 24.401 70.9455 18.7871 84.0847L18.802 84.0995Z" fill="#EB611C"/>
<path d="M19.3516 102.874C71.0644 55.3298 137.035 26.738 202.025 0C194.035 15.5861 185.079 30.6827 175.248 45.1714C179.109 42.5614 182.97 39.9365 186.847 37.3265C182.332 46.7137 177.208 55.8192 171.505 64.5391C179.748 56.2789 187.99 48.0187 196.233 39.7585C189.936 46.773 184.307 54.3955 179.436 62.4629C183.238 59.749 186.55 56.3975 189.223 52.5715C184.857 58.4737 180.49 64.3611 176.124 70.2633C180.802 67.7719 185.035 64.4352 188.555 60.4757C184.055 66.4521 179.569 72.4433 175.069 78.4197C178.649 76.3139 181.842 73.5259 184.396 70.2633C175.975 79.9472 167.555 89.6162 159.149 99.3C174.401 86.5167 189.654 73.7335 204.906 60.9503C200.347 76.3732 192.802 91.9296 181.5 103.378C192.787 97.8022 204.089 92.2114 215.376 86.6354C177.698 125.015 139.396 162.816 100.515 199.979C101.718 193.024 102.936 186.069 104.139 179.114C98.5991 183.488 94.0248 189.005 88.2624 193.098C82.5149 197.191 75.8466 194.715 68.3763 197.191C61.6783 199.416 66.7575 185.624 62.7773 180.078C52.6337 179.381 42.4902 178.684 32.3466 177.987C30.8466 172.307 31.5743 166.064 34.3516 160.873C32.4951 160.606 30.6387 160.339 28.7674 160.072C29.2575 156.409 29.7624 152.732 30.2525 149.069C26.5248 148.802 22.6931 149.855 19.6486 152.02C22.0991 151.249 20.8664 147.037 18.3417 146.548C15.8169 146.058 13.4555 147.719 11.3021 149.113C9.14859 150.507 6.35651 151.753 4.12878 150.477C11.7476 147.334 18.1634 141.416 21.9357 134.091C17.7624 132.978 13.2773 133.127 9.19314 134.521C14.2426 128.01 19.2921 121.5 24.3417 114.99C19.411 115.657 14.4803 116.31 9.54958 116.977C11.6733 114.678 13.7822 112.395 15.906 110.096C13.8417 110.304 11.703 109.592 10.1585 108.213C13.1882 105.988 16.6189 105.395 19.3813 102.859L19.3516 102.874Z" fill="#9DD8F2"/>
<path d="M72.9208 54.8997C86.0198 47.826 98.896 40.3073 111.49 32.3734C106.812 35.4135 101.703 37.7714 96.3564 39.3878C100.322 34.5682 104.302 29.7337 108.267 24.914C100.292 26.6639 92.4356 29.5705 85.4257 33.7525C86.703 33.4856 88.203 33.278 89.4802 33.0407C78.6386 40.1886 69.7574 48.864 61.0544 58.5182C65.495 58.6072 68.9851 57.0204 72.9208 54.8997Z" fill="#9DD8F2"/>
<path d="M190.693 91.6033C202.53 88.8895 213.668 83.18 222.787 75.1719C228.876 69.8184 234.98 63.6937 240.015 57.3911C232.456 54.5438 220.842 64.8208 214.693 69.3735C208.545 73.9263 196.782 90.1945 190.693 91.6033Z" fill="#9DD8F2"/>
<path d="M27.1634 85.8346C37.9901 76.7291 48.802 67.6237 59.6288 58.5182C44.1981 60.713 29.7921 69.4181 20.703 82.0678C26.9703 73.3479 36.9208 70.1744 41.0792 58.8444C30.401 62.9078 22.5594 71.0345 16.7674 80.5107C11.6288 88.9043 5.62875 96.3637 0.0148926 104.846C10.1436 100.605 18.8466 92.8342 27.1783 85.8198L27.1634 85.8346Z" fill="#9DD8F2"/>
<path d="M41.4802 200.261L35.7178 205.451C44.3614 201.922 52.3069 196.657 58.901 190.058C60.594 188.353 62.1238 185.268 60.1485 183.904C52.0544 187.73 44.5247 192.757 37.8713 198.748C35.7772 200.632 33.6089 203.523 34.9901 205.985" fill="#9DD8F2"/>
<path d="M158.866 160.903C163.53 154.037 170.168 148.52 177.772 145.213C178.931 145.984 178.545 147.764 177.921 149.024C171.238 162.727 155.837 169.371 144.104 179.114C151.084 168.496 159.312 158.708 168.579 150.018" fill="#F3941B"/>
<path d="M186.579 131.629L183.267 142.024C192.698 140.008 200.748 132.504 203.406 123.25C196.248 125 190.158 130.62 187.856 137.62" fill="#F3941B"/>
<path d="M189.52 151.219C187.337 152.509 185.703 154.704 185.079 157.166C184.901 157.892 184.827 158.738 185.332 159.301C185.852 159.879 186.757 159.865 187.53 159.761C193.946 158.916 199.886 154.986 203.183 149.41C197.51 149.691 191.941 151.797 187.485 155.312" fill="#F3941B"/>
<path d="M49.307 33.9601C55.0248 32.3733 60.5347 30.0302 65.6437 26.9901C67.5001 25.8779 69.5644 23.8166 68.5397 21.9184C67.9456 20.8061 66.5496 20.4354 65.3021 20.2426C53.4506 18.4482 40.7823 24.4987 34.7526 34.8499C42.3714 36.0956 50.2872 35.5024 57.6238 33.1297" fill="#F3941B"/>
<path d="M125.243 146.637C126.98 149.158 128.733 151.441 130.218 153.888C131.153 155.416 132.238 155.905 134.005 155.816C137.183 155.653 139.455 157.255 140.421 159.968C141.847 163.943 138.847 168.243 134.629 168.243C121.47 168.243 108.327 168.243 95.1683 168.243C91.7822 168.243 89.0049 165.455 88.9901 162.074C88.9752 158.634 91.7376 155.668 95.1535 155.846C97.3366 155.95 98.7624 155.416 99.8465 153.429C100.99 151.338 102.55 149.469 103.916 147.497C104.079 147.274 104.421 147.037 104.272 146.77C104.109 146.459 103.693 146.622 103.396 146.607C93.6683 146.607 83.9406 146.607 74.2129 146.607C68.5099 146.607 64.5891 142.662 64.5891 136.938C64.5891 128.248 64.5743 119.557 64.6188 110.852C64.6188 109.829 64.2921 109.651 63.3861 109.666C53.8812 109.77 46.1584 106.062 40.3366 98.5882C29.9555 85.271 34.1287 65.2805 48.9356 57.0797C53.198 54.7218 57.7426 53.4909 62.6139 53.4909C63.3713 53.4909 63.7129 53.224 64.0545 52.5714C69.6089 42.0868 78.3416 36.8074 90.2228 36.7333C92.5396 36.7333 94.8267 37.0892 97.0396 37.7714C97.8713 38.0235 98.1089 37.7714 98.4059 37.0447C102.861 26.0559 110.851 18.8931 122.317 15.8975C142.96 10.4995 163.634 25.2106 165.49 46.4616C165.668 48.4784 165.713 50.4805 165.49 52.4825C165.416 53.2091 165.594 53.4167 166.337 53.4019C175.114 53.2536 182.45 56.4568 188.287 62.9671C197.911 73.7038 197.525 90.5949 187.47 100.931C181.842 106.73 174.98 109.681 166.871 109.651C166.708 109.651 166.545 109.666 166.396 109.651C165.49 109.518 165.208 109.829 165.208 110.778C165.252 119.439 165.238 128.099 165.238 136.76C165.238 142.647 161.332 146.577 155.45 146.577C145.723 146.577 135.995 146.577 126.267 146.577C126.015 146.577 125.762 146.592 125.287 146.622L125.243 146.637ZM114.832 78.2862C128.436 78.2862 142.04 78.2862 155.644 78.2862C156.312 78.2862 156.995 78.3011 157.649 78.4345C162.149 79.3095 165.178 83.0317 165.193 87.7624C165.223 93.1901 165.208 98.6326 165.193 104.06C165.193 104.772 165.371 105.024 166.099 104.98C167.213 104.92 168.342 104.965 169.455 104.817C179.094 103.512 185.866 98.3805 189.089 89.2602C192.282 80.1993 190.277 71.9094 183.52 65.0581C178.084 59.5414 171.312 57.4356 163.604 58.4885C160.975 58.8444 159.861 57.6877 160.337 55.0777C160.931 51.7855 160.96 48.4784 160.5 45.1566C158.599 31.4391 146.436 20.3019 132.594 19.6494C118.307 18.9821 105.921 27.7465 101.866 41.4195C101.302 43.3325 100.069 43.9257 98.198 43.1842C94.0842 41.5529 89.8366 40.9449 85.4851 41.7754C76.8713 43.4067 70.8713 48.3301 67.4703 56.4124C66.8317 57.9398 66.1931 58.355 64.5149 58.2364C62.9109 58.1326 61.3218 58.1771 59.7327 58.3699C45.8911 59.9715 36.3416 74.1042 40.0693 87.5252C43.0396 98.2026 52.2178 104.995 63.5792 104.95C64.3812 104.95 64.604 104.742 64.5891 103.942C64.5594 98.5437 64.5594 93.1456 64.5891 87.7328C64.5891 82.2606 68.5693 78.3011 74.0495 78.3011C87.6535 78.3011 101.257 78.3011 114.861 78.3011L114.832 78.2862ZM114.861 141.832C128.361 141.832 141.876 141.832 155.376 141.832C158.614 141.832 160.426 139.993 160.426 136.775C160.426 120.507 160.426 104.238 160.426 87.9701C160.426 84.9003 158.599 83.0466 155.554 83.0466C128.51 83.0466 101.465 83.0466 74.4208 83.0466C71.1535 83.0466 69.3713 84.841 69.3713 88.1035C69.3713 93.724 69.3713 99.3593 69.3713 104.98C69.3713 115.687 69.3713 126.394 69.3713 137.101C69.3713 138.732 69.9654 140.022 71.2574 140.986C72.297 141.758 73.4852 141.847 74.7327 141.847C88.1139 141.847 101.495 141.847 114.876 141.847L114.861 141.832ZM125.599 155.772C125.599 155.579 125.629 155.505 125.599 155.46C123.639 152.628 121.663 149.795 119.703 146.948C119.45 146.592 119.153 146.577 118.797 146.577C116.213 146.577 113.614 146.577 111.03 146.577C110.554 146.577 110.272 146.74 110.005 147.126C108.193 149.751 106.351 152.361 104.54 154.986C104.406 155.178 104.109 155.371 104.257 155.638C104.391 155.905 104.718 155.757 104.955 155.757C108.594 155.757 112.248 155.757 115.886 155.757C119.109 155.757 122.347 155.757 125.614 155.757L125.599 155.772ZM114.921 163.513C121.129 163.513 127.337 163.513 133.545 163.513C133.871 163.513 134.183 163.513 134.51 163.483C135.386 163.394 135.995 162.786 136.025 162.03C136.054 161.288 135.446 160.636 134.584 160.502C134.332 160.458 134.079 160.458 133.827 160.458C121.248 160.458 108.683 160.458 96.104 160.458C94.5891 160.458 93.7871 161.007 93.7871 162C93.7871 162.994 94.5891 163.513 96.1188 163.513C102.386 163.513 108.653 163.513 114.936 163.513H114.921Z" fill="black"/>
<path d="M126.282 89.4233C132.728 89.4827 138.252 94.9697 138.46 101.628C138.564 105.069 139.96 107.634 143.035 109.251C144.134 109.829 145.337 109.963 146.554 110.066C147.95 110.2 148.827 111.134 148.797 112.439C148.767 113.759 147.876 114.649 146.48 114.753C141.55 115.123 138.653 118.134 138.475 123.057C138.238 129.716 133.188 134.921 126.594 135.381C125.525 135.455 124.515 135.366 123.847 134.402C123.342 133.66 123.252 132.845 123.639 132.029C124.04 131.184 124.723 130.695 125.673 130.665C127.589 130.62 129.327 130.072 130.812 128.841C132.743 127.224 133.708 125.133 133.752 122.642C133.827 118.742 135.327 115.509 138.327 113.003C138.995 112.439 138.787 112.231 138.252 111.772C135.475 109.414 133.782 106.389 133.812 102.77C133.842 97.8022 130.144 94.1244 125.703 94.1095C124.441 94.1095 123.639 93.2939 123.446 92.152C123.267 91.1436 123.847 90.0758 124.782 89.631C125.272 89.3937 125.777 89.4382 126.282 89.4382V89.4233Z" fill="black"/>
<path d="M103.589 89.4234C104.569 89.3344 105.505 89.6013 106.055 90.6394C106.485 91.455 106.47 92.3003 105.951 93.1011C105.49 93.7981 104.822 94.1244 104.005 94.1392C99.3862 94.1689 95.9555 98.0543 95.9852 102.548C96.0149 106.27 94.3367 109.399 91.4703 111.801C90.8911 112.291 90.8911 112.484 91.4703 112.973C94.4406 115.479 95.9703 118.727 96.0446 122.612C96.1337 127.076 99.3268 130.398 103.812 130.65C105.594 130.754 106.604 131.911 106.307 133.512C106.099 134.639 105.163 135.351 103.871 135.381C97.9604 135.47 92.4505 130.858 91.5001 124.97C91.3812 124.214 91.307 123.443 91.2921 122.686C91.2179 118.49 88.0991 115.064 83.8812 114.842C81.8911 114.738 80.9406 113.581 80.9555 112.365C80.9852 110.912 81.906 110.155 83.8515 109.992C88.1288 109.621 91.203 106.329 91.2773 102.029C91.3961 95.1476 96.8466 89.4975 103.589 89.4085V89.4234Z" fill="black"/>
<path d="M114.876 123.769C111.193 123.769 107.525 123.769 103.842 123.769C102.817 123.769 102.059 123.309 101.644 122.36C101.243 121.456 101.406 120.61 102.015 119.854C102.52 119.231 103.218 119.009 103.975 119.009C111.238 119.009 118.485 119.009 125.747 119.009C127.337 119.009 128.376 120.047 128.346 121.456C128.302 122.835 127.277 123.754 125.703 123.754C122.094 123.754 118.485 123.754 114.861 123.754L114.876 123.769Z" fill="black"/>
<path d="M114.832 105.781C111.223 105.781 107.614 105.795 103.99 105.781C101.926 105.781 100.782 103.823 101.822 102.132C102.371 101.243 103.233 101.035 104.213 101.035C110.896 101.035 117.579 101.035 124.262 101.035C124.842 101.035 125.421 101.005 125.985 101.035C127.47 101.154 128.421 102.162 128.347 103.512C128.287 104.817 127.277 105.766 125.851 105.766C122.168 105.795 118.5 105.766 114.817 105.766L114.832 105.781Z" fill="black"/>
<path d="M114.817 114.753C111.238 114.753 107.644 114.753 104.064 114.753C102.475 114.753 101.421 113.789 101.45 112.35C101.48 110.971 102.52 110.066 104.079 110.066C111.312 110.066 118.545 110.066 125.777 110.066C127.144 110.066 127.975 110.674 128.287 111.846C128.554 112.854 128.094 113.907 127.158 114.471C126.698 114.753 126.193 114.767 125.673 114.767C122.049 114.767 118.441 114.767 114.817 114.767V114.753Z" fill="black"/>
</g>
<defs>
<clipPath id="clip0_439_189">
<rect width="240" height="206" fill="white"/>
</clipPath>
</defs>
</svg>
