<svg width="273" height="214" viewBox="0 0 273 214" fill="none" xmlns="http://www.w3.org/2000/svg">
<g clip-path="url(#clip0_435_148)">
<path d="M50.5423 77.0863C48.3448 78.8564 45.6533 80.184 44.1713 82.5839C41.4968 86.9242 43.8987 92.4559 44.3075 97.5451C44.6823 102.175 43.3195 106.77 43.4217 111.417C43.6091 120.029 48.8218 128.506 46.5561 136.812C44.8867 142.956 39.2482 148.93 41.8545 154.751C42.587 156.385 43.8817 157.662 45.1763 158.887C55.4313 168.555 67.3386 176.844 74.851 188.758C79.5696 196.23 82.687 205.268 90.046 210.187C96.417 214.443 104.747 214.647 112.259 213.115C122.719 210.987 132.531 205.745 140.128 198.239C143.825 194.579 147.027 190.409 151.014 187.056C154.608 184.044 158.782 181.78 162.921 179.55C174.709 173.168 186.497 166.785 198.302 160.419C206.275 156.113 214.758 151.279 218.625 143.092C219.902 140.403 220.584 137.475 221.691 134.718C224.791 126.94 230.958 120.676 233.922 112.864C236.528 105.987 236.477 98.4471 236.375 91.0942C236.29 84.1328 236.086 76.7459 232.287 70.9078C228.795 65.5463 222.798 62.3465 216.802 60.0997C210.618 57.7679 204.145 56.185 197.57 55.402C193.771 54.9425 189.768 54.6872 186.582 52.5766C184.794 51.3852 183.414 49.7001 181.813 48.2874C176.259 43.4025 168.491 42.143 161.183 41.0877C155.221 40.2197 149.157 39.3516 143.178 40.1005C140.094 40.492 137.062 41.292 133.945 41.2239C130.521 41.1558 127.216 40.0154 123.945 38.9942C110.863 34.8582 87.6271 25.9224 75.1576 35.556C61.4275 46.1599 63.2843 66.8399 50.5252 77.1033L50.5423 77.0863Z" fill="#EB611C"/>
<path d="M56.9814 84.5754C94.3899 55.8616 133.808 29.7861 174.862 6.604L159.378 25.7181C162.342 24.3905 165.34 23.114 168.355 21.8885C168.866 21.6843 169.53 21.497 169.905 21.8885C170.28 22.28 169.479 23.0629 169.275 22.5523C174.096 19.1141 179.172 15.9994 184.436 13.2761C184.044 19.2673 182.324 25.1735 179.411 30.4328C192.817 25.8203 206.241 21.2077 219.647 16.6121C218.676 20.7822 216.427 24.6458 213.276 27.5393C216.24 26.5692 219.187 25.599 222.151 24.6458C221.623 26.3649 220.039 27.7095 218.267 27.9478C227.892 27.9308 237.21 31.1477 246.289 34.3306C252.814 36.6113 260.462 40.2537 261.093 47.1471C251.025 49.0874 244.058 57.9211 236.239 64.5762C217.739 80.3202 191.539 85.12 173.977 101.885C190.381 94.3792 207.467 88.3539 224.945 83.8775C221.861 92.5921 216.615 100.541 209.801 106.804C214.349 105.187 218.88 103.553 223.429 101.936L219.971 105.034C222.901 103.434 225.848 101.817 228.778 100.217C206.922 125.289 185.475 150.7 164.403 176.436C156.039 186.665 146.568 197.626 133.553 199.856C134.166 197.218 134.779 194.597 135.393 191.958L118.205 194.052L122.208 186.869L102.311 191.652C108.784 179.908 116.433 168.81 125.087 158.564C102.192 172.351 75.4472 178.001 49.2647 183.448L56.4534 178.257H41.4457C49.0432 169.627 57.3903 161.662 66.3676 154.479C63.9657 153.645 61.3083 153.594 58.8893 154.36C59.7411 153.356 60.5928 152.334 61.4446 151.33C49.435 152.862 37.4425 154.615 25.4841 156.607C32.7068 149.1 40.8835 142.496 49.7416 137.016C46.4198 139.467 42.6381 141.288 38.652 142.36C42.1611 135.195 47.2886 128.812 53.5404 123.842C39.5037 129.203 24.8538 132.914 9.96533 134.905C20.4077 126.65 30.356 117.8 39.7592 108.387L27.0513 113.987L44.8356 101.392C41.6331 104.251 37.7151 106.311 33.5586 107.349C44.0179 96.5749 54.4603 85.8179 64.9197 75.0438" fill="#9DD8F2"/>
<path d="M84.7823 45.6322C81.0346 50.2278 78.2409 55.5893 76.6056 61.2912C77.6277 62.1592 79.2289 62.0401 80.3873 61.3593C81.5457 60.6784 82.3804 59.5721 83.1981 58.4998C87.7464 52.5256 92.6865 46.8577 97.9843 41.5473C96.0082 40.9345 93.93 40.6452 91.8517 40.6622C90.3016 40.6792 88.6833 40.9175 87.4738 41.8877C86.4006 42.7557 85.8385 44.0663 85.123 45.2408C83.7432 47.4875 81.682 49.3087 79.2801 50.398" fill="#F3941B"/>
<path d="M89.2113 180.503L85.4467 195.72C87.7123 195.482 89.5861 193.745 90.6252 191.737C91.6644 189.729 91.988 187.414 92.2436 185.15C92.3458 184.231 92.2435 183.022 91.3748 182.767C90.2334 182.461 89.3817 184.214 88.2063 184.095C88.2404 184.878 88.0189 185.678 87.559 186.324" fill="#F3941B"/>
<path d="M95.9571 190.767C94.2366 193.848 92.976 197.201 92.2776 200.656C96.5533 200.026 100.216 196.401 100.897 192.128C99.8922 192.094 98.9041 192.077 97.8991 192.043" fill="#F4951A"/>
<path d="M33.3882 133.68C29.6065 138.701 25.8248 143.739 22.0431 148.76C24.8538 146.939 27.6475 145.118 30.4583 143.296C22.7074 154.122 8.26189 158.394 0 168.844C2.23156 165.066 4.46312 161.304 6.69468 157.526C6.5584 157.764 4.51423 157.355 4.2587 157.304C6.33695 151.977 10.0846 149.135 14.6329 146.003C20.7995 141.748 27.0513 137.646 33.3882 133.68Z" fill="#9DD8F2"/>
<path d="M58.4464 194.018C62.4326 192.35 66.4017 190.631 70.3538 188.861C72.415 187.941 74.4932 186.971 76.2308 185.524C77.815 184.197 79.0415 182.529 80.268 180.861C81.3242 179.431 82.3633 178.001 83.4195 176.572C80.8472 177.933 78.5986 179.686 76.1967 181.286C75.7879 180.01 76.2989 178.665 77.1166 177.627C75.1576 176.725 67.3386 183.21 64.7834 184.52C59.9625 186.988 55.278 191.039 52.6716 195.822C54.6647 195.686 56.6407 194.784 58.4805 194.001L58.4464 194.018Z" fill="#9DD8F2"/>
<path d="M255.079 56.6445C252.558 58.636 250.48 61.2061 249.066 64.0996C253.921 61.138 258.793 58.1934 263.648 55.2318C262.37 55.7595 261.246 56.6786 260.496 57.853C264.517 55.5893 268.707 53.6319 273.017 51.9979C271.279 58.2275 265.794 62.5677 260.684 66.5165C249.696 75.0098 238.964 83.8435 228.505 92.9835C230.737 88.7284 233.241 84.6094 236.017 80.6947C233.462 80.984 231.043 82.2435 229.323 84.1498C231.895 80.4904 234.45 76.848 237.022 73.1886C236.085 74.5162 232.236 76.1161 230.822 77.2054C231.316 73.2396 238.079 68.1505 241.009 65.6825C245.284 62.0741 250.037 59.0274 255.096 56.6616L255.079 56.6445Z" fill="#9DD8F2"/>
<path d="M250.361 80.9329C245.983 83.7413 241.945 87.0944 238.368 90.856C238.76 91.3155 239.51 91.0942 240.055 90.8049C243.24 89.1709 246.119 86.9242 248.487 84.2179C248.947 83.6903 249.39 83.1456 249.969 82.7882C250.548 82.4308 251.247 82.2946 251.911 82.1754C254.449 81.7159 257.158 81.4095 259.202 79.8436C254.943 78.2777 249.713 80.0649 247.328 83.9115" fill="#9DD8F2"/>
<path d="M198.864 6.67208C198.916 6.33166 198.353 6.34868 198.047 6.53591C193.226 9.54856 188.933 13.3782 185.39 17.8206C187.042 18.161 188.78 17.7695 190.347 17.1568C196.82 14.6037 201.062 8.49328 204.827 2.65521C205.338 1.85525 205.883 0.936133 205.695 0C202.186 2.8935 198.422 5.48063 194.452 7.71033" fill="#9DD8F2"/>
<path d="M228.658 9.48053L222.952 13.7697C224.894 14.4335 226.921 13.14 228.556 11.8975C231.333 9.76988 234.195 7.36997 235.268 4.03394C230.703 5.9913 226.444 8.69758 222.747 12.0336" fill="#9DD8F2"/>
<path d="M103.435 42.8068C104.185 43.5047 105.36 42.8919 106.178 42.2792C111.203 38.5006 116.229 34.722 121.254 30.9605C120.862 31.3349 121.322 32.0668 121.867 32.0838C122.412 32.1009 122.889 31.7264 123.281 31.3519C128.357 26.7734 133.4 21.9566 137.795 16.7142C132.667 19.7269 127.046 20.8843 122.395 24.6629C115.7 30.0924 109.227 36.4411 103.435 42.7898V42.8068Z" fill="#9DD8F2"/>
<path d="M101.357 87.2136C102.175 88.0816 101.51 89.7156 100.829 90.7368C98.1205 94.8388 95.3098 98.8216 92.3968 102.702C95.0372 99.962 98.2057 98.0216 101.562 97.0515C97.5073 102.226 93.0441 106.906 88.2574 110.991C92.022 110.991 95.7697 109.476 98.7849 106.685C95.923 113.425 91.2725 118.991 85.7192 122.327L91.4429 122.429C84.169 128.642 76.8951 134.854 69.6383 141.067C71.3247 139.62 69.8597 123.365 69.7575 120.608C69.6042 115.672 67.7815 109.391 71.2225 106.021C75.3109 101.987 81.3071 99.4003 85.9747 96.4728C91.0681 93.2899 96.1956 90.1922 101.357 87.1965V87.2136Z" fill="#9DD8F2"/>
<path d="M170.536 119.672C171.711 120.625 173.397 119.587 174.522 118.583C175.68 117.544 176.855 116.506 178.014 115.468C179.053 117.442 177.349 119.672 175.953 121.425C173.84 124.08 172.239 127.144 171.268 130.378C171.558 129.442 177.077 126.633 178.099 125.782C180.228 124.029 182.187 122.072 184.044 120.029C186.582 117.238 194.214 110.208 194.078 106.226C193.822 99.4173 185.645 103.621 183.175 105.834C178.491 110.021 174.147 114.481 170.536 119.655V119.672Z" fill="#9DD8F2"/>
<path d="M170.791 49.2576C161.166 56.8147 151.848 64.7633 142.888 73.1034C147.351 72.2013 151.593 70.1929 155.102 67.2824C152.887 74.414 143.791 77.4437 141.099 84.4221C142.871 84.6774 144.609 83.9626 146.244 83.2307C155.34 79.0777 163.824 73.6991 172.256 68.3206C177.963 64.6953 183.669 61.0528 189.376 57.4275C190.057 57.0019 190.807 56.4403 190.824 55.6403C190.841 54.551 189.563 53.9893 188.507 53.6999C185.765 52.9681 183.022 52.2532 180.279 51.5213C175.867 50.3469 171.03 49.2065 166.856 51.0447" fill="#9DD8F2"/>
<path d="M132.889 84.3712C134.49 84.7796 136.108 83.8946 137.403 82.8733C139.379 81.3245 142.394 78.6012 142.786 76.014C140.912 76.0481 132.173 83.1967 132.889 84.3712Z" fill="#9DD8F2"/>
<path d="M153.552 142.207C153.194 142.565 152.853 143.194 153.245 143.518C153.484 143.722 153.841 143.637 154.131 143.552C157.095 142.65 160.11 141.748 162.717 140.063C164.659 138.82 171.166 131.978 165.885 132.131C161.575 132.25 156.124 139.535 153.552 142.207Z" fill="#9DD8F2"/>
<path d="M176.924 129.289C174.266 130.599 172.154 132.284 170.791 134.173C170.399 134.718 170.365 135.569 171.319 135.637C171.643 135.671 171.967 135.569 172.256 135.467C175.731 134.276 177.861 131.825 177.486 129.442C177.418 128.999 176.804 128.437 176.191 128.676" fill="#9DD8F2"/>
<path d="M107.319 102.515C107.967 103.877 107.813 105.494 107.234 106.889C106.655 108.285 105.701 109.459 104.713 110.583C102.056 113.646 99.1085 116.846 95.7868 119.178C95.4631 116.08 97.0473 114.327 98.8871 112.098C99.6707 111.144 107.541 102.975 107.319 102.515Z" fill="#9DD8F2"/>
<path d="M187.928 89.6986L187.775 87.6221C188.473 88.2178 189.189 88.7965 189.887 89.3922C189.24 89.4943 188.575 89.6135 187.928 89.7156V89.6986Z" fill="#454545"/>
<path d="M187.928 89.6985C188.575 89.5964 189.24 89.4772 189.887 89.3751C190.517 90.0049 191.131 90.6517 191.761 91.2814C190.586 91.3325 189.393 91.3836 188.218 91.4346C188.115 90.8559 188.03 90.2772 187.928 89.6985Z" fill="#E9E9E9"/>
<path d="M203.481 32.8157C202.936 33.3093 202.391 33.8029 201.846 34.3135C202.391 33.8199 202.936 33.3263 203.481 32.8157Z" fill="#EAEAEA"/>
<path d="M95.9231 102.872H86.2303V146.326H75.311V102.872H69.1273V94.0388H75.311V90.3453C75.311 84.337 76.8952 79.9457 80.0977 77.2054C83.3003 74.4651 88.3256 73.0864 95.1565 73.0864V82.1073C91.8518 82.1073 89.5521 82.7201 88.2234 83.9626C86.8946 85.2051 86.2132 87.3327 86.2132 90.3794V94.0728H95.9061V102.907L95.9231 102.872Z" fill="#1D1D1B"/>
<path d="M110.352 106.77C113.384 106.464 115.701 105.545 117.319 104.03C118.937 102.515 119.738 100.524 119.738 98.0556C119.738 95.7748 119.482 91.6048 118.988 85.5284C118.426 79.8265 118.119 75.282 118.119 71.8609C118.119 67.3674 119.431 63.8612 122.054 61.3251C124.695 58.7891 128.153 57.5295 132.463 57.5295H138.834V66.9249H134.66C132.633 66.9249 131.117 67.3845 130.146 68.3036C129.158 69.2227 128.681 70.6865 128.681 72.7289C128.681 74.2438 128.766 76.2692 128.971 78.8053C129.158 81.3414 129.294 83.1285 129.345 84.2178C129.908 90.0389 130.214 94.7876 130.214 98.4471C130.214 101.681 129.414 104.37 127.795 106.515C126.177 108.659 123.707 110.089 120.351 110.787V110.974C123.707 111.672 126.177 113.102 127.795 115.246C129.414 117.391 130.214 120.08 130.214 123.314C130.214 126.991 129.925 131.739 129.345 137.56C129.294 138.633 129.158 140.437 128.971 142.973C128.766 145.509 128.681 147.534 128.681 149.049C128.681 151.075 129.175 152.539 130.146 153.458C131.134 154.377 132.633 154.836 134.66 154.836H138.834V164.232H132.463C128.153 164.232 124.695 162.955 122.054 160.436C119.431 157.9 118.119 154.394 118.119 149.9C118.119 146.479 118.409 141.935 118.988 136.233C119.499 130.156 119.738 125.986 119.738 123.706C119.738 121.238 118.937 119.246 117.319 117.731C115.701 116.217 113.384 115.297 110.352 114.974V106.821V106.77Z" fill="#1D1D1B"/>
<path d="M177.452 117.68C175.85 119.195 175.033 121.187 175.033 123.655C175.033 125.935 175.288 130.105 175.782 136.182C176.344 141.884 176.634 146.428 176.634 149.849C176.634 154.343 175.322 157.849 172.699 160.385C170.076 162.904 166.601 164.181 162.308 164.181H155.937V154.785H160.11C162.137 154.785 163.637 154.326 164.625 153.407C165.613 152.487 166.09 151.024 166.09 148.998C166.09 147.483 166.004 145.458 165.817 142.922C165.613 140.386 165.493 138.599 165.425 137.509C164.863 131.688 164.573 126.94 164.573 123.263C164.573 120.029 165.374 117.357 166.992 115.195C168.611 113.051 171.098 111.621 174.454 110.923V110.736C171.098 110.038 168.611 108.608 166.992 106.464C165.391 104.319 164.573 101.63 164.573 98.396C164.573 94.7366 164.846 89.9879 165.425 84.1668C165.493 83.0945 165.613 81.2903 165.817 78.7543C166.004 76.2182 166.09 74.1927 166.09 72.6779C166.09 70.6525 165.596 69.1887 164.625 68.2526C163.637 67.3334 162.137 66.8739 160.11 66.8739H155.937V57.4785H162.308C166.601 57.4785 170.076 58.738 172.699 61.2741C175.322 63.8102 176.634 67.3164 176.634 71.8099C176.634 75.214 176.362 79.7755 175.782 85.4774C175.271 91.5538 175.033 95.7238 175.033 98.0046C175.033 100.473 175.833 102.464 177.452 103.979C179.07 105.494 181.404 106.413 184.436 106.719V114.872C181.404 115.195 179.07 116.114 177.452 117.629V117.68Z" fill="#1D1D1B"/>
</g>
<defs>
<clipPath id="clip0_435_148">
<rect width="273" height="214" fill="white"/>
</clipPath>
</defs>
</svg>
