<svg width="287" height="208" viewBox="0 0 287 208" fill="none" xmlns="http://www.w3.org/2000/svg">
<g clip-path="url(#clip0_439_222)">
<path d="M225.806 139.412C228.05 137.608 230.788 136.267 232.305 133.816C235.043 129.391 232.583 123.764 232.165 118.584C231.779 113.882 233.187 109.18 233.078 104.462C232.877 95.7059 227.57 87.0726 229.875 78.6089C231.577 72.3498 237.333 66.2603 234.672 60.3403C233.929 58.6908 232.599 57.3649 231.268 56.1316C220.809 46.2804 208.632 37.8476 200.957 25.7148C196.145 18.099 192.958 8.89532 185.454 3.88495C178.955 -0.462517 170.445 -0.647515 162.787 0.909555C152.095 3.08329 142.084 8.41741 134.333 16.0486C130.557 19.7794 127.293 24.0344 123.223 27.426C119.541 30.4939 115.286 32.791 111.077 35.0726C99.0397 41.563 87.0021 48.0688 74.949 54.5591C66.8104 58.9528 58.1458 63.8707 54.2003 72.2111C52.9006 74.9552 52.1889 77.9306 51.0749 80.7364C47.9185 88.6451 41.6057 95.0275 38.5731 102.998C35.9118 109.997 35.9737 117.674 36.0665 125.167C36.1593 132.259 36.376 139.782 40.2441 145.717C43.8028 151.175 49.9299 154.428 56.057 156.725C62.3698 159.099 68.992 160.702 75.6917 161.504C79.5598 161.966 83.66 162.228 86.9092 164.387C88.735 165.589 90.143 167.316 91.7831 168.765C97.446 173.744 105.383 175.024 112.857 176.103C118.953 176.982 125.142 177.876 131.238 177.105C134.379 176.72 137.489 175.887 140.661 175.949C144.158 176.026 147.546 177.167 150.873 178.231C164.225 182.439 187.945 191.551 200.679 181.73C214.697 170.939 212.809 149.88 225.837 139.427L225.806 139.412Z" fill="#EB611C"/>
<path d="M228.808 121.868C190.622 151.098 150.362 177.66 108.447 201.263L124.26 181.792C121.227 183.149 118.179 184.444 115.1 185.692C114.574 185.908 113.909 186.093 113.507 185.692C113.104 185.291 113.955 184.49 114.141 185.014C109.205 188.514 104.037 191.674 98.6529 194.464C99.0397 188.359 100.819 182.347 103.79 176.997C90.0966 181.684 76.4034 186.386 62.7102 191.073C63.7005 186.833 65.9904 182.886 69.2087 179.942C66.1916 180.929 63.1744 181.915 60.1573 182.886C60.6988 181.144 62.3079 179.772 64.1337 179.526C54.2932 179.556 44.793 176.273 35.5095 173.02C28.8409 170.692 21.0272 166.992 20.4083 159.977C30.6976 158.004 37.7995 149.001 45.7833 142.233C64.6752 126.2 91.4118 121.313 109.36 104.231C92.6032 111.878 75.1656 118.014 57.3258 122.577C60.4667 113.697 65.8357 105.603 72.7829 99.2363C68.1411 100.886 63.4993 102.535 58.873 104.185L62.4163 101.025C59.4146 102.659 56.4129 104.293 53.4267 105.927C75.7381 80.3973 97.6472 54.5283 119.154 28.3202C127.695 17.9141 137.365 6.73706 150.656 4.47083C150.037 7.1533 149.403 9.83578 148.784 12.5183L166.33 10.3908L162.245 17.6982L182.56 12.8266C175.954 24.7898 168.14 36.0902 159.29 46.5272C182.669 32.4827 209.978 26.7323 236.699 21.1824L229.349 26.4702C234.455 26.4702 239.561 26.4702 244.667 26.4702C236.915 35.2577 228.39 43.3513 219.23 50.6742C221.675 51.5221 224.398 51.5684 226.874 50.7975C226.007 51.8304 225.141 52.8479 224.259 53.8808C236.529 52.3238 248.767 50.5355 260.975 48.5159C253.595 56.1625 245.255 62.8687 236.204 68.4649C239.592 65.9674 243.46 64.1174 247.53 63.0229C243.94 70.3303 238.71 76.8207 232.32 81.8927C246.648 76.4352 261.61 72.6582 276.819 70.6232C266.159 79.0252 255.993 88.0439 246.4 97.633L259.382 91.9289C253.332 96.1992 247.282 100.47 241.232 104.755C244.513 101.842 248.504 99.745 252.759 98.6967C242.083 109.658 231.407 120.619 220.731 131.596" fill="#9DD8F2"/>
<path d="M190.838 171.432C194.66 166.745 197.522 161.288 199.193 155.476C198.157 154.582 196.517 154.72 195.325 155.399C194.134 156.077 193.283 157.218 192.447 158.297C187.806 164.371 182.762 170.152 177.346 175.564C179.373 176.18 181.493 176.489 183.597 176.458C185.175 176.442 186.831 176.196 188.053 175.209C189.136 174.33 189.724 172.989 190.451 171.802C191.859 169.52 193.964 167.655 196.424 166.56" fill="#F3941B"/>
<path d="M186.336 34.1014L190.188 18.6078C187.883 18.8545 185.949 20.6119 184.897 22.6778C183.845 24.7436 183.52 27.0869 183.241 29.384C183.133 30.3244 183.226 31.5577 184.139 31.8043C185.315 32.1127 186.181 30.3244 187.388 30.4477C187.357 29.646 187.589 28.8444 188.038 28.1815" fill="#F3941B"/>
<path d="M179.435 23.649C181.199 20.5041 182.468 17.097 183.195 13.582C178.831 14.2295 175.087 17.9141 174.391 22.2615C175.412 22.2924 176.433 22.3232 177.439 22.354" fill="#F4951A"/>
<path d="M252.914 71.8719C256.782 66.7536 260.635 61.6353 264.503 56.517C261.641 58.367 258.778 60.217 255.916 62.0824C263.838 51.0596 278.583 46.7121 287.016 36.0747C284.741 39.9134 282.451 43.7521 280.177 47.6063C280.316 47.3596 282.405 47.7759 282.668 47.8375C280.548 53.2642 276.726 56.1471 272.085 59.3383C265.787 63.6703 259.413 67.8482 252.93 71.8873L252.914 71.8719Z" fill="#9DD8F2"/>
<path d="M227.322 10.4371C223.253 12.1329 219.199 13.8749 215.177 15.6787C213.072 16.6191 210.953 17.6057 209.173 19.0703C207.564 20.4116 206.295 22.1228 205.058 23.8186C203.99 25.2832 202.922 26.7323 201.839 28.1969C204.47 26.8094 206.775 25.0211 209.22 23.387C209.637 24.6819 209.111 26.054 208.291 27.1023C210.287 28.0119 218.271 21.4291 220.886 20.0878C225.806 17.5749 230.587 13.4433 233.248 8.57166C231.222 8.7104 229.195 9.6354 227.322 10.4216V10.4371Z" fill="#9DD8F2"/>
<path d="M16.2771 142.526C18.567 140.722 20.4547 138.394 21.7389 135.773C17.3292 138.456 12.9041 141.123 8.49439 143.805C9.65483 143.328 10.676 142.495 11.3568 141.431C7.70529 143.482 3.89905 145.255 -0.0155029 146.735C1.5627 141.092 6.54485 137.161 11.1866 133.584C21.1664 125.891 30.9141 117.89 40.4142 109.612C38.3873 113.466 36.1129 117.197 33.5908 120.742C35.9117 120.48 38.1088 119.339 39.6715 117.613C37.3352 120.927 35.0143 124.226 32.678 127.541C33.5289 126.339 37.0257 124.889 38.31 123.903C37.8613 127.495 31.7187 132.104 29.0574 134.34C25.1738 137.608 20.8569 140.368 16.2616 142.51L16.2771 142.526Z" fill="#9DD8F2"/>
<path d="M20.563 120.527C24.5394 117.983 28.2064 114.946 31.4556 111.539C31.0998 111.122 30.419 111.323 29.9238 111.585C27.0305 113.065 24.4156 115.1 22.2649 117.551C21.8472 118.029 21.4449 118.522 20.9188 118.846C20.3928 119.17 19.7584 119.293 19.155 119.401C16.8496 119.817 14.3894 120.095 12.5327 121.513C16.4008 122.932 21.1509 121.313 23.3171 117.829" fill="#9DD8F2"/>
<path d="M83.9539 201.201C83.8921 201.556 84.48 201.525 84.7895 201.34C89.7097 198.272 94.1039 194.372 97.7245 189.855C96.038 189.5 94.2741 189.901 92.665 190.533C86.0582 193.138 81.7259 199.351 77.8732 205.302C77.3472 206.119 76.7902 207.044 76.9913 208C80.5809 205.055 84.4181 202.419 88.4719 200.153" fill="#9DD8F2"/>
<path d="M53.5194 198.334L59.3371 193.956C57.3411 193.277 55.2833 194.603 53.6123 195.867C50.7653 198.041 47.8565 200.492 46.7579 203.884C51.4306 201.895 55.7629 199.12 59.5382 195.744" fill="#9DD8F2"/>
<path d="M181.384 164.417C180.626 163.708 179.419 164.325 178.584 164.942C173.447 168.78 168.31 172.634 163.189 176.473C163.591 176.088 163.111 175.348 162.554 175.317C161.997 175.286 161.518 175.687 161.1 176.057C155.917 180.713 150.764 185.631 146.293 190.965C151.522 187.897 157.263 186.725 162.028 182.871C168.852 177.336 175.458 170.877 181.4 164.402L181.384 164.417Z" fill="#9DD8F2"/>
<path d="M173.927 129.098C173.091 128.204 173.757 126.554 174.453 125.506C177.222 121.328 180.085 117.274 183.071 113.327C180.379 116.117 177.145 118.106 173.726 119.093C177.857 113.82 182.421 109.057 187.311 104.894C183.473 104.894 179.636 106.436 176.557 109.272C179.481 102.397 184.231 96.7388 189.894 93.3472L184.061 93.2392C191.488 86.9185 198.915 80.5823 206.326 74.2615C204.593 75.7415 206.11 92.2988 206.202 95.0892C206.373 100.115 208.214 106.497 204.702 109.935C200.524 114.036 194.397 116.688 189.631 119.648C184.433 122.885 179.203 126.046 173.927 129.098Z" fill="#9DD8F2"/>
<path d="M103.279 96.0605C102.072 95.0893 100.355 96.153 99.1944 97.1859C98.003 98.2497 96.8116 99.298 95.6202 100.362C94.5526 98.3422 96.301 96.0759 97.7245 94.2876C99.8752 91.5743 101.515 88.4602 102.506 85.161C102.212 86.1168 96.5795 88.9843 95.5429 89.8322C93.3767 91.6205 91.3653 93.6093 89.4776 95.6905C86.8782 98.5426 79.0801 105.696 79.2348 109.735C79.4978 116.672 87.8375 112.387 90.3596 110.136C95.1561 105.865 99.5812 101.333 103.264 96.0605H103.279Z" fill="#9DD8F2"/>
<path d="M103.016 167.747C112.857 160.055 122.357 151.945 131.501 143.451C126.937 144.36 122.62 146.426 119.03 149.371C121.289 142.11 130.573 139.011 133.327 131.919C131.517 131.657 129.737 132.382 128.082 133.137C118.783 137.361 110.134 142.85 101.515 148.323C95.6977 152.022 89.8645 155.722 84.0468 159.422C83.3506 159.854 82.5924 160.425 82.577 161.242C82.546 162.352 83.8612 162.922 84.9443 163.215C87.7448 163.955 90.5453 164.695 93.3458 165.435C97.8638 166.622 102.784 167.794 107.055 165.913" fill="#9DD8F2"/>
<path d="M141.728 131.996C140.104 131.58 138.448 132.49 137.118 133.523C135.091 135.095 132.027 137.886 131.625 140.506C133.528 140.476 142.471 133.199 141.728 131.996Z" fill="#9DD8F2"/>
<path d="M120.624 73.0898C120.98 72.7198 121.336 72.0877 120.949 71.764C120.701 71.5636 120.345 71.6407 120.036 71.7332C117.003 72.6427 113.94 73.5831 111.278 75.279C109.298 76.5431 102.645 83.496 108.045 83.3572C112.439 83.2339 118.024 75.8031 120.639 73.1052L120.624 73.0898Z" fill="#9DD8F2"/>
<path d="M96.7652 86.2556C99.4729 84.9298 101.639 83.2031 103.016 81.2915C103.403 80.7519 103.465 79.8731 102.475 79.7961C102.134 79.7652 101.809 79.8577 101.515 79.9656C97.9566 81.1681 95.7905 83.681 96.1773 86.1014C96.2546 86.5485 96.8735 87.1189 97.4924 86.8722" fill="#9DD8F2"/>
<path d="M167.831 113.527C167.181 112.14 167.335 110.49 167.923 109.087C168.511 107.685 169.502 106.467 170.507 105.31C173.215 102.196 176.232 98.928 179.621 96.5538C179.946 99.6988 178.336 101.487 176.449 103.769C175.644 104.74 167.614 113.065 167.831 113.527Z" fill="#9DD8F2"/>
<path d="M85.5167 126.57L85.6714 128.697C84.9442 128.096 84.2325 127.495 83.5052 126.909C84.1706 126.801 84.8359 126.693 85.5012 126.585L85.5167 126.57Z" fill="#454545"/>
<path d="M125.25 144.083C125.25 147.105 125.204 150.049 125.266 152.978C125.312 154.798 124.492 155.83 122.403 155.815C111.031 155.738 99.6586 155.753 88.2863 155.815C86.739 155.815 85.7643 155.106 85.8261 153.364C85.919 150.296 85.8571 147.243 85.8571 144.021C85.3929 144.021 85.0216 144.021 84.6348 144.021C78.3374 144.021 72.0556 143.975 65.7583 144.052C63.9325 144.068 63.1898 143.251 63.2053 141.493C63.2672 132.551 63.2362 123.594 63.2362 114.653C63.2362 114.206 63.2362 113.743 63.2362 113.173C62.834 113.157 62.4781 113.127 62.1377 113.127C59.1205 113.127 56.1034 113.127 53.0863 113.127C51.276 113.127 50.6725 112.541 50.6725 110.752C50.6725 97.818 50.688 84.8989 50.6416 71.9644C50.6416 70.2378 51.4926 69.4207 53.1636 69.4515C56.1189 69.5132 59.0587 69.467 62.0139 69.467C62.3698 69.467 62.7256 69.467 63.2208 69.467C63.2208 69.0353 63.2208 68.6961 63.2208 68.3416C63.2208 63.732 63.2517 59.1379 63.2053 54.5283C63.2053 53.2488 63.7623 52.3546 65.4024 52.3083C65.8975 52.3083 66.3926 52.3083 66.8723 52.3083C118.195 52.3083 169.502 52.3083 220.824 52.3083C222.975 52.3083 223.655 53.0021 223.655 55.1758C223.655 83.9431 223.655 112.71 223.655 141.462C223.655 143.189 222.835 143.991 221.087 144.006C218.07 144.006 215.068 144.006 211.927 144.006C211.896 144.391 211.865 144.731 211.865 145.07C211.865 147.783 211.865 150.496 211.865 153.194C211.865 154.952 211.061 155.753 209.328 155.753C192.942 155.753 176.557 155.738 160.172 155.784C158.609 155.784 157.603 155.137 157.665 153.302C157.758 150.589 157.696 147.875 157.696 145.178C157.696 144.823 157.696 144.468 157.696 144.052H125.25V144.083ZM67.2591 139.998H219.617V56.3012H67.2746V139.998H67.2591ZM54.7109 73.4753V109.057H63.1434V73.4753H54.7109ZM103.527 144.068H89.8799V151.73H103.527V144.068ZM107.596 144.068V151.76H121.227V144.068H107.596ZM178.073 151.822C178.507 151.822 178.832 151.822 179.156 151.822C182.56 151.822 185.964 151.822 189.368 151.822C190.802 151.822 191.519 151.103 191.519 149.664C191.519 147.814 191.519 145.964 191.519 144.098H178.089V151.838L178.073 151.822ZM174.004 144.129H161.765V151.76H174.004V144.129ZM207.812 144.068H195.557V151.745H207.812V144.068Z" fill="#020202"/>
<path d="M190.157 118.353C177.083 118.461 166.562 107.823 166.686 94.9659C166.809 82.7098 176.851 72.1495 189.987 72.2728C202.891 72.3807 213.289 82.6173 213.01 95.7676C212.747 108.178 202.907 117.983 190.157 118.368V118.353ZM183.767 95.1047C183.659 98.6813 186.614 101.564 190.003 101.41C193.298 101.256 195.743 98.9126 195.975 95.4593C196.207 91.8364 193.144 89.2618 189.941 89.1539C186.552 89.0306 183.551 92.2218 183.783 95.1201L183.767 95.1047ZM190.328 105.773C188.564 105.218 186.862 104.678 185.144 104.17C184.928 104.108 184.696 104.031 184.479 104.077C182.065 104.57 180.069 105.418 179.543 108.348C179.435 108.949 179.497 109.581 179.435 110.182C179.342 111.045 179.713 111.6 180.503 111.909C182.112 112.556 183.659 113.404 185.33 113.805C187.094 114.237 188.966 114.329 190.807 114.391C191.674 114.422 192.556 114.067 193.685 113.836C191.008 111.477 189.972 108.779 190.328 105.773ZM198.342 89.6935C199.224 91.266 199.874 92.823 199.905 94.5805C199.905 94.8272 199.936 95.1355 200.091 95.3051C202.613 98.1263 204.903 99.0667 208.384 96.4305C208.678 96.1993 208.91 95.7214 208.926 95.3359C209.142 92.0676 208.245 89.0152 206.744 86.1631C206.079 84.9144 205.166 83.789 204.377 82.6173C203.541 86.1631 201.468 88.3368 198.342 89.6935ZM171.652 88.9535C171.652 88.9535 171.807 89.0922 171.884 89.1539C172.395 89.0306 172.905 88.7993 173.416 88.7839C175.799 88.676 178.166 88.7068 180.162 90.3102C180.533 90.6031 180.796 90.5722 181.183 90.1097C182.143 88.9535 183.257 87.9052 184.309 86.8106C184.479 86.6256 184.819 86.5177 184.881 86.3173C185.345 84.4365 185.949 82.4631 184.525 80.7827C183.814 79.9348 182.669 79.4569 181.756 78.7477C181.168 78.3007 180.704 78.424 180.1 78.7786C177.3 80.5052 175.025 82.7406 173.354 85.5619C172.72 86.641 172.225 87.8127 171.668 88.9381L171.652 88.9535ZM181.353 100.763C180.472 99.1438 179.806 97.5868 179.806 95.8293C179.806 95.598 179.744 95.2897 179.59 95.1355C177.625 92.9155 175.845 92.0368 172.782 93.116C171.312 93.6401 170.492 94.6422 170.6 95.8447C170.801 98.188 171.234 100.485 172.178 102.659C172.983 104.54 174.035 106.313 175.582 107.9C176.186 104.401 178.213 102.15 181.353 100.793V100.763ZM207.982 101.41C207.084 101.595 206.311 101.811 205.537 101.903C203.386 102.135 201.437 101.564 199.688 100.315C199.07 99.8838 198.791 99.9147 198.342 100.578C197.692 101.533 196.981 102.551 196.037 103.168C195 103.83 194.567 104.663 194.412 105.727C194.304 106.467 194.273 107.238 194.412 107.962C194.753 109.843 196.114 110.907 197.708 111.77C198.946 112.448 199.797 111.631 200.648 111.015C204.052 108.594 206.605 105.495 207.997 101.395L207.982 101.41ZM186.32 76.4969C187.125 77.7148 187.96 78.8402 188.672 80.0427C189.461 81.384 189.291 82.9256 189.26 84.4056C189.244 85.0377 189.492 85.1919 190.095 85.2844C191.519 85.5156 192.896 85.9164 194.304 86.2248C194.706 86.3173 195.17 86.5023 195.526 86.3944C198.899 85.3769 200.431 84.0819 200.261 80.1661C200.23 79.5186 199.998 78.9327 199.271 78.6552C197.801 78.0848 196.393 77.3603 194.892 76.8978C192.045 76.019 189.105 76.0499 186.32 76.4815V76.4969Z" fill="#040404"/>
<path d="M116.338 119.987H85.4858C85.2847 119.987 85.099 119.987 84.8978 119.987C82.9019 119.956 82.4377 119.494 82.4222 117.49C82.4222 111.323 82.4222 105.156 82.4222 98.9897C82.4222 91.8364 82.4222 84.6985 82.4222 77.5452C82.4222 77.0211 82.4222 76.4969 82.4841 75.9882C82.577 75.1094 83.103 74.5699 83.985 74.4619C84.4956 74.4003 85.0371 74.4003 85.5477 74.4003C106.157 74.4003 126.767 74.4003 147.36 74.4003C149.79 74.4003 150.362 74.9707 150.362 77.3602C150.362 90.6493 150.362 103.923 150.362 117.212C150.362 119.386 149.759 120.002 147.593 120.002C137.18 120.002 126.751 120.002 116.338 120.002V119.987ZM146.03 78.3777C145.736 78.3777 145.442 78.3315 145.148 78.3315C125.977 78.3315 106.791 78.3315 87.621 78.3315C87.2961 78.3315 86.9712 78.3623 86.6462 78.3777C86.5844 78.4394 86.5225 78.5011 86.4606 78.5627C86.4451 78.794 86.4142 79.0098 86.4142 79.2411C86.4142 91.1581 86.4142 103.09 86.4142 115.007C86.4142 115.27 86.4451 115.532 86.4606 115.778C86.5225 115.84 86.5844 115.902 86.6308 115.948C86.8938 115.963 87.1568 115.994 87.4044 115.994C106.73 115.994 126.039 115.994 145.364 115.994C145.674 115.994 145.983 115.948 146.37 115.917C146.37 115.532 146.37 115.239 146.37 114.946C146.37 103.106 146.37 91.2506 146.37 79.4106C146.37 79.1177 146.339 78.8248 146.324 78.5319C146.215 78.4702 146.123 78.3932 146.014 78.3315L146.03 78.3777Z" fill="#020202"/>
<path d="M104.146 100.716C102.985 100.716 101.979 100.716 100.958 100.716C99.5812 100.716 98.6219 99.853 98.6373 98.6505C98.6373 97.4789 99.5348 96.6926 100.927 96.6772C102.567 96.6464 104.207 96.6464 105.848 96.6772C107.302 96.6926 108.199 97.6176 108.215 99.0514C108.215 100.423 108.215 101.796 108.215 103.168C108.215 105.434 107.472 106.605 105.368 107.361C104.13 107.808 102.846 108.27 101.562 108.317C99.4729 108.409 97.4924 107.823 95.7594 106.559C93.3148 104.802 91.7211 102.443 91.2724 99.483C90.7618 96.153 91.489 93.0852 93.748 90.4335C96.038 87.751 98.9468 86.7181 102.397 87.0265C104.3 87.196 106.002 87.9669 107.503 89.1385C108.246 89.7089 108.308 91.0502 107.735 91.7902C106.9 92.8539 106.08 92.9927 104.95 92.2064C103.372 91.081 101.67 90.6339 99.7359 91.1427C97.2912 91.7902 95.9606 93.486 95.3417 95.7985C94.5835 98.6351 95.4655 101.009 97.6162 102.952C99.5193 104.678 101.716 104.57 103.743 103.676C103.944 103.584 104.115 103.245 104.13 102.998C104.177 102.289 104.146 101.58 104.146 100.747V100.716Z" fill="#040404"/>
<path d="M126.813 94.4881C126.813 92.3914 126.875 90.3102 126.782 88.2135C126.72 86.9956 127.633 86.2248 128.654 86.2094C129.845 86.194 130.743 86.9648 130.774 88.1519C130.82 90.1098 130.774 92.0677 130.774 94.0256C130.774 96.0143 130.774 98.003 130.774 100.007C130.789 101.503 131.903 103.168 133.017 103.43C134.781 103.846 136.22 103.275 137.102 101.641C137.412 101.071 137.566 100.362 137.566 99.7143C137.613 95.891 137.597 92.0677 137.582 88.2598C137.582 86.9956 138.185 86.2865 139.377 86.2094C140.568 86.1323 141.465 86.8877 141.574 88.0748C141.62 88.5681 141.589 89.046 141.589 89.5394C141.589 92.9002 141.62 96.261 141.589 99.6218C141.558 102.412 140.506 104.694 138.139 106.297C134.967 108.44 130.573 107.7 128.298 104.617C127.277 103.245 126.751 101.765 126.782 100.038C126.828 98.1726 126.782 96.3226 126.782 94.4572L126.813 94.4881Z" fill="#030303"/>
<path d="M110.242 87.196C110.69 86.4561 111.34 86.1477 112.207 86.1631C114.033 86.194 115.874 86.0861 117.7 86.194C120.036 86.3327 122.295 86.8723 123.749 88.9073C126.519 92.7614 124.306 97.5251 119.881 98.5118C118.102 98.9126 116.214 98.8047 114.373 98.9435C114.249 98.9435 114.11 98.9743 113.986 98.9743C113.971 99.0359 113.986 99.0976 114.017 99.1593C114.017 101.179 114.017 103.198 113.986 105.218C113.986 106.05 113.769 106.79 112.919 107.222C111.356 108.008 110.072 107.315 110.056 105.588C110.025 102.52 110.041 99.4676 110.056 96.3997C110.056 93.4089 110.102 90.4027 110.118 87.4119C110.164 87.3502 110.226 87.2885 110.273 87.2115L110.242 87.196ZM117.916 94.8427C118.52 94.6731 119.138 94.5343 119.726 94.3031C120.763 93.8868 121.119 92.9464 120.825 92.0214C120.639 91.4356 119.943 90.6802 119.371 90.5877C117.669 90.2948 115.92 90.2948 114.187 90.1869C114.063 90.2794 113.816 90.3719 113.816 90.4798C113.785 91.821 113.785 93.1468 113.816 94.4881C113.816 94.6731 114.11 94.9968 114.265 94.9968C115.487 94.9968 116.694 94.9043 117.916 94.8427Z" fill="#030303"/>
<path d="M113.986 98.9588C114.11 98.9588 114.249 98.928 114.373 98.928C114.311 98.9434 114.249 98.9742 114.172 98.9896C114.11 98.9896 114.048 98.9742 113.971 98.9588H113.986Z" fill="#232323"/>
<path d="M110.242 87.196C110.242 87.196 110.133 87.3194 110.087 87.3965C110.133 87.3348 110.195 87.2731 110.242 87.196Z" fill="#161616"/>
</g>
<defs>
<clipPath id="clip0_439_222">
<rect width="287" height="208" fill="white"/>
</clipPath>
</defs>
</svg>
