<svg width="160" height="118" viewBox="0 0 160 118" fill="none" xmlns="http://www.w3.org/2000/svg">
<g clip-path="url(#clip0_404_1297)">
<path d="M40.55 47.99C45.46 39.21 50.71 30.65 56.26 22.36C58.11 19.6 60.06 16.79 62.75 15.06C64.42 13.98 66.32 13.36 68.25 13.26C69.04 13.22 69.92 13.31 70.45 13.95C70.9799 14.58 71.01 15.53 71.15 16.38C72.05 21.57 77.87 23.51 82.65 23.53C98 23.59 112.12 14.89 126.89 10.26C127.83 9.96003 128.87 9.69003 129.76 10.13C130.49 10.48 130.98 11.24 131.4 11.99C134.53 17.58 135.51 24.6 134.05 30.98C132.54 37.59 128.55 43.56 128.55 50.38C128.55 56.56 131.82 62.07 135.01 67.14C139.59 74.42 144.26 81.64 149 88.8C147.6 93.24 141.94 93.64 137.96 92C133.98 90.36 130.06 87.48 125.87 88.21C124.77 91.59 120.54 88.52 119.44 91.91C119.1 92.94 121.86 100.46 121.14 101.21C120.1 102.28 118.57 102.46 117.15 102.57C113.31 102.88 109.38 103.19 105.69 102.01C102.57 101.01 99.8 99.01 96.83 97.57C88.81 93.68 79.17 94.12 71.47 98.74C65.69 102.2 61.14 107.72 55.6 111.62C47.98 116.97 41.79 106.09 32.93 107.99C31.61 108.27 30.19 108.54 28.97 107.92C27.83 107.34 27.11 106.09 26.5 104.88C20.45 92.78 17.24 90.27 22.81 77.89C24 75.24 25.49 72.47 25.12 69.53C24.61 65.44 20.7 62.8 19.72 58.81C18.29 52.99 23.56 47.86 28.58 45.5C33.6 43.14 39.53 41.36 42.07 36.02C43.24 33.57 43.76 30.32 46.06 29.24C47 28.8 48.06 28.84 49.06 29C53.75 29.75 58.02 33.22 60.07 37.95C61.73 41.77 60.03 45.52 56.96 48.04C53.88 50.56 45.26 51.91 44.9 51.7C44.55 51.5 40.57 49.33 40.55 48.01V47.99Z" fill="#F3941B"/>
<path d="M77.82 11.77C58.5 28.23 35.53 40.46 10.98 47.37C15.08 48.53 19.5 48.55 23.6 47.43C22.23 48.37 20.87 49.31 19.5 50.25C20.73 50.7 22.06 50.86 23.35 50.72C22.5 51.4 21.65 52.07 20.81 52.75C22 53.01 23.19 53.27 24.38 53.54C17.22 61.11 8.98999 67.67 -0.0100098 72.99C7.00999 70.24 14.03 67.5 21.05 64.75C20.07 65.94 19.09 67.13 18.1 68.32C21.18 68.29 23.54 72.13 22.1 74.82C23.13 75.3 24.16 75.78 25.19 76.25C23.74 79.04 21.27 81.3 18.34 82.5C19.45 82.41 20.42 83.72 19.98 84.74C21.51 84.9 23.04 85.06 24.58 85.21C24.13 85.74 23.67 86.28 23.22 86.81C26.27 87.42 29.33 88.04 32.38 88.65C28.05 93.66 23.72 98.66 19.4 103.67C25.31 103.96 31.28 103.03 36.8 100.94C34.71 102.36 32.61 103.78 30.52 105.2C38.6 101.8 47.41 100.11 56.2 100.26C50.21 102.66 44.9 106.7 41.01 111.8C51.16 107.96 61.8 105.34 72.61 104.12C65.57 107.73 59.01 112.26 53.16 117.56C63.59 115.62 74.33 113.57 83.15 107.76C87.27 105.05 90.84 101.6 94.38 98.18C103.84 89.03 113.31 79.87 122.77 70.72C119.94 72.11 117.11 73.49 114.28 74.88C120.81 68.28 127.86 62.19 135.34 56.67C133.89 56.88 132.44 57.08 130.99 57.29C131.95 56.3 132.91 55.31 133.87 54.32C131.77 54.02 129.56 54.54 127.83 55.74C130.87 53.9 133.91 52.05 136.94 50.21C134.3 50.95 131.66 51.69 129.02 52.43C135.15 48.66 141.29 44.9 147.42 41.13C141.86 42.77 136.14 43.89 130.37 44.45C133.7 41.86 137.04 39.28 140.37 36.69C138 36.71 135.63 36.73 133.26 36.75C134.3 34.12 135.96 31.74 138.08 29.85C135.54 29.26 132.92 29.02 130.32 29.14C133.26 25.7 136.21 22.25 139.15 18.81C130.39 21.23 121.72 23.98 113.18 27.07C120.08 20.73 126.98 14.38 133.88 8.04001C124.85 13.44 115.83 18.84 106.8 24.25C101.31 27.54 95.69 30.87 89.41 32.21C100.44 22.74 111.46 13.26 122.49 3.79001C115.61 8.21001 108.74 12.62 101.86 17.04C103.98 15.18 106.09 13.32 108.21 11.46C102.51 13.55 96.92 15.9 91.45 18.51C98.38 12.34 105.32 6.18001 112.25 0.0100098C103.56 2.73001 95.32 6.83001 87.95 12.12C90.68 9.28001 93.02 6.09001 94.91 2.64001C89.67 5.23001 84.63 8.22001 79.86 11.57C83.77 9.50001 87.39 6.89001 90.58 3.85001C83.05 10.94 74.29 16.76 64.8 20.97" fill="#9DD8F2"/>
<path d="M57.4 23.2C56.06 24.32 54.34 24.97 52.73 25.76C51.12 26.55 49.53 27.55 48.79 29.05C52.82 27.45 56.67 25.53 60.28 23.3C58.04 22.87 55.62 23.67 54.29 25.27" fill="#9DD8F2"/>
<path d="M119.23 14.3C120.36 14.84 121.65 14.11 122.58 13.38C125.38 11.2 127.92 8.76002 130.34 6.24002C131.67 4.86002 135.46 2.04002 135.33 0.150024C132.84 0.590024 130.56 3.61002 128.9 5.16002C128.07 5.93002 119.26 14.32 119.23 14.3Z" fill="#9DD8F2"/>
<path d="M142.58 32.98C142.85 33.29 143.35 33.38 143.76 33.28C144.17 33.18 144.52 32.95 144.84 32.71C144.86 32.69 144.88 32.68 144.9 32.66C146.25 31.65 148.62 29.98 148.96 28.4C146.37 28.55 143.99 31.32 142.57 32.97L142.58 32.98Z" fill="#9DD8F2"/>
<path d="M158.57 28.7901C156.43 30.4701 154.52 32.3801 152.89 34.4601C152.71 34.6901 152.53 35.0001 152.7 35.2501C152.86 35.4801 153.22 35.5001 153.52 35.4701C156.93 35.1701 159.7 32.2801 159.53 29.2001C159.53 29.0901 159.51 28.9701 159.43 28.8901C159.31 28.7701 159.1 28.7801 158.93 28.8001C157.8 28.9601 156.76 29.5301 156.09 30.3501" fill="#9DD8F2"/>
<path d="M4.73994 91.9601C5.58994 92.2701 6.46994 92.1601 7.28994 91.8301C7.98994 91.5501 8.63994 91.1201 9.19994 90.6701C10.4899 89.6301 12.6699 87.9301 9.69994 88.2201C8.76994 88.3101 3.99994 91.6801 4.74994 91.9501L4.73994 91.9601Z" fill="#9DD8F2"/>
<path d="M25.9299 115.52C29.7499 113.92 33.2999 111.82 36.4499 109.32C37.5499 108.44 40.7799 106.01 40.5199 104.45C40.2599 102.89 38.3299 104.49 37.4399 105.12C33.2299 108.11 29.5099 111.94 25.9299 115.51V115.52Z" fill="#9DD8F2"/>
<path d="M14.43 40.01C15.48 40.1 16.56 40.17 17.59 39.94C18.65 39.71 19.62 39.19 20.53 38.6C23.97 36.38 28.33 31.6 27.76 27.08C27.31 23.48 20.64 23.29 17.47 24.08C14.3 24.87 12.38 27.41 11.16 30.4C10.33 32.43 9.46003 35.01 9.74003 37.24C10.12 40.31 11.44 39.75 14.44 40.01H14.43Z" fill="#F3941B"/>
<path d="M125.73 91.61C124.79 91.54 123.82 91.81 123.05 92.36C122.5 92.74 122.02 93.36 122.14 94.02C122.2 94.39 122.44 94.7 122.69 94.98C124.95 97.57 128.46 99.03 131.89 98.81C132.15 98.79 132.43 98.76 132.65 98.62C133.04 98.36 133.13 97.83 133.12 97.36C133.05 94.98 131.16 92.92 128.93 92.09C126.7 91.26 124.21 91.46 121.89 92" fill="#F3941B"/>
<path d="M141.97 71.56C143.63 74.08 145.28 76.61 146.94 79.13C147.76 76.69 146.91 74.03 145.93 71.65C145.65 70.98 145.36 70.3 144.84 69.79C144.32 69.28 143.54 68.98 142.86 69.23C142.99 70.02 142.84 70.85 142.45 71.55" fill="#F3941B"/>
<g opacity="0.2">
<path d="M109.57 82.8399C109.12 81.9999 108.64 81.1699 108.15 80.3399L107.59 79.3799C106.3 77.1499 105.02 74.9099 103.73 72.6799L100.06 66.3399C99.3899 65.1799 98.7099 64.0099 98.0399 62.8499C97.0899 61.2099 96.1499 59.5599 95.2099 57.9099L93.2399 54.4499C92.5299 53.2099 91.8199 51.9799 91.0999 50.7499L89.9899 48.8499C89.4499 47.9299 88.91 47.0099 88.3699 46.0799C87.93 45.3199 87.4999 44.5499 87.0599 43.7899C86.5999 42.9899 86.1499 42.1799 85.6899 41.3799C85.1199 40.3899 84.5399 39.3999 83.9599 38.4199C83.4299 37.5099 82.8899 36.6099 82.3699 35.6999C81.9399 34.9699 81.5299 34.2299 81.1099 33.4899C80.7699 32.8999 80.4399 32.3099 80.0999 31.7199C79.4399 30.5699 78.7699 29.4199 78.0999 28.2699L76.8399 26.0799C76.4699 25.4299 76.09 24.7699 75.6899 24.1399C75.27 23.4699 74.54 23.0699 73.7299 23.0699C72.93 23.0699 72.1999 23.4699 71.7699 24.1299C71.2999 24.8799 70.8499 25.6399 70.41 26.4099L70.0399 27.0599C69.7799 27.5099 69.5199 27.9499 69.2699 28.3999L66.3 33.5599C65.82 34.3899 65.35 35.2099 64.87 36.0399L63.8899 37.7099C63.4399 38.4699 63 39.2299 62.5599 39.9999C62.1 40.7999 61.6399 41.5999 61.1899 42.3999C60.7099 43.2499 60.2299 44.0899 59.74 44.9399C59.2899 45.7099 58.8399 46.4799 58.3899 47.2499C57.9199 48.0499 57.4499 48.8499 56.99 49.6499C56.5399 50.4299 56.1 51.2099 55.65 51.9999C55.17 52.8399 54.6999 53.6799 54.2199 54.5099C53.7099 55.3899 53.1999 56.2599 52.6899 57.1299C52.0999 58.1299 51.5199 59.1299 50.9399 60.1299C50.2399 61.3499 49.5399 62.5799 48.8399 63.7999C48.1399 65.0199 47.4499 66.2499 46.7499 67.4699C45.9499 68.8599 45.1499 70.2399 44.3399 71.6199L37.9299 82.66C37.2999 83.74 37.5099 84.9299 38.4699 85.7699C39.0899 86.3099 39.7599 86.2999 40.2199 86.2999H107.02H107.16C107.21 86.2999 107.27 86.2999 107.32 86.2999C107.4 86.2999 107.49 86.2999 107.57 86.2999C108.43 86.2599 109.18 85.82 109.58 85.1199C109.97 84.4399 109.97 83.5899 109.58 82.8599L109.57 82.8399ZM103.4 81.5299H44.0499L73.7199 30.1199L103.4 81.5299Z" fill="#0E4A7A"/>
<path d="M70.7299 48.4699C70.7499 49.1099 70.7699 49.7499 70.7899 50.3899L70.8199 51.6199C70.8499 52.6099 70.8799 53.5999 70.9199 54.5999L71.1299 60.6599C71.1499 61.3999 71.1799 62.1299 71.1999 62.8699L71.2399 64.7199C71.2599 65.4899 71.2699 66.2699 71.2899 67.0399C71.2899 67.3399 71.3399 67.6499 71.4199 67.9699C71.6799 69.0099 72.6699 69.7499 73.7299 69.7499C73.8099 69.7499 73.8999 69.7499 73.9899 69.7399C75.1599 69.6099 76.0799 68.6399 76.1299 67.4899C76.1999 65.8899 76.2599 64.2899 76.3199 62.6899C76.3399 62.1299 76.3599 61.5699 76.3699 61.0199L76.6399 53.0999C76.6899 51.7699 76.7399 50.4399 76.7699 49.1099C76.7899 48.1899 76.7799 47.2699 76.7699 46.3499V46.1499H76.8199V45.1499C76.8199 44.9799 76.8299 44.8099 76.8399 44.6399C76.8699 44.1599 76.8999 43.6199 76.7599 43.0699C76.3099 41.3699 74.6599 40.6499 73.3399 40.8299C71.6799 41.0599 70.4999 42.3899 70.5399 43.9999C70.5599 44.9299 70.5999 45.8499 70.6499 46.7799C70.6799 47.3499 70.6999 47.9199 70.7199 48.4899L70.7299 48.4699Z" fill="#0E4A7A"/>
<path d="M73.58 70.71C73.58 70.71 73.51 70.71 73.48 70.71C71.51 70.75 69.98 72.39 70.01 74.44C70.02 75.44 70.43 76.38 71.16 77.07C71.85 77.73 72.76 78.09 73.71 78.09C73.76 78.09 73.81 78.09 73.85 78.09C75.85 78.02 77.38 76.42 77.41 74.37V74.31C77.3 72.08 75.84 70.71 73.57 70.71H73.58Z" fill="#0E4A7A"/>
</g>
<path d="M112.26 80.69C111.81 79.85 111.33 79.0201 110.84 78.19L110.28 77.23C108.99 75 107.71 72.76 106.42 70.53L102.75 64.19C102.08 63.03 101.4 61.86 100.73 60.7C99.78 59.06 98.84 57.41 97.9 55.76L95.93 52.3C95.22 51.06 94.51 49.83 93.79 48.6L92.68 46.7C92.14 45.78 91.6 44.86 91.06 43.93C90.62 43.17 90.19 42.4 89.75 41.64C89.29 40.84 88.84 40.03 88.38 39.23C87.81 38.24 87.23 37.25 86.65 36.27C86.12 35.36 85.58 34.46 85.06 33.55C84.63 32.82 84.22 32.08 83.8 31.34C83.46 30.75 83.13 30.16 82.79 29.57C82.13 28.42 81.46 27.27 80.79 26.12L79.53 23.93C79.16 23.28 78.78 22.62 78.38 21.99C77.96 21.32 77.23 20.92 76.42 20.92C75.62 20.92 74.89 21.32 74.46 21.98C73.99 22.73 73.54 23.49 73.1 24.26L72.73 24.91C72.47 25.36 72.21 25.8 71.96 26.25L68.99 31.41C68.51 32.24 68.04 33.06 67.56 33.89L66.58 35.56C66.13 36.32 65.69 37.08 65.25 37.85C64.79 38.65 64.33 39.45 63.88 40.25C63.4 41.1 62.92 41.94 62.43 42.79C61.98 43.56 61.53 44.33 61.08 45.1C60.61 45.9 60.14 46.7 59.68 47.5C59.23 48.28 58.79 49.06 58.34 49.85C57.86 50.69 57.39 51.53 56.91 52.36C56.4 53.24 55.89 54.11 55.38 54.98C54.79 55.98 54.21 56.98 53.63 57.98C52.93 59.2 52.23 60.43 51.53 61.65C50.83 62.87 50.14 64.1 49.44 65.32C48.64 66.71 47.84 68.09 47.03 69.47L40.62 80.51C39.99 81.59 40.2 82.78 41.16 83.62C41.78 84.16 42.45 84.15 42.91 84.15H109.71H109.85C109.9 84.15 109.96 84.15 110.01 84.15C110.09 84.15 110.18 84.15 110.26 84.15C111.12 84.11 111.87 83.67 112.27 82.97C112.66 82.29 112.66 81.44 112.27 80.71L112.26 80.69ZM106.09 79.38H46.74L76.41 27.97L106.09 79.38Z" fill="#1B1B1B"/>
<path d="M73.42 46.32C73.44 46.96 73.46 47.6 73.48 48.24L73.51 49.47C73.54 50.46 73.57 51.45 73.61 52.45L73.82 58.51C73.84 59.25 73.87 59.98 73.89 60.72L73.93 62.57C73.95 63.34 73.96 64.12 73.98 64.89C73.98 65.19 74.03 65.5 74.11 65.82C74.37 66.86 75.36 67.6 76.42 67.6C76.5 67.6 76.59 67.6 76.68 67.59C77.85 67.46 78.77 66.49 78.82 65.34C78.89 63.74 78.95 62.14 79.01 60.54C79.03 59.98 79.05 59.42 79.06 58.87L79.33 50.95C79.38 49.62 79.43 48.29 79.46 46.96C79.48 46.04 79.47 45.12 79.46 44.2V44H79.51V43C79.51 42.83 79.52 42.66 79.53 42.49C79.56 42.01 79.59 41.47 79.45 40.92C79 39.22 77.35 38.5 76.03 38.68C74.37 38.91 73.19 40.24 73.23 41.85C73.25 42.78 73.29 43.7 73.34 44.63C73.37 45.2 73.39 45.77 73.41 46.34L73.42 46.32Z" fill="#1B1B1B"/>
<path d="M76.27 68.5601C76.27 68.5601 76.2 68.5601 76.17 68.5601C74.2 68.6001 72.67 70.2401 72.7 72.2901C72.71 73.2901 73.12 74.2301 73.85 74.9201C74.54 75.5801 75.45 75.9401 76.4 75.9401C76.45 75.9401 76.5 75.9401 76.54 75.9401C78.54 75.8701 80.07 74.2701 80.1 72.2201V72.1601C79.99 69.9301 78.53 68.5601 76.26 68.5601H76.27Z" fill="#1B1B1B"/>
</g>
<defs>
<clipPath id="clip0_404_1297">
<rect width="159.54" height="117.54" fill="white"/>
</clipPath>
</defs>
</svg>
