<svg width="141" height="143" viewBox="0 0 141 143" fill="none" xmlns="http://www.w3.org/2000/svg">
<g clip-path="url(#clip0_412_573)">
<path d="M61.83 23.94C55.07 23.46 48.26 23.66 41.53 24.56C40.38 24.71 39.17 24.91 38.28 25.68C36.48 27.22 36.81 30.11 36.39 32.5C35.24 38.99 28.36 42.11 22.64 44.92C20.45 46 18.24 47.24 16.78 49.25C15.47 51.04 14.87 53.29 14.47 55.51C12.65 65.53 14.31 76.2 19.07 85.1C19.66 86.2 20.32 87.3 21.3 88.04C22.79 89.16 24.76 89.24 26.48 89.92C29.96 91.28 32.1 94.86 34.06 98.16C39.93 108.02 46.47 117.45 53.63 126.33C54.94 127.95 56.3 129.59 58.07 130.63C59.79 131.65 61.79 132.03 63.76 132.22C73.69 133.18 83.51 129.61 92.54 125.19C101.55 120.79 110.17 115.47 117.99 109.04C123.96 104.13 129.54 98.43 133 91.36C136.46 84.29 137.54 75.63 134.5 68.35C131.77 61.82 126.17 57.18 120.73 52.9C110.42 44.8 99.78 36.96 87.93 31.64C76.08 26.32 62.84 23.62 50.18 26.19" fill="#F3941B"/>
<path d="M132.7 56.58C133.75 57.92 134.75 59.75 136.45 59.72C138.08 59.69 139.06 57.92 139.54 56.37C141.76 49.29 140.86 41.29 137.13 34.88C136.95 34.57 136.75 34.25 136.42 34.09C135.95 33.87 135.4 34.06 134.93 34.27C132.02 35.53 129.3 37.22 126.88 39.28C124.45 41.34 122.19 45.64 123.81 48.84C125.55 52.3 130.34 53.57 132.71 56.58H132.7Z" fill="#F3941B"/>
<path d="M138.07 73.95C138.66 73.18 139.13 72.34 139.49 71.45C140.2 69.7 141.25 66.37 140.46 64.59C139.46 65.13 138.98 66.69 138.63 67.73C138.15 69.16 138.74 73.08 138.07 73.94V73.95Z" fill="#F3941B"/>
<path d="M13.17 119.63C8.83999 121.35 4.50999 123.08 0.17999 124.8C-0.82001 117.05 2.39999 108.88 8.42999 103.9C7.56999 105.21 6.69999 106.53 5.83999 107.84C25.97 73.89 43.65 39.53 77.42 16.94C78 20.14 77.77 23.49 76.75 26.58C79.97 25.59 83.19 24.6 86.41 23.61C86.08 24.63 85.75 25.64 85.42 26.66C88.44 24.23 92.11 22.63 95.94 22.05C96.71 23.23 97.47 24.4 98.24 25.58C107.23 21.24 115.7 15.84 123.43 9.53003C118.82 17.95 114.49 26.52 110.44 35.23C112.37 34.1 114.31 32.96 116.24 31.83C116.02 32.62 116.3 33.52 116.93 34.04C119.43 33.89 121.9 33.34 124.22 32.39C123.64 33.37 123.07 34.35 122.49 35.33C123.55 34.63 124.61 33.92 125.67 33.22C125.06 34.67 127.83 35.84 128.44 34.39C129.16 35.65 129.23 37.26 128.61 38.57C131.55 38.52 134.5 38.48 137.44 38.43C135.23 43.49 133.02 48.55 130.81 53.62C118.89 80.92 106.75 108.58 88.1 131.81C88.35 129.37 88.61 126.94 88.86 124.5C85.45 126.07 82.25 128.11 79.38 130.53C79.19 128.05 79 125.57 78.8 123.09C65.68 126.39 52.27 128.53 38.77 129.47C39.87 126.26 40.96 123.04 42.06 119.83C37.12 120.28 32.24 121.5 27.67 123.43C28.51 119.69 29.92 116.17 31.15 112.59C20.99 115.65 8.53999 119.54 7.60999 131.91C12.83 132.29 17.57 126.82 17.69 121.78C12.71 121.82 7.79999 124.22 4.72999 128.13" fill="#9DD8F2"/>
<path d="M98.67 12.74L108.4 0C107.04 5.54 104.79 10.86 101.77 15.71C101.65 15.91 101.51 16.12 101.31 16.24C100.38 16.77 99.77 15.15 99.91 14.09C100.04 13.03 100.18 11.98 100.31 10.92" fill="#9DD8F2"/>
<path d="M125.18 29.32C125.36 24.8 127.09 20.35 130.01 16.9C130.78 22.04 127.91 27.53 123.25 29.83" fill="#9DD8F2"/>
<path d="M86.78 19.1C87.14 16.49 88.36 14 90.2 12.11C91.57 13.51 90.45 15.92 88.93 17.16C87.41 18.4 85.44 19.32 84.73 21.15" fill="#9DD8F2"/>
<path d="M69.45 127.35C69.42 130.2 66.43 131.93 64.63 134.13C62.77 136.4 62.09 139.58 62.85 142.41C70.91 139.97 77.9 134.2 81.84 126.76C78.67 125.58 75.08 126.61 72.14 128.29C69.2 129.97 66.65 132.26 63.69 133.9" fill="#9DD8F2"/>
<g opacity="0.2">
<path d="M68.65 46.6499C70.54 46.6499 72.44 46.6499 74.33 46.6499C76.25 46.6499 77.89 47.3499 79.2 48.7299C79.69 49.2399 79.94 49.2399 80.44 48.7299C81.98 47.1799 83.84 46.4499 86.07 46.5099C89.06 46.5999 92.05 46.5199 95.05 46.5799C95.92 46.5999 96.16 46.2999 96.13 45.4699C96.08 44.1099 96.06 42.7499 96.36 41.3999C97.47 36.4399 101.65 33.3699 106.82 33.7399C111.61 34.0799 115.31 37.8899 115.65 42.8499C115.7 43.6399 115.76 44.4499 115.68 45.2299C115.57 46.2799 116 46.4899 116.97 46.4699C120.08 46.4199 123.18 46.4399 126.29 46.4699C128.27 46.4899 129.97 47.2599 131.4 48.6199C132.7 49.8499 133.35 51.3799 133.43 53.1599C133.62 57.2099 133.49 61.2599 133.46 65.3199C133.46 66.6999 132.99 67.1199 131.59 67.1299C130.26 67.1399 128.94 67.1099 127.61 67.1499C123.56 67.2599 120.74 70.0799 120.67 74.0599C120.61 77.8799 123.44 80.8099 127.44 80.9999C128.84 81.0699 130.24 80.9999 131.64 81.0199C133.02 81.0299 133.49 81.4699 133.49 82.8599C133.49 86.8399 133.52 90.8099 133.45 94.7899C133.39 98.3999 130.66 101.33 127.08 101.58C122.84 101.88 118.6 101.68 114.36 101.65C113.35 101.65 112.86 101.02 112.85 100.03C112.83 98.5499 112.87 97.0699 112.8 95.5999C112.62 91.6699 109.81 88.8499 106.1 88.8199C102.17 88.7799 99.28 91.4499 99 95.4499C98.9 96.8799 98.95 98.3299 98.94 99.7699C98.93 101.24 98.5 101.71 97.08 101.71C93.37 101.71 89.66 101.72 85.94 101.71C83.81 101.7 81.91 101.02 80.42 99.4599C79.99 99.0099 79.77 99.0399 79.36 99.4699C77.81 101.08 75.86 101.81 73.64 101.81C70.42 101.81 67.2 101.84 63.98 101.8C63.11 101.79 62.78 101.99 62.83 102.93C62.91 104.52 62.86 106.11 62.4 107.66C61.12 111.9 57.14 114.61 52.88 114.14C48.25 113.63 44.97 110.19 44.61 105.48C44.56 104.84 44.58 104.19 44.56 103.55C44.53 101.66 44.86 101.83 42.77 101.82C39.93 101.82 37.09 101.83 34.25 101.82C29.15 101.8 26.13 98.7999 26.08 93.6899C26.05 90.8099 26.08 87.9299 26.08 85.0499C26.08 83.0199 26.2 83.3399 24.41 83.3299C23.05 83.3199 21.69 83.3199 20.36 82.9199C15.97 81.6199 13.4 77.8299 13.82 73.2499C14.23 68.8299 17.52 65.5999 22.1 65.1499C22.97 65.0699 23.85 64.9499 24.71 65.0399C25.94 65.1699 26.15 64.6599 26.12 63.5599C26.05 60.5299 26.08 57.4999 26.11 54.4699C26.16 49.6499 29.19 46.6099 34.02 46.5599C37.66 46.5199 41.29 46.5399 44.93 46.5399C46.28 46.5399 46.76 47.0299 46.78 48.4099C46.8 49.8499 46.76 51.2899 46.82 52.7299C46.98 56.5399 49.74 59.2799 53.5 59.4399C57.14 59.5899 60.02 57.1499 60.56 53.4299C60.78 51.9199 60.67 50.3999 60.68 48.8899C60.69 46.9599 61 46.6099 62.89 46.5999C64.82 46.5899 66.75 46.5999 68.69 46.5999V46.6599L68.65 46.6499ZM91.26 49.4399C91.26 49.4399 91.26 49.4199 91.26 49.4099C89.37 49.4099 87.47 49.4199 85.58 49.4099C84.67 49.3999 83.87 49.6799 83.14 50.1899C81.69 51.1799 81.15 52.6299 81.14 54.2999C81.12 57.8999 81.14 61.4999 81.13 65.0999C81.13 66.7599 80.73 67.1499 79.03 67.1599C77.67 67.1599 76.3 67.1199 74.94 67.1999C71.23 67.4299 68.61 70.1899 68.45 73.9699C68.3 77.4099 70.71 80.3099 74.22 80.9099C75.8 81.1799 77.39 81.0399 78.98 81.0399C80.75 81.0399 81.13 81.4099 81.13 83.1499C81.13 86.8199 81.1 90.4999 81.15 94.1699C81.18 96.7599 82.92 98.7199 85.37 98.7999C88.7 98.9199 92.04 98.8499 95.37 98.8799C95.99 98.8799 96.14 98.5899 96.12 98.0399C96.1 97.1299 96.1 96.2199 96.14 95.3099C96.39 90.2599 100.21 86.3599 105.18 86.0399C110.44 85.7099 114.6 88.9499 115.51 94.0799C115.74 95.3599 115.7 96.6499 115.68 97.9299C115.67 98.6299 115.92 98.8399 116.6 98.8399C119.89 98.7999 123.19 98.8399 126.48 98.7899C128.77 98.7499 130.54 97.0799 130.6 94.7799C130.7 91.4099 130.64 88.0399 130.68 84.6699C130.68 84.0699 130.47 83.8899 129.88 83.8899C128.71 83.8899 127.53 83.8999 126.36 83.7799C121.65 83.2799 118.13 79.5399 117.81 74.7699C117.5 69.9999 120.5 65.8199 125.06 64.6499C126.59 64.2599 128.14 64.2799 129.69 64.2899C130.22 64.2899 130.66 64.2899 130.66 63.5499C130.64 60.0699 130.8 56.5799 130.55 53.0999C130.46 51.8699 129.86 50.9599 128.88 50.2699C127.85 49.5299 126.68 49.3099 125.44 49.3099C121.99 49.3099 118.55 49.3099 115.1 49.3099C113.16 49.3099 112.84 48.9799 112.83 47.0899C112.83 45.7599 112.87 44.4299 112.77 43.1099C112.5 39.3099 109.72 36.6199 106.07 36.5699C102.31 36.5199 99.39 39.0899 99.04 42.8899C98.89 44.4699 98.96 46.0699 98.93 47.6599C98.9 48.9899 98.48 49.4399 97.16 49.4599C95.19 49.4799 93.22 49.4599 91.25 49.4599L91.26 49.4399ZM67.74 98.9999C68.61 98.9999 69.48 98.9999 70.35 98.9999C71.52 98.9999 72.7 99.0299 73.87 98.9699C76.26 98.8499 78.27 97.2599 78.3 95.3499C78.35 91.7899 78.26 88.2299 78.26 84.6699C78.26 84.0599 78.02 83.8799 77.45 83.8799C76.43 83.8799 75.4 83.8799 74.38 83.7999C69.91 83.4099 66.28 79.9999 65.69 75.6799C65.04 70.9199 67.46 66.6599 71.76 64.9899C73.53 64.2999 75.38 64.2299 77.24 64.2999C78.05 64.3299 78.26 64.0399 78.26 63.2599C78.23 60.1199 78.23 56.9699 78.28 53.8299C78.32 51.3899 76.79 49.5699 74.34 49.5099C71.01 49.4299 67.67 49.4899 64.34 49.4499C63.6 49.4499 63.44 49.7499 63.46 50.3999C63.49 51.3099 63.48 52.2199 63.43 53.1299C63.15 57.6299 60.06 61.2399 55.76 62.1199C51.41 63.0099 47.02 60.9599 45.02 57.0999C43.93 55.0099 43.79 52.7499 43.9 50.4599C43.93 49.6799 43.69 49.4099 42.89 49.4199C39.78 49.4699 36.68 49.4199 33.57 49.4599C31.04 49.4999 29.3 51.0999 28.98 53.6199C28.91 54.1799 28.9 54.7499 28.9 55.3199C28.9 58.9199 28.9 62.5199 28.9 66.1199C28.9 67.4299 28.43 67.8899 27.12 67.8999C25.46 67.9199 23.79 67.8199 22.13 68.0499C18.67 68.5399 16.48 71.0999 16.61 74.5399C16.73 77.7399 19.22 80.2399 22.56 80.4199C23.99 80.4999 25.44 80.4499 26.88 80.4599C28.47 80.4599 28.91 80.8999 28.91 82.4799C28.91 86.1899 28.89 89.8999 28.92 93.6199C28.95 97.1999 30.77 98.9899 34.35 98.9999C38.1 99.0199 41.85 98.9999 45.6 98.9999C46.95 98.9999 47.43 99.4999 47.45 100.86C47.47 102.37 47.41 103.89 47.51 105.4C47.69 108.18 49.5 110.41 51.98 111.09C56.09 112.21 59.77 109.4 59.98 104.94C60.05 103.54 59.98 102.14 60 100.74C60.02 99.4999 60.49 99.0199 61.73 99.0099C63.74 98.9899 65.75 99.0099 67.75 99.0099L67.74 98.9999Z" fill="#0E4A7A"/>
<path d="M80.91 35.72C80.91 37.61 80.91 39.5 80.91 41.4C80.91 42.36 80.59 43.04 79.53 43.12C78.66 43.18 78.07 42.57 78.06 41.49C78.04 37.63 78.04 33.77 78.06 29.91C78.06 28.99 78.53 28.35 79.5 28.36C80.47 28.36 80.89 29.01 80.9 29.94C80.9 31.87 80.9 33.8 80.9 35.73L80.91 35.72Z" fill="#0E4A7A"/>
<path d="M80.92 111.89C80.92 113.74 80.92 115.6 80.92 117.45C80.92 118.4 80.59 119.1 79.56 119.19C78.66 119.27 78.09 118.6 78.09 117.45C78.07 113.67 78.07 109.89 78.08 106.11C78.08 105.16 78.45 104.47 79.51 104.43C80.37 104.39 80.92 105.04 80.93 106.11C80.95 108.04 80.93 109.97 80.93 111.9L80.92 111.89Z" fill="#0E4A7A"/>
<path d="M74.31 41.12C74.27 41.64 74.09 42.13 73.54 42.37C72.83 42.68 72.23 42.49 71.69 41.95C69.83 40.07 67.95 38.21 66.09 36.34C65.29 35.54 64.48 34.75 63.7 33.93C63 33.19 62.94 32.26 63.57 31.73C64.3 31.12 65.03 31.25 65.69 31.9C68.36 34.57 71.03 37.24 73.71 39.91C74.04 40.24 74.29 40.6 74.32 41.13L74.31 41.12Z" fill="#0E4A7A"/>
<path d="M74.29 106.11C74.32 106.87 74.12 107.22 73.82 107.53C71.12 110.23 68.44 112.94 65.73 115.62C64.98 116.36 64.11 116.38 63.52 115.77C62.95 115.19 63.03 114.3 63.76 113.56C66.39 110.91 69.04 108.27 71.68 105.62C72.21 105.09 72.78 104.84 73.51 105.16C74.06 105.4 74.27 105.86 74.29 106.11Z" fill="#0E4A7A"/>
<path d="M95.87 32.65C95.88 33.24 95.61 33.63 95.25 33.99C92.6 36.63 89.96 39.29 87.31 41.92C86.55 42.67 85.69 42.73 85.1 42.14C84.51 41.56 84.56 40.65 85.28 39.93C87.94 37.24 90.61 34.57 93.28 31.9C93.77 31.41 94.34 31.19 95.03 31.47C95.58 31.7 95.82 32.14 95.88 32.65H95.87Z" fill="#0E4A7A"/>
<path d="M86.02 105.03C86.61 105.03 86.98 105.28 87.31 105.61C89.98 108.29 92.64 110.96 95.31 113.63C95.97 114.29 96.11 115.01 95.5 115.75C94.96 116.41 94.02 116.38 93.29 115.65C90.58 112.96 87.89 110.26 85.2 107.55C84.7 107.05 84.54 106.45 84.83 105.79C85.07 105.24 85.56 105.06 86.02 105.03Z" fill="#0E4A7A"/>
</g>
<path d="M70.69 44.33C72.58 44.33 74.48 44.33 76.37 44.33C78.29 44.33 79.93 45.03 81.24 46.41C81.73 46.92 81.98 46.92 82.48 46.41C84.02 44.86 85.88 44.13 88.11 44.19C91.1 44.28 94.09 44.2 97.09 44.26C97.96 44.28 98.2 43.98 98.17 43.15C98.12 41.79 98.1 40.43 98.4 39.08C99.51 34.12 103.69 31.05 108.86 31.42C113.65 31.76 117.35 35.57 117.69 40.53C117.74 41.32 117.8 42.13 117.72 42.91C117.61 43.96 118.04 44.17 119.01 44.15C122.12 44.1 125.22 44.12 128.33 44.15C130.31 44.17 132.01 44.94 133.44 46.3C134.74 47.53 135.39 49.06 135.47 50.84C135.66 54.89 135.53 58.94 135.5 63C135.5 64.38 135.03 64.8 133.63 64.81C132.3 64.82 130.98 64.79 129.65 64.83C125.6 64.94 122.78 67.76 122.71 71.74C122.65 75.56 125.48 78.49 129.48 78.68C130.88 78.75 132.28 78.68 133.68 78.7C135.06 78.71 135.53 79.15 135.53 80.54C135.53 84.52 135.56 88.49 135.49 92.47C135.43 96.08 132.7 99.01 129.12 99.26C124.88 99.56 120.64 99.36 116.4 99.33C115.39 99.33 114.9 98.7 114.89 97.71C114.87 96.23 114.91 94.75 114.84 93.28C114.66 89.35 111.85 86.53 108.14 86.5C104.21 86.46 101.32 89.13 101.04 93.13C100.94 94.56 100.99 96.01 100.98 97.45C100.97 98.92 100.54 99.39 99.12 99.39C95.41 99.39 91.7 99.4 87.98 99.39C85.85 99.38 83.95 98.7 82.46 97.14C82.03 96.69 81.81 96.72 81.4 97.15C79.85 98.76 77.9 99.49 75.68 99.49C72.46 99.49 69.24 99.52 66.02 99.48C65.15 99.47 64.82 99.67 64.87 100.61C64.95 102.2 64.9 103.79 64.44 105.34C63.16 109.58 59.18 112.29 54.92 111.82C50.29 111.31 47.01 107.87 46.65 103.16C46.6 102.52 46.62 101.87 46.6 101.23C46.57 99.34 46.9 99.51 44.81 99.5C41.97 99.5 39.13 99.51 36.29 99.5C31.19 99.48 28.17 96.48 28.12 91.37C28.09 88.49 28.12 85.61 28.12 82.73C28.12 80.7 28.24 81.02 26.45 81.01C25.09 81 23.73 81 22.4 80.6C18.01 79.3 15.44 75.51 15.86 70.93C16.27 66.51 19.56 63.28 24.14 62.83C25.01 62.75 25.89 62.63 26.75 62.72C27.98 62.85 28.19 62.34 28.16 61.24C28.09 58.21 28.12 55.18 28.15 52.15C28.2 47.33 31.23 44.29 36.06 44.24C39.7 44.2 43.33 44.22 46.97 44.22C48.32 44.22 48.8 44.71 48.82 46.09C48.84 47.53 48.8 48.97 48.86 50.41C49.02 54.22 51.78 56.96 55.54 57.12C59.18 57.27 62.06 54.83 62.6 51.11C62.82 49.6 62.71 48.08 62.72 46.57C62.73 44.64 63.04 44.29 64.93 44.28C66.86 44.27 68.79 44.28 70.73 44.28V44.34L70.69 44.33ZM93.3 47.12C93.3 47.12 93.3 47.1 93.3 47.09C91.41 47.09 89.51 47.1 87.62 47.09C86.71 47.08 85.91 47.36 85.18 47.87C83.73 48.86 83.19 50.31 83.18 51.98C83.16 55.58 83.18 59.18 83.17 62.78C83.17 64.44 82.77 64.83 81.07 64.84C79.71 64.84 78.34 64.8 76.98 64.88C73.27 65.11 70.65 67.87 70.49 71.65C70.34 75.09 72.75 77.99 76.26 78.59C77.84 78.86 79.43 78.72 81.02 78.72C82.79 78.72 83.17 79.09 83.17 80.83C83.17 84.5 83.14 88.18 83.19 91.85C83.22 94.44 84.96 96.4 87.41 96.48C90.74 96.6 94.08 96.53 97.41 96.56C98.03 96.56 98.18 96.27 98.16 95.72C98.14 94.81 98.14 93.9 98.18 92.99C98.43 87.94 102.25 84.04 107.22 83.72C112.48 83.39 116.64 86.63 117.55 91.76C117.78 93.04 117.74 94.33 117.72 95.61C117.71 96.31 117.96 96.52 118.64 96.52C121.93 96.48 125.23 96.52 128.52 96.47C130.81 96.43 132.58 94.76 132.64 92.46C132.74 89.09 132.68 85.72 132.72 82.35C132.72 81.75 132.51 81.57 131.92 81.57C130.75 81.57 129.57 81.58 128.4 81.46C123.69 80.96 120.17 77.22 119.85 72.45C119.54 67.68 122.54 63.5 127.1 62.33C128.63 61.94 130.18 61.96 131.73 61.97C132.26 61.97 132.7 61.97 132.7 61.23C132.68 57.75 132.84 54.26 132.59 50.78C132.5 49.55 131.9 48.64 130.92 47.95C129.89 47.21 128.72 46.99 127.48 46.99C124.03 46.99 120.59 46.99 117.14 46.99C115.2 46.99 114.88 46.66 114.87 44.77C114.87 43.44 114.91 42.11 114.81 40.79C114.54 36.99 111.76 34.3 108.11 34.25C104.35 34.2 101.43 36.77 101.08 40.57C100.93 42.15 101 43.75 100.97 45.34C100.94 46.67 100.52 47.12 99.2 47.14C97.23 47.16 95.26 47.14 93.29 47.14L93.3 47.12ZM69.78 96.68C70.65 96.68 71.52 96.68 72.39 96.68C73.56 96.68 74.74 96.71 75.91 96.65C78.3 96.53 80.31 94.94 80.34 93.03C80.39 89.47 80.3 85.91 80.3 82.35C80.3 81.74 80.06 81.56 79.49 81.56C78.47 81.56 77.44 81.56 76.42 81.48C71.95 81.09 68.32 77.68 67.73 73.36C67.08 68.6 69.5 64.34 73.8 62.67C75.57 61.98 77.42 61.91 79.28 61.98C80.09 62.01 80.3 61.72 80.3 60.94C80.27 57.8 80.27 54.65 80.32 51.51C80.36 49.07 78.83 47.25 76.38 47.19C73.05 47.11 69.71 47.17 66.38 47.13C65.64 47.13 65.48 47.43 65.5 48.08C65.53 48.99 65.52 49.9 65.47 50.81C65.19 55.31 62.1 58.92 57.8 59.8C53.45 60.69 49.06 58.64 47.06 54.78C45.97 52.69 45.83 50.43 45.94 48.14C45.97 47.36 45.73 47.09 44.93 47.1C41.82 47.15 38.72 47.1 35.61 47.14C33.08 47.18 31.34 48.78 31.02 51.3C30.95 51.86 30.94 52.43 30.94 53C30.94 56.6 30.94 60.2 30.94 63.8C30.94 65.11 30.47 65.57 29.16 65.58C27.5 65.6 25.83 65.5 24.17 65.73C20.71 66.22 18.52 68.78 18.65 72.22C18.77 75.42 21.26 77.92 24.6 78.1C26.03 78.18 27.48 78.13 28.92 78.14C30.51 78.14 30.95 78.58 30.95 80.16C30.95 83.87 30.93 87.58 30.96 91.3C30.99 94.88 32.81 96.67 36.39 96.68C40.14 96.7 43.89 96.68 47.64 96.68C48.99 96.68 49.47 97.18 49.49 98.54C49.51 100.05 49.45 101.57 49.55 103.08C49.73 105.86 51.54 108.09 54.02 108.77C58.13 109.89 61.81 107.08 62.02 102.62C62.09 101.22 62.02 99.82 62.04 98.42C62.06 97.18 62.53 96.7 63.77 96.69C65.78 96.67 67.79 96.69 69.79 96.69L69.78 96.68Z" fill="black"/>
<path d="M82.95 33.4C82.95 35.29 82.95 37.18 82.95 39.08C82.95 40.04 82.63 40.72 81.57 40.8C80.7 40.86 80.11 40.25 80.1 39.17C80.08 35.31 80.08 31.45 80.1 27.59C80.1 26.67 80.57 26.03 81.54 26.04C82.51 26.04 82.93 26.69 82.94 27.62C82.94 29.55 82.94 31.48 82.94 33.41L82.95 33.4Z" fill="black"/>
<path d="M82.95 109.58C82.95 111.43 82.95 113.29 82.95 115.14C82.95 116.09 82.62 116.79 81.59 116.88C80.69 116.96 80.12 116.29 80.12 115.14C80.1 111.36 80.1 107.58 80.11 103.8C80.11 102.85 80.48 102.16 81.54 102.12C82.4 102.08 82.95 102.73 82.96 103.8C82.98 105.73 82.96 107.66 82.96 109.59L82.95 109.58Z" fill="black"/>
<path d="M76.35 38.8C76.31 39.32 76.13 39.81 75.58 40.05C74.87 40.36 74.27 40.17 73.73 39.63C71.87 37.75 69.99 35.89 68.13 34.02C67.33 33.22 66.52 32.43 65.74 31.61C65.04 30.87 64.98 29.94 65.61 29.41C66.34 28.8 67.07 28.93 67.73 29.58C70.4 32.25 73.07 34.92 75.75 37.59C76.08 37.92 76.33 38.28 76.36 38.81L76.35 38.8Z" fill="black"/>
<path d="M76.32 103.8C76.35 104.56 76.15 104.91 75.85 105.22C73.15 107.92 70.47 110.63 67.76 113.31C67.01 114.05 66.14 114.07 65.55 113.46C64.98 112.88 65.06 111.99 65.79 111.25C68.42 108.6 71.07 105.96 73.71 103.31C74.24 102.78 74.81 102.53 75.54 102.85C76.09 103.09 76.3 103.55 76.32 103.8Z" fill="black"/>
<path d="M97.91 30.3301C97.92 30.9201 97.65 31.3101 97.29 31.6701C94.64 34.3101 92 36.9701 89.35 39.6001C88.59 40.3501 87.73 40.4101 87.14 39.8201C86.55 39.2401 86.6 38.3301 87.32 37.6101C89.98 34.9201 92.65 32.2501 95.32 29.5801C95.81 29.0901 96.38 28.8701 97.07 29.1501C97.62 29.3801 97.86 29.8201 97.92 30.3301H97.91Z" fill="black"/>
<path d="M88.05 102.71C88.64 102.71 89.01 102.96 89.34 103.29C92.01 105.97 94.67 108.64 97.34 111.31C98 111.97 98.14 112.69 97.53 113.43C96.99 114.09 96.05 114.06 95.32 113.33C92.61 110.64 89.92 107.94 87.23 105.23C86.73 104.73 86.57 104.13 86.86 103.47C87.1 102.92 87.59 102.74 88.05 102.71Z" fill="black"/>
</g>
<defs>
<clipPath id="clip0_412_573">
<rect width="140.74" height="142.4" fill="white"/>
</clipPath>
</defs>
</svg>
