<svg width="159" height="125" viewBox="0 0 159 125" fill="none" xmlns="http://www.w3.org/2000/svg">
<g clip-path="url(#clip0_411_513)">
<path d="M127.66 74.86C130.26 72.93 133.12 70.56 133.63 67C134.17 63.26 131.96 58.94 133.97 55.95C134.54 55.1 135.4 54.51 135.83 53.55C136.29 52.52 136.16 51.3 136.01 50.16C135.05 42.52 133.97 34.53 129.98 28.49C127.72 25.06 124.66 22.5 121.62 20.03C114.2 14 106.42 8.11002 97.57 5.85002C94.86 5.16002 92.01 4.83003 89.29 5.61003C87.34 6.17003 85.54 7.28003 83.65 8.09003C77.53 10.74 70.88 10.25 64.41 10.49C54.54 10.85 44.21 13.26 36.44 20.67C29.53 27.26 25.35 37.2 23.39 47.37C22.3 53.01 21.84 58.78 21.55 64.53C21.39 67.71 21.3 70.96 22.07 73.99C23.93 81.34 30.38 85.75 32.92 92.8C35.05 98.7 34.32 106.12 37.82 111C40.24 114.38 44.25 115.71 48.04 115.51C51.83 115.31 55.5 113.77 59.09 112.25C60.73 111.56 62.39 110.85 63.79 109.61C65.04 108.5 66.02 107.01 67.09 105.66C71.59 99.95 78.04 96.46 84.57 96.19C92.94 95.85 99.46 96.89 106.87 91.09C113.8 85.67 120.62 80.11 127.66 74.87V74.86Z" fill="#F3941B"/>
<path d="M93.07 100.59C95.38 97.42 97.69 94.25 99.99 91.07C103.9 85.7 107.81 80.32 112.33 75.46C117.28 70.14 122.91 65.5 128.18 60.5C139.26 49.98 148.73 37.92 158.16 25.9C154.25 25.67 150.28 26.39 146.69 27.98C147.04 25.75 147.39 23.51 147.75 21.28C143.96 21.9 140.16 22.52 136.37 23.14C135.64 23.26 134.87 23.38 134.17 23.14C131.54 22.25 132.56 18.27 131.53 15.7C130.43 12.94 126.89 12.06 123.94 12.38C120.99 12.7 118.09 13.83 115.13 13.53C114.17 13.43 113.13 13.13 112.58 12.33C111.98 11.45 112.11 10.21 111.49 9.35002C110.82 8.42002 109.53 8.25002 108.38 8.16002C99.21 7.42002 90.04 6.69002 80.86 5.95002C80.92 3.97002 80.98 2.00002 81.04 0.0200195C77.11 0.34002 74.27 3.97002 72.79 7.62002C71.3 11.27 66.14 14.41 63.95 17.69C58.95 25.19 52.93 26.91 44.98 31.15C39.68 33.98 35.44 38.44 31.57 43.04C20.51 56.16 11.61 71.1 5.32001 87.07C6.02001 85.63 7.91001 84.9 9.40001 85.5C10.89 86.1 11.73 87.95 11.22 89.47C13.28 88.96 15.26 88.16 17.1 87.11C16.48 89.84 15.86 92.56 15.24 95.29C16.24 94.32 17.5 96.4 17.03 97.7C16.56 99.01 15.6 100.57 16.53 101.6C17.82 100.93 19.11 100.26 20.4 99.59C19.55 100.01 19.76 101.41 20.56 101.93C21.36 102.45 22.39 102.34 23.33 102.22C27.14 101.72 30.96 101.21 34.77 100.71C40.65 99.93 47.85 99.73 51.1 104.69C47.21 109.45 43.32 114.22 39.43 118.98C43.77 113.49 49.23 108.89 55.37 105.53C52.9 110.03 50.05 114.32 46.84 118.32C51.34 114.54 55.85 110.75 60.35 106.97C58.91 110.61 56.99 114.06 54.64 117.2C58.66 114.17 62.68 111.14 66.71 108.11C66.69 112.62 65.39 117.12 63 120.95C64.86 117.91 67.26 115.21 70.06 113C69.73 115.94 68.47 118.77 66.49 120.97C70.34 117.29 73.91 113.32 77.17 109.1L76.35 113.22C80.13 108.92 84.64 105.25 89.63 102.42C88.79 107.24 86.23 111.74 82.52 114.94C87.27 108.56 92.03 102.19 96.78 95.81C95.77 98.62 94.36 101.29 92.6 103.7C99.57 91.01 106.95 77.84 118.89 69.64C123.84 66.24 124.3 59.3 128.27 54.8C145.29 35.49 150.49 38.5 155.42 25.76" fill="#9DD8F2"/>
<path d="M111.43 94.72C116.51 92.4 122.36 91.42 127.73 92.95C123.4 95.21 119.08 97.47 114.75 99.74C112.77 100.78 102.65 106.65 101.11 102.63C100.19 100.21 109.65 95.54 111.43 94.72Z" fill="#F3941B"/>
<path d="M129.93 78.82C130.37 78.52 130.63 77.99 130.61 77.47C126.79 78.97 123.53 81.84 121.56 85.44C123.48 85.29 125.26 84.33 126.71 83.07C128.16 81.81 129.32 80.26 130.47 78.72C131.3 77.61 132.18 76.21 131.67 74.92" fill="#F3941B"/>
<path d="M34.64 115.81C34.39 115.6 34.34 115.23 34.33 114.9C34.27 112.97 34.94 111.02 36.17 109.53C37.89 107.45 40.48 106.32 42.09 104.12C42.36 106.41 34.42 115.62 34.64 115.81Z" fill="#9DD8F2"/>
<path d="M11.6 124.07C11.6 122.71 12.36 121.47 13.13 120.34C15.73 116.56 18.8 113.11 22.23 110.07C23.62 108.84 30.3 102.42 32.27 103.16C34.67 104.06 25.8 114.23 24.56 115.57C20.98 119.42 16.62 122.43 11.59 124.07H11.6Z" fill="#9DD8F2"/>
<path d="M10.63 98.0801C8.76 100.41 6.71 102.59 4.5 104.61C5.45 101.85 7.09 99.33 9.22 97.34C9.44 97.14 9.69 96.9301 9.99 96.9301C10.74 96.9501 10.75 98.0801 10.39 98.7401C9.93 99.5801 9.28 100.31 8.51 100.87" fill="#9DD8F2"/>
<path d="M5.76999 90.85C6.40999 90.47 6.89999 89.84 7.09999 89.12C4.23999 88.78 1.23999 90.42 -0.0100098 93.02C1.90999 93.36 3.98999 92.24 4.75999 90.45" fill="#9DD8F2"/>
<path d="M140.36 19.36C142.84 18.06 144.93 16.05 146.33 13.62C143.32 15.01 140.4 16.61 137.61 18.4C139.06 18.52 140.51 18.65 141.97 18.77" fill="#9DD8F2"/>
<path d="M119.76 10.3301C119.97 9.59007 120.18 8.86007 120.39 8.12007C119.06 7.60007 117.44 7.94007 116.42 8.94007C116.99 8.82007 117.52 9.27007 117.9 9.71007C118.28 10.1501 118.69 10.6701 119.27 10.7401C119.85 10.8101 120.45 10.0401 120.01 9.65007" fill="#9DD8F2"/>
<g opacity="0.2">
<path d="M64.91 86.81C64.91 87.66 64.91 88.51 64.91 89.36C64.91 90.9 64.93 92.45 64.9 93.99C64.9 94.48 65.05 94.72 65.49 94.94C67.52 95.98 68.34 98.19 67.5 100.23C66.68 102.24 64.4 103.29 62.26 102.66C60.15 102.03 58.88 99.96 59.32 97.79C59.59 96.48 60.37 95.53 61.55 94.94C61.99 94.72 62.15 94.48 62.14 94C62.12 90.98 62.12 87.97 62.14 84.95C62.14 84.61 62.02 84.41 61.78 84.21C59.12 81.98 56.75 79.47 54.68 76.69C54.44 76.37 54.2 76.29 53.82 76.29C47.81 76.3 41.8 76.31 35.79 76.29C35.22 76.29 34.85 76.43 34.52 76.92C33.36 78.65 32.17 80.36 30.96 82.06C30.72 82.4 30.74 82.62 30.95 82.97C32 84.69 31.73 86.71 30.33 88.09C28.92 89.47 26.73 89.73 25.03 88.71C23.39 87.73 22.62 85.74 23.17 83.94C23.74 82.07 25.49 80.8 27.48 80.98C28.19 81.04 28.53 80.79 28.89 80.26C30.16 78.37 31.5 76.52 32.76 74.62C33.25 73.89 33.84 73.6 34.72 73.6C40.36 73.63 46 73.61 51.64 73.6C51.89 73.6 52.24 73.75 52.38 73.48C52.49 73.27 52.22 73.05 52.1 72.84C50.49 70.11 49.14 67.25 48.08 64.27C47.91 63.78 47.69 63.59 47.14 63.59C43.27 63.62 39.39 63.61 35.51 63.59C35 63.59 34.74 63.75 34.49 64.21C33.53 65.99 31.52 66.83 29.61 66.32C27.69 65.8 26.42 64.17 26.43 62.22C26.43 60.33 27.73 58.69 29.61 58.2C31.56 57.69 33.52 58.51 34.48 60.31C34.72 60.76 34.99 60.93 35.5 60.92C39.08 60.9 42.66 60.9 46.24 60.92C46.82 60.92 46.95 60.8 46.79 60.23C46.03 57.56 45.47 54.85 45.12 52.1C45.05 51.53 44.82 51.39 44.28 51.4C39.77 51.42 35.25 51.4 30.74 51.42C29.86 51.42 29.28 51.12 28.79 50.39C27.47 48.42 26.07 46.49 24.73 44.53C24.47 44.14 24.21 43.99 23.71 44.05C21.79 44.3 19.92 43.11 19.26 41.28C18.62 39.51 19.29 37.49 20.88 36.42C22.53 35.31 24.76 35.49 26.26 36.84C27.67 38.11 28.04 40.22 27.06 41.87C26.73 42.43 26.82 42.76 27.15 43.22C28.32 44.85 29.47 46.5 30.6 48.17C30.86 48.55 31.13 48.73 31.61 48.73C35.73 48.71 39.85 48.71 43.97 48.73C44.62 48.73 44.73 48.53 44.68 47.93C44.29 43.13 44.39 38.33 45.01 33.55C45.04 33.31 45.08 33.06 45.12 32.82C45.31 31.79 45.8 31.39 46.85 31.46C49.52 31.64 52.19 31.59 54.86 31.31C55.46 31.25 55.61 31.02 55.61 30.44C55.58 27.35 55.59 24.26 55.61 21.17C55.61 20.73 55.48 20.46 55.11 20.22C53.69 19.31 52.27 18.38 50.88 17.41C50.45 17.11 50.11 17.07 49.62 17.3C47.84 18.12 45.84 17.67 44.6 16.24C43.36 14.82 43.21 12.87 44.22 11.26C45.27 9.59002 47.44 8.87002 49.33 9.56002C51.28 10.28 52.41 12.13 52.06 14.15C51.96 14.71 52.09 14.98 52.55 15.27C54.2 16.33 55.82 17.44 57.46 18.51C58.13 18.94 58.39 19.5 58.38 20.29C58.35 23.53 58.38 26.76 58.36 30C58.36 30.56 58.43 30.79 59.08 30.64C60.9 30.22 62.7 29.78 64.48 29.22C64.85 29.1 64.97 28.92 64.96 28.54C64.94 25.6 64.94 22.66 64.96 19.71C64.96 19.18 64.71 19.01 64.31 18.8C62.18 17.69 61.41 15.18 62.53 13.15C63.7 11.02 66.44 10.28 68.51 11.51C70.56 12.73 71.22 15.27 70.01 17.25C69.58 17.96 68.99 18.52 68.23 18.84C67.79 19.03 67.68 19.29 67.69 19.74C67.71 22.24 67.69 24.74 67.7 27.24C67.7 28.06 67.7 28.07 68.45 27.77C70.36 26.99 72.24 26.16 74.02 25.12C74.78 24.68 75.44 24.65 76.22 25.1C77.79 26.01 79.45 26.75 81.11 27.48C81.73 27.75 81.79 27.55 81.78 27C81.76 24.57 81.76 22.15 81.78 19.72C81.78 19.26 81.62 19.04 81.21 18.84C79.14 17.79 78.3 15.47 79.21 13.42C80.12 11.38 82.61 10.38 84.73 11.21C86.84 12.03 87.92 14.29 87.21 16.44C86.84 17.57 86.07 18.38 85 18.87C84.63 19.04 84.51 19.26 84.51 19.65C84.52 22.49 84.53 25.34 84.51 28.18C84.51 28.62 84.65 28.84 85.07 28.97C86.85 29.54 88.64 30.02 90.45 30.46C91 30.59 91.11 30.44 91.11 29.91C91.09 26.75 91.13 23.58 91.09 20.42C91.08 19.48 91.39 18.86 92.19 18.36C93.81 17.35 95.38 16.25 96.98 15.21C97.38 14.95 97.52 14.71 97.43 14.2C97.08 12.24 98.07 10.45 99.87 9.64002C101.65 8.85002 103.78 9.36002 105 10.86C106.18 12.31 106.23 14.41 105.12 15.92C103.95 17.52 101.84 18.14 100 17.32C99.36 17.04 98.95 17.12 98.41 17.49C97.09 18.42 95.73 19.3 94.37 20.18C94.04 20.4 93.85 20.62 93.86 21.05C93.88 24.16 93.88 27.28 93.86 30.39C93.86 30.94 94.06 31.09 94.56 31.16C97.44 31.53 100.33 31.62 103.22 31.43C104.54 31.35 105 31.71 105.18 33.03C105.87 38 105.96 43 105.57 48C105.53 48.51 105.62 48.69 106.16 48.68C110.08 48.66 114.01 48.66 117.93 48.68C118.32 48.68 118.55 48.55 118.77 48.24C119.99 46.46 121.22 44.69 122.47 42.93C122.7 42.6 122.69 42.37 122.48 42.02C121.42 40.26 121.7 38.21 123.14 36.84C124.6 35.45 126.79 35.26 128.51 36.35C130.14 37.39 130.84 39.42 130.19 41.24C129.53 43.08 127.67 44.23 125.65 44C125.21 43.95 124.98 44.09 124.75 44.43C123.39 46.41 121.98 48.36 120.65 50.36C120.16 51.1 119.57 51.39 118.69 51.39C114.47 51.36 110.25 51.39 106.03 51.37C105.44 51.37 105.19 51.49 105.11 52.14C104.75 54.86 104.21 57.56 103.44 60.2C103.28 60.75 103.37 60.91 103.98 60.91C107.29 60.88 110.6 60.88 113.91 60.91C114.45 60.91 114.72 60.74 114.97 60.26C115.77 58.73 117.43 57.89 119.14 58.07C120.92 58.26 122.34 59.43 122.83 61.1C123.31 62.73 122.76 64.43 121.41 65.52C119.37 67.16 116.26 66.58 115 64.28C114.71 63.75 114.39 63.57 113.81 63.58C110.28 63.6 106.75 63.61 103.22 63.58C102.59 63.58 102.33 63.79 102.12 64.36C101.07 67.32 99.73 70.16 98.12 72.86C97.68 73.59 97.69 73.6 98.59 73.6C104.01 73.6 109.43 73.61 114.85 73.59C115.65 73.59 116.18 73.87 116.62 74.53C117.91 76.44 119.27 78.3 120.55 80.22C120.93 80.79 121.29 81.02 122.02 80.97C124.29 80.82 126.16 82.44 126.44 84.7C126.7 86.78 125.23 88.76 123.09 89.23C120.94 89.7 118.71 88.45 118.08 86.38C117.71 85.19 117.85 84.05 118.51 82.99C118.71 82.66 118.78 82.42 118.53 82.07C117.29 80.33 116.07 78.59 114.88 76.82C114.59 76.4 114.27 76.28 113.78 76.28C108.09 76.3 102.4 76.3 96.71 76.28C96.1 76.28 95.73 76.47 95.37 76.95C93.19 79.88 90.66 82.47 87.82 84.75C87.46 85.04 87.32 85.35 87.33 85.81C87.35 88.46 87.36 91.11 87.33 93.75C87.33 94.39 87.5 94.73 88.09 95.05C90.11 96.13 90.83 98.58 89.79 100.55C88.68 102.64 86.09 103.46 83.97 102.37C81.94 101.33 81.1 98.88 82.09 96.84C82.52 95.95 83.22 95.3 84.11 94.88C84.48 94.71 84.6 94.49 84.59 94.09C84.57 92.03 84.59 89.97 84.58 87.91C84.58 87.73 84.67 87.48 84.48 87.37C84.28 87.26 84.12 87.47 83.97 87.57C81.58 89.13 79.07 90.44 76.48 91.63C75.56 92.05 74.76 92.08 73.83 91.65C70.97 90.34 68.21 88.87 65.6 87.11C65.41 86.98 65.24 86.78 64.88 86.8L64.91 86.81ZM103.09 41.66C103.07 39.4 102.93 37.15 102.7 34.91C102.65 34.38 102.46 34.23 101.92 34.25C99.91 34.34 97.9 34.28 95.89 34.08C88.77 33.37 82.07 31.28 75.76 27.95C75.35 27.74 75.05 27.7 74.62 27.93C66.41 32.23 57.71 34.55 48.39 34.25C47.9 34.23 47.7 34.36 47.65 34.87C47.46 36.87 47.28 38.87 47.25 40.89C47.11 49.69 48.37 58.24 51.93 66.36C56.54 76.88 64.23 84.33 74.67 89.01C75 89.16 75.28 89.19 75.64 89.03C87.57 83.69 95.67 74.84 99.93 62.5C102.26 55.75 103.16 48.78 103.09 41.66ZM122.22 86.61C123.04 86.61 123.75 85.95 123.76 85.15C123.76 84.35 123.09 83.65 122.28 83.63C121.43 83.61 120.7 84.31 120.71 85.13C120.71 85.94 121.39 86.6 122.23 86.61H122.22ZM65.05 98.62C65.03 97.82 64.32 97.14 63.51 97.15C62.7 97.15 62 97.86 62 98.65C62 99.47 62.75 100.18 63.58 100.15C64.41 100.12 65.07 99.43 65.05 98.62ZM28.84 85.17C28.86 84.32 28.17 83.64 27.3 83.64C26.51 83.64 25.83 84.28 25.79 85.05C25.75 85.9 26.43 86.61 27.29 86.62C28.12 86.62 28.82 85.97 28.84 85.17ZM87.56 98.65C87.56 97.87 86.84 97.16 86.04 97.15C85.23 97.15 84.51 97.83 84.5 98.62C84.48 99.45 85.2 100.16 86.05 100.15C86.85 100.15 87.56 99.44 87.56 98.65ZM101.67 12.01C100.86 12.01 100.15 12.7 100.15 13.5C100.15 14.3 100.84 14.99 101.65 15C102.49 15.02 103.21 14.3 103.2 13.47C103.18 12.66 102.5 12 101.67 12V12.01ZM118.76 60.77C117.93 60.79 117.27 61.46 117.27 62.27C117.27 63.08 117.96 63.75 118.78 63.75C119.62 63.75 120.33 63.04 120.31 62.2C120.29 61.4 119.58 60.74 118.76 60.76V60.77ZM47.86 14.99C48.67 15.01 49.39 14.33 49.41 13.54C49.43 12.75 48.75 12.04 47.94 12.01C47.08 11.98 46.37 12.65 46.36 13.5C46.36 14.3 47.03 14.98 47.86 15V14.99ZM84.73 15.11C84.71 14.31 83.99 13.62 83.2 13.63C82.34 13.63 81.66 14.33 81.68 15.18C81.7 15.98 82.41 16.64 83.23 16.61C84.05 16.59 84.75 15.88 84.73 15.1V15.11ZM126.22 38.39C125.39 38.39 124.7 39.03 124.67 39.84C124.64 40.67 125.36 41.39 126.21 41.38C127.03 41.38 127.73 40.68 127.73 39.89C127.73 39.09 127.04 38.4 126.22 38.39ZM30.79 60.76C29.97 60.76 29.26 61.42 29.25 62.21C29.23 63.05 29.93 63.75 30.79 63.74C31.61 63.74 32.29 63.05 32.29 62.25C32.29 61.44 31.61 60.77 30.79 60.76ZM66.35 13.62C65.54 13.62 64.85 14.3 64.83 15.11C64.81 15.9 65.51 16.6 66.33 16.61C67.16 16.62 67.86 15.97 67.88 15.17C67.9 14.33 67.21 13.62 66.35 13.62ZM23.33 41.37C24.14 41.39 24.86 40.72 24.89 39.92C24.92 39.13 24.24 38.42 23.42 38.38C22.58 38.34 21.83 39.04 21.83 39.87C21.83 40.67 22.52 41.36 23.34 41.37H23.33Z" fill="#0E4A7A"/>
<path d="M75.18 70.0901C71.84 70.0901 68.51 70.0901 65.17 70.0901C62.97 70.0901 61.69 68.8001 61.69 66.6201C61.69 61.2501 61.69 55.8801 61.69 50.5101C61.69 48.4601 62.99 47.1601 65.04 47.1401C65.7 47.1401 66.37 47.1101 67.03 47.1401C67.56 47.1701 67.7 46.9601 67.69 46.4601C67.66 45.4601 67.68 44.4501 67.69 43.4401C67.73 39.5801 70.84 36.4201 74.81 36.2101C78.72 36.0101 82.2 38.9101 82.61 42.7201C82.75 43.9701 82.69 45.2201 82.67 46.4701C82.67 46.9901 82.83 47.1701 83.34 47.1401C84.02 47.1001 84.71 47.1201 85.4 47.1401C87.32 47.1801 88.62 48.4801 88.62 50.4101C88.62 55.8801 88.62 61.3401 88.62 66.8101C88.62 68.7701 87.3 70.0701 85.33 70.0801C81.95 70.0901 78.56 70.0801 75.18 70.0801V70.0901ZM75.18 67.4101C78.39 67.4101 81.6 67.4101 84.81 67.4101C85.8 67.4101 85.87 67.3501 85.87 66.3801C85.87 61.2101 85.87 56.0401 85.87 50.8701C85.87 49.8801 85.83 49.8501 84.82 49.8501C78.37 49.8501 71.92 49.8501 65.48 49.8501C64.53 49.8501 64.46 49.9101 64.46 50.8301C64.46 56.0301 64.46 61.2201 64.46 66.4201C64.46 67.3601 64.52 67.4201 65.47 67.4201C68.71 67.4201 71.94 67.4201 75.18 67.4201V67.4101ZM75.18 47.1501C76.55 47.1501 77.93 47.1501 79.3 47.1501C79.6 47.1501 79.92 47.1901 79.9 46.7301C79.87 45.4301 80.02 44.1301 79.82 42.8401C79.45 40.4401 77.25 38.7701 74.78 38.9601C72.35 39.1501 70.48 41.1001 70.44 43.5101C70.42 44.5101 70.46 45.5201 70.43 46.5201C70.41 47.0001 70.58 47.1601 71.06 47.1501C72.43 47.1201 73.81 47.1501 75.18 47.1501Z" fill="#0E4A7A"/>
<path d="M75.17 60.85C74.63 60.85 74.09 60.89 73.56 60.85C72.77 60.78 72.26 60.22 72.26 59.52C72.26 58.78 72.83 58.2 73.63 58.18C74.66 58.15 75.69 58.15 76.71 58.18C77.49 58.2 78.04 58.75 78.08 59.45C78.12 60.19 77.6 60.78 76.78 60.85C76.25 60.9 75.7 60.85 75.17 60.85Z" fill="#0E4A7A"/>
</g>
<path d="M67.43 84.7399C67.43 85.5899 67.43 86.4399 67.43 87.2899C67.43 88.8299 67.45 90.3799 67.42 91.9199C67.42 92.4099 67.57 92.6499 68.01 92.8699C70.04 93.91 70.86 96.1199 70.02 98.16C69.2 100.17 66.92 101.22 64.78 100.59C62.67 99.9599 61.4 97.8899 61.84 95.7199C62.11 94.41 62.89 93.4599 64.07 92.8699C64.51 92.6499 64.67 92.41 64.66 91.9299C64.64 88.91 64.64 85.8999 64.66 82.8799C64.66 82.5399 64.54 82.3399 64.3 82.1399C61.64 79.9099 59.27 77.3999 57.2 74.6199C56.96 74.2999 56.72 74.2199 56.34 74.2199C50.33 74.2299 44.32 74.2399 38.31 74.2199C37.74 74.2199 37.37 74.3599 37.04 74.8499C35.88 76.5799 34.69 78.2899 33.48 79.9899C33.24 80.3299 33.26 80.5499 33.47 80.8999C34.52 82.6199 34.25 84.6399 32.85 86.0199C31.44 87.3999 29.25 87.6599 27.55 86.6399C25.91 85.6599 25.14 83.67 25.69 81.8699C26.26 79.9999 28.01 78.7299 30 78.91C30.71 78.9699 31.05 78.7199 31.41 78.1899C32.68 76.2999 34.02 74.45 35.28 72.5499C35.77 71.8199 36.36 71.5299 37.24 71.5299C42.88 71.5599 48.52 71.5399 54.16 71.5299C54.41 71.5299 54.76 71.6799 54.9 71.41C55.01 71.2 54.74 70.9799 54.62 70.7699C53.01 68.0399 51.66 65.1799 50.6 62.1999C50.43 61.7099 50.21 61.5199 49.66 61.5199C45.79 61.5499 41.91 61.5399 38.03 61.5199C37.52 61.5199 37.26 61.6799 37.01 62.1399C36.05 63.9199 34.04 64.7599 32.13 64.2499C30.21 63.7299 28.94 62.0999 28.95 60.1499C28.95 58.2599 30.25 56.6199 32.13 56.1299C34.08 55.6199 36.04 56.4399 37 58.2399C37.24 58.6899 37.51 58.8599 38.02 58.8499C41.6 58.8299 45.18 58.8299 48.76 58.8499C49.34 58.8499 49.47 58.7299 49.31 58.1599C48.55 55.4899 47.99 52.7799 47.64 50.0299C47.57 49.4599 47.34 49.32 46.8 49.3299C42.29 49.3499 37.77 49.3299 33.26 49.3499C32.38 49.3499 31.8 49.0499 31.31 48.3199C29.99 46.3499 28.59 44.4199 27.25 42.4599C26.99 42.0699 26.73 41.9199 26.23 41.9799C24.31 42.2299 22.44 41.0399 21.78 39.2099C21.14 37.4399 21.81 35.4199 23.4 34.3499C25.05 33.2399 27.28 33.4199 28.78 34.7699C30.19 36.0399 30.56 38.1499 29.58 39.7999C29.25 40.3599 29.34 40.6899 29.67 41.1499C30.84 42.7799 31.99 44.4299 33.12 46.0999C33.38 46.4799 33.65 46.6599 34.13 46.6599C38.25 46.6399 42.37 46.6399 46.49 46.6599C47.14 46.6599 47.25 46.4599 47.2 45.8599C46.81 41.0599 46.91 36.2599 47.53 31.4799C47.56 31.2399 47.6 30.9899 47.64 30.7499C47.83 29.7199 48.32 29.3199 49.37 29.3899C52.04 29.5699 54.71 29.5199 57.38 29.2399C57.98 29.1799 58.13 28.9499 58.13 28.3699C58.1 25.2799 58.11 22.1899 58.13 19.0999C58.13 18.6599 58 18.3899 57.63 18.1499C56.21 17.2399 54.79 16.3099 53.4 15.3399C52.97 15.0399 52.63 14.9999 52.14 15.2299C50.36 16.0499 48.36 15.5999 47.12 14.1699C45.88 12.7499 45.73 10.7999 46.74 9.18995C47.79 7.51995 49.96 6.79995 51.85 7.48995C53.8 8.20995 54.93 10.0599 54.58 12.0799C54.48 12.6399 54.61 12.9099 55.07 13.1999C56.72 14.2599 58.34 15.3699 59.98 16.4399C60.65 16.8699 60.91 17.4299 60.9 18.2199C60.87 21.4599 60.9 24.6899 60.88 27.9299C60.88 28.4899 60.95 28.7199 61.6 28.5699C63.42 28.1499 65.22 27.7099 67 27.1499C67.37 27.0299 67.49 26.8499 67.48 26.4699C67.46 23.5299 67.46 20.5899 67.48 17.6399C67.48 17.1099 67.23 16.9399 66.83 16.7299C64.7 15.6199 63.93 13.1099 65.05 11.0799C66.22 8.94995 68.96 8.20995 71.03 9.43995C73.08 10.6599 73.74 13.1999 72.53 15.1799C72.1 15.8899 71.51 16.4499 70.75 16.7699C70.31 16.9599 70.2 17.2199 70.21 17.6699C70.23 20.1699 70.21 22.6699 70.22 25.1699C70.22 25.9899 70.22 25.9999 70.97 25.6999C72.88 24.9199 74.76 24.0899 76.54 23.0499C77.3 22.6099 77.96 22.5799 78.74 23.0299C80.31 23.9399 81.97 24.6799 83.63 25.4099C84.25 25.6799 84.31 25.4799 84.3 24.9299C84.28 22.4999 84.28 20.0799 84.3 17.6499C84.3 17.1899 84.14 16.9699 83.73 16.7699C81.66 15.7199 80.82 13.3999 81.73 11.3499C82.64 9.30995 85.13 8.30995 87.25 9.13995C89.36 9.95995 90.44 12.2199 89.73 14.3699C89.36 15.4999 88.59 16.3099 87.52 16.7999C87.15 16.9699 87.03 17.1899 87.03 17.5799C87.04 20.4199 87.05 23.2699 87.03 26.1099C87.03 26.5499 87.17 26.7699 87.59 26.8999C89.37 27.4699 91.16 27.9499 92.97 28.3899C93.52 28.5199 93.63 28.3699 93.63 27.8399C93.61 24.6799 93.65 21.5099 93.61 18.3499C93.6 17.4099 93.91 16.7899 94.71 16.2899C96.33 15.2799 97.9 14.1799 99.5 13.1399C99.9 12.8799 100.04 12.6399 99.95 12.1299C99.6 10.1699 100.59 8.37995 102.39 7.56995C104.17 6.77995 106.3 7.28995 107.52 8.78995C108.7 10.2399 108.75 12.3399 107.64 13.8499C106.47 15.4499 104.36 16.0699 102.52 15.2499C101.88 14.9699 101.47 15.0499 100.93 15.4199C99.61 16.3499 98.25 17.2299 96.89 18.1099C96.56 18.3299 96.37 18.5499 96.38 18.9799C96.4 22.0899 96.4 25.2099 96.38 28.3199C96.38 28.8699 96.58 29.0199 97.08 29.0899C99.96 29.4599 102.85 29.5499 105.74 29.3599C107.06 29.2799 107.52 29.6399 107.7 30.9599C108.39 35.9299 108.48 40.9299 108.09 45.9299C108.05 46.4399 108.14 46.6199 108.68 46.6099C112.6 46.5899 116.53 46.5899 120.45 46.6099C120.84 46.6099 121.07 46.4799 121.29 46.1699C122.51 44.3899 123.74 42.6199 124.99 40.8599C125.22 40.5299 125.21 40.2999 125 39.9499C123.94 38.1899 124.22 36.1399 125.66 34.7699C127.12 33.3799 129.31 33.1899 131.03 34.2799C132.66 35.3199 133.36 37.3499 132.71 39.1699C132.05 41.0099 130.19 42.1599 128.17 41.9299C127.73 41.8799 127.5 42.0199 127.27 42.3599C125.91 44.3399 124.5 46.2899 123.17 48.2899C122.68 49.0299 122.09 49.3199 121.21 49.3199C116.99 49.2899 112.77 49.3199 108.55 49.2999C107.96 49.2999 107.71 49.4199 107.63 50.0699C107.27 52.7899 106.73 55.4899 105.96 58.1299C105.8 58.6799 105.89 58.8399 106.5 58.8399C109.81 58.8099 113.12 58.8099 116.43 58.8399C116.97 58.8399 117.24 58.6699 117.49 58.1899C118.29 56.6599 119.95 55.8199 121.66 55.9999C123.44 56.1899 124.86 57.3599 125.35 59.0299C125.83 60.6599 125.28 62.3599 123.93 63.4499C121.89 65.0899 118.78 64.5099 117.52 62.2099C117.23 61.6799 116.91 61.4999 116.33 61.5099C112.8 61.5299 109.27 61.5399 105.74 61.5099C105.11 61.5099 104.85 61.7199 104.64 62.2899C103.59 65.2499 102.25 68.0899 100.64 70.7899C100.2 71.52 100.21 71.5299 101.11 71.5299C106.53 71.5299 111.95 71.5399 117.37 71.5199C118.17 71.5199 118.7 71.7999 119.14 72.4599C120.43 74.3699 121.79 76.2299 123.07 78.1499C123.45 78.7199 123.81 78.95 124.54 78.8999C126.81 78.7499 128.68 80.3699 128.96 82.6299C129.22 84.7099 127.75 86.6899 125.61 87.16C123.46 87.63 121.23 86.3799 120.6 84.3099C120.23 83.1199 120.37 81.9799 121.03 80.9199C121.23 80.5899 121.3 80.3499 121.05 79.9999C119.81 78.2599 118.59 76.5199 117.4 74.7499C117.11 74.3299 116.79 74.2099 116.3 74.2099C110.61 74.2299 104.92 74.2299 99.23 74.2099C98.62 74.2099 98.25 74.3999 97.89 74.8799C95.71 77.8099 93.18 80.3999 90.34 82.6799C89.98 82.9699 89.84 83.2799 89.85 83.7399C89.87 86.3899 89.88 89.0399 89.85 91.6799C89.85 92.3199 90.02 92.66 90.61 92.9799C92.63 94.06 93.35 96.5099 92.31 98.4799C91.2 100.57 88.61 101.39 86.49 100.3C84.46 99.2599 83.62 96.8099 84.61 94.7699C85.04 93.8799 85.74 93.2299 86.63 92.8099C87 92.6399 87.12 92.4199 87.11 92.0199C87.09 89.9599 87.11 87.8999 87.1 85.8399C87.1 85.6599 87.19 85.41 87 85.2999C86.8 85.1899 86.64 85.3999 86.49 85.4999C84.1 87.0599 81.59 88.3699 79 89.5599C78.08 89.9799 77.28 90.0099 76.35 89.5799C73.49 88.27 70.73 86.7999 68.12 85.0399C67.93 84.91 67.76 84.71 67.4 84.7299L67.43 84.7399ZM105.61 39.5899C105.59 37.3299 105.45 35.0799 105.22 32.8399C105.17 32.3099 104.98 32.1599 104.44 32.1799C102.43 32.2699 100.42 32.2099 98.41 32.0099C91.29 31.2999 84.59 29.2099 78.28 25.8799C77.87 25.6699 77.57 25.6299 77.14 25.8599C68.93 30.1599 60.23 32.4799 50.91 32.1799C50.42 32.1599 50.22 32.2899 50.17 32.7999C49.98 34.7999 49.8 36.7999 49.77 38.8199C49.63 47.6199 50.89 56.1699 54.45 64.2899C59.06 74.81 66.75 82.2599 77.19 86.9399C77.52 87.09 77.8 87.1199 78.16 86.9599C90.09 81.6199 98.19 72.7699 102.45 60.4299C104.78 53.6799 105.68 46.7099 105.61 39.5899ZM124.74 84.5399C125.56 84.5399 126.27 83.88 126.28 83.0799C126.28 82.2799 125.61 81.5799 124.8 81.5599C123.95 81.5399 123.22 82.2399 123.23 83.0599C123.23 83.8699 123.91 84.5299 124.75 84.5399H124.74ZM67.57 96.5499C67.55 95.7499 66.84 95.0699 66.03 95.0799C65.22 95.0799 64.52 95.7899 64.52 96.5799C64.52 97.3999 65.27 98.1099 66.1 98.0799C66.93 98.0499 67.59 97.3599 67.57 96.5499ZM31.36 83.0999C31.38 82.2499 30.69 81.5699 29.82 81.5699C29.03 81.5699 28.35 82.21 28.31 82.9799C28.27 83.8299 28.95 84.5399 29.81 84.5499C30.64 84.5499 31.34 83.8999 31.36 83.0999ZM90.08 96.5799C90.08 95.7999 89.36 95.09 88.56 95.0799C87.75 95.0799 87.03 95.7599 87.02 96.5499C87 97.38 87.72 98.09 88.57 98.0799C89.37 98.0799 90.08 97.3699 90.08 96.5799ZM104.19 9.93995C103.38 9.93995 102.67 10.6299 102.67 11.4299C102.67 12.2299 103.36 12.9199 104.17 12.9299C105.01 12.9499 105.73 12.2299 105.72 11.3999C105.7 10.5899 105.02 9.92995 104.19 9.92995V9.93995ZM121.28 58.6999C120.45 58.7199 119.79 59.3899 119.79 60.1999C119.79 61.0099 120.48 61.6799 121.3 61.6799C122.14 61.6799 122.85 60.9699 122.83 60.1299C122.81 59.3299 122.1 58.6699 121.28 58.6899V58.6999ZM50.37 12.9199C51.18 12.9399 51.9 12.2599 51.92 11.4699C51.94 10.6799 51.26 9.96995 50.45 9.93995C49.59 9.90995 48.88 10.5799 48.87 11.4299C48.87 12.2299 49.54 12.9099 50.37 12.9299V12.9199ZM87.24 13.0399C87.22 12.2399 86.5 11.5499 85.71 11.5599C84.85 11.5599 84.17 12.2599 84.19 13.1099C84.21 13.9099 84.92 14.5699 85.74 14.5399C86.56 14.5199 87.26 13.8099 87.24 13.0299V13.0399ZM128.73 36.3199C127.9 36.3199 127.21 36.9599 127.18 37.7699C127.15 38.5999 127.87 39.3199 128.72 39.3099C129.54 39.3099 130.24 38.6099 130.24 37.8199C130.24 37.0199 129.55 36.3299 128.73 36.3199ZM33.3 58.6899C32.48 58.6899 31.77 59.3499 31.76 60.1399C31.74 60.9799 32.44 61.6799 33.3 61.6699C34.12 61.6699 34.8 60.9799 34.8 60.1799C34.8 59.3699 34.12 58.6999 33.3 58.6899ZM68.87 11.5499C68.06 11.5499 67.37 12.2299 67.35 13.0399C67.33 13.8299 68.03 14.5299 68.85 14.5399C69.68 14.5499 70.38 13.8999 70.4 13.0999C70.42 12.2599 69.73 11.5499 68.87 11.5499ZM25.85 39.2999C26.66 39.3199 27.38 38.6499 27.41 37.8499C27.44 37.0599 26.76 36.3499 25.94 36.3099C25.1 36.2699 24.35 36.9699 24.35 37.7999C24.35 38.5999 25.04 39.2899 25.86 39.2999H25.85Z" fill="black"/>
<path d="M77.7 68.02C74.36 68.02 71.03 68.02 67.69 68.02C65.49 68.02 64.21 66.73 64.21 64.55C64.21 59.18 64.21 53.81 64.21 48.44C64.21 46.39 65.51 45.09 67.56 45.07C68.22 45.07 68.89 45.04 69.55 45.07C70.08 45.1 70.22 44.89 70.21 44.39C70.18 43.39 70.2 42.38 70.21 41.37C70.25 37.51 73.36 34.35 77.33 34.14C81.24 33.94 84.72 36.84 85.13 40.65C85.27 41.9 85.21 43.15 85.19 44.4C85.19 44.92 85.35 45.1 85.86 45.07C86.54 45.03 87.23 45.05 87.92 45.07C89.84 45.11 91.14 46.41 91.14 48.34C91.14 53.81 91.14 59.27 91.14 64.74C91.14 66.7 89.82 68 87.85 68.01C84.47 68.02 81.08 68.01 77.7 68.01V68.02ZM77.7 65.34C80.91 65.34 84.12 65.34 87.33 65.34C88.32 65.34 88.39 65.28 88.39 64.31C88.39 59.14 88.39 53.97 88.39 48.8C88.39 47.81 88.35 47.78 87.34 47.78C80.89 47.78 74.44 47.78 68 47.78C67.05 47.78 66.98 47.84 66.98 48.76C66.98 53.96 66.98 59.15 66.98 64.35C66.98 65.29 67.04 65.35 67.99 65.35C71.23 65.35 74.46 65.35 77.7 65.35V65.34ZM77.7 45.08C79.07 45.08 80.45 45.08 81.82 45.08C82.12 45.08 82.44 45.12 82.42 44.66C82.39 43.36 82.54 42.06 82.34 40.77C81.97 38.37 79.77 36.7 77.3 36.89C74.87 37.08 73 39.03 72.96 41.44C72.94 42.44 72.98 43.45 72.95 44.45C72.93 44.93 73.1 45.09 73.58 45.08C74.95 45.05 76.33 45.08 77.7 45.08Z" fill="black"/>
<path d="M77.68 58.7699C77.14 58.7699 76.6 58.8099 76.07 58.7699C75.28 58.6999 74.77 58.1399 74.77 57.4399C74.77 56.6999 75.34 56.1199 76.14 56.0999C77.17 56.0699 78.2 56.0699 79.22 56.0999C80 56.1199 80.55 56.6699 80.59 57.3699C80.63 58.1099 80.11 58.6999 79.29 58.7699C78.76 58.8199 78.21 58.7699 77.68 58.7699Z" fill="black"/>
</g>
<defs>
<clipPath id="clip0_411_513">
<rect width="158.16" height="124.07" fill="white"/>
</clipPath>
</defs>
</svg>
