<svg width="148" height="114" viewBox="0 0 148 114" fill="none" xmlns="http://www.w3.org/2000/svg">
<g clip-path="url(#clip0_404_1547)">
<path d="M100.61 5.94005C99.49 4.92005 98.57 3.61005 97.15 3.02005C94.58 1.94005 91.72 3.61005 88.96 4.20005C86.45 4.74005 83.83 4.36005 81.29 4.76005C76.59 5.50005 72.31 8.85005 67.6 8.28005C64.11 7.86005 60.44 5.35005 57.43 7.15005C56.59 7.65005 55.97 8.43005 55.4 9.20005C50.82 15.2801 47.12 22.1301 41.12 26.9401C37.35 29.9601 32.62 32.2601 30.44 36.4701C28.55 40.1201 29.03 44.4901 30.4 48.3101C32.31 53.6301 35.87 58.3801 40.52 61.8C42.79 63.47 45.3 64.8301 47.41 66.6701C49.32 68.3301 50.85 70.3501 52.37 72.34C56.7 78.04 61.03 83.7401 65.35 89.4401C68.28 93.2901 71.52 97.3701 76.28 98.7901C77.84 99.2601 79.5 99.4001 81.09 99.7801C85.57 100.82 89.44 103.59 93.93 104.57C97.88 105.43 102.01 104.84 106.03 104.25C109.84 103.69 113.87 103.03 116.81 100.62C119.51 98.4001 120.83 95.0201 121.64 91.7201C122.48 88.3101 122.89 84.8101 122.86 81.3101C122.84 79.2901 122.7 77.1701 123.63 75.3501C124.15 74.3301 124.98 73.4801 125.65 72.5401C127.93 69.2701 128.08 65.12 128.14 61.21C128.19 58.0201 128.24 54.79 127.41 51.71C126.98 50.13 126.32 48.59 126.14 46.9701C125.94 45.1701 126.32 43.3601 126.66 41.57C128 34.42 131.26 21.6 125.1 15.7901C118.32 9.39005 107.12 11.88 100.59 5.97005L100.61 5.94005Z" fill="#F3941B"/>
<path d="M27.6 45.81C49.55 28.95 72.69 13.62 96.79 0C93.76 3.74 90.73 7.49 87.7 11.23C89.44 10.45 91.2 9.7 92.97 8.98C93.27 8.86 93.66 8.75 93.88 8.98C94.1 9.21 93.63 9.67 93.51 9.37C96.34 7.35 99.32 5.52 102.41 3.92C102.18 7.44 101.17 10.91 99.46 14C107.33 11.29 115.21 8.58 123.08 5.88C122.51 8.33 121.19 10.6 119.34 12.3C121.08 11.73 122.81 11.16 124.55 10.6C124.24 11.61 123.31 12.4 122.27 12.54C127.92 12.53 133.39 14.42 138.72 16.29C142.55 17.63 147.04 19.77 147.41 23.82C141.5 24.96 137.41 30.15 132.82 34.06C121.96 43.31 106.58 46.13 96.27 55.98C105.9 51.57 115.93 48.03 126.19 45.4C124.38 50.52 121.3 55.19 117.3 58.87C119.97 57.92 122.63 56.96 125.3 56.01L123.27 57.83C124.99 56.89 126.72 55.94 128.44 55C115.61 69.73 103.02 84.66 90.65 99.78C85.74 105.79 80.18 112.23 72.54 113.54C72.9 111.99 73.26 110.45 73.62 108.9L63.53 110.13L65.88 105.91C61.99 106.85 58.09 107.78 54.2 108.72C58 101.82 62.49 95.3 67.57 89.28C54.13 97.38 38.43 100.7 23.06 103.9C24.47 102.88 25.88 101.87 27.28 100.85H18.47C22.93 95.78 27.83 91.1 33.1 86.88C31.69 86.39 30.13 86.36 28.71 86.81C29.21 86.22 29.71 85.62 30.21 85.03C23.16 85.93 16.12 86.96 9.09999 88.13C13.34 83.72 18.14 79.84 23.34 76.62C21.39 78.06 19.17 79.13 16.83 79.76C18.89 75.55 21.9 71.8 25.57 68.88C17.33 72.03 8.72999 74.21 -0.0100098 75.38C6.11999 70.53 11.96 65.33 17.48 59.8C14.99 60.9 12.5 61.99 10.02 63.09C13.5 60.62 16.98 58.16 20.46 55.69C18.58 57.37 16.28 58.58 13.84 59.19C19.98 52.86 26.11 46.54 32.25 40.21" fill="#9DD8F2"/>
<path d="M122.32 65.1C126.67 58.78 131.56 52.05 138.9 49.77C137.95 55.87 131.56 59.87 130.08 65.87C130.69 65.58 131.42 65.55 132.06 65.79C132.56 69.04 128.77 71.13 127.1 73.96C126.25 75.4 125.95 77.08 125.38 78.65C124.22 81.84 121.96 84.49 119.75 87.07C117.64 89.53 112.98 97.34 109.13 96.98C105.73 96.66 105.71 90 106.71 87.42C107.98 84.14 111.09 81.36 113.09 78.51C116.21 74.07 119.25 69.57 122.33 65.09L122.32 65.1Z" fill="#9DD8F2"/>
<path d="M93.89 107.74C94.13 108.75 94.77 109.65 95.64 110.22C95.79 110.32 95.95 110.41 96.12 110.46C96.79 110.67 97.53 110.3 98 109.77C98.47 109.24 98.74 108.57 99.09 107.96C99.14 107.88 99.18 107.8 99.23 107.72C99.98 106.5 101 105.48 101.81 104.3C103.54 101.78 105.51 95.2701 100.38 97.5501C97.12 99.0001 92.99 103.96 93.89 107.74Z" fill="#9DD8F2"/>
<path d="M107.9 102.09C106.73 103.1 106.13 104.73 106.37 106.25C108.72 105.03 110.54 102.84 111.31 100.31C111.38 100.08 111.43 99.82 111.31 99.62C111.03 99.22 110.42 99.56 110.09 99.92C108.52 101.63 107.18 103.57 106.14 105.65" fill="#9DD8F2"/>
<g opacity="0.5">
<path d="M120.55 24.79C120.24 24.48 119.68 24.11 118.74 24.11C97.48 24.13 76.22 24.13 54.96 24.13H43.26C43.02 24.13 42.78 24.13 42.54 24.13C41.58 24.16 40.87 24.67 40.6 25.54L40.52 25.99V26.28C40.54 26.39 40.55 26.51 40.55 26.62V88.78C40.55 90.37 41.29 91.12 42.88 91.12H118.84C120.39 91.12 121.21 90.3 121.21 88.74V76.98C121.21 60.18 121.21 43.38 121.23 26.58C121.23 25.66 120.87 25.1 120.56 24.79H120.55ZM44.71 36.28C44.71 33.61 44.71 30.94 44.71 28.29H117.01V36.28H44.71ZM116.99 40.47V86.95H44.71C44.71 71.45 44.71 55.96 44.71 40.47H117H116.99Z" fill="#0E4A7A"/>
<path d="M60.4 66.32L70.24 76.17C70.71 76.64 71.28 76.87 71.84 76.87C72.36 76.87 72.87 76.67 73.29 76.28C73.69 75.9 73.91 75.39 73.92 74.83C73.92 74.23 73.68 73.63 73.25 73.18C72.69 72.61 72.13 72.05 71.56 71.49L63.78 63.72L73.19 54.31C74.09 53.41 74.17 52.11 73.38 51.29C72.98 50.87 72.43 50.64 71.84 50.63H71.82C71.22 50.63 70.63 50.88 70.2 51.31L59.41 62.1C58.91 62.6 58.65 63.15 58.66 63.73C58.66 64.31 58.93 64.86 59.44 65.36C59.77 65.68 60.09 66 60.4 66.32Z" fill="#0E4A7A"/>
<path d="M76.44 80.85C76.54 80.87 76.64 80.88 76.74 80.88C77.67 80.88 78.62 80.17 78.87 79.24C79.27 77.76 79.67 76.27 80.06 74.79L80.82 71.92C81.14 70.71 81.46 69.5 81.78 68.3C82.37 66.09 82.97 63.87 83.57 61.66L84.45 58.44C84.83 57.04 85.22 55.63 85.6 54.23C85.82 53.4 86.04 52.56 86.26 51.72C86.46 50.95 86.66 50.18 86.87 49.42C87.19 48.22 86.63 47.14 85.5 46.78C84.76 46.55 84.21 46.7 83.88 46.87C83.55 47.05 83.1 47.42 82.86 48.19C82.67 48.81 82.5 49.44 82.34 50.06L75.37 76.01C75.22 76.58 75.07 77.16 74.94 77.67L74.74 78.45V78.58C74.75 79.71 75.48 80.68 76.45 80.85H76.44Z" fill="#0E4A7A"/>
<path d="M88.4 76.2799C88.79 76.6899 89.31 76.8899 89.83 76.8899C90.35 76.8899 90.91 76.6799 91.34 76.2599C92.18 75.4599 93.01 74.6399 93.83 73.8099C94.28 73.3599 94.73 72.8999 95.17 72.4399C95.68 71.9099 96.19 71.3899 96.71 70.8699C97.59 69.9899 98.48 69.1099 99.37 68.2399L100.87 66.7599C101.04 66.5899 101.21 66.4199 101.38 66.2399C101.66 65.9599 101.93 65.6699 102.22 65.4099C102.69 64.9899 102.96 64.3899 102.97 63.7799C102.98 63.1899 102.76 62.6399 102.35 62.2199C98.71 58.5699 95.06 54.9199 91.4 51.2899C91.13 51.0299 90.83 50.8899 90.59 50.7799C90.52 50.7499 90.46 50.7199 90.39 50.6899L90.14 50.5499L89.85 50.5699C88.71 50.6399 88.18 51.2799 87.95 51.8099C87.57 52.6599 87.73 53.5099 88.42 54.1899C90.82 56.5899 93.22 58.9899 95.62 61.3899L97.95 63.7299L88.43 73.2599C87.51 74.1799 87.49 75.3699 88.39 76.2999L88.4 76.2799Z" fill="#0E4A7A"/>
<path d="M61.43 30.43C60.98 29.86 60.33 29.55 59.61 29.54C57.76 29.51 56.5 30.59 56.49 32.2C56.48 33.71 57.6 35.03 58.99 35.13C59.06 35.13 59.13 35.13 59.2 35.13C60.06 35.13 60.91 34.75 61.48 34.11C61.95 33.57 62.15 32.9 62.06 32.25C62.05 31.55 61.83 30.91 61.44 30.42L61.43 30.43Z" fill="#0E4A7A"/>
<path d="M52.11 29.55C51.35 29.57 50.63 29.88 50.11 30.41C49.61 30.92 49.34 31.59 49.36 32.29C49.38 33.08 49.74 33.89 50.33 34.43C50.83 34.89 51.46 35.14 52.12 35.14C52.17 35.14 52.22 35.14 52.27 35.14C53.84 35.05 54.99 33.85 55.02 32.28C55.03 31.52 54.69 30.75 54.1 30.22C53.55 29.72 52.83 29.48 52.11 29.55Z" fill="#0E4A7A"/>
<path d="M66.61 29.5499H66.55C64.81 29.5499 63.67 30.5499 63.62 32.1299C63.54 32.8799 63.83 33.6799 64.39 34.2699C64.92 34.8299 65.62 35.1499 66.33 35.1499C66.38 35.1499 66.44 35.1499 66.49 35.1499C68 35.0499 69.17 33.9099 69.19 32.4999C69.21 31.6399 68.92 30.8699 68.39 30.3199C67.92 29.8399 67.29 29.5699 66.61 29.5599V29.5499Z" fill="#0E4A7A"/>
</g>
<path d="M122.84 22.72C122.53 22.41 121.97 22.04 121.03 22.04C99.77 22.06 78.51 22.06 57.25 22.06H45.55C45.31 22.06 45.07 22.06 44.83 22.06C43.87 22.09 43.16 22.6 42.89 23.47L42.81 23.92V24.21C42.83 24.32 42.84 24.44 42.84 24.55V86.71C42.84 88.3 43.58 89.05 45.17 89.05H121.13C122.68 89.05 123.5 88.23 123.5 86.67V74.91C123.5 58.11 123.5 41.31 123.52 24.51C123.52 23.59 123.16 23.03 122.85 22.72H122.84ZM47 34.21C47 31.54 47 28.87 47 26.22H119.3V34.21H47ZM119.28 38.4V84.88H47C47 69.38 47 53.89 47 38.4H119.29H119.28Z" fill="black"/>
<path d="M62.69 64.2601L72.53 74.1101C73 74.5801 73.57 74.8101 74.13 74.8101C74.65 74.8101 75.16 74.6101 75.58 74.2201C75.98 73.8401 76.2 73.3301 76.21 72.7701C76.21 72.1701 75.97 71.5701 75.54 71.1201C74.98 70.5501 74.42 69.9901 73.85 69.4301L66.07 61.6601L75.48 52.2501C76.38 51.3501 76.46 50.0501 75.67 49.2301C75.27 48.8101 74.72 48.5801 74.13 48.5701H74.11C73.51 48.5701 72.92 48.8201 72.49 49.2501L61.7 60.0401C61.2 60.5401 60.94 61.0901 60.95 61.6701C60.95 62.2501 61.22 62.8001 61.73 63.3001C62.06 63.6201 62.38 63.9401 62.69 64.2601Z" fill="black"/>
<path d="M78.73 78.78C78.83 78.8 78.93 78.81 79.03 78.81C79.96 78.81 80.91 78.1 81.16 77.17C81.56 75.69 81.96 74.2 82.35 72.72L83.11 69.85C83.43 68.64 83.75 67.43 84.07 66.23C84.66 64.02 85.26 61.8 85.86 59.59L86.74 56.37C87.12 54.97 87.51 53.56 87.89 52.16C88.11 51.33 88.33 50.49 88.55 49.65C88.75 48.88 88.95 48.11 89.16 47.35C89.48 46.15 88.92 45.07 87.79 44.71C87.05 44.48 86.5 44.63 86.17 44.8C85.84 44.98 85.39 45.35 85.15 46.12C84.96 46.74 84.79 47.37 84.63 47.99L77.66 73.94C77.51 74.51 77.36 75.09 77.23 75.6L77.03 76.38V76.51C77.04 77.64 77.77 78.61 78.74 78.78H78.73Z" fill="black"/>
<path d="M90.69 74.22C91.08 74.63 91.6 74.83 92.12 74.83C92.64 74.83 93.2 74.62 93.63 74.2C94.47 73.4 95.3 72.58 96.12 71.75C96.57 71.3 97.02 70.84 97.46 70.38C97.97 69.85 98.48 69.33 99 68.81C99.88 67.93 100.77 67.05 101.66 66.18L103.16 64.7C103.33 64.53 103.5 64.36 103.67 64.18C103.95 63.9 104.22 63.61 104.51 63.35C104.98 62.93 105.25 62.33 105.26 61.72C105.27 61.13 105.05 60.58 104.64 60.16C101 56.51 97.35 52.86 93.69 49.23C93.42 48.97 93.12 48.83 92.88 48.72C92.81 48.69 92.75 48.66 92.68 48.63L92.43 48.49L92.14 48.51C91 48.58 90.47 49.22 90.24 49.75C89.86 50.6 90.02 51.45 90.71 52.13C93.11 54.53 95.51 56.93 97.91 59.33L100.24 61.67L90.72 71.2C89.8 72.12 89.78 73.31 90.68 74.24L90.69 74.22Z" fill="black"/>
<path d="M63.72 28.37C63.27 27.8 62.62 27.49 61.9 27.48C60.05 27.45 58.79 28.53 58.78 30.14C58.77 31.65 59.89 32.97 61.28 33.07C61.35 33.07 61.42 33.07 61.49 33.07C62.35 33.07 63.2 32.69 63.77 32.05C64.24 31.51 64.44 30.84 64.35 30.19C64.34 29.49 64.12 28.85 63.73 28.36L63.72 28.37Z" fill="black"/>
<path d="M54.4 27.4901C53.64 27.5101 52.92 27.8201 52.4 28.3501C51.9 28.8601 51.63 29.5301 51.65 30.2301C51.67 31.0201 52.03 31.8301 52.62 32.3701C53.12 32.8301 53.75 33.0801 54.41 33.0801C54.46 33.0801 54.51 33.0801 54.56 33.0801C56.13 32.9901 57.28 31.7901 57.31 30.2201C57.32 29.4601 56.98 28.6901 56.39 28.1601C55.84 27.6601 55.12 27.4201 54.4 27.4901Z" fill="black"/>
<path d="M68.9 27.49H68.84C67.1 27.49 65.96 28.49 65.91 30.07C65.83 30.82 66.12 31.62 66.68 32.21C67.21 32.77 67.91 33.09 68.62 33.09C68.67 33.09 68.73 33.09 68.78 33.09C70.29 32.99 71.46 31.85 71.48 30.44C71.5 29.58 71.21 28.81 70.68 28.26C70.21 27.78 69.58 27.51 68.9 27.5V27.49Z" fill="black"/>
</g>
<defs>
<clipPath id="clip0_404_1547">
<rect width="147.41" height="113.53" fill="white"/>
</clipPath>
</defs>
</svg>
