<svg width="294" height="199" viewBox="0 0 294 199" fill="none" xmlns="http://www.w3.org/2000/svg">
<g clip-path="url(#clip0_439_167)">
<path d="M62.2946 51.6838C54.4698 55.7565 46.4323 60.1483 41.236 67.2755C34.7027 76.2112 33.7151 87.9278 33.1833 98.9909C32.6667 109.735 32.4236 120.889 36.6627 130.767C41.5855 142.241 51.8413 150.401 61.93 157.756C76.6983 168.531 91.9377 178.667 107.618 188.058C114.44 192.146 121.474 196.143 129.208 197.936C145.967 201.811 163.576 194.699 177.145 184.122C201.698 164.975 215.858 135.752 228.621 107.349C234.106 95.131 239.5 82.8369 243.481 70.0565C245.182 64.6009 246.626 58.8414 245.517 53.2338C244.514 48.1581 241.49 43.7207 238.148 39.7696C221.404 19.9836 196.03 9.89301 170.87 6.45857C159.732 4.93891 146.088 2.705 136.744 10.3337C127.4 17.9624 120.973 23.4028 109.365 28.7064C93.4723 35.9552 77.7771 43.6144 62.2946 51.6686V51.6838Z" fill="#EB611C"/>
<path d="M240.807 0C227.208 17.5977 210.221 32.5664 191.032 43.8423C205.116 36.9886 221.495 34.9523 236.826 38.1588C229.654 42.2011 222.012 45.4076 214.096 47.6871C218.061 48.8116 222.437 48.4621 226.175 46.7449C221.875 48.3405 217.773 50.4528 213.974 53.0211L238.573 47.8998C235.352 51.471 231.599 54.5559 227.466 57.0178C226.418 57.5345 226.661 55.0574 227.816 55.3006C228.971 55.5437 229.411 56.881 229.973 57.9144C230.536 58.9478 232.085 59.7988 232.754 58.8262C230.232 62.443 227.725 66.0598 225.202 69.6766C234.562 71.0595 244.028 71.6066 253.478 71.333C248.206 78.1411 241.217 83.5967 233.346 87.0464C241.46 87.2743 249.558 87.5175 257.672 87.7454C251.655 92.3652 244.407 95.3285 236.887 96.2707C236.765 95.4957 238.269 95.6325 238.345 96.4075C238.421 97.1825 237.707 97.7904 237.054 98.2311C233.681 100.556 230.292 102.881 226.919 105.222C244.256 106.118 261.394 101.833 278.229 97.5776C257.9 100.359 238.148 107.243 220.508 117.728C230.536 118.443 240.639 118.23 250.637 117.09C247.127 120.236 243.01 122.682 238.588 124.278L245.456 124.582L239.591 129.019L252.43 128.898C250.333 129.597 248.373 130.691 246.702 132.135L258.674 132.089C221.191 146.04 183.708 159.99 146.24 173.941C117.539 184.624 87.4859 195.474 57.0831 191.812C63.0087 187.557 69.4053 183.925 76.1057 181.022C69.0862 181.843 61.9907 181.949 54.956 181.311L59.6812 177.679L47.4958 179.29C63.4645 165.917 82.3048 155.978 102.376 150.371C76.5312 154.124 50.6865 157.878 24.857 161.631C43.12 157.969 61.0791 152.817 78.5063 146.237C64.1482 147.985 49.8508 150.325 35.675 153.243L55.0167 146.07L36.3132 148.061C47.1767 142.681 58.3898 138.016 69.8763 134.126C60.6384 137.697 51.0815 140.402 41.3423 142.225C51.5829 133.746 62.4769 126.071 73.9178 119.294C53.6037 122.242 33.4719 126.39 13.644 131.724C36.4803 123.701 59.5749 116.437 82.8822 109.917C75.2853 110.859 67.7795 112.622 60.5473 115.145C64.4977 113.975 68.2809 112.242 71.7451 110.024C67.0198 111.27 62.1122 111.847 57.2198 111.726L65.2725 105.845L57.0375 107.227C64.5888 102.152 72.8087 98.0487 81.4084 95.0702C73.5684 97.6992 65.5308 99.7811 57.4022 101.286C60.5017 97.9424 64.1178 95.0854 68.0834 92.8515L46.0372 94.1736C55.1535 89.721 64.2546 85.2683 73.3708 80.8157C51.8716 80.8613 30.3724 80.8917 8.87317 80.9373C12.6412 80.9373 25.3281 67.9594 29.3392 65.5583C37.1032 60.8929 45.3535 57.7168 53.6037 54.2216C52.1299 53.9785 50.6257 52.9603 49.1975 52.6412C71.9426 37.1102 103.303 35.6361 129.36 29.679C166.843 21.1233 204.038 11.2303 240.822 0.0303933L240.807 0Z" fill="#9DD8F2"/>
<path d="M35.9029 107.303C23.444 109.857 11.3346 114.036 0 119.704C16.1814 111.27 34.7178 107.227 53.0112 108.124C42.6642 108.124 32.3172 108.124 21.9702 108.124C17.8223 108.124 13.4617 108.17 9.8 110.1C6.13829 112.03 3.52496 116.528 5.16589 120.266C21.7879 119.825 39.2912 119.126 53.467 110.586C52.1907 109.173 50.4586 108.185 48.5746 107.805C46.3563 107.364 44.0772 107.759 41.8589 108.2C32.3932 110.069 23.0946 112.729 14.0847 116.118" fill="#9DD8F2"/>
<path d="M21.8031 149.17C14.3733 150.295 7.04992 152.179 0 154.793C11.5321 154.55 23.0186 151.921 33.5023 147.103C24.0214 145.219 14.1302 145.493 4.75566 147.863C5.36341 149.581 6.45736 151.131 7.85519 152.301" fill="#9DD8F2"/>
<path d="M57.4174 165.279L49.3191 168.257C56.0347 170.552 64.1938 167.285 67.4605 160.978C60.0003 158.79 51.6741 159.823 44.9736 163.759" fill="#9DD8F2"/>
<path d="M215.889 66.6069C224.944 64.1906 233.757 60.9233 242.174 56.8354C243.329 60.2851 240.184 63.5523 237.282 65.7407C227.557 73.0806 216.922 79.1897 205.694 83.9007C210.267 78.1107 216.177 73.3998 222.847 70.2541" fill="#9DD8F2"/>
<path d="M270.1 84.8276C277.697 80.5878 285.719 77.1077 294 74.4787C284.048 92.1068 264.706 102.076 245.912 109.568C251.366 98.9909 263.111 93.5353 274.035 88.8244C276.679 87.6846 267.441 85.9674 270.1 84.8276Z" fill="#9DD8F2"/>
<path d="M156.846 176.539L181.353 171.616C181.718 175.217 177.16 177.01 173.604 177.603C167.572 178.621 161.525 179.624 155.493 180.642C159.231 176.19 163.941 172.573 169.213 170.111" fill="#F3941B"/>
<path d="M143.262 17.233L156.253 12.674C156.451 16.0021 154.035 17.6585 152.151 18.2056C148.945 19.1478 145.754 20.0748 142.548 21.017C144.523 16.8987 147.03 13.5554 149.811 11.2911" fill="#F3941B"/>
<path d="M187.871 167.862C189.603 166.236 191.822 165.157 194.162 164.777C195.362 166.403 194.45 168.744 193.174 170.309C192.566 171.053 191.685 171.813 190.743 171.6C189.269 171.266 189.269 169.184 189.71 167.741C191.305 162.574 194.329 157.848 198.355 154.246" fill="#F3941B"/>
<path d="M43.4998 86.5145C38.1364 85.3899 32.2108 87.6542 28.9594 92.046C37.6198 90.4808 46.1131 87.943 54.1963 84.4933C47.3742 82.1378 39.6406 82.5937 33.1528 85.7394" fill="#F3941B"/>
<path d="M122.128 79.6608C122.128 79.9039 122.158 80.1623 122.158 80.4054C122.158 97.0913 122.158 113.777 122.158 130.463C122.158 130.752 122.128 131.041 122.113 131.329C122.082 131.375 122.052 131.421 122.021 131.466C122.052 133.062 120.608 135.098 118.983 135.706C118.451 135.904 117.904 136.025 117.372 136.192C117.327 136.192 117.296 136.192 117.251 136.192C116.962 136.207 116.673 136.238 116.384 136.238C99.9752 136.238 83.5507 136.238 67.1414 136.253C64.604 136.253 62.9327 135.037 61.8084 132.895C61.5653 132.439 61.4437 131.876 61.4437 131.36C61.4133 124.476 61.4133 117.607 61.4133 110.723C61.4133 93.5657 61.4133 76.3935 61.4133 59.2365C61.4133 56.8202 62.5681 55.1486 64.68 54.1456C65.3789 53.8113 66.2298 53.6745 67.0198 53.6745C77.6555 53.6441 88.3064 53.6593 98.942 53.6441C99.3826 53.6441 99.6713 53.7809 99.9448 54.1C105.354 60.3307 110.778 66.5461 116.202 72.7767C118.147 75.0106 120.092 77.2597 122.021 79.4936C122.052 79.5392 122.082 79.5848 122.113 79.6304L122.128 79.6608ZM99.9904 62.4582C99.9904 62.5798 99.9448 62.7013 99.9448 62.8229C99.9448 67.5795 99.9448 72.336 99.9448 77.0926C99.9448 77.2293 99.9752 77.3813 99.9904 77.5181C100.097 78.0803 100.522 78.0347 100.932 78.0499C100.978 78.0499 101.024 78.0499 101.069 78.0499C105.46 78.0499 109.836 78.0499 114.227 78.0499C114.273 78.0499 114.318 78.0499 114.379 78.0499C114.531 78.0347 114.668 78.0044 114.865 77.974C114.774 77.8524 114.728 77.7916 114.668 77.7308C111.143 73.6885 107.633 69.6462 104.108 65.6191C102.771 64.0842 101.403 62.5646 100.066 61.0449C100.051 61.0449 100.036 61.0145 100.021 61.0145H99.9904C99.9904 61.4096 99.9904 61.8199 99.9904 62.215C99.9904 62.291 99.9904 62.367 99.9904 62.443V62.4582ZM117.63 105.389C117.418 105.389 117.22 105.358 117.007 105.358C100.249 105.358 83.5051 105.358 66.7464 105.358C66.4729 105.358 66.1994 105.373 65.9411 105.389C65.9107 105.419 65.8651 105.449 65.8347 105.495C65.8347 105.541 65.8043 105.571 65.8043 105.617C65.8043 113.944 65.8043 122.287 65.8043 130.615C65.8043 131.117 65.9715 131.436 66.5184 131.481L66.8223 131.816C66.9895 131.816 67.1566 131.846 67.3237 131.846C83.6419 131.846 99.9448 131.846 116.263 131.846C116.476 131.846 116.673 131.816 116.886 131.8C116.931 131.77 116.992 131.755 117.038 131.724C117.524 131.405 117.782 131.01 117.782 130.387C117.767 122.257 117.782 114.127 117.782 105.997C117.782 105.829 117.767 105.662 117.752 105.495C117.722 105.465 117.676 105.419 117.646 105.389H117.63ZM65.8347 100.845C65.8347 100.845 65.9107 100.906 65.9411 100.936C66.1234 100.936 66.3209 100.951 66.5033 100.951C83.2468 100.951 99.9904 100.951 116.749 100.951C117.038 100.951 117.327 100.951 117.63 100.936C117.661 100.906 117.706 100.875 117.737 100.845C117.737 100.617 117.767 100.389 117.767 100.161C117.767 95.5717 117.767 90.9671 117.767 86.3777C117.767 85.1012 117.752 83.8247 117.737 82.5633C117.691 82.5329 117.646 82.5177 117.615 82.4874C117.539 82.4874 117.478 82.4874 117.402 82.4874C117.266 82.4874 117.129 82.4874 116.992 82.4874C111.644 82.4874 106.311 82.4874 100.963 82.4874C100.704 82.4874 100.446 82.4722 100.173 82.457C98.1216 82.5329 95.7969 80.3294 95.6602 78.3083C95.6298 78.0955 95.6146 77.8828 95.5842 77.6548C95.5842 71.637 95.5842 65.6343 95.5842 59.6164C95.5842 59.2365 95.5842 58.8566 95.5842 58.4615C95.5842 58.3855 95.5538 58.2943 95.5386 58.2183L95.4171 58.112C95.2955 58.112 95.174 58.0816 95.0372 58.0816C85.7994 58.0816 76.5616 58.0816 67.3237 58.0816C66.1386 58.0816 65.8043 58.4311 65.8043 59.6164C65.8043 73.1414 65.8043 86.6512 65.8043 100.176C65.8043 100.404 65.8195 100.632 65.8347 100.86V100.845Z" fill="#020202"/>
<path d="M122.128 79.6608C122.128 79.6608 122.067 79.5696 122.037 79.524C122.067 79.5696 122.097 79.6152 122.128 79.6608Z" fill="#020202"/>
<path d="M122.037 131.481C122.037 131.481 122.097 131.39 122.128 131.345C122.097 131.39 122.067 131.436 122.037 131.481Z" fill="#020202"/>
<path d="M100.082 61.0601C100.051 61.4552 100.021 61.8503 100.006 62.2302C100.006 61.8351 100.006 61.4248 100.006 61.0297H100.036C100.051 61.0297 100.066 61.0449 100.082 61.0601Z" fill="#020202"/>
<path d="M66.5184 131.497C66.6248 131.603 66.7311 131.724 66.8223 131.831L66.5184 131.497Z" fill="#020202"/>
<path d="M100.978 82.4722C100.72 82.4722 100.461 82.457 100.188 82.4418C100.446 82.4418 100.704 82.457 100.978 82.4722Z" fill="#020202"/>
<path d="M95.6753 78.2931C95.645 78.0803 95.6298 77.8676 95.5994 77.6396C95.6298 77.8524 95.645 78.0651 95.6753 78.2931Z" fill="#020202"/>
<path d="M117.752 105.51C117.752 105.51 117.676 105.434 117.646 105.404C117.676 105.434 117.722 105.48 117.752 105.51Z" fill="#020202"/>
<path d="M65.9563 105.404C65.9563 105.404 65.8804 105.465 65.85 105.51C65.8804 105.48 65.9259 105.449 65.9563 105.404Z" fill="#020202"/>
<path d="M117.63 100.951C117.63 100.951 117.706 100.891 117.737 100.86C117.706 100.891 117.661 100.921 117.63 100.951Z" fill="#020202"/>
<path d="M65.85 100.86C65.85 100.86 65.9259 100.921 65.9563 100.951C65.9259 100.921 65.8804 100.891 65.85 100.86Z" fill="#020202"/>
<path d="M117.752 82.5633C117.752 82.5633 117.661 82.5177 117.63 82.4874C117.676 82.5177 117.722 82.5329 117.752 82.5633Z" fill="#020202"/>
<path d="M95.5538 58.2183C95.5538 58.2183 95.4778 58.1423 95.4323 58.112C95.4778 58.1423 95.5082 58.1879 95.5538 58.2183Z" fill="#020202"/>
<path d="M116.886 131.816C116.886 131.816 116.992 131.77 117.038 131.74C116.992 131.77 116.931 131.785 116.886 131.816Z" fill="#020202"/>
<path d="M84.5991 110.632C84.6599 110.525 84.7055 110.419 84.7663 110.312C84.8118 110.312 84.8726 110.312 84.9182 110.297C86.7263 110.206 88.5191 110.024 90.312 110.069C92.1504 110.115 93.9889 110.419 95.5842 111.513C97.2252 112.637 98.0608 114.218 98.3343 116.148C98.5318 117.561 98.4711 118.929 98.1064 120.312C97.3923 123.062 95.6298 124.749 92.9253 125.448C91.7706 125.737 90.5703 125.859 89.3852 125.95C88.1849 126.026 86.9694 125.98 85.7538 125.965C85.4804 125.965 85.1917 125.874 84.9182 125.828C84.827 125.798 84.7359 125.767 84.6447 125.737C84.6447 125.691 84.6143 125.661 84.5991 125.615C84.6143 125.448 84.6599 125.281 84.6599 125.129C84.6599 120.449 84.6599 115.768 84.6599 111.072C84.6599 110.935 84.6295 110.783 84.6143 110.647L84.5991 110.632ZM88.1849 123.123C90.5855 123.427 92.8797 122.834 93.8218 121.163C95.0069 119.066 95.1436 116.817 93.9129 114.735C92.6214 112.577 90.3728 112.744 88.1849 112.805V123.123Z" fill="#020202"/>
<path d="M74.48 125.813C73.3556 125.813 72.2313 125.813 71.1069 125.813C71.1069 121.664 71.1069 117.516 71.1069 113.367C71.1069 112.349 71.1221 111.331 71.1373 110.297C72.8086 110.206 74.48 110.054 76.1513 110.039C77.4731 110.039 78.795 110.236 80.0105 110.814C81.2868 111.422 82.0009 112.531 82.2136 113.853C82.4567 115.403 82.3503 116.969 81.2564 118.245C80.3752 119.278 79.19 119.81 77.8682 120.053C77.5947 120.099 77.306 120.145 77.0325 120.19C76.8198 120.205 76.5919 120.236 76.3792 120.251C75.969 120.251 75.5587 120.251 75.1333 120.251C74.9662 120.251 74.7838 120.266 74.6167 120.281C74.6167 122.09 74.6015 123.883 74.5863 125.691C74.5559 125.737 74.5255 125.767 74.4951 125.813H74.48ZM74.6167 117.561C75.1789 117.561 75.6499 117.576 76.1361 117.561C77.5339 117.5 78.4303 116.801 78.7038 115.51C78.8862 114.689 78.6583 113.337 77.4731 113.063C76.5463 112.85 75.5891 112.82 74.6167 112.698V117.561Z" fill="#020202"/>
<path d="M100.963 110.145C103.622 110.145 106.265 110.13 108.924 110.115C109.274 110.115 109.639 110.115 109.988 110.115C110.079 110.115 110.17 110.115 110.261 110.115C110.322 111.072 110.368 112.03 110.429 113.033H104.397V115.662C104.397 115.662 104.397 115.753 104.397 115.814C104.457 116.087 104.518 116.361 104.579 116.619C104.64 116.619 104.701 116.619 104.746 116.619C104.807 116.619 104.883 116.619 104.944 116.619C105.172 116.634 105.399 116.665 105.627 116.665C107.086 116.665 108.529 116.665 109.988 116.68C109.988 117.592 109.988 118.503 109.988 119.415C109.912 119.446 109.821 119.476 109.745 119.506C109.669 119.506 109.593 119.506 109.517 119.506C108.636 119.476 107.754 119.43 106.873 119.43C106.159 119.43 105.445 119.476 104.731 119.506C104.625 119.658 104.412 119.795 104.412 119.947C104.397 121.604 104.412 123.275 104.412 124.932C104.412 125.19 104.412 125.448 104.397 125.707H104.366C104.321 125.737 104.29 125.783 104.245 125.813C103.151 125.813 102.072 125.813 100.978 125.813C100.948 125.783 100.902 125.737 100.872 125.707C100.872 124.172 100.841 122.622 100.841 121.087C100.841 117.485 100.841 113.884 100.856 110.282C100.902 110.236 100.932 110.191 100.978 110.16L100.963 110.145Z" fill="#020202"/>
<path d="M104.716 119.506C105.43 119.476 106.144 119.43 106.858 119.43C107.739 119.43 108.621 119.476 109.502 119.506C107.906 119.506 106.311 119.506 104.716 119.506Z" fill="#020202"/>
<path d="M104.366 125.707C104.366 125.448 104.366 125.19 104.381 124.932C104.381 125.19 104.381 125.448 104.366 125.707Z" fill="#020202"/>
<path d="M74.6016 120.281C74.7687 120.281 74.951 120.266 75.1182 120.251C74.951 120.251 74.7687 120.266 74.6016 120.281Z" fill="#020202"/>
<path d="M100.963 110.145C100.963 110.145 100.887 110.236 100.841 110.267C100.841 110.221 100.841 110.191 100.841 110.145C100.887 110.13 100.932 110.115 100.978 110.1V110.13V110.145H100.963Z" fill="#020202"/>
<path d="M100.963 110.1C100.963 110.1 100.872 110.13 100.826 110.145C100.872 110.13 100.917 110.115 100.963 110.1Z" fill="#020202"/>
<path d="M84.9029 110.282C84.9029 110.282 84.7966 110.282 84.751 110.297C84.7966 110.297 84.8573 110.297 84.9029 110.282Z" fill="#020202"/>
<path d="M74.48 125.813C74.48 125.813 74.5408 125.737 74.5711 125.691C74.5408 125.737 74.5104 125.767 74.48 125.813Z" fill="#020202"/>
<path d="M100.856 125.707C100.856 125.707 100.932 125.783 100.963 125.813L100.856 125.707Z" fill="#020202"/>
<path d="M104.214 125.813C104.214 125.813 104.29 125.737 104.336 125.707C104.29 125.737 104.26 125.783 104.214 125.813Z" fill="#020202"/>
<path d="M228.895 54.1152C231.477 54.7383 232.799 55.9844 233.118 58.0968C233.179 58.2031 233.225 58.3095 233.286 58.4159C233.316 59.2517 233.346 60.1027 233.346 60.9385C233.346 83.6271 233.346 106.316 233.346 129.004C233.346 129.84 233.316 130.691 233.301 131.527C233.24 131.633 233.179 131.74 233.134 131.846C232.708 134.217 231.158 135.387 228.91 135.812C228.53 135.797 228.165 135.752 227.785 135.752C197.018 135.752 166.266 135.752 135.498 135.752C135.118 135.752 134.754 135.797 134.374 135.812C131.973 135.676 130.636 134.262 129.937 132.104C129.937 131.998 129.968 131.907 129.968 131.8C129.953 131.329 129.922 130.858 129.922 130.402C129.922 106.772 129.922 83.156 129.922 59.5252C129.922 59.1453 129.968 58.7806 129.983 58.4007C129.983 58.2031 129.953 58.0208 129.953 57.8232C130.606 55.7717 131.837 54.3736 134.1 54.1304C134.48 54.1304 134.845 54.176 135.225 54.176C166.129 54.176 197.018 54.176 227.922 54.176C228.241 54.176 228.575 54.1304 228.895 54.1152ZM134.07 57.5345C133.781 57.9144 133.493 58.2943 133.204 58.6742C133.204 58.7806 133.204 58.8718 133.189 58.9782C133.189 59.4493 133.219 59.9203 133.219 60.3762C133.219 83.2168 133.219 106.073 133.219 128.913C133.219 129.612 133.113 130.342 133.265 131.01C133.371 131.512 133.797 131.937 134.07 132.393C134.511 132.484 134.936 132.636 135.377 132.636C166.114 132.636 196.866 132.636 227.603 132.636C228.044 132.636 228.469 132.469 228.91 132.378C230.14 132.074 230.034 131.086 230.034 130.159C230.034 111.893 230.034 93.6417 230.034 75.3753C230.034 69.9957 230.049 64.6009 230.064 59.2213C230.064 59.1149 230.064 59.0237 230.064 58.9174C229.669 58.4463 229.29 57.9752 228.895 57.5041C228.408 57.4129 227.937 57.2609 227.451 57.2609C196.805 57.2609 166.144 57.2609 135.498 57.2609C135.012 57.2609 134.526 57.4281 134.055 57.5041L134.07 57.5345Z" fill="#020202"/>
<path d="M139.98 67.929C140.254 66.5005 141.15 65.7255 142.563 65.4823C142.654 65.4823 142.746 65.4823 142.837 65.4823C143.627 65.4671 144.417 65.4367 145.222 65.4367C169.791 65.4367 194.359 65.4367 218.927 65.4367C219.535 65.4367 220.143 65.4823 220.751 65.5127C220.842 65.5735 220.948 65.6495 221.039 65.7103C222.498 65.923 222.938 67.0324 223.303 68.2329C223.303 86.0586 223.303 103.899 223.303 121.725C222.559 123.929 221.784 124.506 219.505 124.506C194.116 124.506 168.727 124.506 143.323 124.506C141.317 124.506 139.889 123.306 139.996 121.725C139.996 107.076 140.011 92.4259 140.026 77.7612C140.026 74.4787 139.996 71.2114 139.98 67.929ZM172.89 120.54C172.556 121.679 173.498 121.102 173.787 121.102C188.737 121.132 203.688 121.132 218.639 121.117C219.049 121.117 219.459 120.92 219.869 120.813C220.325 118.747 218.578 117.941 217.469 116.923C213.214 113.002 208.854 109.203 204.539 105.328C201.606 102.699 198.704 100.055 195.514 97.1825C195.21 97.6232 194.997 98.0487 194.678 98.383C190.697 102.486 186.701 106.589 182.69 110.677C179.439 113.975 176.172 117.257 172.905 120.54H172.89ZM143.414 120.828C143.779 120.935 144.143 121.117 144.508 121.117C151.862 121.132 159.216 121.132 166.569 121.117C166.919 121.117 167.268 120.965 167.618 120.889C172.647 115.768 177.676 110.632 182.69 105.525C176.886 99.2644 171.158 93.0794 165.415 86.8944C165.05 87.1679 164.64 87.3959 164.306 87.6998C160.021 91.6965 155.752 95.6932 151.467 99.6899C149.021 101.969 146.544 104.203 144.128 106.498C143.748 106.863 143.429 107.516 143.414 108.033C143.369 112.288 143.414 116.558 143.414 120.813V120.828ZM219.869 69.1143C219.459 69.0231 219.049 68.8256 218.639 68.8256C193.979 68.8256 169.32 68.8104 144.645 68.8256C144.235 68.8256 143.824 69.0079 143.414 69.1143C143.414 80.1775 143.384 91.2254 143.384 102.289C143.353 102.365 143.323 102.425 143.277 102.501C143.399 102.425 143.536 102.349 143.657 102.273C150.95 95.4805 158.258 88.6876 165.582 81.8643C167.344 83.8398 168.925 85.6634 170.565 87.4263C173.483 90.5568 176.461 93.6417 179.378 96.7874C180.988 98.5198 182.553 100.298 184.088 102.106C184.832 102.988 185.349 103.018 186.185 102.137C189.072 99.1277 192.08 96.2555 194.936 93.2314C195.59 92.5323 195.848 92.7755 196.334 93.2314C199.023 95.6628 201.713 98.0639 204.387 100.495C208.687 104.401 212.956 108.322 217.256 112.212C218.016 112.911 218.851 113.519 219.885 114.37C219.885 113.732 219.885 113.367 219.885 113.017C219.885 108.276 219.885 103.55 219.885 98.8085C219.885 88.9155 219.854 79.0225 219.839 69.1295L219.869 69.1143Z" fill="#020202"/>
<path d="M216.238 79.0833C216.74 83.7943 212.029 88.3685 206.788 87.9126C202.533 87.5478 198.887 84.2046 198.841 79.0225C198.796 74.7371 202.609 70.2997 207.684 70.4668C212.409 70.6188 216.527 74.4027 216.238 79.0833ZM207.593 74.1596C204.357 74.1596 202.442 76.0288 202.442 79.2201C202.442 82.3658 204.615 84.4325 208.14 84.2654C211.011 84.1286 212.728 82.1074 212.835 79.2201C212.941 76.3631 210.282 73.6277 207.608 74.1596H207.593Z" fill="#020202"/>
</g>
<defs>
<clipPath id="clip0_439_167">
<rect width="294" height="199" fill="white"/>
</clipPath>
</defs>
</svg>
