<svg width="154" height="129" viewBox="0 0 154 129" fill="none" xmlns="http://www.w3.org/2000/svg">
<g clip-path="url(#clip0_404_1287)">
<path d="M27.1 56.9801C24.64 59.0901 21.95 61.6401 21.68 65.2301C21.4 69.0001 23.9 73.1601 22.09 76.2801C21.58 77.1701 20.76 77.8101 20.4 78.8001C20.01 79.8601 20.23 81.0701 20.45 82.1901C21.93 89.7401 23.55 97.6501 27.94 103.41C30.43 106.68 33.65 109.03 36.85 111.29C44.66 116.8 52.83 122.15 61.81 123.8C64.56 124.31 67.43 124.44 70.09 123.48C71.99 122.79 73.72 121.56 75.55 120.62C81.47 117.56 88.14 117.6 94.58 116.92C104.41 115.89 114.54 112.78 121.79 104.87C128.24 97.8301 131.73 87.6301 133 77.3501C133.7 71.6501 133.77 65.8601 133.67 60.1001C133.61 56.9201 133.49 53.6701 132.51 50.7001C130.15 43.4901 123.42 39.5301 120.4 32.6801C117.87 26.9401 118.1 19.4901 114.28 14.8501C111.63 11.6401 107.54 10.5901 103.78 11.0501C100.02 11.5101 96.46 13.2901 92.98 15.0501C91.39 15.8501 89.78 16.6701 88.47 18.0001C87.3 19.1901 86.42 20.7401 85.45 22.1701C81.35 28.1701 75.15 32.1001 68.65 32.8101C60.32 33.7201 53.75 33.1201 46.75 39.4101C40.21 45.2901 33.78 51.3001 27.11 57.0101L27.1 56.9801Z" fill="#F3941B"/>
<path d="M59.87 28.96C57.78 32.28 55.7 35.6 53.61 38.93C50.08 44.55 46.54 50.19 42.35 55.34C37.77 60.98 32.48 66 27.56 71.34C17.22 82.58 8.59 95.27 0 107.9C3.92 107.86 7.83 106.87 11.3 105.05C11.1 107.3 10.9 109.56 10.7 111.81C14.44 110.93 18.19 110.06 21.93 109.18C22.65 109.01 23.41 108.84 24.12 109.03C26.8 109.74 26.06 113.77 27.26 116.28C28.54 118.96 32.13 119.6 35.06 119.08C37.99 118.56 40.8 117.24 43.77 117.34C44.74 117.37 45.79 117.61 46.39 118.37C47.05 119.2 47 120.45 47.68 121.27C48.41 122.15 49.71 122.23 50.86 122.25C60.06 122.36 69.26 122.47 78.46 122.59C78.53 124.57 78.61 126.54 78.68 128.52C82.58 127.93 85.17 124.12 86.4 120.38C87.63 116.64 92.58 113.15 94.53 109.73C99.01 101.91 104.9 99.79 112.54 95.01C117.64 91.82 121.56 87.09 125.12 82.24C135.26 68.4 143.13 52.89 148.32 36.53C147.72 38.02 145.88 38.87 144.36 38.37C142.84 37.87 141.87 36.08 142.28 34.53C140.26 35.18 138.34 36.11 136.58 37.29C137.01 34.53 137.44 31.77 137.88 29C136.95 30.03 135.55 28.05 135.93 26.71C136.31 25.37 137.16 23.75 136.17 22.78C134.93 23.54 133.69 24.29 132.45 25.05C133.27 24.58 132.96 23.19 132.13 22.73C131.3 22.27 130.28 22.45 129.34 22.63C125.57 23.39 121.8 24.15 118.03 24.91C112.22 26.08 105.04 26.78 101.47 22.05C105.03 17.03 108.58 12.02 112.14 7C108.18 12.77 103.05 17.73 97.16 21.5C99.32 16.84 101.87 12.37 104.8 8.16L92.09 20.4C93.28 16.67 94.96 13.1 97.09 9.81001L85.67 19.69C85.38 15.19 86.37 10.61 88.5 6.63C86.85 9.79 84.64 12.65 81.99 15.04C82.12 12.08 83.19 9.18 85.01 6.84C81.42 10.77 78.13 14.98 75.16 19.4L75.7 15.23C72.22 19.78 67.97 23.75 63.19 26.9C63.71 22.03 65.95 17.37 69.43 13.93C65.12 20.61 60.81 27.3 56.5 33.98C57.32 31.11 58.55 28.35 60.14 25.82C54.05 38.96 47.58 52.59 36.23 61.58C31.52 65.31 31.54 72.26 27.88 77.03C12.21 97.46 6.82 94.8 2.76 107.84" fill="#9DD8F2"/>
<path d="M41.94 36.06C37.03 38.72 31.26 40.09 25.8 38.93C29.96 36.38 34.13 33.83 38.29 31.28C40.2 30.11 49.9 23.56 51.7 27.47C52.79 29.83 43.66 35.13 41.94 36.06Z" fill="#F3941B"/>
<path d="M24.57 53.18C24.16 53.51 23.93 54.05 23.99 54.58C27.7 52.82 30.76 49.74 32.48 46.02C30.58 46.3 28.87 47.38 27.51 48.74C26.15 50.1 25.09 51.72 24.05 53.34C23.29 54.51 22.51 55.96 23.11 57.21" fill="#F3941B"/>
<path d="M117.13 9.80005C117.4 10 117.47 10.36 117.5 10.69C117.69 12.61 117.15 14.6 116.03 16.17C114.46 18.37 111.95 19.67 110.5 21.97C110.08 19.7 117.37 9.98005 117.14 9.81005L117.13 9.80005Z" fill="#9DD8F2"/>
<path d="M139.56 0C139.65 1.36 138.98 2.65 138.29 3.82C135.95 7.77 133.13 11.42 129.91 14.68C128.6 16 122.38 22.86 120.36 22.26C117.9 21.52 126.06 10.78 127.21 9.36C130.52 5.27 134.67 1.97 139.57 0L139.56 0Z" fill="#9DD8F2"/>
<path d="M142.29 25.8601C144 23.4101 145.89 21.0901 147.96 18.9301C147.2 21.7501 145.74 24.3801 143.74 26.5101C143.54 26.7301 143.3 26.9501 143 26.9701C142.26 27.0001 142.17 25.8701 142.48 25.1901C142.88 24.3201 143.48 23.5501 144.21 22.9401" fill="#9DD8F2"/>
<path d="M147.62 32.74C147.01 33.16 146.56 33.83 146.41 34.56C149.29 34.71 152.17 32.8699 153.24 30.1899C151.3 29.9799 149.3 31.24 148.65 33.08" fill="#9DD8F2"/>
<path d="M18.2 113.21C15.82 114.67 13.86 116.83 12.64 119.34C15.55 117.75 18.35 115.96 21.01 113.98C19.55 113.95 18.1 113.93 16.64 113.9" fill="#9DD8F2"/>
<path d="M39.37 120.82L38.89 123.07C40.25 123.5 41.85 123.05 42.79 121.98C42.23 122.14 41.67 121.73 41.26 121.31C40.85 120.89 40.41 120.41 39.82 120.38C39.23 120.35 38.69 121.16 39.15 121.52" fill="#9DD8F2"/>
<g opacity="0.2">
<path d="M21.28 103.36C21.28 103.78 21.28 104.2 21.27 104.62C21.27 105.02 21.02 105.28 20.62 105.29C19.01 105.29 17.4 105.29 15.79 105.29C15.45 105.29 15.15 104.94 15.14 104.56C15.13 104.16 15.14 103.75 15.14 103.29C14.7 103.29 14.29 103.28 13.87 103.29C12.57 103.34 11.43 102.35 11.14 101.06C11.09 100.84 11.14 100.6 11.14 100.37C11.14 83.3601 11.14 66.3501 11.14 49.3301C11.14 48.0901 11.62 47.1801 12.75 46.6901C13.17 46.5101 13.66 46.4401 14.12 46.4401C23.78 46.4301 33.43 46.4301 43.09 46.4301C45.43 46.4301 47.77 46.4301 50.11 46.4301C51.98 46.4301 53.11 47.5301 53.11 49.4001C53.11 63.6401 53.11 77.8801 53.11 92.1101C53.11 94.8601 53.13 97.6001 53.11 100.35C53.09 101.72 52.53 102.63 51.23 103.14C50.98 103.24 50.7 103.27 50.42 103.28C49.98 103.3 49.53 103.28 49.03 103.28C49.03 103.7 49.03 104.09 49.03 104.47C49.03 105 48.73 105.29 48.21 105.29C46.72 105.29 45.24 105.29 43.75 105.29C43.2 105.29 42.91 105 42.9 104.45C42.9 104.07 42.9 103.7 42.9 103.29C42.77 103.28 42.66 103.26 42.56 103.26C35.57 103.26 28.57 103.26 21.58 103.26C21.51 103.26 21.44 103.27 21.37 103.28C21.35 103.31 21.32 103.33 21.3 103.36H21.28ZM49.01 51.3901C49.01 51.3101 49.01 51.2201 49.01 51.1401C48.86 50.6401 48.67 50.4901 48.14 50.4901C37.46 50.4901 26.78 50.4901 16.11 50.4901C15.38 50.4901 15.21 50.6601 15.21 51.4101C15.21 54.1401 15.21 56.8801 15.21 59.6101C15.21 60.5101 15.33 60.6301 16.21 60.6301C26.82 60.6301 37.43 60.6301 48.03 60.6301C48.11 60.6301 48.2 60.6301 48.28 60.6301C48.72 60.6101 49.01 60.3301 49.01 59.8901C49.01 57.0601 49.01 54.2301 49 51.4001L49.01 51.3901ZM49.01 63.9301C49.01 63.9301 48.97 63.8701 48.95 63.8401C48.78 63.4601 48.49 63.3401 48.08 63.3401C39.29 63.3401 30.51 63.3401 21.72 63.3401C19.84 63.3401 17.96 63.3401 16.09 63.3401C15.4 63.3401 15.21 63.5301 15.21 64.2001C15.21 67.0201 15.21 69.8301 15.21 72.6501C15.21 73.3101 15.4 73.4901 16.06 73.4901C26.68 73.4901 37.31 73.4901 47.93 73.4901C48.04 73.4901 48.15 73.4901 48.27 73.4901C48.72 73.4701 49.03 73.1701 49.03 72.7201C49.03 69.7901 49.03 66.8601 49.03 63.9301H49.01ZM32.15 86.3501C37.46 86.3501 42.77 86.3501 48.08 86.3501C48.77 86.3501 49.01 86.1101 49.01 85.4201C49.01 82.6901 49.01 79.9501 49.01 77.2201C49.01 76.4401 48.77 76.2001 47.99 76.2001C37.41 76.2001 26.83 76.2001 16.25 76.2001C16.08 76.2001 15.91 76.1801 15.75 76.2201C15.43 76.2901 15.2 76.4501 15.2 76.84C15.2 79.8 15.2 82.7501 15.2 85.7101C15.2 86.0401 15.38 86.2301 15.67 86.3001C15.84 86.3401 16.03 86.3501 16.21 86.3501C21.52 86.3501 26.83 86.3501 32.14 86.3501H32.15ZM32.06 99.1901C37.4 99.1901 42.74 99.1901 48.07 99.1901C48.78 99.1901 49.01 98.9601 49.01 98.2401C49.01 95.5401 49.01 92.8301 49.01 90.1301C49.01 89.2401 48.83 89.0701 47.93 89.0701C37.37 89.0701 26.8 89.0701 16.24 89.0701C16.13 89.0701 16.02 89.0701 15.9 89.0701C15.43 89.0901 15.19 89.3201 15.19 89.8001C15.19 92.7001 15.19 95.6001 15.19 98.5001C15.19 98.6301 15.24 98.7701 15.29 98.8901C15.45 99.2901 15.81 99.2001 16.12 99.2001C21.43 99.2001 26.74 99.2001 32.05 99.2001L32.06 99.1901Z" fill="#0E4A7A"/>
<path d="M21.28 103.36C21.28 103.36 21.33 103.31 21.35 103.28C21.33 103.31 21.3 103.33 21.28 103.36Z" fill="#0E4A7A"/>
<path d="M49.02 63.9201C49.02 63.9201 48.98 63.8601 48.96 63.8301C48.98 63.8601 49 63.8901 49.02 63.9201Z" fill="#0E4A7A"/>
<path d="M40.58 79.91C41.98 79.91 43.38 79.91 44.78 79.91C45.36 79.91 45.65 80.2 45.65 80.77C45.65 81.09 45.65 81.41 45.65 81.74C45.65 82.36 45.39 82.63 44.76 82.63C43.14 82.63 41.51 82.63 39.88 82.63C38.7 82.63 37.53 82.61 36.35 82.63C35.81 82.64 35.38 82.34 35.46 81.71C35.5 81.36 35.46 81.01 35.46 80.66C35.46 80.15 35.71 79.9 36.23 79.9C37.67 79.9 39.12 79.9 40.56 79.9L40.58 79.91Z" fill="#0E4A7A"/>
<path d="M18.91 80.31C19.54 80.31 19.93 80.66 19.92 81.26C19.92 81.91 19.41 82.3 18.86 82.31C18.41 82.33 17.85 81.83 17.88 81.26C17.92 80.62 18.22 80.3 18.9 80.3L18.91 80.31Z" fill="#0E4A7A"/>
<path d="M28 81.31C28 81.83 27.49 82.35 27.01 82.34C26.48 82.32 25.97 81.79 25.98 81.24C25.98 80.7 26.42 80.31 27.03 80.32C27.72 80.32 28.01 80.61 28 81.31Z" fill="#0E4A7A"/>
<path d="M23.97 81.29C23.97 81.81 23.47 82.35 23 82.32C22.32 82.28 21.95 81.79 21.95 81.26C21.95 80.62 22.35 80.3 23.08 80.31C23.6 80.31 23.98 80.74 23.97 81.29Z" fill="#0E4A7A"/>
<path d="M40.57 69.76C39.17 69.76 37.77 69.76 36.37 69.76C35.68 69.76 35.49 69.55 35.49 68.86C35.49 68.51 35.49 68.16 35.49 67.81C35.49 67.31 35.71 67.07 36.22 67.05C36.77 67.03 37.31 67.05 37.86 67.05C40.14 67.05 42.43 67.05 44.71 67.05C45.4 67.05 45.66 67.31 45.66 68.01C45.66 68.32 45.66 68.63 45.66 68.93C45.65 69.51 45.39 69.77 44.81 69.77C43.39 69.77 41.98 69.77 40.56 69.77L40.57 69.76Z" fill="#0E4A7A"/>
<path d="M17.9 68.4101C17.9 67.8001 18.26 67.4501 18.9 67.4501C19.5 67.4501 19.92 67.8401 19.93 68.4101C19.93 68.9501 19.43 69.4701 18.91 69.4701C18.38 69.4701 17.91 68.9701 17.9 68.4101Z" fill="#0E4A7A"/>
<path d="M22.98 67.4501C23.59 67.4501 23.96 67.8101 23.96 68.4301C23.96 69.0301 23.58 69.3901 22.92 69.3901C22.32 69.3901 21.94 69.0301 21.94 68.4601C21.94 67.8101 22.31 67.4501 22.98 67.4501Z" fill="#0E4A7A"/>
<path d="M27.01 67.4501C27.63 67.4501 27.97 67.7901 28.01 68.3701C28.05 69.1001 27.53 69.4101 26.87 69.4601C26.47 69.4901 25.99 68.8901 25.98 68.4001C25.98 67.8501 26.4 67.4501 27.01 67.4501Z" fill="#0E4A7A"/>
<path d="M40.6 56.9101C39.21 56.9101 37.83 56.9101 36.44 56.9101C35.65 56.9101 35.48 56.7401 35.48 55.9501C35.48 55.6001 35.48 55.2501 35.48 54.9001C35.48 54.5101 35.71 54.2501 36.1 54.2001C36.25 54.1801 36.41 54.1801 36.56 54.1801C39.26 54.1801 41.97 54.1801 44.67 54.1801C45.41 54.1801 45.65 54.4201 45.65 55.1401C45.65 55.4501 45.65 55.7601 45.65 56.0601C45.64 56.6301 45.36 56.8901 44.79 56.9001C43.39 56.9001 41.99 56.9001 40.59 56.9001L40.6 56.9101Z" fill="#0E4A7A"/>
<path d="M22.96 54.5801C23.56 54.5801 23.97 54.9801 23.96 55.5601C23.96 56.1201 23.47 56.6101 22.94 56.6001C22.4 56.5901 21.94 56.1001 21.94 55.5301C21.94 54.9501 22.34 54.5801 22.96 54.5801Z" fill="#0E4A7A"/>
<path d="M17.9 55.5301C17.9 54.9401 18.28 54.5801 18.91 54.5801C19.5 54.5801 19.92 54.9801 19.92 55.5401C19.92 56.1201 19.44 56.5501 18.91 56.5901C18.43 56.6301 17.81 56.0901 17.89 55.5201L17.9 55.5301Z" fill="#0E4A7A"/>
<path d="M28 55.56C28 56.19 27.58 56.58 26.89 56.6C26.49 56.61 25.98 56.06 25.98 55.61C25.98 55.08 26.32 54.56 27.02 54.58C27.65 54.6 27.99 54.93 28 55.56Z" fill="#0E4A7A"/>
<path d="M40.53 95.47C39.13 95.47 37.73 95.47 36.33 95.47C35.7 95.47 35.48 95.24 35.48 94.62C35.48 94.23 35.48 93.84 35.48 93.44C35.48 93.02 35.73 92.76 36.15 92.76C39.08 92.76 42 92.76 44.93 92.76C45.34 92.76 45.65 93.1 45.66 93.52C45.66 93.91 45.66 94.3 45.66 94.7C45.66 95.21 45.41 95.47 44.9 95.47C43.44 95.47 41.99 95.47 40.53 95.47Z" fill="#0E4A7A"/>
<path d="M17.9 94.1301C17.9 93.4501 18.21 93.1801 18.96 93.1801C19.53 93.1801 19.92 93.5701 19.92 94.1401C19.92 94.6801 19.41 95.2001 18.89 95.1901C18.33 95.1701 17.89 94.7001 17.89 94.1301H17.9Z" fill="#0E4A7A"/>
<path d="M22.9 95.11C22.33 95.11 21.95 94.72 21.94 94.14C21.94 93.52 22.31 93.17 22.96 93.17C23.64 93.17 23.97 93.51 23.97 94.19C23.97 94.72 23.52 95.1 22.9 95.1V95.11Z" fill="#0E4A7A"/>
<path d="M28 94.13C27.99 94.81 27.63 95.13 26.9 95.12C26.42 95.12 25.96 94.6 25.98 94.09C26 93.53 26.45 93.17 27.1 93.18C27.7 93.19 28.01 93.51 28 94.13Z" fill="#0E4A7A"/>
<path d="M108.94 103.36C108.94 103.78 108.94 104.2 108.93 104.62C108.93 105.02 108.68 105.28 108.28 105.29C106.67 105.29 105.06 105.29 103.45 105.29C103.11 105.29 102.81 104.94 102.8 104.56C102.79 104.16 102.8 103.75 102.8 103.29C102.36 103.29 101.95 103.28 101.53 103.29C100.23 103.34 99.09 102.35 98.8 101.06C98.75 100.84 98.8 100.6 98.8 100.37C98.8 83.3601 98.8 66.3501 98.8 49.3301C98.8 48.0901 99.28 47.1801 100.41 46.6901C100.83 46.5101 101.32 46.4401 101.78 46.4401C111.44 46.4301 121.09 46.4301 130.75 46.4301C133.09 46.4301 135.43 46.4301 137.77 46.4301C139.64 46.4301 140.77 47.5301 140.77 49.4001C140.77 63.6401 140.77 77.8801 140.77 92.1101C140.77 94.8601 140.79 97.6001 140.77 100.35C140.75 101.72 140.19 102.63 138.89 103.14C138.64 103.24 138.36 103.27 138.08 103.28C137.64 103.3 137.19 103.28 136.69 103.28C136.69 103.7 136.69 104.09 136.69 104.47C136.69 105 136.39 105.29 135.87 105.29C134.38 105.29 132.9 105.29 131.41 105.29C130.86 105.29 130.57 105 130.56 104.45C130.56 104.07 130.56 103.7 130.56 103.29C130.43 103.28 130.32 103.26 130.22 103.26C123.23 103.26 116.23 103.26 109.24 103.26C109.17 103.26 109.1 103.27 109.03 103.28C109.01 103.31 108.98 103.33 108.96 103.36H108.94ZM136.67 51.3901C136.67 51.3101 136.67 51.2201 136.67 51.1401C136.52 50.6401 136.33 50.4901 135.8 50.4901C125.12 50.4901 114.44 50.4901 103.77 50.4901C103.04 50.4901 102.87 50.6601 102.87 51.4101C102.87 54.1401 102.87 56.8801 102.87 59.6101C102.87 60.5101 102.99 60.6301 103.87 60.6301C114.48 60.6301 125.09 60.6301 135.69 60.6301C135.77 60.6301 135.86 60.6301 135.94 60.6301C136.38 60.6101 136.67 60.3301 136.67 59.8901C136.67 57.0601 136.67 54.2301 136.66 51.4001L136.67 51.3901ZM136.67 63.9301C136.67 63.9301 136.63 63.8701 136.61 63.8401C136.44 63.4601 136.15 63.3401 135.74 63.3401C126.95 63.3401 118.17 63.3401 109.38 63.3401C107.5 63.3401 105.62 63.3401 103.75 63.3401C103.06 63.3401 102.87 63.5301 102.87 64.2001C102.87 67.0201 102.87 69.8301 102.87 72.6501C102.87 73.3101 103.06 73.4901 103.72 73.4901C114.34 73.4901 124.97 73.4901 135.59 73.4901C135.7 73.4901 135.81 73.4901 135.93 73.4901C136.38 73.4701 136.69 73.1701 136.69 72.7201C136.69 69.7901 136.69 66.8601 136.69 63.9301H136.67ZM119.81 86.3501C125.12 86.3501 130.43 86.3501 135.74 86.3501C136.43 86.3501 136.67 86.1101 136.67 85.4201C136.67 82.6901 136.67 79.9501 136.67 77.2201C136.67 76.4401 136.43 76.2001 135.65 76.2001C125.07 76.2001 114.49 76.2001 103.91 76.2001C103.74 76.2001 103.57 76.1801 103.41 76.2201C103.09 76.2901 102.86 76.4501 102.86 76.84C102.86 79.8 102.86 82.7501 102.86 85.7101C102.86 86.0401 103.04 86.2301 103.33 86.3001C103.5 86.3401 103.69 86.3501 103.87 86.3501C109.18 86.3501 114.49 86.3501 119.8 86.3501H119.81ZM119.72 99.1901C125.06 99.1901 130.4 99.1901 135.73 99.1901C136.44 99.1901 136.67 98.9601 136.67 98.2401C136.67 95.5401 136.67 92.8301 136.67 90.1301C136.67 89.2401 136.49 89.0701 135.59 89.0701C125.03 89.0701 114.46 89.0701 103.9 89.0701C103.79 89.0701 103.68 89.0701 103.56 89.0701C103.09 89.0901 102.85 89.3201 102.85 89.8001C102.85 92.7001 102.85 95.6001 102.85 98.5001C102.85 98.6301 102.9 98.7701 102.95 98.8901C103.11 99.2901 103.47 99.2001 103.78 99.2001C109.09 99.2001 114.4 99.2001 119.71 99.2001L119.72 99.1901Z" fill="#0E4A7A"/>
<path d="M108.94 103.36C108.94 103.36 108.99 103.31 109.01 103.28C108.99 103.31 108.96 103.33 108.94 103.36Z" fill="#0E4A7A"/>
<path d="M136.67 63.9201C136.67 63.9201 136.63 63.8601 136.61 63.8301C136.63 63.8601 136.65 63.8901 136.67 63.9201Z" fill="#0E4A7A"/>
<path d="M128.24 79.91C129.64 79.91 131.04 79.91 132.44 79.91C133.02 79.91 133.31 80.2 133.31 80.77C133.31 81.09 133.31 81.41 133.31 81.74C133.31 82.36 133.05 82.63 132.42 82.63C130.8 82.63 129.17 82.63 127.54 82.63C126.36 82.63 125.19 82.61 124.01 82.63C123.47 82.64 123.04 82.34 123.12 81.71C123.16 81.36 123.12 81.01 123.12 80.66C123.12 80.15 123.37 79.9 123.89 79.9C125.33 79.9 126.78 79.9 128.22 79.9L128.24 79.91Z" fill="#0E4A7A"/>
<path d="M106.56 80.31C107.19 80.31 107.58 80.66 107.57 81.26C107.57 81.91 107.06 82.3 106.51 82.31C106.06 82.33 105.5 81.83 105.53 81.26C105.57 80.62 105.87 80.3 106.55 80.3L106.56 80.31Z" fill="#0E4A7A"/>
<path d="M115.66 81.31C115.66 81.83 115.15 82.35 114.67 82.34C114.14 82.32 113.63 81.79 113.64 81.24C113.64 80.7 114.08 80.31 114.69 80.32C115.38 80.32 115.67 80.61 115.66 81.31Z" fill="#0E4A7A"/>
<path d="M111.62 81.29C111.62 81.81 111.12 82.35 110.65 82.32C109.97 82.28 109.6 81.79 109.6 81.26C109.6 80.62 110 80.3 110.73 80.31C111.25 80.31 111.63 80.74 111.62 81.29Z" fill="#0E4A7A"/>
<path d="M128.22 69.76C126.82 69.76 125.42 69.76 124.02 69.76C123.33 69.76 123.14 69.55 123.14 68.86C123.14 68.51 123.14 68.16 123.14 67.81C123.14 67.31 123.36 67.07 123.87 67.05C124.42 67.03 124.96 67.05 125.51 67.05C127.79 67.05 130.08 67.05 132.36 67.05C133.05 67.05 133.31 67.31 133.31 68.01C133.31 68.32 133.31 68.63 133.31 68.93C133.3 69.51 133.04 69.77 132.46 69.77C131.04 69.77 129.63 69.77 128.21 69.77L128.22 69.76Z" fill="#0E4A7A"/>
<path d="M105.56 68.4101C105.56 67.8001 105.92 67.4501 106.56 67.4501C107.16 67.4501 107.58 67.8401 107.59 68.4101C107.59 68.9501 107.09 69.4701 106.57 69.4701C106.04 69.4701 105.57 68.9701 105.56 68.4101Z" fill="#0E4A7A"/>
<path d="M110.63 67.4501C111.24 67.4501 111.61 67.8101 111.61 68.4301C111.61 69.0301 111.23 69.3901 110.57 69.3901C109.97 69.3901 109.59 69.0301 109.59 68.4601C109.59 67.8101 109.96 67.4501 110.63 67.4501Z" fill="#0E4A7A"/>
<path d="M114.67 67.4501C115.29 67.4501 115.63 67.7901 115.67 68.3701C115.71 69.1001 115.19 69.4101 114.53 69.4601C114.13 69.4901 113.65 68.8901 113.64 68.4001C113.64 67.8501 114.06 67.4501 114.67 67.4501Z" fill="#0E4A7A"/>
<path d="M128.25 56.9101C126.86 56.9101 125.48 56.9101 124.09 56.9101C123.3 56.9101 123.13 56.7401 123.13 55.9501C123.13 55.6001 123.13 55.2501 123.13 54.9001C123.13 54.5101 123.36 54.2501 123.75 54.2001C123.9 54.1801 124.06 54.1801 124.21 54.1801C126.91 54.1801 129.62 54.1801 132.32 54.1801C133.06 54.1801 133.3 54.4201 133.3 55.1401C133.3 55.4501 133.3 55.7601 133.3 56.0601C133.29 56.6301 133.01 56.8901 132.44 56.9001C131.04 56.9001 129.64 56.9001 128.24 56.9001L128.25 56.9101Z" fill="#0E4A7A"/>
<path d="M110.61 54.5801C111.21 54.5801 111.62 54.9801 111.61 55.5601C111.61 56.1201 111.12 56.6101 110.59 56.6001C110.05 56.5901 109.59 56.1001 109.59 55.5301C109.59 54.9501 109.99 54.5801 110.61 54.5801Z" fill="#0E4A7A"/>
<path d="M105.55 55.5301C105.55 54.9401 105.93 54.5801 106.56 54.5801C107.15 54.5801 107.57 54.9801 107.57 55.5401C107.57 56.1201 107.09 56.5501 106.56 56.5901C106.08 56.6301 105.46 56.0901 105.54 55.5201L105.55 55.5301Z" fill="#0E4A7A"/>
<path d="M115.66 55.56C115.66 56.19 115.24 56.58 114.55 56.6C114.15 56.61 113.64 56.06 113.64 55.61C113.64 55.08 113.98 54.56 114.68 54.58C115.31 54.6 115.65 54.93 115.66 55.56Z" fill="#0E4A7A"/>
<path d="M128.18 95.47C126.78 95.47 125.38 95.47 123.98 95.47C123.35 95.47 123.13 95.24 123.13 94.62C123.13 94.23 123.13 93.84 123.13 93.44C123.13 93.02 123.38 92.76 123.8 92.76C126.73 92.76 129.65 92.76 132.58 92.76C132.99 92.76 133.3 93.1 133.31 93.52C133.31 93.91 133.31 94.3 133.31 94.7C133.31 95.21 133.06 95.47 132.55 95.47C131.09 95.47 129.64 95.47 128.18 95.47Z" fill="#0E4A7A"/>
<path d="M105.56 94.1301C105.56 93.4501 105.87 93.1801 106.62 93.1801C107.19 93.1801 107.58 93.5701 107.58 94.1401C107.58 94.6801 107.07 95.2001 106.55 95.1901C105.99 95.1701 105.55 94.7001 105.55 94.1301H105.56Z" fill="#0E4A7A"/>
<path d="M110.55 95.11C109.98 95.11 109.6 94.72 109.59 94.14C109.59 93.52 109.96 93.17 110.61 93.17C111.29 93.17 111.62 93.51 111.62 94.19C111.62 94.72 111.17 95.1 110.55 95.1V95.11Z" fill="#0E4A7A"/>
<path d="M115.66 94.13C115.65 94.81 115.29 95.13 114.56 95.12C114.08 95.12 113.62 94.6 113.64 94.09C113.66 93.53 114.11 93.17 114.76 93.18C115.36 93.19 115.67 93.51 115.66 94.13Z" fill="#0E4A7A"/>
<path d="M64.59 83.09C64.59 83.51 64.59 83.93 64.58 84.35C64.58 84.75 64.33 85.01 63.93 85.02C62.32 85.02 60.71 85.02 59.1 85.02C58.76 85.02 58.46 84.67 58.45 84.29C58.44 83.89 58.45 83.48 58.45 83.02C58.01 83.02 57.6 83.01 57.18 83.02C55.88 83.07 54.74 82.08 54.45 80.79C54.4 80.57 54.45 80.33 54.45 80.1C54.45 63.09 54.45 46.08 54.45 29.06C54.45 27.82 54.93 26.91 56.06 26.42C56.48 26.24 56.97 26.17 57.43 26.17C67.09 26.16 76.74 26.16 86.4 26.16C88.74 26.16 91.08 26.16 93.42 26.16C95.29 26.16 96.42 27.26 96.42 29.13C96.42 43.37 96.42 57.61 96.42 71.84C96.42 74.59 96.44 77.33 96.42 80.08C96.4 81.45 95.84 82.36 94.54 82.87C94.29 82.97 94.01 83 93.73 83.01C93.29 83.03 92.84 83.01 92.34 83.01C92.34 83.43 92.34 83.82 92.34 84.2C92.34 84.73 92.04 85.02 91.52 85.02C90.03 85.02 88.55 85.02 87.06 85.02C86.51 85.02 86.22 84.73 86.21 84.18C86.21 83.8 86.21 83.43 86.21 83.02C86.08 83.01 85.97 82.99 85.87 82.99C78.88 82.99 71.88 82.99 64.89 82.99C64.82 82.99 64.75 83 64.68 83.01C64.66 83.04 64.63 83.06 64.61 83.09H64.59ZM92.32 31.12C92.32 31.04 92.32 30.95 92.32 30.87C92.17 30.37 91.98 30.22 91.45 30.22C80.77 30.22 70.09 30.22 59.42 30.22C58.69 30.22 58.52 30.39 58.52 31.14C58.52 33.87 58.52 36.61 58.52 39.34C58.52 40.24 58.64 40.36 59.52 40.36C70.13 40.36 80.74 40.36 91.34 40.36C91.42 40.36 91.51 40.36 91.59 40.36C92.03 40.34 92.32 40.06 92.32 39.62C92.32 36.79 92.32 33.96 92.31 31.13L92.32 31.12ZM92.32 43.66C92.32 43.66 92.28 43.6 92.26 43.57C92.09 43.19 91.8 43.07 91.39 43.07C82.6 43.07 73.82 43.07 65.03 43.07C63.15 43.07 61.27 43.07 59.4 43.07C58.71 43.07 58.52 43.26 58.52 43.93C58.52 46.75 58.52 49.56 58.52 52.38C58.52 53.04 58.71 53.22 59.37 53.22C69.99 53.22 80.62 53.22 91.24 53.22C91.35 53.22 91.46 53.22 91.58 53.22C92.03 53.2 92.34 52.9 92.34 52.45C92.34 49.52 92.34 46.59 92.34 43.66H92.32ZM75.46 66.08C80.77 66.08 86.08 66.08 91.39 66.08C92.08 66.08 92.32 65.84 92.32 65.15C92.32 62.42 92.32 59.68 92.32 56.95C92.32 56.17 92.08 55.93 91.3 55.93C80.72 55.93 70.14 55.93 59.56 55.93C59.39 55.93 59.22 55.91 59.06 55.95C58.74 56.02 58.51 56.18 58.51 56.57C58.51 59.53 58.51 62.48 58.51 65.44C58.51 65.77 58.69 65.96 58.98 66.03C59.15 66.07 59.34 66.08 59.52 66.08C64.83 66.08 70.14 66.08 75.45 66.08H75.46ZM75.37 78.92C80.71 78.92 86.05 78.92 91.38 78.92C92.09 78.92 92.32 78.69 92.32 77.97C92.32 75.27 92.32 72.56 92.32 69.86C92.32 68.97 92.14 68.8 91.24 68.8C80.68 68.8 70.11 68.8 59.55 68.8C59.44 68.8 59.33 68.8 59.21 68.8C58.74 68.82 58.5 69.05 58.5 69.53C58.5 72.43 58.5 75.33 58.5 78.23C58.5 78.36 58.55 78.5 58.6 78.62C58.76 79.02 59.12 78.93 59.43 78.93C64.74 78.93 70.05 78.93 75.36 78.93L75.37 78.92Z" fill="#0E4A7A"/>
<path d="M64.59 83.09C64.59 83.09 64.64 83.04 64.66 83.01C64.64 83.04 64.61 83.06 64.59 83.09Z" fill="#0E4A7A"/>
<path d="M92.33 43.6601C92.33 43.6601 92.29 43.6001 92.27 43.5701C92.29 43.6001 92.31 43.6301 92.33 43.6601Z" fill="#0E4A7A"/>
<path d="M83.89 59.64C85.29 59.64 86.69 59.64 88.09 59.64C88.67 59.64 88.96 59.93 88.96 60.5C88.96 60.82 88.96 61.14 88.96 61.47C88.96 62.09 88.7 62.36 88.07 62.36C86.45 62.36 84.82 62.36 83.19 62.36C82.01 62.36 80.84 62.34 79.66 62.36C79.12 62.37 78.69 62.07 78.77 61.44C78.81 61.09 78.77 60.74 78.77 60.39C78.77 59.88 79.02 59.63 79.54 59.63C80.98 59.63 82.43 59.63 83.87 59.63L83.89 59.64Z" fill="#0E4A7A"/>
<path d="M62.22 60.05C62.85 60.05 63.24 60.4 63.23 61C63.23 61.65 62.72 62.04 62.17 62.05C61.72 62.07 61.16 61.57 61.19 61C61.23 60.36 61.53 60.04 62.21 60.04L62.22 60.05Z" fill="#0E4A7A"/>
<path d="M71.31 61.04C71.31 61.56 70.8 62.08 70.32 62.07C69.79 62.05 69.28 61.52 69.29 60.97C69.29 60.43 69.73 60.04 70.34 60.05C71.03 60.05 71.32 60.34 71.31 61.04Z" fill="#0E4A7A"/>
<path d="M67.27 61.03C67.27 61.55 66.77 62.09 66.3 62.06C65.62 62.02 65.25 61.53 65.25 61C65.25 60.36 65.65 60.04 66.38 60.05C66.9 60.05 67.28 60.48 67.27 61.03Z" fill="#0E4A7A"/>
<path d="M83.87 49.5C82.47 49.5 81.07 49.5 79.67 49.5C78.98 49.5 78.79 49.29 78.79 48.6C78.79 48.25 78.79 47.9 78.79 47.55C78.79 47.05 79.01 46.81 79.52 46.79C80.07 46.77 80.61 46.79 81.16 46.79C83.44 46.79 85.73 46.79 88.01 46.79C88.7 46.79 88.96 47.05 88.96 47.75C88.96 48.06 88.96 48.37 88.96 48.67C88.95 49.25 88.69 49.51 88.11 49.51C86.69 49.51 85.28 49.51 83.86 49.51L83.87 49.5Z" fill="#0E4A7A"/>
<path d="M61.21 48.1401C61.21 47.5301 61.57 47.1801 62.21 47.1801C62.81 47.1801 63.23 47.5701 63.24 48.1401C63.24 48.6801 62.74 49.2001 62.22 49.2001C61.69 49.2001 61.22 48.7001 61.21 48.1401Z" fill="#0E4A7A"/>
<path d="M66.29 47.1801C66.9 47.1801 67.27 47.5401 67.27 48.1601C67.27 48.7601 66.89 49.1201 66.23 49.1201C65.63 49.1201 65.25 48.7601 65.25 48.1901C65.25 47.5401 65.62 47.1801 66.29 47.1801Z" fill="#0E4A7A"/>
<path d="M70.32 47.1801C70.94 47.1801 71.28 47.5201 71.32 48.1001C71.36 48.8301 70.84 49.1401 70.18 49.1901C69.78 49.2201 69.3 48.6201 69.29 48.1301C69.29 47.5801 69.71 47.1801 70.32 47.1801Z" fill="#0E4A7A"/>
<path d="M83.91 36.65C82.52 36.65 81.14 36.65 79.75 36.65C78.96 36.65 78.79 36.48 78.79 35.69C78.79 35.34 78.79 34.99 78.79 34.64C78.79 34.25 79.02 33.99 79.41 33.94C79.56 33.92 79.72 33.92 79.87 33.92C82.57 33.92 85.28 33.92 87.98 33.92C88.72 33.92 88.96 34.16 88.96 34.88C88.96 35.19 88.96 35.5 88.96 35.8C88.95 36.37 88.67 36.63 88.1 36.64C86.7 36.64 85.3 36.64 83.9 36.64L83.91 36.65Z" fill="#0E4A7A"/>
<path d="M66.27 34.3201C66.87 34.3201 67.28 34.7201 67.27 35.3001C67.27 35.8601 66.78 36.3501 66.25 36.3401C65.71 36.3301 65.25 35.8401 65.25 35.2701C65.25 34.6901 65.65 34.3201 66.27 34.3201Z" fill="#0E4A7A"/>
<path d="M61.21 35.2601C61.21 34.6701 61.59 34.3101 62.22 34.3101C62.81 34.3101 63.23 34.7101 63.23 35.2701C63.23 35.8501 62.75 36.2801 62.22 36.3201C61.74 36.3601 61.12 35.8201 61.2 35.2501L61.21 35.2601Z" fill="#0E4A7A"/>
<path d="M71.31 35.29C71.31 35.92 70.89 36.31 70.2 36.33C69.8 36.34 69.29 35.79 69.29 35.34C69.29 34.81 69.63 34.29 70.33 34.31C70.96 34.33 71.3 34.66 71.31 35.29Z" fill="#0E4A7A"/>
<path d="M83.84 75.21C82.44 75.21 81.04 75.21 79.64 75.21C79.01 75.21 78.79 74.98 78.79 74.36C78.79 73.97 78.79 73.58 78.79 73.18C78.79 72.76 79.04 72.5 79.46 72.5C82.39 72.5 85.31 72.5 88.24 72.5C88.65 72.5 88.96 72.84 88.97 73.26C88.97 73.65 88.97 74.04 88.97 74.44C88.97 74.95 88.72 75.21 88.21 75.21C86.75 75.21 85.3 75.21 83.84 75.21Z" fill="#0E4A7A"/>
<path d="M61.21 73.87C61.21 73.19 61.52 72.92 62.27 72.92C62.84 72.92 63.23 73.31 63.23 73.88C63.23 74.42 62.72 74.94 62.2 74.93C61.64 74.91 61.2 74.44 61.2 73.87H61.21Z" fill="#0E4A7A"/>
<path d="M66.21 74.85C65.64 74.85 65.26 74.46 65.25 73.88C65.25 73.26 65.62 72.91 66.27 72.91C66.95 72.91 67.28 73.25 67.28 73.93C67.28 74.46 66.83 74.84 66.21 74.84V74.85Z" fill="#0E4A7A"/>
<path d="M71.31 73.86C71.3 74.54 70.94 74.86 70.21 74.85C69.73 74.85 69.27 74.33 69.29 73.82C69.31 73.26 69.76 72.9 70.41 72.91C71.01 72.92 71.32 73.24 71.31 73.86Z" fill="#0E4A7A"/>
</g>
<path d="M22.8 101.68C22.8 102.1 22.8 102.52 22.79 102.94C22.79 103.34 22.54 103.6 22.14 103.61C20.53 103.61 18.92 103.61 17.31 103.61C16.97 103.61 16.67 103.26 16.66 102.88C16.65 102.48 16.66 102.07 16.66 101.61C16.22 101.61 15.81 101.6 15.39 101.61C14.09 101.66 12.95 100.67 12.66 99.38C12.61 99.16 12.66 98.92 12.66 98.69C12.66 81.68 12.66 64.67 12.66 47.65C12.66 46.41 13.14 45.5 14.27 45.01C14.69 44.83 15.18 44.76 15.64 44.76C25.3 44.75 34.95 44.75 44.61 44.75C46.95 44.75 49.29 44.75 51.63 44.75C53.5 44.75 54.63 45.85 54.63 47.72C54.63 61.96 54.63 76.2 54.63 90.43C54.63 93.18 54.65 95.92 54.63 98.67C54.61 100.04 54.05 100.95 52.75 101.46C52.5 101.56 52.22 101.59 51.94 101.6C51.5 101.62 51.05 101.6 50.55 101.6C50.55 102.02 50.55 102.41 50.55 102.79C50.55 103.32 50.25 103.61 49.73 103.61C48.24 103.61 46.76 103.61 45.27 103.61C44.72 103.61 44.43 103.32 44.42 102.77C44.42 102.39 44.42 102.02 44.42 101.61C44.29 101.6 44.18 101.58 44.08 101.58C37.09 101.58 30.09 101.58 23.1 101.58C23.03 101.58 22.96 101.59 22.89 101.6C22.87 101.63 22.84 101.65 22.82 101.68H22.8ZM50.53 49.71C50.53 49.63 50.53 49.54 50.53 49.46C50.38 48.96 50.19 48.81 49.66 48.81C38.98 48.81 28.3 48.81 17.63 48.81C16.9 48.81 16.73 48.98 16.73 49.73C16.73 52.46 16.73 55.2 16.73 57.93C16.73 58.83 16.85 58.95 17.73 58.95C28.34 58.95 38.95 58.95 49.55 58.95C49.63 58.95 49.72 58.95 49.8 58.95C50.24 58.93 50.53 58.65 50.53 58.21C50.53 55.38 50.53 52.55 50.52 49.72L50.53 49.71ZM50.53 62.25C50.53 62.25 50.49 62.19 50.47 62.16C50.3 61.78 50.01 61.66 49.6 61.66C40.81 61.66 32.03 61.66 23.24 61.66C21.36 61.66 19.48 61.66 17.61 61.66C16.92 61.66 16.73 61.85 16.73 62.52C16.73 65.34 16.73 68.15 16.73 70.97C16.73 71.63 16.92 71.81 17.58 71.81C28.2 71.81 38.83 71.81 49.45 71.81C49.56 71.81 49.67 71.81 49.79 71.81C50.24 71.79 50.55 71.49 50.55 71.04C50.55 68.11 50.55 65.18 50.55 62.25H50.53ZM33.67 84.67C38.98 84.67 44.29 84.67 49.6 84.67C50.29 84.67 50.53 84.43 50.53 83.74C50.53 81.01 50.53 78.27 50.53 75.54C50.53 74.76 50.29 74.52 49.51 74.52C38.93 74.52 28.35 74.52 17.77 74.52C17.6 74.52 17.43 74.5 17.27 74.54C16.95 74.61 16.72 74.77 16.72 75.16C16.72 78.12 16.72 81.07 16.72 84.03C16.72 84.36 16.9 84.55 17.19 84.62C17.36 84.66 17.55 84.67 17.73 84.67C23.04 84.67 28.35 84.67 33.66 84.67H33.67ZM33.58 97.51C38.92 97.51 44.26 97.51 49.59 97.51C50.3 97.51 50.53 97.28 50.53 96.56C50.53 93.86 50.53 91.15 50.53 88.45C50.53 87.56 50.35 87.39 49.45 87.39C38.89 87.39 28.32 87.39 17.76 87.39C17.65 87.39 17.54 87.39 17.42 87.39C16.95 87.41 16.71 87.64 16.71 88.12C16.71 91.02 16.71 93.92 16.71 96.82C16.71 96.95 16.76 97.09 16.81 97.21C16.97 97.61 17.33 97.52 17.64 97.52C22.95 97.52 28.26 97.52 33.57 97.52L33.58 97.51Z" fill="#020202"/>
<path d="M22.8 101.68C22.8 101.68 22.85 101.63 22.87 101.6C22.85 101.63 22.82 101.65 22.8 101.68Z" fill="#E8E8E8"/>
<path d="M50.54 62.24C50.54 62.24 50.5 62.18 50.48 62.15C50.5 62.18 50.52 62.21 50.54 62.24Z" fill="#383838"/>
<path d="M42.1 78.22C43.5 78.22 44.9 78.22 46.3 78.22C46.88 78.22 47.17 78.51 47.17 79.08C47.17 79.4 47.17 79.72 47.17 80.05C47.17 80.67 46.91 80.94 46.28 80.94C44.66 80.94 43.03 80.94 41.4 80.94C40.22 80.94 39.05 80.92 37.87 80.94C37.33 80.95 36.9 80.65 36.98 80.02C37.02 79.67 36.98 79.32 36.98 78.97C36.98 78.46 37.23 78.21 37.75 78.21C39.19 78.21 40.64 78.21 42.08 78.21L42.1 78.22Z" fill="#020202"/>
<path d="M20.43 78.63C21.06 78.63 21.45 78.98 21.44 79.58C21.44 80.23 20.93 80.62 20.38 80.63C19.93 80.65 19.37 80.15 19.4 79.58C19.44 78.94 19.74 78.62 20.42 78.62L20.43 78.63Z" fill="#060606"/>
<path d="M29.52 79.63C29.52 80.15 29.01 80.67 28.53 80.66C28 80.64 27.49 80.11 27.5 79.56C27.5 79.02 27.94 78.63 28.55 78.64C29.24 78.64 29.53 78.93 29.52 79.63Z" fill="#060606"/>
<path d="M25.48 79.61C25.48 80.13 24.98 80.67 24.51 80.64C23.83 80.6 23.46 80.11 23.46 79.58C23.46 78.94 23.86 78.62 24.59 78.63C25.11 78.63 25.49 79.06 25.48 79.61Z" fill="#060606"/>
<path d="M42.09 68.08C40.69 68.08 39.29 68.08 37.89 68.08C37.2 68.08 37.01 67.87 37.01 67.18C37.01 66.83 37.01 66.48 37.01 66.13C37.01 65.63 37.23 65.39 37.74 65.37C38.29 65.35 38.83 65.37 39.38 65.37C41.66 65.37 43.95 65.37 46.23 65.37C46.92 65.37 47.18 65.63 47.18 66.33C47.18 66.64 47.18 66.95 47.18 67.25C47.17 67.83 46.91 68.09 46.33 68.09C44.91 68.09 43.5 68.09 42.08 68.09L42.09 68.08Z" fill="#020202"/>
<path d="M19.42 66.73C19.42 66.12 19.78 65.77 20.42 65.77C21.02 65.77 21.44 66.16 21.45 66.73C21.45 67.27 20.95 67.79 20.43 67.79C19.9 67.79 19.43 67.29 19.42 66.73Z" fill="#060606"/>
<path d="M24.5 65.76C25.11 65.76 25.48 66.12 25.48 66.74C25.48 67.34 25.1 67.7 24.44 67.7C23.84 67.7 23.46 67.34 23.46 66.77C23.46 66.12 23.83 65.76 24.5 65.76Z" fill="#060606"/>
<path d="M28.53 65.77C29.15 65.77 29.49 66.11 29.53 66.69C29.57 67.42 29.05 67.73 28.39 67.78C27.99 67.81 27.51 67.21 27.5 66.72C27.5 66.17 27.92 65.77 28.53 65.77Z" fill="#060606"/>
<path d="M42.12 55.23C40.73 55.23 39.35 55.23 37.96 55.23C37.17 55.23 37 55.06 37 54.27C37 53.92 37 53.57 37 53.22C37 52.83 37.23 52.57 37.62 52.52C37.77 52.5 37.93 52.5 38.08 52.5C40.78 52.5 43.49 52.5 46.19 52.5C46.93 52.5 47.17 52.74 47.17 53.46C47.17 53.77 47.17 54.08 47.17 54.38C47.16 54.95 46.88 55.21 46.31 55.22C44.91 55.22 43.51 55.22 42.11 55.22L42.12 55.23Z" fill="#020202"/>
<path d="M24.48 52.9C25.08 52.9 25.49 53.3 25.48 53.88C25.48 54.44 24.99 54.93 24.46 54.92C23.92 54.91 23.46 54.42 23.46 53.85C23.46 53.27 23.86 52.9 24.48 52.9Z" fill="#060606"/>
<path d="M19.42 53.85C19.42 53.26 19.8 52.9 20.43 52.9C21.02 52.9 21.44 53.3 21.44 53.86C21.44 54.44 20.96 54.87 20.43 54.91C19.95 54.95 19.33 54.41 19.41 53.84L19.42 53.85Z" fill="#060606"/>
<path d="M29.52 53.88C29.52 54.51 29.1 54.9 28.41 54.92C28.01 54.93 27.5 54.38 27.5 53.93C27.5 53.4 27.84 52.88 28.54 52.9C29.17 52.92 29.51 53.25 29.52 53.88Z" fill="#060606"/>
<path d="M42.05 93.79C40.65 93.79 39.25 93.79 37.85 93.79C37.22 93.79 37 93.56 37 92.94C37 92.55 37 92.16 37 91.76C37 91.34 37.25 91.08 37.67 91.08C40.6 91.08 43.52 91.08 46.45 91.08C46.86 91.08 47.17 91.42 47.18 91.84C47.18 92.23 47.18 92.62 47.18 93.02C47.18 93.53 46.93 93.79 46.42 93.79C44.96 93.79 43.51 93.79 42.05 93.79Z" fill="#020202"/>
<path d="M19.42 92.45C19.42 91.77 19.73 91.5 20.48 91.5C21.05 91.5 21.44 91.89 21.44 92.46C21.44 93 20.93 93.52 20.41 93.51C19.85 93.49 19.41 93.02 19.41 92.45H19.42Z" fill="#060606"/>
<path d="M24.42 93.43C23.85 93.43 23.47 93.04 23.46 92.46C23.46 91.84 23.83 91.49 24.48 91.49C25.16 91.49 25.49 91.83 25.49 92.51C25.49 93.04 25.04 93.42 24.42 93.42V93.43Z" fill="#060606"/>
<path d="M29.52 92.44C29.51 93.12 29.15 93.44 28.42 93.43C27.94 93.43 27.48 92.91 27.5 92.4C27.52 91.84 27.97 91.4799 28.62 91.4899C29.22 91.4999 29.53 91.82 29.52 92.44Z" fill="#060606"/>
<path d="M110.46 101.68C110.46 102.1 110.46 102.52 110.45 102.94C110.45 103.34 110.2 103.6 109.8 103.61C108.19 103.61 106.58 103.61 104.97 103.61C104.63 103.61 104.33 103.26 104.32 102.88C104.31 102.48 104.32 102.07 104.32 101.61C103.88 101.61 103.47 101.6 103.05 101.61C101.75 101.66 100.61 100.67 100.32 99.38C100.27 99.16 100.32 98.92 100.32 98.69C100.32 81.68 100.32 64.67 100.32 47.65C100.32 46.41 100.8 45.5 101.93 45.01C102.35 44.83 102.84 44.76 103.3 44.76C112.96 44.75 122.61 44.75 132.27 44.75C134.61 44.75 136.95 44.75 139.29 44.75C141.16 44.75 142.29 45.85 142.29 47.72C142.29 61.96 142.29 76.2 142.29 90.43C142.29 93.18 142.31 95.92 142.29 98.67C142.27 100.04 141.71 100.95 140.41 101.46C140.16 101.56 139.88 101.59 139.6 101.6C139.16 101.62 138.71 101.6 138.21 101.6C138.21 102.02 138.21 102.41 138.21 102.79C138.21 103.32 137.91 103.61 137.39 103.61C135.9 103.61 134.42 103.61 132.93 103.61C132.38 103.61 132.09 103.32 132.08 102.77C132.08 102.39 132.08 102.02 132.08 101.61C131.95 101.6 131.84 101.58 131.74 101.58C124.75 101.58 117.75 101.58 110.76 101.58C110.69 101.58 110.62 101.59 110.55 101.6C110.53 101.63 110.5 101.65 110.48 101.68H110.46ZM138.19 49.71C138.19 49.63 138.19 49.54 138.19 49.46C138.04 48.96 137.85 48.81 137.32 48.81C126.64 48.81 115.96 48.81 105.29 48.81C104.56 48.81 104.39 48.98 104.39 49.73C104.39 52.46 104.39 55.2 104.39 57.93C104.39 58.83 104.51 58.95 105.39 58.95C116 58.95 126.61 58.95 137.21 58.95C137.29 58.95 137.38 58.95 137.46 58.95C137.9 58.93 138.19 58.65 138.19 58.21C138.19 55.38 138.19 52.55 138.18 49.72L138.19 49.71ZM138.19 62.25C138.19 62.25 138.15 62.19 138.13 62.16C137.96 61.78 137.67 61.66 137.26 61.66C128.47 61.66 119.69 61.66 110.9 61.66C109.02 61.66 107.14 61.66 105.27 61.66C104.58 61.66 104.39 61.85 104.39 62.52C104.39 65.34 104.39 68.15 104.39 70.97C104.39 71.63 104.58 71.81 105.24 71.81C115.86 71.81 126.49 71.81 137.11 71.81C137.22 71.81 137.33 71.81 137.45 71.81C137.9 71.79 138.21 71.49 138.21 71.04C138.21 68.11 138.21 65.18 138.21 62.25H138.19ZM121.33 84.67C126.64 84.67 131.95 84.67 137.26 84.67C137.95 84.67 138.19 84.43 138.19 83.74C138.19 81.01 138.19 78.27 138.19 75.54C138.19 74.76 137.95 74.52 137.17 74.52C126.59 74.52 116.01 74.52 105.43 74.52C105.26 74.52 105.09 74.5 104.93 74.54C104.61 74.61 104.38 74.77 104.38 75.16C104.38 78.12 104.38 81.07 104.38 84.03C104.38 84.36 104.56 84.55 104.85 84.62C105.02 84.66 105.21 84.67 105.39 84.67C110.7 84.67 116.01 84.67 121.32 84.67H121.33ZM121.24 97.51C126.58 97.51 131.92 97.51 137.25 97.51C137.96 97.51 138.19 97.28 138.19 96.56C138.19 93.86 138.19 91.15 138.19 88.45C138.19 87.56 138.01 87.39 137.11 87.39C126.55 87.39 115.98 87.39 105.42 87.39C105.31 87.39 105.2 87.39 105.08 87.39C104.61 87.41 104.37 87.64 104.37 88.12C104.37 91.02 104.37 93.92 104.37 96.82C104.37 96.95 104.42 97.09 104.47 97.21C104.63 97.61 104.99 97.52 105.3 97.52C110.61 97.52 115.92 97.52 121.23 97.52L121.24 97.51Z" fill="#020202"/>
<path d="M110.46 101.68C110.46 101.68 110.51 101.63 110.53 101.6C110.51 101.63 110.48 101.65 110.46 101.68Z" fill="#E8E8E8"/>
<path d="M138.19 62.24C138.19 62.24 138.15 62.18 138.13 62.15C138.15 62.18 138.17 62.21 138.19 62.24Z" fill="#383838"/>
<path d="M129.76 78.22C131.16 78.22 132.56 78.22 133.96 78.22C134.54 78.22 134.83 78.51 134.83 79.08C134.83 79.4 134.83 79.72 134.83 80.05C134.83 80.67 134.57 80.94 133.94 80.94C132.32 80.94 130.69 80.94 129.06 80.94C127.88 80.94 126.71 80.92 125.53 80.94C124.99 80.95 124.56 80.65 124.64 80.02C124.68 79.67 124.64 79.32 124.64 78.97C124.64 78.46 124.89 78.21 125.41 78.21C126.85 78.21 128.3 78.21 129.74 78.21L129.76 78.22Z" fill="#020202"/>
<path d="M108.08 78.63C108.71 78.63 109.1 78.98 109.09 79.58C109.09 80.23 108.58 80.62 108.03 80.63C107.58 80.65 107.02 80.15 107.05 79.58C107.09 78.94 107.39 78.62 108.07 78.62L108.08 78.63Z" fill="#060606"/>
<path d="M117.17 79.63C117.17 80.15 116.66 80.67 116.18 80.66C115.65 80.64 115.14 80.11 115.15 79.56C115.15 79.02 115.59 78.63 116.2 78.64C116.89 78.64 117.18 78.93 117.17 79.63Z" fill="#060606"/>
<path d="M113.14 79.61C113.14 80.13 112.64 80.67 112.17 80.64C111.49 80.6 111.12 80.11 111.12 79.58C111.12 78.94 111.52 78.62 112.25 78.63C112.77 78.63 113.15 79.06 113.14 79.61Z" fill="#060606"/>
<path d="M129.74 68.08C128.34 68.08 126.94 68.08 125.54 68.08C124.85 68.08 124.66 67.87 124.66 67.18C124.66 66.83 124.66 66.48 124.66 66.13C124.66 65.63 124.88 65.39 125.39 65.37C125.94 65.35 126.48 65.37 127.03 65.37C129.31 65.37 131.6 65.37 133.88 65.37C134.57 65.37 134.83 65.63 134.83 66.33C134.83 66.64 134.83 66.95 134.83 67.25C134.82 67.83 134.56 68.09 133.98 68.09C132.56 68.09 131.15 68.09 129.73 68.09L129.74 68.08Z" fill="#020202"/>
<path d="M107.08 66.73C107.08 66.12 107.44 65.77 108.08 65.77C108.68 65.77 109.1 66.16 109.11 66.73C109.11 67.27 108.61 67.79 108.09 67.79C107.56 67.79 107.09 67.29 107.08 66.73Z" fill="#060606"/>
<path d="M112.15 65.76C112.76 65.76 113.13 66.12 113.13 66.74C113.13 67.34 112.75 67.7 112.09 67.7C111.49 67.7 111.11 67.34 111.11 66.77C111.11 66.12 111.48 65.76 112.15 65.76Z" fill="#060606"/>
<path d="M116.18 65.77C116.8 65.77 117.14 66.11 117.18 66.69C117.22 67.42 116.7 67.73 116.04 67.78C115.64 67.81 115.16 67.21 115.15 66.72C115.15 66.17 115.57 65.77 116.18 65.77Z" fill="#060606"/>
<path d="M129.77 55.23C128.38 55.23 127 55.23 125.61 55.23C124.82 55.23 124.65 55.06 124.65 54.27C124.65 53.92 124.65 53.57 124.65 53.22C124.65 52.83 124.88 52.57 125.27 52.52C125.42 52.5 125.58 52.5 125.73 52.5C128.43 52.5 131.14 52.5 133.84 52.5C134.58 52.5 134.82 52.74 134.82 53.46C134.82 53.77 134.82 54.08 134.82 54.38C134.81 54.95 134.53 55.21 133.96 55.22C132.56 55.22 131.16 55.22 129.76 55.22L129.77 55.23Z" fill="#020202"/>
<path d="M112.13 52.9C112.73 52.9 113.14 53.3 113.13 53.88C113.13 54.44 112.64 54.93 112.11 54.92C111.57 54.91 111.11 54.42 111.11 53.85C111.11 53.27 111.51 52.9 112.13 52.9Z" fill="#060606"/>
<path d="M107.07 53.85C107.07 53.26 107.45 52.9 108.08 52.9C108.67 52.9 109.09 53.3 109.09 53.86C109.09 54.44 108.61 54.87 108.08 54.91C107.6 54.95 106.98 54.41 107.06 53.84L107.07 53.85Z" fill="#060606"/>
<path d="M117.17 53.88C117.17 54.51 116.75 54.9 116.06 54.92C115.66 54.93 115.15 54.38 115.15 53.93C115.15 53.4 115.49 52.88 116.19 52.9C116.82 52.92 117.16 53.25 117.17 53.88Z" fill="#060606"/>
<path d="M129.7 93.79C128.3 93.79 126.9 93.79 125.5 93.79C124.87 93.79 124.65 93.56 124.65 92.94C124.65 92.55 124.65 92.16 124.65 91.76C124.65 91.34 124.9 91.08 125.32 91.08C128.25 91.08 131.17 91.08 134.1 91.08C134.51 91.08 134.82 91.42 134.83 91.84C134.83 92.23 134.83 92.62 134.83 93.02C134.83 93.53 134.58 93.79 134.07 93.79C132.61 93.79 131.16 93.79 129.7 93.79Z" fill="#020202"/>
<path d="M107.08 92.45C107.08 91.77 107.39 91.5 108.14 91.5C108.71 91.5 109.1 91.89 109.1 92.46C109.1 93 108.59 93.52 108.07 93.51C107.51 93.49 107.07 93.02 107.07 92.45H107.08Z" fill="#060606"/>
<path d="M112.07 93.43C111.5 93.43 111.12 93.04 111.11 92.46C111.11 91.84 111.48 91.49 112.13 91.49C112.81 91.49 113.14 91.83 113.14 92.51C113.14 93.04 112.69 93.42 112.07 93.42V93.43Z" fill="#060606"/>
<path d="M117.17 92.44C117.16 93.12 116.8 93.44 116.07 93.43C115.59 93.43 115.13 92.91 115.15 92.4C115.17 91.84 115.62 91.4799 116.27 91.4899C116.87 91.4999 117.18 91.82 117.17 92.44Z" fill="#060606"/>
<path d="M66.11 81.41C66.11 81.83 66.11 82.25 66.1 82.67C66.1 83.07 65.85 83.33 65.45 83.34C63.84 83.34 62.23 83.34 60.62 83.34C60.28 83.34 59.98 82.99 59.97 82.61C59.96 82.21 59.97 81.8 59.97 81.34C59.53 81.34 59.12 81.33 58.7 81.34C57.4 81.39 56.26 80.4 55.97 79.11C55.92 78.89 55.97 78.65 55.97 78.42C55.97 61.41 55.97 44.4 55.97 27.38C55.97 26.14 56.45 25.23 57.58 24.74C58 24.56 58.49 24.49 58.95 24.49C68.61 24.48 78.26 24.48 87.92 24.48C90.26 24.48 92.6 24.48 94.94 24.48C96.81 24.48 97.94 25.58 97.94 27.45C97.94 41.69 97.94 55.93 97.94 70.16C97.94 72.91 97.96 75.65 97.94 78.4C97.92 79.77 97.36 80.68 96.06 81.19C95.81 81.29 95.53 81.32 95.25 81.33C94.81 81.35 94.36 81.33 93.86 81.33C93.86 81.75 93.86 82.14 93.86 82.52C93.86 83.05 93.56 83.34 93.04 83.34C91.55 83.34 90.07 83.34 88.58 83.34C88.03 83.34 87.74 83.05 87.73 82.5C87.73 82.12 87.73 81.75 87.73 81.34C87.6 81.33 87.49 81.31 87.39 81.31C80.4 81.31 73.4 81.31 66.41 81.31C66.34 81.31 66.27 81.32 66.2 81.33C66.18 81.36 66.15 81.38 66.13 81.41H66.11ZM93.84 29.44C93.84 29.36 93.84 29.27 93.84 29.19C93.69 28.69 93.5 28.54 92.97 28.54C82.29 28.54 71.61 28.54 60.94 28.54C60.21 28.54 60.04 28.71 60.04 29.46C60.04 32.19 60.04 34.93 60.04 37.66C60.04 38.56 60.16 38.68 61.04 38.68C71.65 38.68 82.26 38.68 92.86 38.68C92.94 38.68 93.03 38.68 93.11 38.68C93.55 38.66 93.84 38.38 93.84 37.94C93.84 35.11 93.84 32.28 93.83 29.45L93.84 29.44ZM93.84 41.98C93.84 41.98 93.8 41.92 93.78 41.89C93.61 41.51 93.32 41.39 92.91 41.39C84.12 41.39 75.34 41.39 66.55 41.39C64.67 41.39 62.79 41.39 60.92 41.39C60.23 41.39 60.04 41.58 60.04 42.25C60.04 45.07 60.04 47.88 60.04 50.7C60.04 51.36 60.23 51.54 60.89 51.54C71.51 51.54 82.14 51.54 92.76 51.54C92.87 51.54 92.98 51.54 93.1 51.54C93.55 51.52 93.86 51.22 93.86 50.77C93.86 47.84 93.86 44.91 93.86 41.98H93.84ZM76.98 64.4C82.29 64.4 87.6 64.4 92.91 64.4C93.6 64.4 93.84 64.16 93.84 63.47C93.84 60.74 93.84 58 93.84 55.27C93.84 54.49 93.6 54.25 92.82 54.25C82.24 54.25 71.66 54.25 61.08 54.25C60.91 54.25 60.74 54.23 60.58 54.27C60.26 54.34 60.03 54.5 60.03 54.89C60.03 57.85 60.03 60.8 60.03 63.76C60.03 64.09 60.21 64.28 60.5 64.35C60.67 64.39 60.86 64.4 61.04 64.4C66.35 64.4 71.66 64.4 76.97 64.4H76.98ZM76.89 77.24C82.23 77.24 87.57 77.24 92.9 77.24C93.61 77.24 93.84 77.01 93.84 76.29C93.84 73.59 93.84 70.88 93.84 68.18C93.84 67.29 93.66 67.12 92.76 67.12C82.2 67.12 71.63 67.12 61.07 67.12C60.96 67.12 60.85 67.12 60.73 67.12C60.26 67.14 60.02 67.37 60.02 67.85C60.02 70.75 60.02 73.65 60.02 76.55C60.02 76.68 60.07 76.82 60.12 76.94C60.28 77.34 60.64 77.25 60.95 77.25C66.26 77.25 71.57 77.25 76.88 77.25L76.89 77.24Z" fill="#020202"/>
<path d="M66.11 81.41C66.11 81.41 66.16 81.36 66.18 81.33C66.16 81.36 66.13 81.38 66.11 81.41Z" fill="#E8E8E8"/>
<path d="M93.85 41.98C93.85 41.98 93.81 41.92 93.79 41.89C93.81 41.92 93.83 41.95 93.85 41.98Z" fill="#383838"/>
<path d="M85.41 57.9599C86.81 57.9599 88.21 57.9599 89.61 57.9599C90.19 57.9599 90.48 58.25 90.48 58.82C90.48 59.14 90.48 59.46 90.48 59.79C90.48 60.41 90.22 60.68 89.59 60.68C87.97 60.68 86.34 60.68 84.71 60.68C83.53 60.68 82.36 60.66 81.18 60.68C80.64 60.69 80.21 60.3899 80.29 59.7599C80.33 59.4099 80.29 59.0599 80.29 58.7099C80.29 58.1999 80.54 57.95 81.06 57.95C82.5 57.95 83.95 57.95 85.39 57.95L85.41 57.9599Z" fill="#020202"/>
<path d="M63.74 58.37C64.37 58.37 64.76 58.72 64.75 59.32C64.75 59.97 64.24 60.36 63.69 60.37C63.24 60.39 62.68 59.89 62.71 59.32C62.75 58.68 63.05 58.36 63.73 58.36L63.74 58.37Z" fill="#060606"/>
<path d="M72.83 59.3599C72.83 59.8799 72.32 60.3999 71.84 60.3899C71.31 60.3699 70.8 59.8399 70.81 59.2899C70.81 58.7499 71.25 58.3599 71.86 58.3699C72.55 58.3699 72.84 58.6599 72.83 59.3599Z" fill="#060606"/>
<path d="M68.79 59.35C68.79 59.87 68.29 60.41 67.82 60.38C67.14 60.34 66.77 59.85 66.77 59.32C66.77 58.68 67.17 58.36 67.9 58.37C68.42 58.37 68.8 58.8 68.79 59.35Z" fill="#060606"/>
<path d="M85.39 47.82C83.99 47.82 82.59 47.82 81.19 47.82C80.5 47.82 80.31 47.61 80.31 46.92C80.31 46.57 80.31 46.22 80.31 45.87C80.31 45.37 80.53 45.13 81.04 45.11C81.59 45.09 82.13 45.11 82.68 45.11C84.96 45.11 87.25 45.11 89.53 45.11C90.22 45.11 90.48 45.37 90.48 46.07C90.48 46.38 90.48 46.69 90.48 46.99C90.47 47.57 90.21 47.83 89.63 47.83C88.21 47.83 86.8 47.83 85.38 47.83L85.39 47.82Z" fill="#020202"/>
<path d="M62.73 46.46C62.73 45.85 63.09 45.5 63.73 45.5C64.33 45.5 64.75 45.89 64.76 46.46C64.76 47 64.26 47.52 63.74 47.52C63.21 47.52 62.74 47.02 62.73 46.46Z" fill="#060606"/>
<path d="M67.81 45.5C68.42 45.5 68.79 45.86 68.79 46.48C68.79 47.08 68.41 47.44 67.75 47.44C67.15 47.44 66.77 47.08 66.77 46.51C66.77 45.86 67.14 45.5 67.81 45.5Z" fill="#060606"/>
<path d="M71.84 45.5C72.46 45.5 72.8 45.84 72.84 46.42C72.88 47.15 72.36 47.46 71.7 47.51C71.3 47.54 70.82 46.94 70.81 46.45C70.81 45.9 71.23 45.5 71.84 45.5Z" fill="#060606"/>
<path d="M85.43 34.97C84.04 34.97 82.66 34.97 81.27 34.97C80.48 34.97 80.31 34.8 80.31 34.01C80.31 33.66 80.31 33.31 80.31 32.96C80.31 32.57 80.54 32.31 80.93 32.26C81.08 32.24 81.24 32.24 81.39 32.24C84.09 32.24 86.8 32.24 89.5 32.24C90.24 32.24 90.48 32.48 90.48 33.2C90.48 33.51 90.48 33.82 90.48 34.12C90.47 34.69 90.19 34.95 89.62 34.96C88.22 34.96 86.82 34.96 85.42 34.96L85.43 34.97Z" fill="#020202"/>
<path d="M67.79 32.64C68.39 32.64 68.8 33.04 68.79 33.62C68.79 34.18 68.3 34.67 67.77 34.66C67.23 34.65 66.77 34.16 66.77 33.59C66.77 33.01 67.17 32.64 67.79 32.64Z" fill="#060606"/>
<path d="M62.73 33.58C62.73 32.99 63.11 32.63 63.74 32.63C64.33 32.63 64.75 33.03 64.75 33.59C64.75 34.17 64.27 34.6 63.74 34.64C63.26 34.68 62.64 34.14 62.72 33.57L62.73 33.58Z" fill="#060606"/>
<path d="M72.83 33.61C72.83 34.24 72.41 34.63 71.72 34.65C71.32 34.66 70.81 34.11 70.81 33.66C70.81 33.13 71.15 32.61 71.85 32.63C72.48 32.65 72.82 32.98 72.83 33.61Z" fill="#060606"/>
<path d="M85.36 73.5299C83.96 73.5299 82.56 73.5299 81.16 73.5299C80.53 73.5299 80.31 73.2999 80.31 72.6799C80.31 72.2899 80.31 71.8999 80.31 71.4999C80.31 71.0799 80.56 70.8199 80.98 70.8199C83.91 70.8199 86.83 70.8199 89.76 70.8199C90.17 70.8199 90.48 71.1599 90.49 71.5799C90.49 71.9699 90.49 72.3599 90.49 72.7599C90.49 73.2699 90.24 73.5299 89.73 73.5299C88.27 73.5299 86.82 73.5299 85.36 73.5299Z" fill="#020202"/>
<path d="M62.73 72.19C62.73 71.51 63.04 71.24 63.79 71.24C64.36 71.24 64.75 71.63 64.75 72.2C64.75 72.74 64.24 73.26 63.72 73.25C63.16 73.23 62.72 72.76 62.72 72.19H62.73Z" fill="#060606"/>
<path d="M67.73 73.17C67.16 73.17 66.78 72.78 66.77 72.2C66.77 71.58 67.14 71.23 67.79 71.23C68.47 71.23 68.8 71.57 68.8 72.25C68.8 72.78 68.35 73.16 67.73 73.16V73.17Z" fill="#060606"/>
<path d="M72.83 72.1799C72.82 72.8599 72.46 73.1799 71.73 73.1699C71.25 73.1699 70.79 72.6499 70.81 72.1399C70.83 71.5799 71.28 71.2199 71.93 71.2299C72.53 71.2399 72.84 71.5599 72.83 72.1799Z" fill="#060606"/>
</g>
<defs>
<clipPath id="clip0_404_1287">
<rect width="153.24" height="128.5" fill="white"/>
</clipPath>
</defs>
</svg>
